<?xml version="1.0" encoding="utf-8"?>
<!-- Generator: Adobe Illustrator 15.1.0, SVG Export Plug-In . SVG Version: 6.00 Build 0)  -->
<!DOCTYPE svg PUBLIC "-//W3C//DTD SVG 1.1//EN" "http://www.w3.org/Graphics/SVG/1.1/DTD/svg11.dtd">
<svg version="1.1"
	 id="base" xmlns:dc="http://purl.org/dc/elements/1.1/" xmlns:cc="http://web.resource.org/cc/" xmlns:rdf="http://www.w3.org/1999/02/22-rdf-syntax-ns#" xmlns:svg="http://www.w3.org/2000/svg" xmlns:sodipodi="http://sodipodi.sourceforge.net/DTD/sodipodi-0.dtd" xmlns:inkscape="http://www.inkscape.org/namespaces/inkscape" sodipodi:version="0.32" inkscape:version="0.45.1" sodipodi:docbase="/home/coder/Grafika/Digits" sodipodi:docname="train_digits.svg" inkscape:output_extension="org.inkscape.output.svg.inkscape"
	 xmlns="http://www.w3.org/2000/svg" xmlns:xlink="http://www.w3.org/1999/xlink" x="0px" y="0px" width="285.941px" height="41px"
	 viewBox="0 0 285.941 41" enable-background="new 0 0 285.941 41" xml:space="preserve">
<g id="d9_1_">
	<g id="XMLID_4_">
		<g>
			<polygon fill="#FF0000" points="12.984,1.949 16.824,22.528 21.244,18.819 19.033,30.958 22.824,30.519 16.184,39.05 
				8.344,39.05 3.144,30.079 7.465,30.958 3.675,18.819 9.744,22.528 			"/>
		</g>
	</g>
	<g id="cirledRed_2_">
		<g id="XMLID_3_">
			<g>
				<polygon fill="#FF7F00" points="12.984,16.737 15.063,27.874 17.456,25.866 16.259,32.437 18.309,32.196 14.716,36.813 
					10.473,36.813 7.659,31.96 9.998,32.437 7.946,25.866 11.231,27.874 				"/>
			</g>
		</g>
	</g>
</g>
<g id="d1">
	<g id="XMLID_2_">
		<g>
			<polygon fill="#FF0000" points="40.734,1.949 44.574,22.528 48.994,18.819 46.783,30.958 50.574,30.519 43.934,39.05 
				36.094,39.05 30.894,30.079 35.215,30.958 31.425,18.819 37.494,22.528 			"/>
		</g>
	</g>
</g>
<g id="d0">
	<g id="d9_2_">
		<g id="XMLID_5_">
			<g>
				<polygon fill="#FF0000" points="65.192,2.263 69.032,22.842 73.452,19.133 71.241,31.271 75.032,30.832 68.392,39.363 
					60.552,39.363 55.352,30.393 59.673,31.271 55.883,19.133 61.952,22.842 				"/>
			</g>
		</g>
		<g id="cirledRed_1_">
			<g id="XMLID_1_">
				<g>
					<polygon fill="#FF7F00" points="65.192,17.051 67.271,28.188 69.664,26.18 68.467,32.75 70.517,32.51 66.924,37.127 
						62.681,37.127 59.867,32.273 62.206,32.75 60.154,26.18 63.439,28.188 					"/>
				</g>
			</g>
		</g>
	</g>
</g>
</svg>
