<?xml version="1.0" encoding="utf-8"?>
<!-- Generator: Adobe Illustrator 14.0.0, SVG Export Plug-In . SVG Version: 6.00 Build 43363)  -->
<!DOCTYPE svg PUBLIC "-//W3C//DTD SVG 1.1//EN" "http://www.w3.org/Graphics/SVG/1.1/DTD/svg11.dtd" [
	<!ENTITY ns_extend "http://ns.adobe.com/Extensibility/1.0/">
	<!ENTITY ns_ai "http://ns.adobe.com/AdobeIllustrator/10.0/">
	<!ENTITY ns_graphs "http://ns.adobe.com/Graphs/1.0/">
	<!ENTITY ns_vars "http://ns.adobe.com/Variables/1.0/">
	<!ENTITY ns_imrep "http://ns.adobe.com/ImageReplacement/1.0/">
	<!ENTITY ns_sfw "http://ns.adobe.com/SaveForWeb/1.0/">
	<!ENTITY ns_custom "http://ns.adobe.com/GenericCustomNamespace/1.0/">
	<!ENTITY ns_adobe_xpath "http://ns.adobe.com/XPath/1.0/">
]>
<svg version="1.1"
	 id="svg9493" xmlns:x="&ns_extend;" xmlns:i="&ns_ai;" xmlns:graph="&ns_graphs;" xmlns:svg="http://www.w3.org/2000/svg" sodipodi:version="0.32" inkscape:export-xdpi="90.000000" inkscape:export-ydpi="90.000000" inkscape:version="0.42" sodipodi:docbase="/datas/Projs/Cliparts Stocker/led" sodipodi:docname="led_circle_blue.svg" inkscape:export-filename="/datas/Projs/Cliparts Stocker/led/led_circle_blue.png" xmlns:inkscape="http://www.inkscape.org/namespaces/inkscape" xmlns:sodipodi="http://inkscape.sourceforge.net/DTD/sodipodi-0.dtd" xmlns:rdf="http://www.w3.org/1999/02/22-rdf-syntax-ns#" xmlns:dc="http://purl.org/dc/elements/1.1/" xmlns:cc="http://web.resource.org/cc/"
	 xmlns="http://www.w3.org/2000/svg" xmlns:xlink="http://www.w3.org/1999/xlink" x="0px" y="0px" width="50px" height="50px"
	 viewBox="0 0 50 50" enable-background="new 0 0 50 50" xml:space="preserve">
<metadata>
	
		<rdf:RDF  xmlns:rdf="http://www.w3.org/1999/02/22-rdf-syntax-ns#" xmlns:dc="http://purl.org/dc/elements/1.1/" xmlns:cc="http://web.resource.org/cc/">
		<cc:Work  rdf:about="">
			<dc:title>LED Circle (Blue)</dc:title>
			<dc:description>jean.victor.balin@gmail.com</dc:description>
			<dc:subject>
				<rdf:Bag>
					<rdf:li>led</rdf:li>
					<rdf:li>shape</rdf:li>
				</rdf:Bag>
			</dc:subject>
			<dc:publisher>
				<cc:Agent  rdf:about="http://www.openclipart.org/">
					<dc:title>Open Clip Art Library</dc:title>
				</cc:Agent>
			</dc:publisher>
			<dc:creator>
				<cc:Agent>
					<dc:title>Jean-Victor Balin</dc:title>
				</cc:Agent>
			</dc:creator>
			<dc:rights>
				<cc:Agent>
					<dc:title>Jean-Victor Balin</dc:title>
				</cc:Agent>
			</dc:rights>
			<dc:date>2005-08-21</dc:date>
			<dc:format>image/svg+xml</dc:format>
			<dc:type  rdf:resource="http://purl.org/dc/dcmitype/StillImage"></dc:type>
			<cc:license  rdf:resource="http://web.resource.org/cc/PublicDomain"></cc:license>
			<dc:language>en</dc:language>
		</cc:Work>
		<cc:License  rdf:about="http://web.resource.org/cc/PublicDomain">
			<cc:permits  rdf:resource="http://web.resource.org/cc/Reproduction"></cc:permits>
			<cc:permits  rdf:resource="http://web.resource.org/cc/Distribution"></cc:permits>
			<cc:permits  rdf:resource="http://web.resource.org/cc/DerivativeWorks"></cc:permits>
		</cc:License>
	</rdf:RDF>
	<sfw  xmlns="&ns_sfw;">
		<slices></slices>
		<sliceSourceBounds  x="541.361" y="-36.764" width="242.682" height="103.357" bottomLeftOrigin="true"></sliceSourceBounds>
	</sfw>
</metadata>
<g id="valvulas">
	<g id="valele2Red">
		<g>
			<polygon fill="#FF0000" points="3.56,13.55 24.95,25.94 3.56,38.33 			"/>
			<polygon fill="#FF0000" points="46.33,38.33 24.95,25.94 46.33,13.55 			"/>
		</g>
		<g>
			<line fill="none" stroke="#000000" stroke-linecap="round" x1="3.56" y1="38.33" x2="3.56" y2="13.55"/>
			<polyline fill="none" stroke="#000000" stroke-linecap="round" points="3.56,13.55 24.95,25.94 46.33,38.33 			"/>
			<line fill="none" stroke="#000000" stroke-linecap="round" x1="46.33" y1="38.33" x2="46.33" y2="13.55"/>
			<polyline fill="none" stroke="#000000" stroke-linecap="round" points="46.33,13.55 24.95,25.94 3.56,38.33 			"/>
			<line fill="none" stroke="#000000" stroke-width="4" stroke-linecap="round" x1="46.16" y1="2.93" x2="24.92" y2="2.93"/>
			<line fill="none" stroke="#000000" stroke-width="4" stroke-linecap="round" x1="24.83" y1="2.93" x2="24.83" y2="24.17"/>
		</g>
	</g>
	<g id="valele2Green">
		<g>
			<polygon fill="#00FF00" points="74.39,25.936 52.999,38.325 52.999,13.545 			"/>
			<polygon fill="#00FF00" points="74.39,25.936 95.77,13.545 95.77,38.325 			"/>
		</g>
		<g>
			<line fill="none" stroke="#000000" stroke-linecap="round" x1="52.999" y1="38.325" x2="52.999" y2="13.545"/>
			<polyline fill="none" stroke="#000000" stroke-linecap="round" points="52.999,13.545 74.39,25.936 95.77,38.325 			"/>
			<line fill="none" stroke="#000000" stroke-linecap="round" x1="95.77" y1="38.325" x2="95.77" y2="13.545"/>
			<polyline fill="none" stroke="#000000" stroke-linecap="round" points="95.77,13.545 74.39,25.936 52.999,38.325 			"/>
			<line fill="none" stroke="#000000" stroke-width="4" stroke-linecap="round" x1="95.6" y1="2.926" x2="74.36" y2="2.926"/>
			<line fill="none" stroke="#000000" stroke-width="4" stroke-linecap="round" x1="74.27" y1="2.926" x2="74.27" y2="24.166"/>
		</g>
	</g>
	<g id="valele2Blue">
		<g>
			<polygon fill="#0000FF" points="123.741,25.936 102.351,38.325 102.351,13.545 			"/>
			<polygon fill="#0000FF" points="145.121,38.325 123.741,25.936 145.121,13.545 			"/>
		</g>
		<g>
			<line fill="none" stroke="#000000" stroke-linecap="round" x1="102.351" y1="38.325" x2="102.351" y2="13.545"/>
			<polyline fill="none" stroke="#000000" stroke-linecap="round" points="102.351,13.545 123.741,25.936 145.121,38.325 			"/>
			<line fill="none" stroke="#000000" stroke-linecap="round" x1="145.121" y1="38.325" x2="145.121" y2="13.545"/>
			<polyline fill="none" stroke="#000000" stroke-linecap="round" points="145.121,13.545 123.741,25.936 102.351,38.325 			"/>
			<line fill="none" stroke="#000000" stroke-width="4" stroke-linecap="round" x1="144.951" y1="2.926" x2="123.711" y2="2.926"/>
			<line fill="none" stroke="#000000" stroke-width="4" stroke-linecap="round" x1="123.621" y1="2.926" x2="123.621" y2="24.166"/>
		</g>
	</g>
	<g id="valele2White">
		<g>
			<polygon fill="#FFFFFF" points="148.39,13.545 169.781,25.936 148.39,38.325 			"/>
			<polygon fill="#FFFFFF" points="191.16,38.325 169.781,25.936 191.16,13.545 			"/>
		</g>
		<g>
			<line fill="none" stroke="#000000" stroke-linecap="round" x1="148.39" y1="38.325" x2="148.39" y2="13.545"/>
			<polyline fill="none" stroke="#000000" stroke-linecap="round" points="148.39,13.545 169.781,25.936 191.16,38.325 			"/>
			<line fill="none" stroke="#000000" stroke-linecap="round" x1="191.16" y1="38.325" x2="191.16" y2="13.545"/>
			<polyline fill="none" stroke="#000000" stroke-linecap="round" points="191.16,13.545 169.781,25.936 148.39,38.325 			"/>
			<line fill="none" stroke="#000000" stroke-width="4" stroke-linecap="round" x1="190.99" y1="2.926" x2="169.75" y2="2.926"/>
			<line fill="none" stroke="#000000" stroke-width="4" stroke-linecap="round" x1="169.66" y1="2.926" x2="169.66" y2="24.166"/>
		</g>
	</g>
	<g id="valele2Grey">
		<g>
			<polygon fill="#848484" points="218.904,25.936 197.513,38.325 197.513,13.545 			"/>
			<polygon fill="#848484" points="218.904,25.936 240.283,13.545 240.283,38.325 			"/>
		</g>
		<g>
			<line fill="none" stroke="#000000" stroke-linecap="round" x1="197.513" y1="38.325" x2="197.513" y2="13.545"/>
			<polyline fill="none" stroke="#000000" stroke-linecap="round" points="197.513,13.545 218.904,25.936 240.283,38.325 			"/>
			<line fill="none" stroke="#000000" stroke-linecap="round" x1="240.283" y1="38.325" x2="240.283" y2="13.545"/>
			<polyline fill="none" stroke="#000000" stroke-linecap="round" points="240.283,13.545 218.904,25.936 197.513,38.325 			"/>
			<line fill="none" stroke="#000000" stroke-width="4" stroke-linecap="round" x1="240.114" y1="2.926" x2="218.873" y2="2.926"/>
			<line fill="none" stroke="#000000" stroke-width="4" stroke-linecap="round" x1="218.783" y1="2.926" x2="218.783" y2="24.166"/>
		</g>
	</g>
	<g id="valele2Black">
		<g>
			<polygon fill="#020202" points="218.904,91.393 240.283,79.003 240.283,103.783 			"/>
			<polygon fill="#020202" points="197.513,79.003 218.904,91.393 197.513,103.783 			"/>
		</g>
		<g>
			<line fill="none" stroke="#000000" stroke-linecap="round" x1="197.513" y1="103.783" x2="197.513" y2="79.003"/>
			<polyline fill="none" stroke="#000000" stroke-linecap="round" points="197.513,79.003 218.904,91.393 240.283,103.783 			"/>
			<line fill="none" stroke="#000000" stroke-linecap="round" x1="240.283" y1="103.783" x2="240.283" y2="79.003"/>
			<polyline fill="none" stroke="#000000" stroke-linecap="round" points="240.283,79.003 218.904,91.393 197.513,103.783 			"/>
			
				<line fill="none" stroke="#000000" stroke-width="4" stroke-linecap="round" x1="240.114" y1="68.383" x2="218.873" y2="68.383"/>
			
				<line fill="none" stroke="#000000" stroke-width="4" stroke-linecap="round" x1="218.783" y1="68.383" x2="218.783" y2="89.623"/>
		</g>
	</g>
	<g id="valele2Orange">
		<g>
			<polygon fill="#FF7D03" points="148.114,79.003 169.504,91.393 148.114,103.783 			"/>
			<polygon fill="#FF7D03" points="190.884,103.783 169.504,91.393 190.884,79.003 			"/>
		</g>
		<g>
			<line fill="none" stroke="#000000" stroke-linecap="round" x1="148.114" y1="103.783" x2="148.114" y2="79.003"/>
			<polyline fill="none" stroke="#000000" stroke-linecap="round" points="148.114,79.003 169.504,91.393 190.884,103.783 			"/>
			<line fill="none" stroke="#000000" stroke-linecap="round" x1="190.884" y1="103.783" x2="190.884" y2="79.003"/>
			<polyline fill="none" stroke="#000000" stroke-linecap="round" points="190.884,79.003 169.504,91.393 148.114,103.783 			"/>
			
				<line fill="none" stroke="#000000" stroke-width="4" stroke-linecap="round" x1="190.714" y1="68.383" x2="169.474" y2="68.383"/>
			
				<line fill="none" stroke="#000000" stroke-width="4" stroke-linecap="round" x1="169.384" y1="68.383" x2="169.384" y2="89.623"/>
		</g>
	</g>
	<g id="valele2Brown">
		<g>
			<polygon fill="#724806" points="99.834,79.003 121.225,91.393 99.834,103.783 			"/>
			<polygon fill="#724806" points="142.605,103.783 121.225,91.393 142.605,79.003 			"/>
		</g>
		<g>
			<line fill="none" stroke="#000000" stroke-linecap="round" x1="99.834" y1="103.783" x2="99.834" y2="79.003"/>
			<polyline fill="none" stroke="#000000" stroke-linecap="round" points="99.834,79.003 121.225,91.393 142.605,103.783 			"/>
			<line fill="none" stroke="#000000" stroke-linecap="round" x1="142.605" y1="103.783" x2="142.605" y2="79.003"/>
			<polyline fill="none" stroke="#000000" stroke-linecap="round" points="142.605,79.003 121.225,91.393 99.834,103.783 			"/>
			
				<line fill="none" stroke="#000000" stroke-width="4" stroke-linecap="round" x1="142.435" y1="68.383" x2="121.195" y2="68.383"/>
			
				<line fill="none" stroke="#000000" stroke-width="4" stroke-linecap="round" x1="121.105" y1="68.383" x2="121.105" y2="89.623"/>
		</g>
	</g>
	<g id="valele2Purple">
		<g>
			<polygon fill="#FF00FF" points="92.138,103.783 70.758,91.393 92.138,79.003 			"/>
			<polygon fill="#FF00FF" points="49.367,79.003 70.758,91.393 49.367,103.783 			"/>
		</g>
		<g>
			<line fill="none" stroke="#000000" stroke-linecap="round" x1="49.367" y1="103.783" x2="49.367" y2="79.003"/>
			<polyline fill="none" stroke="#000000" stroke-linecap="round" points="49.367,79.003 70.758,91.393 92.138,103.783 			"/>
			<line fill="none" stroke="#000000" stroke-linecap="round" x1="92.138" y1="103.783" x2="92.138" y2="79.003"/>
			<polyline fill="none" stroke="#000000" stroke-linecap="round" points="92.138,79.003 70.758,91.393 49.367,103.783 			"/>
			<line fill="none" stroke="#000000" stroke-width="4" stroke-linecap="round" x1="91.968" y1="68.383" x2="70.728" y2="68.383"/>
			<line fill="none" stroke="#000000" stroke-width="4" stroke-linecap="round" x1="70.638" y1="68.383" x2="70.638" y2="89.623"/>
		</g>
	</g>
	<g id="valele2Yellow">
		<g>
			<polygon fill="#FFFF00" points="21.322,91.393 42.701,79.003 42.701,103.783 			"/>
			<polygon fill="#FFFF00" points="21.322,91.393 -0.069,103.783 -0.069,79.003 			"/>
		</g>
		<g>
			<line fill="none" stroke="#000000" stroke-linecap="round" x1="-0.069" y1="103.783" x2="-0.069" y2="79.003"/>
			<polyline fill="none" stroke="#000000" stroke-linecap="round" points="-0.069,79.003 21.322,91.393 42.701,103.783 			"/>
			<line fill="none" stroke="#000000" stroke-linecap="round" x1="42.701" y1="103.783" x2="42.701" y2="79.003"/>
			<polyline fill="none" stroke="#000000" stroke-linecap="round" points="42.701,79.003 21.322,91.393 -0.069,103.783 			"/>
			<line fill="none" stroke="#000000" stroke-width="4" stroke-linecap="round" x1="42.531" y1="68.383" x2="21.291" y2="68.383"/>
			<line fill="none" stroke="#000000" stroke-width="4" stroke-linecap="round" x1="21.201" y1="68.383" x2="21.201" y2="89.623"/>
		</g>
	</g>
</g>
</svg>
