<?xml version="1.0" encoding="utf-8"?>
<!-- Generator: Adobe Illustrator 14.0.0, SVG Export Plug-In . SVG Version: 6.00 Build 43363)  -->
<!DOCTYPE svg PUBLIC "-//W3C//DTD SVG 1.1//EN" "http://www.w3.org/Graphics/SVG/1.1/DTD/svg11.dtd" [
	<!ENTITY ns_extend "http://ns.adobe.com/Extensibility/1.0/">
	<!ENTITY ns_ai "http://ns.adobe.com/AdobeIllustrator/10.0/">
	<!ENTITY ns_graphs "http://ns.adobe.com/Graphs/1.0/">
	<!ENTITY ns_vars "http://ns.adobe.com/Variables/1.0/">
	<!ENTITY ns_imrep "http://ns.adobe.com/ImageReplacement/1.0/">
	<!ENTITY ns_sfw "http://ns.adobe.com/SaveForWeb/1.0/">
	<!ENTITY ns_custom "http://ns.adobe.com/GenericCustomNamespace/1.0/">
	<!ENTITY ns_adobe_xpath "http://ns.adobe.com/XPath/1.0/">
]>
<svg version="1.1"
	 id="svg9493" xmlns:x="&ns_extend;" xmlns:i="&ns_ai;" xmlns:graph="&ns_graphs;" xmlns:svg="http://www.w3.org/2000/svg" sodipodi:version="0.32" inkscape:export-xdpi="90.000000" inkscape:export-ydpi="90.000000" inkscape:version="0.42" sodipodi:docbase="/datas/Projs/Cliparts Stocker/led" sodipodi:docname="led_circle_blue.svg" inkscape:export-filename="/datas/Projs/Cliparts Stocker/led/led_circle_blue.png" xmlns:inkscape="http://www.inkscape.org/namespaces/inkscape" xmlns:sodipodi="http://inkscape.sourceforge.net/DTD/sodipodi-0.dtd" xmlns:rdf="http://www.w3.org/1999/02/22-rdf-syntax-ns#" xmlns:dc="http://purl.org/dc/elements/1.1/" xmlns:cc="http://web.resource.org/cc/"
	 xmlns="http://www.w3.org/2000/svg" xmlns:xlink="http://www.w3.org/1999/xlink" x="0px" y="0px" width="50px" height="50px"
	 viewBox="0 0 50 50" enable-background="new 0 0 50 50" xml:space="preserve">
<metadata>
	
		<rdf:RDF  xmlns:rdf="http://www.w3.org/1999/02/22-rdf-syntax-ns#" xmlns:dc="http://purl.org/dc/elements/1.1/" xmlns:cc="http://web.resource.org/cc/">
		<cc:Work  rdf:about="">
			<dc:title>LED Circle (Blue)</dc:title>
			<dc:description>jean.victor.balin@gmail.com</dc:description>
			<dc:subject>
				<rdf:Bag>
					<rdf:li>led</rdf:li>
					<rdf:li>shape</rdf:li>
				</rdf:Bag>
			</dc:subject>
			<dc:publisher>
				<cc:Agent  rdf:about="http://www.openclipart.org/">
					<dc:title>Open Clip Art Library</dc:title>
				</cc:Agent>
			</dc:publisher>
			<dc:creator>
				<cc:Agent>
					<dc:title>Jean-Victor Balin</dc:title>
				</cc:Agent>
			</dc:creator>
			<dc:rights>
				<cc:Agent>
					<dc:title>Jean-Victor Balin</dc:title>
				</cc:Agent>
			</dc:rights>
			<dc:date>2005-08-21</dc:date>
			<dc:format>image/svg+xml</dc:format>
			<dc:type  rdf:resource="http://purl.org/dc/dcmitype/StillImage"></dc:type>
			<cc:license  rdf:resource="http://web.resource.org/cc/PublicDomain"></cc:license>
			<dc:language>en</dc:language>
		</cc:Work>
		<cc:License  rdf:about="http://web.resource.org/cc/PublicDomain">
			<cc:permits  rdf:resource="http://web.resource.org/cc/Reproduction"></cc:permits>
			<cc:permits  rdf:resource="http://web.resource.org/cc/Distribution"></cc:permits>
			<cc:permits  rdf:resource="http://web.resource.org/cc/DerivativeWorks"></cc:permits>
		</cc:License>
	</rdf:RDF>
	<sfw  xmlns="&ns_sfw;">
		<slices></slices>
		<sliceSourceBounds  x="541.361" y="-40.163" width="241.351" height="105.858" bottomLeftOrigin="true"></sliceSourceBounds>
	</sfw>
</metadata>
<g id="valvulas">
	<g id="valsimp4Red">
		<g>
			<polygon fill="#FF0000" points="24.97,25.09 25,25.13 24.99,25.13 			"/>
			<polygon fill="#FF0000" points="46.33,12.71 46.33,37.49 25.02,25.14 25.09,25.02 			"/>
			<polygon fill="#FF0000" points="25.09,25.02 25.02,25.14 25,25.13 24.97,25.09 24.97,25.08 			"/>
			<polygon fill="#FF0000" points="24.97,25.09 24.99,25.13 24.95,25.1 			"/>
			<polygon fill="#FF0000" points="24.95,25.1 24.55,25.33 24.75,24.99 			"/>
			<polygon fill="#FF0000" points="24.55,25.33 3.56,37.49 3.56,12.71 24.75,24.99 			"/>
			<polygon fill="#FF0000" points="25.01,25.15 37.22,46.23 12.44,46.23 24.55,25.33 24.95,25.1 24.99,25.13 25,25.13 			"/>
			<polygon fill="#FF0000" points="24.97,25.09 24.95,25.1 24.75,24.99 24.83,24.85 24.97,25.08 			"/>
			<polygon fill="#FF0000" points="37.401,3.77 25.09,25.02 24.97,25.08 24.83,24.85 12.62,3.77 			"/>
		</g>
		<g>
			<line fill="none" stroke="#000000" stroke-linecap="round" x1="3.56" y1="37.49" x2="3.56" y2="12.71"/>
			<polyline fill="none" stroke="#000000" stroke-linecap="round" points="25,25.13 25.02,25.14 46.33,37.49 			"/>
			<polyline fill="none" stroke="#000000" stroke-linecap="round" points="3.56,12.71 24.75,24.99 24.95,25.1 24.99,25.13 			"/>
			<line fill="none" stroke="#000000" stroke-linecap="round" x1="46.33" y1="37.49" x2="46.33" y2="12.71"/>
			<polyline fill="none" stroke="#000000" stroke-linecap="round" points="24.97,25.09 24.95,25.1 24.55,25.33 3.56,37.49 			"/>
			<polyline fill="none" stroke="#000000" stroke-linecap="round" points="46.33,12.71 25.09,25.02 24.97,25.08 			"/>
			<line fill="none" stroke="#000000" stroke-linecap="round" x1="37.22" y1="46.23" x2="12.44" y2="46.23"/>
			<polyline fill="none" stroke="#000000" stroke-linecap="round" points="12.44,46.23 24.55,25.33 24.75,24.99 24.83,24.85 			"/>
			<line fill="none" stroke="#000000" stroke-linecap="round" x1="25.01" y1="25.15" x2="37.22" y2="46.23"/>
			<polyline fill="none" stroke="#000000" stroke-linecap="round" points="24.97,25.09 24.99,25.13 25,25.13 			"/>
			<line fill="none" stroke="#000000" stroke-linecap="round" x1="12.62" y1="3.77" x2="37.401" y2="3.77"/>
			<polyline fill="none" stroke="#000000" stroke-linecap="round" points="37.401,3.77 25.09,25.02 25.02,25.14 25.01,25.15 			"/>
			<polyline fill="none" stroke="#000000" stroke-linecap="round" points="25.01,25.15 25,25.13 24.97,25.09 24.97,25.08 
				24.83,24.85 12.62,3.77 			"/>
		</g>
	</g>
	<g id="valsimp4Green">
		<g>
			<polygon fill="#00FF00" points="95.77,12.556 95.77,37.336 74.459,24.986 74.53,24.866 			"/>
			<polygon fill="#00FF00" points="86.84,3.616 74.53,24.866 74.409,24.926 74.27,24.696 62.06,3.616 			"/>
			<polygon fill="#00FF00" points="74.53,24.866 74.459,24.986 74.44,24.976 74.409,24.936 74.409,24.926 			"/>
			<polygon fill="#00FF00" points="74.449,24.996 86.659,46.076 61.88,46.076 73.99,25.176 74.39,24.946 74.43,24.976 74.44,24.976 
							"/>
			<polygon fill="#00FF00" points="74.409,24.936 74.44,24.976 74.43,24.976 			"/>
			<polygon fill="#00FF00" points="74.409,24.936 74.43,24.976 74.39,24.946 			"/>
			<polygon fill="#00FF00" points="74.409,24.936 74.39,24.946 74.19,24.836 74.27,24.696 74.409,24.926 			"/>
			<polygon fill="#00FF00" points="74.39,24.946 73.99,25.176 74.19,24.836 			"/>
			<polygon fill="#00FF00" points="52.999,12.556 74.19,24.836 73.99,25.176 52.999,37.336 			"/>
		</g>
		<g>
			<line fill="none" stroke="#000000" stroke-linecap="round" x1="52.999" y1="37.336" x2="52.999" y2="12.556"/>
			<polyline fill="none" stroke="#000000" stroke-linecap="round" points="74.44,24.976 74.459,24.986 95.77,37.336 			"/>
			<polyline fill="none" stroke="#000000" stroke-linecap="round" points="52.999,12.556 74.19,24.836 74.39,24.946 74.43,24.976 
							"/>
			<line fill="none" stroke="#000000" stroke-linecap="round" x1="95.77" y1="37.336" x2="95.77" y2="12.556"/>
			<polyline fill="none" stroke="#000000" stroke-linecap="round" points="74.409,24.936 74.39,24.946 73.99,25.176 52.999,37.336 
							"/>
			<polyline fill="none" stroke="#000000" stroke-linecap="round" points="95.77,12.556 74.53,24.866 74.409,24.926 			"/>
			<line fill="none" stroke="#000000" stroke-linecap="round" x1="86.659" y1="46.076" x2="61.88" y2="46.076"/>
			<polyline fill="none" stroke="#000000" stroke-linecap="round" points="61.88,46.076 73.99,25.176 74.19,24.836 74.27,24.696 			
				"/>
			<line fill="none" stroke="#000000" stroke-linecap="round" x1="74.449" y1="24.996" x2="86.659" y2="46.076"/>
			<polyline fill="none" stroke="#000000" stroke-linecap="round" points="74.409,24.936 74.43,24.976 74.44,24.976 			"/>
			<line fill="none" stroke="#000000" stroke-linecap="round" x1="62.06" y1="3.616" x2="86.84" y2="3.616"/>
			<polyline fill="none" stroke="#000000" stroke-linecap="round" points="86.84,3.616 74.53,24.866 74.459,24.986 74.449,24.996 
							"/>
			<polyline fill="none" stroke="#000000" stroke-linecap="round" points="74.449,24.996 74.44,24.976 74.409,24.936 74.409,24.926 
				74.27,24.696 62.06,3.616 			"/>
		</g>
	</g>
	<g id="valsimp4Blue">
		<g>
			<polygon fill="#0000FF" points="145.121,12.405 145.121,37.186 123.811,24.835 123.881,24.715 			"/>
			<polygon fill="#0000FF" points="136.192,3.465 123.881,24.715 123.761,24.775 123.621,24.545 111.411,3.465 			"/>
			<polygon fill="#0000FF" points="123.881,24.715 123.811,24.835 123.791,24.825 123.761,24.785 123.761,24.775 			"/>
			<polygon fill="#0000FF" points="123.801,24.845 136.011,45.926 111.232,45.926 123.341,25.025 123.741,24.795 123.781,24.825 
				123.791,24.825 			"/>
			<polygon fill="#0000FF" points="123.761,24.785 123.791,24.825 123.781,24.825 			"/>
			<polygon fill="#0000FF" points="123.761,24.785 123.781,24.825 123.741,24.795 			"/>
			<polygon fill="#0000FF" points="123.761,24.785 123.741,24.795 123.541,24.686 123.621,24.545 123.761,24.775 			"/>
			<polygon fill="#0000FF" points="123.741,24.795 123.341,25.025 123.541,24.686 			"/>
			<polygon fill="#0000FF" points="102.351,12.405 123.541,24.686 123.341,25.025 102.351,37.186 			"/>
		</g>
		<g>
			<line fill="none" stroke="#000000" stroke-linecap="round" x1="102.351" y1="37.186" x2="102.351" y2="12.405"/>
			<polyline fill="none" stroke="#000000" stroke-linecap="round" points="123.791,24.825 123.811,24.835 145.121,37.186 			"/>
			<polyline fill="none" stroke="#000000" stroke-linecap="round" points="102.351,12.405 123.541,24.686 123.741,24.795 
				123.781,24.825 			"/>
			<line fill="none" stroke="#000000" stroke-linecap="round" x1="145.121" y1="37.186" x2="145.121" y2="12.405"/>
			<polyline fill="none" stroke="#000000" stroke-linecap="round" points="123.761,24.785 123.741,24.795 123.341,25.025 
				102.351,37.186 			"/>
			<polyline fill="none" stroke="#000000" stroke-linecap="round" points="145.121,12.405 123.881,24.715 123.761,24.775 			"/>
			<line fill="none" stroke="#000000" stroke-linecap="round" x1="136.011" y1="45.926" x2="111.232" y2="45.926"/>
			<polyline fill="none" stroke="#000000" stroke-linecap="round" points="111.232,45.926 123.341,25.025 123.541,24.686 
				123.621,24.545 			"/>
			<line fill="none" stroke="#000000" stroke-linecap="round" x1="123.801" y1="24.845" x2="136.011" y2="45.926"/>
			<polyline fill="none" stroke="#000000" stroke-linecap="round" points="123.761,24.785 123.781,24.825 123.791,24.825 			"/>
			<line fill="none" stroke="#000000" stroke-linecap="round" x1="111.411" y1="3.465" x2="136.192" y2="3.465"/>
			<polyline fill="none" stroke="#000000" stroke-linecap="round" points="136.192,3.465 123.881,24.715 123.811,24.835 
				123.801,24.845 			"/>
			<polyline fill="none" stroke="#000000" stroke-linecap="round" points="123.801,24.845 123.791,24.825 123.761,24.785 
				123.761,24.775 123.621,24.545 111.411,3.465 			"/>
		</g>
	</g>
	<g id="valsimp4White">
		<g>
			<polygon fill="#FFFFFF" points="191.16,12.255 191.16,37.035 169.85,24.685 169.92,24.565 			"/>
			<polygon fill="#FFFFFF" points="182.231,3.315 169.92,24.565 169.8,24.625 169.66,24.395 157.45,3.315 			"/>
			<polygon fill="#FFFFFF" points="169.92,24.565 169.85,24.685 169.83,24.675 169.8,24.635 169.8,24.625 			"/>
			<polygon fill="#FFFFFF" points="169.84,24.695 182.05,45.775 157.271,45.775 169.38,24.875 169.781,24.645 169.821,24.675 
				169.83,24.675 			"/>
			<polygon fill="#FFFFFF" points="169.8,24.635 169.83,24.675 169.821,24.675 			"/>
			<polygon fill="#FFFFFF" points="169.8,24.635 169.821,24.675 169.781,24.645 			"/>
			<polygon fill="#FFFFFF" points="169.8,24.635 169.781,24.645 169.58,24.535 169.66,24.395 169.8,24.625 			"/>
			<polygon fill="#FFFFFF" points="169.781,24.645 169.38,24.875 169.58,24.535 			"/>
			<polygon fill="#FFFFFF" points="148.39,12.255 169.58,24.535 169.38,24.875 148.39,37.035 			"/>
		</g>
		<g>
			<line fill="none" stroke="#000000" stroke-linecap="round" x1="148.39" y1="37.035" x2="148.39" y2="12.255"/>
			<polyline fill="none" stroke="#000000" stroke-linecap="round" points="169.83,24.675 169.85,24.685 191.16,37.035 			"/>
			<polyline fill="none" stroke="#000000" stroke-linecap="round" points="148.39,12.255 169.58,24.535 169.781,24.645 
				169.821,24.675 			"/>
			<line fill="none" stroke="#000000" stroke-linecap="round" x1="191.16" y1="37.035" x2="191.16" y2="12.255"/>
			<polyline fill="none" stroke="#000000" stroke-linecap="round" points="169.8,24.635 169.781,24.645 169.38,24.875 
				148.39,37.035 			"/>
			<polyline fill="none" stroke="#000000" stroke-linecap="round" points="191.16,12.255 169.92,24.565 169.8,24.625 			"/>
			<line fill="none" stroke="#000000" stroke-linecap="round" x1="182.05" y1="45.775" x2="157.271" y2="45.775"/>
			<polyline fill="none" stroke="#000000" stroke-linecap="round" points="157.271,45.775 169.38,24.875 169.58,24.535 
				169.66,24.395 			"/>
			<line fill="none" stroke="#000000" stroke-linecap="round" x1="169.84" y1="24.695" x2="182.05" y2="45.775"/>
			<polyline fill="none" stroke="#000000" stroke-linecap="round" points="169.8,24.635 169.821,24.675 169.83,24.675 			"/>
			<line fill="none" stroke="#000000" stroke-linecap="round" x1="157.45" y1="3.315" x2="182.231" y2="3.315"/>
			<polyline fill="none" stroke="#000000" stroke-linecap="round" points="182.231,3.315 169.92,24.565 169.85,24.685 
				169.84,24.695 			"/>
			<polyline fill="none" stroke="#000000" stroke-linecap="round" points="169.84,24.695 169.83,24.675 169.8,24.635 169.8,24.625 
				169.66,24.395 157.45,3.315 			"/>
		</g>
	</g>
	<g id="valsimp4Grey">
		<g>
			<polygon fill="#848484" points="240.168,11.265 240.168,36.045 218.858,23.695 218.928,23.575 			"/>
			<polygon fill="#848484" points="231.239,2.325 218.928,23.575 218.808,23.635 218.668,23.405 206.458,2.325 			"/>
			<polygon fill="#848484" points="218.928,23.575 218.858,23.695 218.838,23.685 218.808,23.645 218.808,23.635 			"/>
			<polygon fill="#848484" points="218.848,23.705 231.058,44.785 206.279,44.785 218.388,23.885 218.788,23.655 218.828,23.685 
				218.838,23.685 			"/>
			<polygon fill="#848484" points="218.808,23.645 218.838,23.685 218.828,23.685 			"/>
			<polygon fill="#848484" points="218.808,23.645 218.828,23.685 218.788,23.655 			"/>
			<polygon fill="#848484" points="218.808,23.645 218.788,23.655 218.588,23.545 218.668,23.405 218.808,23.635 			"/>
			<polygon fill="#848484" points="218.788,23.655 218.388,23.885 218.588,23.545 			"/>
			<polygon fill="#848484" points="197.398,11.265 218.588,23.545 218.388,23.885 197.398,36.045 			"/>
		</g>
		<g>
			<line fill="none" stroke="#000000" stroke-linecap="round" x1="197.398" y1="36.045" x2="197.398" y2="11.265"/>
			<polyline fill="none" stroke="#000000" stroke-linecap="round" points="218.838,23.685 218.858,23.695 240.168,36.045 			"/>
			<polyline fill="none" stroke="#000000" stroke-linecap="round" points="197.398,11.265 218.588,23.545 218.788,23.655 
				218.828,23.685 			"/>
			<line fill="none" stroke="#000000" stroke-linecap="round" x1="240.168" y1="36.045" x2="240.168" y2="11.265"/>
			<polyline fill="none" stroke="#000000" stroke-linecap="round" points="218.808,23.645 218.788,23.655 218.388,23.885 
				197.398,36.045 			"/>
			<polyline fill="none" stroke="#000000" stroke-linecap="round" points="240.168,11.265 218.928,23.575 218.808,23.635 			"/>
			<line fill="none" stroke="#000000" stroke-linecap="round" x1="231.058" y1="44.785" x2="206.279" y2="44.785"/>
			<polyline fill="none" stroke="#000000" stroke-linecap="round" points="206.279,44.785 218.388,23.885 218.588,23.545 
				218.668,23.405 			"/>
			<line fill="none" stroke="#000000" stroke-linecap="round" x1="218.848" y1="23.705" x2="231.058" y2="44.785"/>
			<polyline fill="none" stroke="#000000" stroke-linecap="round" points="218.808,23.645 218.828,23.685 218.838,23.685 			"/>
			<line fill="none" stroke="#000000" stroke-linecap="round" x1="206.458" y1="2.325" x2="231.239" y2="2.325"/>
			<polyline fill="none" stroke="#000000" stroke-linecap="round" points="231.239,2.325 218.928,23.575 218.858,23.695 
				218.848,23.705 			"/>
			<polyline fill="none" stroke="#000000" stroke-linecap="round" points="218.848,23.705 218.838,23.685 218.808,23.645 
				218.808,23.635 218.668,23.405 206.458,2.325 			"/>
		</g>
	</g>
	<g id="valsimp4Yellow">
		<g>
			<polygon fill="#FFFF00" points="42.701,73.262 42.701,98.042 21.391,85.691 21.461,85.571 			"/>
			<polygon fill="#FFFF00" points="33.772,64.321 21.461,85.571 21.342,85.632 21.201,85.401 8.991,64.321 			"/>
			<polygon fill="#FFFF00" points="21.461,85.571 21.391,85.691 21.371,85.682 21.342,85.642 21.342,85.632 			"/>
			<polygon fill="#FFFF00" points="21.381,85.702 33.591,106.782 8.811,106.782 20.921,85.882 21.322,85.651 21.362,85.682 
				21.371,85.682 			"/>
			<polygon fill="#FFFF00" points="21.342,85.642 21.371,85.682 21.362,85.682 			"/>
			<polygon fill="#FFFF00" points="21.342,85.642 21.362,85.682 21.322,85.651 			"/>
			<polygon fill="#FFFF00" points="21.342,85.642 21.322,85.651 21.121,85.542 21.201,85.401 21.342,85.632 			"/>
			<polygon fill="#FFFF00" points="21.322,85.651 20.921,85.882 21.121,85.542 			"/>
			<polygon fill="#FFFF00" points="-0.069,73.262 21.121,85.542 20.921,85.882 -0.069,98.042 			"/>
		</g>
		<g>
			<line fill="none" stroke="#000000" stroke-linecap="round" x1="-0.069" y1="98.042" x2="-0.069" y2="73.262"/>
			<polyline fill="none" stroke="#000000" stroke-linecap="round" points="21.371,85.682 21.391,85.691 42.701,98.042 			"/>
			<polyline fill="none" stroke="#000000" stroke-linecap="round" points="-0.069,73.262 21.121,85.542 21.322,85.651 
				21.362,85.682 			"/>
			<line fill="none" stroke="#000000" stroke-linecap="round" x1="42.701" y1="98.042" x2="42.701" y2="73.262"/>
			<polyline fill="none" stroke="#000000" stroke-linecap="round" points="21.342,85.642 21.322,85.651 20.921,85.882 
				-0.069,98.042 			"/>
			<polyline fill="none" stroke="#000000" stroke-linecap="round" points="42.701,73.262 21.461,85.571 21.342,85.632 			"/>
			<line fill="none" stroke="#000000" stroke-linecap="round" x1="33.591" y1="106.782" x2="8.811" y2="106.782"/>
			<polyline fill="none" stroke="#000000" stroke-linecap="round" points="8.811,106.782 20.921,85.882 21.121,85.542 
				21.201,85.401 			"/>
			<line fill="none" stroke="#000000" stroke-linecap="round" x1="21.381" y1="85.702" x2="33.591" y2="106.782"/>
			<polyline fill="none" stroke="#000000" stroke-linecap="round" points="21.342,85.642 21.362,85.682 21.371,85.682 			"/>
			<line fill="none" stroke="#000000" stroke-linecap="round" x1="8.991" y1="64.321" x2="33.772" y2="64.321"/>
			<polyline fill="none" stroke="#000000" stroke-linecap="round" points="33.772,64.321 21.461,85.571 21.391,85.691 
				21.381,85.702 			"/>
			<polyline fill="none" stroke="#000000" stroke-linecap="round" points="21.381,85.702 21.371,85.682 21.342,85.642 
				21.342,85.632 21.201,85.401 8.991,64.321 			"/>
		</g>
	</g>
	<g id="valsimp4Purple">
		<g>
			<polygon fill="#FF00FF" points="92.252,73.361 92.252,98.142 70.942,85.791 71.012,85.671 			"/>
			<polygon fill="#FF00FF" points="83.323,64.421 71.012,85.671 70.892,85.731 70.752,85.501 58.542,64.421 			"/>
			<polygon fill="#FF00FF" points="71.012,85.671 70.942,85.791 70.922,85.781 70.892,85.741 70.892,85.731 			"/>
			<polygon fill="#FF00FF" points="70.932,85.802 83.142,106.882 58.363,106.882 70.472,85.981 70.872,85.751 70.912,85.781 
				70.922,85.781 			"/>
			<polygon fill="#FF00FF" points="70.892,85.741 70.922,85.781 70.912,85.781 			"/>
			<polygon fill="#FF00FF" points="70.892,85.741 70.912,85.781 70.872,85.751 			"/>
			<polygon fill="#FF00FF" points="70.892,85.741 70.872,85.751 70.672,85.642 70.752,85.501 70.892,85.731 			"/>
			<polygon fill="#FF00FF" points="70.872,85.751 70.472,85.981 70.672,85.642 			"/>
			<polygon fill="#FF00FF" points="49.482,73.361 70.672,85.642 70.472,85.981 49.482,98.142 			"/>
		</g>
		<g>
			<line fill="none" stroke="#000000" stroke-linecap="round" x1="49.482" y1="98.142" x2="49.482" y2="73.361"/>
			<polyline fill="none" stroke="#000000" stroke-linecap="round" points="70.922,85.781 70.942,85.791 92.252,98.142 			"/>
			<polyline fill="none" stroke="#000000" stroke-linecap="round" points="49.482,73.361 70.672,85.642 70.872,85.751 
				70.912,85.781 			"/>
			<line fill="none" stroke="#000000" stroke-linecap="round" x1="92.252" y1="98.142" x2="92.252" y2="73.361"/>
			<polyline fill="none" stroke="#000000" stroke-linecap="round" points="70.892,85.741 70.872,85.751 70.472,85.981 
				49.482,98.142 			"/>
			<polyline fill="none" stroke="#000000" stroke-linecap="round" points="92.252,73.361 71.012,85.671 70.892,85.731 			"/>
			<line fill="none" stroke="#000000" stroke-linecap="round" x1="83.142" y1="106.882" x2="58.363" y2="106.882"/>
			<polyline fill="none" stroke="#000000" stroke-linecap="round" points="58.363,106.882 70.472,85.981 70.672,85.642 
				70.752,85.501 			"/>
			<line fill="none" stroke="#000000" stroke-linecap="round" x1="70.932" y1="85.802" x2="83.142" y2="106.882"/>
			<polyline fill="none" stroke="#000000" stroke-linecap="round" points="70.892,85.741 70.912,85.781 70.922,85.781 			"/>
			<line fill="none" stroke="#000000" stroke-linecap="round" x1="58.542" y1="64.421" x2="83.323" y2="64.421"/>
			<polyline fill="none" stroke="#000000" stroke-linecap="round" points="83.323,64.421 71.012,85.671 70.942,85.791 
				70.932,85.802 			"/>
			<polyline fill="none" stroke="#000000" stroke-linecap="round" points="70.932,85.802 70.922,85.781 70.892,85.741 
				70.892,85.731 70.752,85.501 58.542,64.421 			"/>
		</g>
	</g>
	<g id="valsimp4Brown">
		<g>
			<polygon fill="#724806" points="142.784,73.512 142.784,98.292 121.474,85.941 121.544,85.821 			"/>
			<polygon fill="#724806" points="133.855,64.571 121.544,85.821 121.424,85.882 121.284,85.651 109.074,64.571 			"/>
			<polygon fill="#724806" points="121.544,85.821 121.474,85.941 121.454,85.932 121.424,85.892 121.424,85.882 			"/>
			<polygon fill="#724806" points="121.464,85.952 133.674,107.032 108.895,107.032 121.004,86.132 121.405,85.901 121.445,85.932 
				121.454,85.932 			"/>
			<polygon fill="#724806" points="121.424,85.892 121.454,85.932 121.445,85.932 			"/>
			<polygon fill="#724806" points="121.424,85.892 121.445,85.932 121.405,85.901 			"/>
			<polygon fill="#724806" points="121.424,85.892 121.405,85.901 121.204,85.792 121.284,85.651 121.424,85.882 			"/>
			<polygon fill="#724806" points="121.405,85.901 121.004,86.132 121.204,85.792 			"/>
			<polygon fill="#724806" points="100.014,73.512 121.204,85.792 121.004,86.132 100.014,98.292 			"/>
		</g>
		<g>
			<line fill="none" stroke="#000000" stroke-linecap="round" x1="100.014" y1="98.292" x2="100.014" y2="73.512"/>
			<polyline fill="none" stroke="#000000" stroke-linecap="round" points="121.454,85.932 121.474,85.941 142.784,98.292 			"/>
			<polyline fill="none" stroke="#000000" stroke-linecap="round" points="100.014,73.512 121.204,85.792 121.405,85.901 
				121.445,85.932 			"/>
			<line fill="none" stroke="#000000" stroke-linecap="round" x1="142.784" y1="98.292" x2="142.784" y2="73.512"/>
			<polyline fill="none" stroke="#000000" stroke-linecap="round" points="121.424,85.892 121.405,85.901 121.004,86.132 
				100.014,98.292 			"/>
			<polyline fill="none" stroke="#000000" stroke-linecap="round" points="142.784,73.512 121.544,85.821 121.424,85.882 			"/>
			<line fill="none" stroke="#000000" stroke-linecap="round" x1="133.674" y1="107.032" x2="108.895" y2="107.032"/>
			<polyline fill="none" stroke="#000000" stroke-linecap="round" points="108.895,107.032 121.004,86.132 121.204,85.792 
				121.284,85.651 			"/>
			<line fill="none" stroke="#000000" stroke-linecap="round" x1="121.464" y1="85.952" x2="133.674" y2="107.032"/>
			<polyline fill="none" stroke="#000000" stroke-linecap="round" points="121.424,85.892 121.445,85.932 121.454,85.932 			"/>
			<line fill="none" stroke="#000000" stroke-linecap="round" x1="109.074" y1="64.571" x2="133.855" y2="64.571"/>
			<polyline fill="none" stroke="#000000" stroke-linecap="round" points="133.855,64.571 121.544,85.821 121.474,85.941 
				121.464,85.952 			"/>
			<polyline fill="none" stroke="#000000" stroke-linecap="round" points="121.464,85.952 121.454,85.932 121.424,85.892 
				121.424,85.882 121.284,85.651 109.074,64.571 			"/>
		</g>
	</g>
	<g id="valsimp4Orange">
		<g>
			<polygon fill="#FF7D03" points="191.225,73.111 191.225,97.892 169.914,85.541 169.985,85.421 			"/>
			<polygon fill="#FF7D03" points="182.295,64.171 169.985,85.421 169.865,85.481 169.725,85.251 157.515,64.171 			"/>
			<polygon fill="#FF7D03" points="169.985,85.421 169.914,85.541 169.895,85.531 169.865,85.491 169.865,85.481 			"/>
			<polygon fill="#FF7D03" points="169.905,85.552 182.115,106.632 157.335,106.632 169.445,85.731 169.845,85.501 169.885,85.531 
				169.895,85.531 			"/>
			<polygon fill="#FF7D03" points="169.865,85.491 169.895,85.531 169.885,85.531 			"/>
			<polygon fill="#FF7D03" points="169.865,85.491 169.885,85.531 169.845,85.501 			"/>
			<polygon fill="#FF7D03" points="169.865,85.491 169.845,85.501 169.645,85.392 169.725,85.251 169.865,85.481 			"/>
			<polygon fill="#FF7D03" points="169.845,85.501 169.445,85.731 169.645,85.392 			"/>
			<polygon fill="#FF7D03" points="148.454,73.111 169.645,85.392 169.445,85.731 148.454,97.892 			"/>
		</g>
		<g>
			<line fill="none" stroke="#000000" stroke-linecap="round" x1="148.454" y1="97.892" x2="148.454" y2="73.111"/>
			<polyline fill="none" stroke="#000000" stroke-linecap="round" points="169.895,85.531 169.914,85.541 191.225,97.892 			"/>
			<polyline fill="none" stroke="#000000" stroke-linecap="round" points="148.454,73.111 169.645,85.392 169.845,85.501 
				169.885,85.531 			"/>
			<line fill="none" stroke="#000000" stroke-linecap="round" x1="191.225" y1="97.892" x2="191.225" y2="73.111"/>
			<polyline fill="none" stroke="#000000" stroke-linecap="round" points="169.865,85.491 169.845,85.501 169.445,85.731 
				148.454,97.892 			"/>
			<polyline fill="none" stroke="#000000" stroke-linecap="round" points="191.225,73.111 169.985,85.421 169.865,85.481 			"/>
			<line fill="none" stroke="#000000" stroke-linecap="round" x1="182.115" y1="106.632" x2="157.335" y2="106.632"/>
			<polyline fill="none" stroke="#000000" stroke-linecap="round" points="157.335,106.632 169.445,85.731 169.645,85.392 
				169.725,85.251 			"/>
			<line fill="none" stroke="#000000" stroke-linecap="round" x1="169.905" y1="85.552" x2="182.115" y2="106.632"/>
			<polyline fill="none" stroke="#000000" stroke-linecap="round" points="169.865,85.491 169.885,85.531 169.895,85.531 			"/>
			<line fill="none" stroke="#000000" stroke-linecap="round" x1="157.515" y1="64.171" x2="182.295" y2="64.171"/>
			<polyline fill="none" stroke="#000000" stroke-linecap="round" points="182.295,64.171 169.985,85.421 169.914,85.541 
				169.905,85.552 			"/>
			<polyline fill="none" stroke="#000000" stroke-linecap="round" points="169.905,85.552 169.895,85.531 169.865,85.491 
				169.865,85.481 169.725,85.251 157.515,64.171 			"/>
		</g>
	</g>
	<g id="valsimp4Black">
		<g>
			<polygon fill="#020202" points="240.282,73.662 240.282,98.442 218.972,86.092 219.042,85.972 			"/>
			<polygon fill="#020202" points="231.353,64.722 219.042,85.972 218.922,86.032 218.782,85.802 206.573,64.722 			"/>
			<polygon fill="#020202" points="219.042,85.972 218.972,86.092 218.952,86.082 218.922,86.042 218.922,86.032 			"/>
			<polygon fill="#020202" points="218.962,86.103 231.172,107.183 206.393,107.183 218.502,86.282 218.903,86.052 218.943,86.082 
				218.952,86.082 			"/>
			<polygon fill="#020202" points="218.922,86.042 218.952,86.082 218.943,86.082 			"/>
			<polygon fill="#020202" points="218.922,86.042 218.943,86.082 218.903,86.052 			"/>
			<polygon fill="#020202" points="218.922,86.042 218.903,86.052 218.702,85.942 218.782,85.802 218.922,86.032 			"/>
			<polygon fill="#020202" points="218.903,86.052 218.502,86.282 218.702,85.942 			"/>
			<polygon fill="#020202" points="197.512,73.662 218.702,85.942 218.502,86.282 197.512,98.442 			"/>
		</g>
		<g>
			<line fill="none" stroke="#000000" stroke-linecap="round" x1="197.512" y1="98.442" x2="197.512" y2="73.662"/>
			<polyline fill="none" stroke="#000000" stroke-linecap="round" points="218.952,86.082 218.972,86.092 240.282,98.442 			"/>
			<polyline fill="none" stroke="#000000" stroke-linecap="round" points="197.512,73.662 218.702,85.942 218.903,86.052 
				218.943,86.082 			"/>
			<line fill="none" stroke="#000000" stroke-linecap="round" x1="240.282" y1="98.442" x2="240.282" y2="73.662"/>
			<polyline fill="none" stroke="#000000" stroke-linecap="round" points="218.922,86.042 218.903,86.052 218.502,86.282 
				197.512,98.442 			"/>
			<polyline fill="none" stroke="#000000" stroke-linecap="round" points="240.282,73.662 219.042,85.972 218.922,86.032 			"/>
			<line fill="none" stroke="#000000" stroke-linecap="round" x1="231.172" y1="107.183" x2="206.393" y2="107.183"/>
			<polyline fill="none" stroke="#000000" stroke-linecap="round" points="206.393,107.183 218.502,86.282 218.702,85.942 
				218.782,85.802 			"/>
			<line fill="none" stroke="#000000" stroke-linecap="round" x1="218.962" y1="86.103" x2="231.172" y2="107.183"/>
			<polyline fill="none" stroke="#000000" stroke-linecap="round" points="218.922,86.042 218.943,86.082 218.952,86.082 			"/>
			<line fill="none" stroke="#000000" stroke-linecap="round" x1="206.573" y1="64.722" x2="231.353" y2="64.722"/>
			<polyline fill="none" stroke="#000000" stroke-linecap="round" points="231.353,64.722 219.042,85.972 218.972,86.092 
				218.962,86.103 			"/>
			<polyline fill="none" stroke="#000000" stroke-linecap="round" points="218.962,86.103 218.952,86.082 218.922,86.042 
				218.922,86.032 218.782,85.802 206.573,64.722 			"/>
		</g>
	</g>
</g>
</svg>
