<?xml version="1.0" encoding="utf-8"?>
<!-- Generator: Adobe Illustrator 14.0.0, SVG Export Plug-In . SVG Version: 6.00 Build 43363)  -->
<!DOCTYPE svg PUBLIC "-//W3C//DTD SVG 1.1//EN" "http://www.w3.org/Graphics/SVG/1.1/DTD/svg11.dtd" [
	<!ENTITY ns_extend "http://ns.adobe.com/Extensibility/1.0/">
	<!ENTITY ns_ai "http://ns.adobe.com/AdobeIllustrator/10.0/">
	<!ENTITY ns_graphs "http://ns.adobe.com/Graphs/1.0/">
	<!ENTITY ns_vars "http://ns.adobe.com/Variables/1.0/">
	<!ENTITY ns_imrep "http://ns.adobe.com/ImageReplacement/1.0/">
	<!ENTITY ns_sfw "http://ns.adobe.com/SaveForWeb/1.0/">
	<!ENTITY ns_custom "http://ns.adobe.com/GenericCustomNamespace/1.0/">
	<!ENTITY ns_adobe_xpath "http://ns.adobe.com/XPath/1.0/">
]>
<svg version="1.1"
	 id="svg9493" xmlns:x="&ns_extend;" xmlns:i="&ns_ai;" xmlns:graph="&ns_graphs;" xmlns:svg="http://www.w3.org/2000/svg" sodipodi:version="0.32" inkscape:export-xdpi="90.000000" inkscape:export-ydpi="90.000000" inkscape:version="0.42" sodipodi:docbase="/datas/Projs/Cliparts Stocker/led" sodipodi:docname="led_circle_blue.svg" inkscape:export-filename="/datas/Projs/Cliparts Stocker/led/led_circle_blue.png" xmlns:inkscape="http://www.inkscape.org/namespaces/inkscape" xmlns:sodipodi="http://inkscape.sourceforge.net/DTD/sodipodi-0.dtd" xmlns:rdf="http://www.w3.org/1999/02/22-rdf-syntax-ns#" xmlns:dc="http://purl.org/dc/elements/1.1/" xmlns:cc="http://web.resource.org/cc/"
	 xmlns="http://www.w3.org/2000/svg" xmlns:xlink="http://www.w3.org/1999/xlink" x="0px" y="0px" width="50px" height="50px"
	 viewBox="0 0 50 50" enable-background="new 0 0 50 50" xml:space="preserve">
<metadata>
	
		<rdf:RDF  xmlns:rdf="http://www.w3.org/1999/02/22-rdf-syntax-ns#" xmlns:dc="http://purl.org/dc/elements/1.1/" xmlns:cc="http://web.resource.org/cc/">
		<cc:Work  rdf:about="">
			<dc:title>LED Circle (Blue)</dc:title>
			<dc:description>jean.victor.balin@gmail.com</dc:description>
			<dc:subject>
				<rdf:Bag>
					<rdf:li>led</rdf:li>
					<rdf:li>shape</rdf:li>
				</rdf:Bag>
			</dc:subject>
			<dc:publisher>
				<cc:Agent  rdf:about="http://www.openclipart.org/">
					<dc:title>Open Clip Art Library</dc:title>
				</cc:Agent>
			</dc:publisher>
			<dc:creator>
				<cc:Agent>
					<dc:title>Jean-Victor Balin</dc:title>
				</cc:Agent>
			</dc:creator>
			<dc:rights>
				<cc:Agent>
					<dc:title>Jean-Victor Balin</dc:title>
				</cc:Agent>
			</dc:rights>
			<dc:date>2005-08-21</dc:date>
			<dc:format>image/svg+xml</dc:format>
			<dc:type  rdf:resource="http://purl.org/dc/dcmitype/StillImage"></dc:type>
			<cc:license  rdf:resource="http://web.resource.org/cc/PublicDomain"></cc:license>
			<dc:language>en</dc:language>
		</cc:Work>
		<cc:License  rdf:about="http://web.resource.org/cc/PublicDomain">
			<cc:permits  rdf:resource="http://web.resource.org/cc/Reproduction"></cc:permits>
			<cc:permits  rdf:resource="http://web.resource.org/cc/Distribution"></cc:permits>
			<cc:permits  rdf:resource="http://web.resource.org/cc/DerivativeWorks"></cc:permits>
		</cc:License>
	</rdf:RDF>
	<sfw  xmlns="&ns_sfw;">
		<slices></slices>
		<sliceSourceBounds  x="543.795" y="-16.88" width="255.905" height="71.104" bottomLeftOrigin="true"></sliceSourceBounds>
	</sfw>
</metadata>
<g id="agitadores">
	<g id="agitadorRed">
		<g>
			<path fill="#FF0000" d="M16.48,30.856c4.71,0,8.52,1.2,8.52,2.67c0,1.479-3.81,2.67-8.52,2.67c-4.7,0-8.52-1.19-8.52-2.67
				C7.96,32.057,11.78,30.856,16.48,30.856z"/>
			<path fill="#FF0000" d="M21.33,24.786c-0.78-1.16-1.26-2.71-1.26-4.4c0-1.34,0.3-2.59,0.81-3.63h8.24
				c0.511,1.04,0.811,2.29,0.811,3.63c0,1.69-0.48,3.24-1.26,4.4H21.33z"/>
			<path fill="#FF0000" d="M33.52,30.866c4.7,0,8.521,1.19,8.521,2.66c0,1.479-3.82,2.67-8.521,2.67c-4.71,0-8.52-1.19-8.52-2.67
				C25,32.057,28.81,30.866,33.52,30.866z"/>
			<path fill="#FF0000" d="M29.93,20.386c0-1.34-0.3-2.59-0.811-3.63h0.811V20.386z"/>
			<path fill="#FF0000" d="M25,13.796c1.72,0,3.23,1.18,4.12,2.96h-8.24C21.77,14.977,23.28,13.796,25,13.796z"/>
			<path fill="#FF0000" d="M21.33,24.786h7.34c-0.9,1.351-2.21,2.2-3.67,2.2C23.54,26.986,22.23,26.137,21.33,24.786z"/>
			<path fill="#FF0000" d="M20.07,20.386c0,1.69,0.48,3.24,1.26,4.4h-1.26V20.386z"/>
			<path fill="#FF0000" d="M20.88,16.756c-0.51,1.04-0.81,2.29-0.81,3.63v-3.63H20.88z"/>
			<path fill="#FF0000" d="M28.67,24.786c0.779-1.16,1.26-2.71,1.26-4.4v4.4H28.67z"/>
		</g>
		<g>
			<path fill="none" stroke="#000000" stroke-linecap="round" stroke-linejoin="round" d="M25,33.526c0,1.479-3.81,2.67-8.52,2.67
				c-4.7,0-8.52-1.19-8.52-2.67c0-1.47,3.82-2.67,8.52-2.67C21.19,30.856,25,32.057,25,33.526z"/>
			<path fill="none" stroke="#000000" stroke-linecap="round" stroke-linejoin="round" d="M42.04,33.526
				c0,1.479-3.82,2.67-8.521,2.67c-4.71,0-8.52-1.19-8.52-2.67c0-1.47,3.81-2.66,8.52-2.66C38.22,30.866,42.04,32.057,42.04,33.526z
				"/>
			<path fill="none" stroke="#000000" stroke-linecap="round" stroke-linejoin="round" d="M20.88,16.756
				c0.89-1.78,2.4-2.96,4.12-2.96c1.72,0,3.23,1.18,4.12,2.96"/>
			<path fill="none" stroke="#000000" stroke-linecap="round" stroke-linejoin="round" d="M28.67,24.786
				c-0.9,1.351-2.21,2.2-3.67,2.2c-1.46,0-2.77-0.85-3.67-2.2"/>
			<polygon fill="none" stroke="#000000" stroke-linecap="round" stroke-linejoin="round" points="29.93,20.386 29.93,24.786 
				28.67,24.786 21.33,24.786 20.07,24.786 20.07,20.386 20.07,16.756 20.88,16.756 29.119,16.756 29.93,16.756 			"/>
			<line fill="none" stroke="#000000" stroke-linecap="round" stroke-linejoin="round" x1="25" y1="26.986" x2="25" y2="33.526"/>
		</g>
	</g>
	<g id="agitadorGreen">
		<g>
			<path fill="#00FF00" d="M86.18,24.786c-0.899,1.35-2.21,2.2-3.67,2.2s-2.77-0.851-3.67-2.2H86.18z"/>
			<path fill="#00FF00" d="M73.99,30.856c4.71,0,8.52,1.199,8.52,2.67c0,1.479-3.81,2.67-8.52,2.67c-4.7,0-8.521-1.19-8.521-2.67
				C65.47,32.056,69.29,30.856,73.99,30.856z"/>
			<path fill="#00FF00" d="M86.63,16.756c0.51,1.04,0.81,2.29,0.81,3.63c0,1.69-0.47,3.24-1.26,4.4h-7.34
				c-0.79-1.16-1.26-2.71-1.26-4.4c0-1.34,0.3-2.59,0.81-3.63H86.63z"/>
			<path fill="#FF0000" d="M87.44,16.756v3.63c0-1.34-0.3-2.59-0.81-3.63H87.44z"/>
			<path fill="#00FF00" d="M86.63,16.756h-8.24c0.891-1.78,2.4-2.96,4.12-2.96S85.74,14.976,86.63,16.756z"/>
			<path fill="#00FF00" d="M78.84,24.786h-1.26v-4.4C77.58,22.076,78.05,23.626,78.84,24.786z"/>
			<path fill="#00FF00" d="M87.44,20.386v4.4h-1.26C86.97,23.626,87.44,22.076,87.44,20.386z"/>
			<path fill="#00FF00" d="M91.031,30.866c4.699,0,8.52,1.189,8.52,2.66c0,1.479-3.82,2.67-8.52,2.67c-4.71,0-8.521-1.19-8.521-2.67
				C82.51,32.056,86.321,30.866,91.031,30.866z"/>
			<path fill="#FF0000" d="M77.58,16.756h0.81c-0.51,1.04-0.81,2.29-0.81,3.63V16.756z"/>
		</g>
		<g>
			<path fill="none" stroke="#000000" stroke-linecap="round" stroke-linejoin="round" d="M82.51,33.526
				c0,1.479-3.81,2.67-8.52,2.67c-4.7,0-8.521-1.19-8.521-2.67c0-1.471,3.82-2.67,8.521-2.67C78.7,30.856,82.51,32.056,82.51,33.526
				z"/>
			<path fill="none" stroke="#000000" stroke-linecap="round" stroke-linejoin="round" d="M99.55,33.526
				c0,1.479-3.82,2.67-8.52,2.67c-4.71,0-8.521-1.19-8.521-2.67c0-1.471,3.811-2.66,8.521-2.66
				C95.73,30.866,99.55,32.056,99.55,33.526z"/>
			<path fill="none" stroke="#000000" stroke-linecap="round" stroke-linejoin="round" d="M78.39,16.756
				c0.891-1.78,2.4-2.96,4.12-2.96s3.23,1.18,4.12,2.96"/>
			<path fill="none" stroke="#000000" stroke-linecap="round" stroke-linejoin="round" d="M86.18,24.786
				c-0.899,1.35-2.21,2.2-3.67,2.2s-2.77-0.851-3.67-2.2"/>
			<polygon fill="none" stroke="#000000" stroke-linecap="round" stroke-linejoin="round" points="87.44,20.386 87.44,24.786 
				86.18,24.786 78.84,24.786 77.58,24.786 77.58,20.386 77.58,16.756 78.39,16.756 86.63,16.756 87.44,16.756 			"/>
			
				<line fill="none" stroke="#000000" stroke-linecap="round" stroke-linejoin="round" x1="82.51" y1="26.986" x2="82.51" y2="33.526"/>
		</g>
	</g>
	<g id="agitadorBlue">
		<g>
			<path fill="#0000FF" d="M138.585,24.786c-0.899,1.35-2.21,2.2-3.67,2.2s-2.77-0.851-3.67-2.2H138.585z"/>
			<path fill="#0000FF" d="M139.845,20.386v4.4h-1.26C139.375,23.616,139.845,22.076,139.845,20.386z"/>
			<path fill="#0000FF" d="M126.396,30.856c4.71,0,8.52,1.2,8.52,2.67c0,1.479-3.81,2.67-8.52,2.67c-4.7,0-8.521-1.19-8.521-2.67
				C117.875,32.057,121.696,30.856,126.396,30.856z"/>
			<path fill="#0000FF" d="M139.845,16.756v3.63c0-1.34-0.3-2.59-0.81-3.63H139.845z"/>
			<path fill="#0000FF" d="M131.245,24.786h-1.26v-4.4C129.986,22.076,130.455,23.616,131.245,24.786z"/>
			<path fill="#0000FF" d="M143.436,30.866c4.699,0,8.52,1.19,8.52,2.66c0,1.479-3.82,2.67-8.52,2.67
				c-4.711,0-8.521-1.19-8.521-2.67C134.915,32.057,138.725,30.866,143.436,30.866z"/>
			<path fill="#0000FF" d="M139.035,16.756h-8.24c0.891-1.78,2.4-2.96,4.12-2.96S138.146,14.976,139.035,16.756z"/>
			<path fill="#0000FF" d="M139.035,16.756c0.51,1.04,0.81,2.29,0.81,3.63c0,1.69-0.47,3.23-1.26,4.4h-7.34
				c-0.79-1.17-1.26-2.71-1.26-4.4c0-1.34,0.3-2.59,0.81-3.63H139.035z"/>
			<path fill="#0000FF" d="M129.986,16.756h0.81c-0.51,1.04-0.81,2.29-0.81,3.63V16.756z"/>
		</g>
		<g>
			<path fill="none" stroke="#000000" stroke-linecap="round" stroke-linejoin="round" d="M134.915,33.526
				c0,1.479-3.81,2.67-8.52,2.67c-4.7,0-8.521-1.19-8.521-2.67c0-1.47,3.82-2.67,8.521-2.67
				C131.106,30.856,134.915,32.057,134.915,33.526z"/>
			<path fill="none" stroke="#000000" stroke-linecap="round" stroke-linejoin="round" d="M151.955,33.526
				c0,1.479-3.82,2.67-8.52,2.67c-4.711,0-8.521-1.19-8.521-2.67c0-1.47,3.81-2.66,8.521-2.66
				C148.135,30.866,151.955,32.057,151.955,33.526z"/>
			<path fill="none" stroke="#000000" stroke-linecap="round" stroke-linejoin="round" d="M130.795,16.756
				c0.891-1.78,2.4-2.96,4.12-2.96s3.23,1.18,4.12,2.96"/>
			<path fill="none" stroke="#000000" stroke-linecap="round" stroke-linejoin="round" d="M138.585,24.786
				c-0.899,1.35-2.21,2.2-3.67,2.2s-2.77-0.851-3.67-2.2"/>
			<polygon fill="none" stroke="#000000" stroke-linecap="round" stroke-linejoin="round" points="139.845,20.386 139.845,24.786 
				138.585,24.786 131.245,24.786 129.986,24.786 129.986,20.386 129.986,16.756 130.795,16.756 139.035,16.756 139.845,16.756 			
				"/>
			
				<line fill="none" stroke="#000000" stroke-linecap="round" stroke-linejoin="round" x1="134.915" y1="26.986" x2="134.915" y2="33.526"/>
		</g>
	</g>
	<g id="agitadorWhite">
		<g>
			<path fill="#FFFFFF" d="M183.601,24.785h-1.26v-4.4C182.341,22.075,182.811,23.625,183.601,24.785z"/>
			<path fill="#FFFFFF" d="M195.791,30.865c4.699,0,8.52,1.19,8.52,2.67c0,1.47-3.82,2.66-8.52,2.66c-4.711,0-8.521-1.19-8.521-2.66
				C187.271,32.056,191.08,30.865,195.791,30.865z"/>
			<path fill="#FFFFFF" d="M191.391,16.755h-8.24c0.891-1.78,2.4-2.96,4.12-2.96S190.501,14.975,191.391,16.755z"/>
			<path fill="#FFFFFF" d="M191.391,16.755c0.51,1.04,0.81,2.29,0.81,3.63c0,1.69-0.47,3.24-1.26,4.4h-7.34
				c-0.79-1.16-1.26-2.71-1.26-4.4c0-1.34,0.3-2.59,0.81-3.63H191.391z"/>
			<path fill="#FFFFFF" d="M182.341,16.755h0.81c-0.51,1.04-0.81,2.29-0.81,3.63V16.755z"/>
			<path fill="#FFFFFF" d="M190.941,24.785c-0.899,1.35-2.21,2.2-3.67,2.2s-2.77-0.851-3.67-2.2H190.941z"/>
			<path fill="#FFFFFF" d="M192.2,20.385v4.4h-1.26C191.731,23.625,192.2,22.075,192.2,20.385z"/>
			<path fill="#FFFFFF" d="M178.751,30.865c4.71,0,8.52,1.19,8.52,2.67c0,1.47-3.81,2.66-8.52,2.66c-4.7,0-8.521-1.19-8.521-2.66
				C170.231,32.056,174.051,30.865,178.751,30.865z"/>
			<path fill="#FFFFFF" d="M192.2,16.755v3.63c0-1.34-0.3-2.59-0.81-3.63H192.2z"/>
		</g>
		<g>
			<path fill="none" stroke="#000000" stroke-linecap="round" stroke-linejoin="round" d="M187.271,33.535
				c0,1.47-3.81,2.66-8.52,2.66c-4.7,0-8.521-1.19-8.521-2.66c0-1.479,3.82-2.67,8.521-2.67
				C183.461,30.865,187.271,32.056,187.271,33.535z"/>
			<path fill="none" stroke="#000000" stroke-linecap="round" stroke-linejoin="round" d="M204.311,33.535
				c0,1.47-3.82,2.66-8.52,2.66c-4.711,0-8.521-1.19-8.521-2.66c0-1.479,3.81-2.67,8.521-2.67
				C200.49,30.865,204.311,32.056,204.311,33.535z"/>
			<path fill="none" stroke="#000000" stroke-linecap="round" stroke-linejoin="round" d="M183.151,16.755
				c0.891-1.78,2.4-2.96,4.12-2.96s3.23,1.18,4.12,2.96"/>
			<path fill="none" stroke="#000000" stroke-linecap="round" stroke-linejoin="round" d="M190.941,24.785
				c-0.899,1.35-2.21,2.2-3.67,2.2s-2.77-0.851-3.67-2.2"/>
			<polygon fill="none" stroke="#000000" stroke-linecap="round" stroke-linejoin="round" points="192.2,20.385 192.2,24.785 
				190.941,24.785 183.601,24.785 182.341,24.785 182.341,20.385 182.341,16.755 183.151,16.755 191.391,16.755 192.2,16.755 			"/>
			
				<line fill="none" stroke="#000000" stroke-linecap="round" stroke-linejoin="round" x1="187.271" y1="26.985" x2="187.271" y2="33.535"/>
		</g>
	</g>
	<g id="agitadorGrey">
		<g>
			<path fill="#848484" d="M248.751,30.865c4.699,0,8.52,1.19,8.52,2.67c0,1.47-3.82,2.66-8.52,2.66c-4.71,0-8.521-1.19-8.521-2.66
				C240.231,32.056,244.041,30.865,248.751,30.865z"/>
			<path fill="#848484" d="M231.711,30.865c4.71,0,8.52,1.19,8.52,2.67c0,1.47-3.81,2.66-8.52,2.66c-4.7,0-8.521-1.19-8.521-2.66
				C223.191,32.056,227.011,30.865,231.711,30.865z"/>
			<path fill="#848484" d="M244.351,16.755h-8.24c0.891-1.78,2.4-2.96,4.12-2.96S243.461,14.975,244.351,16.755z"/>
			<path fill="#848484" d="M244.351,16.755c0.51,1.04,0.81,2.29,0.81,3.63c0,1.7-0.47,3.23-1.26,4.4h-7.34
				c-0.79-1.17-1.26-2.7-1.26-4.4c0-1.34,0.3-2.59,0.81-3.63H244.351z"/>
			<path fill="#848484" d="M245.16,20.385v4.4h-1.26C244.691,23.615,245.16,22.085,245.16,20.385z"/>
			<path fill="#848484" d="M235.301,16.755h0.81c-0.51,1.04-0.81,2.29-0.81,3.63V16.755z"/>
			<path fill="#848484" d="M245.16,16.755v3.63c0-1.34-0.3-2.59-0.81-3.63H245.16z"/>
			<path fill="#848484" d="M243.901,24.785c-0.899,1.351-2.21,2.2-3.67,2.2s-2.77-0.85-3.67-2.2H243.901z"/>
			<path fill="#848484" d="M236.561,24.785h-1.26v-4.4C235.301,22.085,235.771,23.615,236.561,24.785z"/>
		</g>
		<g>
			<path fill="none" stroke="#000000" stroke-linecap="round" stroke-linejoin="round" d="M240.231,33.535
				c0,1.47-3.81,2.66-8.52,2.66c-4.7,0-8.521-1.19-8.521-2.66c0-1.479,3.82-2.67,8.521-2.67
				C236.421,30.865,240.231,32.056,240.231,33.535z"/>
			<path fill="none" stroke="#000000" stroke-linecap="round" stroke-linejoin="round" d="M257.271,33.535
				c0,1.47-3.82,2.66-8.52,2.66c-4.71,0-8.521-1.19-8.521-2.66c0-1.479,3.811-2.67,8.521-2.67
				C253.45,30.865,257.271,32.056,257.271,33.535z"/>
			<path fill="none" stroke="#000000" stroke-linecap="round" stroke-linejoin="round" d="M236.111,16.755
				c0.891-1.78,2.4-2.96,4.12-2.96s3.23,1.18,4.12,2.96"/>
			<path fill="none" stroke="#000000" stroke-linecap="round" stroke-linejoin="round" d="M243.901,24.785
				c-0.899,1.351-2.21,2.2-3.67,2.2s-2.77-0.85-3.67-2.2"/>
			<polygon fill="none" stroke="#000000" stroke-linecap="round" stroke-linejoin="round" points="245.16,20.385 245.16,24.785 
				243.901,24.785 236.561,24.785 235.301,24.785 235.301,20.385 235.301,16.755 236.111,16.755 244.351,16.755 245.16,16.755 			
				"/>
			
				<line fill="none" stroke="#000000" stroke-linecap="round" stroke-linejoin="round" x1="240.231" y1="26.985" x2="240.231" y2="33.535"/>
		</g>
	</g>
	<g id="agitadorBlack">
		<g>
			<path fill="#020202" d="M241.905,76.789c4.699,0,8.52,1.19,8.52,2.66c0,1.479-3.82,2.67-8.52,2.67
				c-4.711,0-8.521-1.19-8.521-2.67C233.384,77.979,237.194,76.789,241.905,76.789z"/>
			<path fill="#020202" d="M238.314,66.31v4.399h-1.26C237.844,69.549,238.314,67.999,238.314,66.31z"/>
			<path fill="#FF0000" d="M238.314,62.679v3.631c0-1.341-0.3-2.591-0.81-3.631H238.314z"/>
			<path fill="#020202" d="M237.504,62.679c0.51,1.04,0.81,2.29,0.81,3.631c0,1.689-0.47,3.239-1.26,4.399h-7.34
				c-0.79-1.16-1.26-2.71-1.26-4.399c0-1.341,0.3-2.591,0.81-3.631H237.504z"/>
			<path fill="#020202" d="M237.504,62.679h-8.24c0.891-1.779,2.4-2.96,4.12-2.96S236.615,60.899,237.504,62.679z"/>
			<path fill="#020202" d="M237.054,70.709c-0.899,1.351-2.21,2.2-3.67,2.2s-2.77-0.85-3.67-2.2H237.054z"/>
			<path fill="#020202" d="M224.865,76.779c4.71,0,8.52,1.2,8.52,2.67c0,1.479-3.81,2.67-8.52,2.67c-4.7,0-8.521-1.19-8.521-2.67
				C216.344,77.979,220.164,76.779,224.865,76.779z"/>
			<path fill="#020202" d="M229.714,70.709h-1.26V66.31C228.454,67.999,228.924,69.549,229.714,70.709z"/>
			<path fill="#FF0000" d="M228.454,62.679h0.81c-0.51,1.04-0.81,2.29-0.81,3.631V62.679z"/>
		</g>
		<g>
			<path fill="none" stroke="#000000" stroke-linecap="round" stroke-linejoin="round" d="M233.384,79.449
				c0,1.479-3.81,2.67-8.52,2.67c-4.7,0-8.521-1.19-8.521-2.67c0-1.47,3.82-2.67,8.521-2.67
				C229.574,76.779,233.384,77.979,233.384,79.449z"/>
			<path fill="none" stroke="#000000" stroke-linecap="round" stroke-linejoin="round" d="M250.424,79.449
				c0,1.479-3.82,2.67-8.52,2.67c-4.711,0-8.521-1.19-8.521-2.67c0-1.47,3.81-2.66,8.521-2.66
				C246.604,76.789,250.424,77.979,250.424,79.449z"/>
			<path fill="none" stroke="#000000" stroke-linecap="round" stroke-linejoin="round" d="M229.264,62.679
				c0.891-1.779,2.4-2.96,4.12-2.96s3.23,1.181,4.12,2.96"/>
			<path fill="none" stroke="#000000" stroke-linecap="round" stroke-linejoin="round" d="M237.054,70.709
				c-0.899,1.351-2.21,2.2-3.67,2.2s-2.77-0.85-3.67-2.2"/>
			<polygon fill="none" stroke="#000000" stroke-linecap="round" stroke-linejoin="round" points="238.314,66.31 238.314,70.709 
				237.054,70.709 229.714,70.709 228.454,70.709 228.454,66.31 228.454,62.679 229.264,62.679 237.504,62.679 238.314,62.679 			
				"/>
			
				<line fill="none" stroke="#000000" stroke-linecap="round" stroke-linejoin="round" x1="233.384" y1="72.909" x2="233.384" y2="79.449"/>
		</g>
	</g>
	<g id="agitadorOrange">
		<g>
			<path fill="#FF7D03" d="M191.354,76.579c4.699,0,8.52,1.19,8.52,2.66c0,1.479-3.82,2.67-8.52,2.67
				c-4.711,0-8.521-1.19-8.521-2.67C182.833,77.77,186.643,76.579,191.354,76.579z"/>
			<path fill="#FF7D03" d="M187.763,66.1v4.399h-1.26C187.293,69.339,187.763,67.789,187.763,66.1z"/>
			<path fill="#FF7D03" d="M187.763,62.469V66.1c0-1.341-0.3-2.591-0.81-3.631H187.763z"/>
			<path fill="#FF7D03" d="M186.953,62.469c0.51,1.04,0.81,2.29,0.81,3.631c0,1.689-0.47,3.239-1.26,4.399h-7.34
				c-0.79-1.16-1.26-2.71-1.26-4.399c0-1.341,0.3-2.591,0.81-3.631H186.953z"/>
			<path fill="#FF7D03" d="M186.953,62.469h-8.24c0.891-1.779,2.4-2.96,4.12-2.96S186.064,60.689,186.953,62.469z"/>
			<path fill="#FF7D03" d="M186.503,70.499c-0.899,1.351-2.21,2.2-3.67,2.2s-2.77-0.85-3.67-2.2H186.503z"/>
			<path fill="#FF7D03" d="M174.314,76.569c4.71,0,8.52,1.2,8.52,2.67c0,1.479-3.81,2.67-8.52,2.67c-4.7,0-8.521-1.19-8.521-2.67
				C165.793,77.77,169.614,76.569,174.314,76.569z"/>
			<path fill="#FF7D03" d="M179.163,70.499h-1.26V66.1C177.904,67.789,178.373,69.339,179.163,70.499z"/>
			<path fill="#FF7D03" d="M177.904,62.469h0.81c-0.51,1.04-0.81,2.29-0.81,3.631V62.469z"/>
		</g>
		<g>
			<path fill="none" stroke="#000000" stroke-linecap="round" stroke-linejoin="round" d="M182.833,79.239
				c0,1.479-3.81,2.67-8.52,2.67c-4.7,0-8.521-1.19-8.521-2.67c0-1.47,3.82-2.67,8.521-2.67
				C179.024,76.569,182.833,77.77,182.833,79.239z"/>
			<path fill="none" stroke="#000000" stroke-linecap="round" stroke-linejoin="round" d="M199.873,79.239
				c0,1.479-3.82,2.67-8.52,2.67c-4.711,0-8.521-1.19-8.521-2.67c0-1.47,3.81-2.66,8.521-2.66
				C196.053,76.579,199.873,77.77,199.873,79.239z"/>
			<path fill="none" stroke="#000000" stroke-linecap="round" stroke-linejoin="round" d="M178.713,62.469
				c0.891-1.779,2.4-2.96,4.12-2.96s3.23,1.181,4.12,2.96"/>
			<path fill="none" stroke="#000000" stroke-linecap="round" stroke-linejoin="round" d="M186.503,70.499
				c-0.899,1.351-2.21,2.2-3.67,2.2s-2.77-0.85-3.67-2.2"/>
			<polygon fill="none" stroke="#000000" stroke-linecap="round" stroke-linejoin="round" points="187.763,66.1 187.763,70.499 
				186.503,70.499 179.163,70.499 177.904,70.499 177.904,66.1 177.904,62.469 178.713,62.469 186.953,62.469 187.763,62.469 			"/>
			
				<line fill="none" stroke="#000000" stroke-linecap="round" stroke-linejoin="round" x1="182.833" y1="72.699" x2="182.833" y2="79.239"/>
		</g>
	</g>
	<g id="agitadorBrown">
		<g>
			<path fill="#724806" d="M138.998,76.579c4.699,0,8.52,1.19,8.52,2.66c0,1.479-3.82,2.67-8.52,2.67
				c-4.711,0-8.521-1.19-8.521-2.67C130.478,77.77,134.287,76.579,138.998,76.579z"/>
			<path fill="#724806" d="M135.407,66.1v4.399h-1.26C134.938,69.339,135.407,67.789,135.407,66.1z"/>
			<path fill="#724806" d="M135.407,62.469V66.1c0-1.341-0.3-2.591-0.81-3.631H135.407z"/>
			<path fill="#724806" d="M134.598,62.469c0.51,1.04,0.81,2.29,0.81,3.631c0,1.689-0.47,3.239-1.26,4.399h-7.34
				c-0.79-1.16-1.26-2.71-1.26-4.399c0-1.341,0.3-2.591,0.81-3.631H134.598z"/>
			<path fill="#724806" d="M134.598,62.469h-8.24c0.891-1.779,2.4-2.96,4.12-2.96S133.708,60.689,134.598,62.469z"/>
			<path fill="#724806" d="M134.148,70.499c-0.899,1.351-2.21,2.2-3.67,2.2s-2.77-0.85-3.67-2.2H134.148z"/>
			<path fill="#724806" d="M121.958,76.569c4.71,0,8.52,1.2,8.52,2.67c0,1.479-3.81,2.67-8.52,2.67c-4.7,0-8.521-1.19-8.521-2.67
				C113.438,77.77,117.258,76.569,121.958,76.569z"/>
			<path fill="#724806" d="M126.808,70.499h-1.26V66.1C125.548,67.789,126.018,69.339,126.808,70.499z"/>
			<path fill="#724806" d="M125.548,62.469h0.81c-0.51,1.04-0.81,2.29-0.81,3.631V62.469z"/>
		</g>
		<g>
			<path fill="none" stroke="#000000" stroke-linecap="round" stroke-linejoin="round" d="M130.478,79.239
				c0,1.479-3.81,2.67-8.52,2.67c-4.7,0-8.521-1.19-8.521-2.67c0-1.47,3.82-2.67,8.521-2.67
				C126.668,76.569,130.478,77.77,130.478,79.239z"/>
			<path fill="none" stroke="#000000" stroke-linecap="round" stroke-linejoin="round" d="M147.518,79.239
				c0,1.479-3.82,2.67-8.52,2.67c-4.711,0-8.521-1.19-8.521-2.67c0-1.47,3.81-2.66,8.521-2.66
				C143.698,76.579,147.518,77.77,147.518,79.239z"/>
			<path fill="none" stroke="#000000" stroke-linecap="round" stroke-linejoin="round" d="M126.358,62.469
				c0.891-1.779,2.4-2.96,4.12-2.96s3.23,1.181,4.12,2.96"/>
			<path fill="none" stroke="#000000" stroke-linecap="round" stroke-linejoin="round" d="M134.148,70.499
				c-0.899,1.351-2.21,2.2-3.67,2.2s-2.77-0.85-3.67-2.2"/>
			<polygon fill="none" stroke="#000000" stroke-linecap="round" stroke-linejoin="round" points="135.407,66.1 135.407,70.499 
				134.148,70.499 126.808,70.499 125.548,70.499 125.548,66.1 125.548,62.469 126.358,62.469 134.598,62.469 135.407,62.469 			"/>
			
				<line fill="none" stroke="#000000" stroke-linecap="round" stroke-linejoin="round" x1="130.478" y1="72.699" x2="130.478" y2="79.239"/>
		</g>
	</g>
	<g id="agitadorPurple">
		<g>
			<path fill="#FF00FF" d="M83.226,76.579c4.699,0,8.52,1.19,8.52,2.66c0,1.479-3.82,2.67-8.52,2.67c-4.71,0-8.521-1.19-8.521-2.67
				C74.705,77.77,78.516,76.579,83.226,76.579z"/>
			<path fill="#FF00FF" d="M79.635,66.1v4.399h-1.26C79.165,69.339,79.635,67.789,79.635,66.1z"/>
			<path fill="#FF00FF" d="M79.635,62.469V66.1c0-1.341-0.3-2.591-0.81-3.631H79.635z"/>
			<path fill="#FF00FF" d="M78.825,62.469c0.51,1.04,0.81,2.29,0.81,3.631c0,1.689-0.47,3.239-1.26,4.399h-7.34
				c-0.79-1.16-1.26-2.71-1.26-4.399c0-1.341,0.3-2.591,0.81-3.631H78.825z"/>
			<path fill="#FF00FF" d="M78.825,62.469h-8.24c0.891-1.779,2.4-2.96,4.12-2.96S77.936,60.689,78.825,62.469z"/>
			<path fill="#FF00FF" d="M78.375,70.499c-0.899,1.351-2.21,2.2-3.67,2.2s-2.77-0.85-3.67-2.2H78.375z"/>
			<path fill="#FF00FF" d="M66.186,76.569c4.71,0,8.52,1.2,8.52,2.67c0,1.479-3.81,2.67-8.52,2.67c-4.7,0-8.521-1.19-8.521-2.67
				C57.665,77.77,61.486,76.569,66.186,76.569z"/>
			<path fill="#FF00FF" d="M71.035,70.499h-1.26V66.1C69.776,67.789,70.245,69.339,71.035,70.499z"/>
			<path fill="#FF00FF" d="M69.776,62.469h0.81c-0.51,1.04-0.81,2.29-0.81,3.631V62.469z"/>
		</g>
		<g>
			<path fill="none" stroke="#000000" stroke-linecap="round" stroke-linejoin="round" d="M74.705,79.239
				c0,1.479-3.81,2.67-8.52,2.67c-4.7,0-8.521-1.19-8.521-2.67c0-1.47,3.82-2.67,8.521-2.67
				C70.896,76.569,74.705,77.77,74.705,79.239z"/>
			<path fill="none" stroke="#000000" stroke-linecap="round" stroke-linejoin="round" d="M91.745,79.239
				c0,1.479-3.82,2.67-8.52,2.67c-4.71,0-8.521-1.19-8.521-2.67c0-1.47,3.811-2.66,8.521-2.66
				C87.925,76.579,91.745,77.77,91.745,79.239z"/>
			<path fill="none" stroke="#000000" stroke-linecap="round" stroke-linejoin="round" d="M70.585,62.469
				c0.891-1.779,2.4-2.96,4.12-2.96s3.23,1.181,4.12,2.96"/>
			<path fill="none" stroke="#000000" stroke-linecap="round" stroke-linejoin="round" d="M78.375,70.499
				c-0.899,1.351-2.21,2.2-3.67,2.2s-2.77-0.85-3.67-2.2"/>
			<polygon fill="none" stroke="#000000" stroke-linecap="round" stroke-linejoin="round" points="79.635,66.1 79.635,70.499 
				78.375,70.499 71.035,70.499 69.776,70.499 69.776,66.1 69.776,62.469 70.585,62.469 78.825,62.469 79.635,62.469 			"/>
			
				<line fill="none" stroke="#000000" stroke-linecap="round" stroke-linejoin="round" x1="74.705" y1="72.699" x2="74.705" y2="79.239"/>
		</g>
	</g>
	<g id="agitadorYellow">
		<g>
			<path fill="#FFFF00" d="M27.926,78.569c4.699,0,8.52,1.19,8.52,2.66c0,1.479-3.82,2.67-8.52,2.67c-4.71,0-8.521-1.19-8.521-2.67
				C19.406,79.76,23.216,78.569,27.926,78.569z"/>
			<path fill="#FFFF00" d="M24.336,68.09v4.399h-1.26C23.865,71.329,24.336,69.779,24.336,68.09z"/>
			<path fill="#FFFF00" d="M24.336,64.459v3.631c0-1.341-0.3-2.591-0.81-3.631H24.336z"/>
			<path fill="#FFFF00" d="M23.526,64.459c0.51,1.04,0.81,2.29,0.81,3.631c0,1.689-0.47,3.239-1.26,4.399h-7.34
				c-0.79-1.16-1.26-2.71-1.26-4.399c0-1.341,0.3-2.591,0.81-3.631H23.526z"/>
			<path fill="#FFFF00" d="M23.526,64.459h-8.24c0.89-1.779,2.4-2.96,4.12-2.96C21.126,61.499,22.635,62.68,23.526,64.459z"/>
			<path fill="#FFFF00" d="M23.075,72.489c-0.9,1.351-2.21,2.2-3.67,2.2s-2.77-0.85-3.67-2.2H23.075z"/>
			<path fill="#FFFF00" d="M10.885,78.56c4.71,0,8.52,1.2,8.52,2.67c0,1.479-3.81,2.67-8.52,2.67c-4.7,0-8.52-1.19-8.52-2.67
				C2.365,79.76,6.186,78.56,10.885,78.56z"/>
			<path fill="#FFFF00" d="M15.736,72.489h-1.26V68.09C14.475,69.779,14.946,71.329,15.736,72.489z"/>
			<path fill="#FFFF00" d="M14.475,64.459h0.81c-0.51,1.04-0.81,2.29-0.81,3.631V64.459z"/>
		</g>
		<g>
			<path fill="none" stroke="#000000" stroke-linecap="round" stroke-linejoin="round" d="M19.406,81.229
				c0,1.479-3.81,2.67-8.52,2.67c-4.7,0-8.52-1.19-8.52-2.67c0-1.47,3.82-2.67,8.52-2.67C15.595,78.56,19.406,79.76,19.406,81.229z"
				/>
			<path fill="none" stroke="#000000" stroke-linecap="round" stroke-linejoin="round" d="M36.446,81.229
				c0,1.479-3.82,2.67-8.52,2.67c-4.71,0-8.521-1.19-8.521-2.67c0-1.47,3.81-2.66,8.521-2.66
				C32.625,78.569,36.446,79.76,36.446,81.229z"/>
			<path fill="none" stroke="#000000" stroke-linecap="round" stroke-linejoin="round" d="M15.285,64.459
				c0.89-1.779,2.4-2.96,4.12-2.96c1.72,0,3.23,1.181,4.12,2.96"/>
			<path fill="none" stroke="#000000" stroke-linecap="round" stroke-linejoin="round" d="M23.075,72.489
				c-0.9,1.351-2.21,2.2-3.67,2.2s-2.77-0.85-3.67-2.2"/>
			<polygon fill="none" stroke="#000000" stroke-linecap="round" stroke-linejoin="round" points="24.336,68.09 24.336,72.489 
				23.075,72.489 15.736,72.489 14.475,72.489 14.475,68.09 14.475,64.459 15.285,64.459 23.526,64.459 24.336,64.459 			"/>
			
				<line fill="none" stroke="#000000" stroke-linecap="round" stroke-linejoin="round" x1="19.406" y1="74.689" x2="19.406" y2="81.229"/>
		</g>
	</g>
</g>
</svg>
