<?xml version="1.0" encoding="utf-8"?>
<!-- Generator: Adobe Illustrator 14.0.0, SVG Export Plug-In . SVG Version: 6.00 Build 43363)  -->
<!DOCTYPE svg PUBLIC "-//W3C//DTD SVG 1.1//EN" "http://www.w3.org/Graphics/SVG/1.1/DTD/svg11.dtd" [
	<!ENTITY ns_extend "http://ns.adobe.com/Extensibility/1.0/">
	<!ENTITY ns_ai "http://ns.adobe.com/AdobeIllustrator/10.0/">
	<!ENTITY ns_graphs "http://ns.adobe.com/Graphs/1.0/">
	<!ENTITY ns_vars "http://ns.adobe.com/Variables/1.0/">
	<!ENTITY ns_imrep "http://ns.adobe.com/ImageReplacement/1.0/">
	<!ENTITY ns_sfw "http://ns.adobe.com/SaveForWeb/1.0/">
	<!ENTITY ns_custom "http://ns.adobe.com/GenericCustomNamespace/1.0/">
	<!ENTITY ns_adobe_xpath "http://ns.adobe.com/XPath/1.0/">
]>
<svg version="1.1"
	 id="svg9493" xmlns:x="&ns_extend;" xmlns:i="&ns_ai;" xmlns:graph="&ns_graphs;" sodipodi:version="0.32" inkscape:export-xdpi="90.000000" inkscape:export-ydpi="90.000000" inkscape:version="0.42" sodipodi:docbase="/datas/Projs/Cliparts Stocker/led" sodipodi:docname="led_circle_blue.svg" inkscape:export-filename="/datas/Projs/Cliparts Stocker/led/led_circle_blue.png" xmlns:svg="http://www.w3.org/2000/svg" xmlns:sodipodi="http://inkscape.sourceforge.net/DTD/sodipodi-0.dtd" xmlns:inkscape="http://www.inkscape.org/namespaces/inkscape" xmlns:cc="http://web.resource.org/cc/" xmlns:dc="http://purl.org/dc/elements/1.1/" xmlns:rdf="http://www.w3.org/1999/02/22-rdf-syntax-ns#"
	 xmlns="http://www.w3.org/2000/svg" xmlns:xlink="http://www.w3.org/1999/xlink" x="0px" y="0px" width="50px" height="50px"
	 viewBox="0 0 50 50" enable-background="new 0 0 50 50" xml:space="preserve">
<metadata>
	
		<rdf:RDF  xmlns:cc="http://web.resource.org/cc/" xmlns:dc="http://purl.org/dc/elements/1.1/" xmlns:rdf="http://www.w3.org/1999/02/22-rdf-syntax-ns#">
		<cc:Work  rdf:about="">
			<dc:title>LED Circle (Blue)</dc:title>
			<dc:description>jean.victor.balin@gmail.com</dc:description>
			<dc:subject>
				<rdf:Bag>
					<rdf:li>led</rdf:li>
					<rdf:li>shape</rdf:li>
				</rdf:Bag>
			</dc:subject>
			<dc:publisher>
				<cc:Agent  rdf:about="http://www.openclipart.org/">
					<dc:title>Open Clip Art Library</dc:title>
				</cc:Agent>
			</dc:publisher>
			<dc:creator>
				<cc:Agent>
					<dc:title>Jean-Victor Balin</dc:title>
				</cc:Agent>
			</dc:creator>
			<dc:rights>
				<cc:Agent>
					<dc:title>Jean-Victor Balin</dc:title>
				</cc:Agent>
			</dc:rights>
			<dc:date>2005-08-21</dc:date>
			<dc:format>image/svg+xml</dc:format>
			<dc:type  rdf:resource="http://purl.org/dc/dcmitype/StillImage"></dc:type>
			<cc:license  rdf:resource="http://web.resource.org/cc/PublicDomain"></cc:license>
			<dc:language>en</dc:language>
		</cc:Work>
		<cc:License  rdf:about="http://web.resource.org/cc/PublicDomain">
			<cc:permits  rdf:resource="http://web.resource.org/cc/Reproduction"></cc:permits>
			<cc:permits  rdf:resource="http://web.resource.org/cc/Distribution"></cc:permits>
			<cc:permits  rdf:resource="http://web.resource.org/cc/DerivativeWorks"></cc:permits>
		</cc:License>
	</rdf:RDF>
	<sfw  xmlns="&ns_sfw;">
		<slices></slices>
		<sliceSourceBounds  x="539.084" y="-36.467" width="271.472" height="103.367" bottomLeftOrigin="true"></sliceSourceBounds>
	</sfw>
</metadata>
<g id="aspta">
	<g id="asptaRed">
		<circle fill="none" stroke="#FFFFFF" stroke-width="2" cx="25" cy="25" r="23.382"/>
		<line fill="none" stroke="#FFFFFF" stroke-width="2" x1="48.382" y1="25" x2="42.917" y2="25.001"/>
		<line fill="none" stroke="#FFFFFF" stroke-width="2" x1="7.083" y1="25" x2="1.618" y2="25"/>
		<line fill="none" stroke="#FFFFFF" stroke-width="2" x1="25" y1="1.617" x2="25.001" y2="7.082"/>
		<line fill="none" stroke="#FFFFFF" stroke-width="2" x1="24.999" y1="42.916" x2="25" y2="48.381"/>
		<line fill="none" stroke="#FFFFFF" stroke-width="2" x1="41.533" y1="8.467" x2="37.67" y2="12.332"/>
		<line fill="none" stroke="#FFFFFF" stroke-width="2" x1="12.33" y1="37.669" x2="8.467" y2="41.534"/>
		<line fill="none" stroke="#FFFFFF" stroke-width="2" x1="8.466" y1="8.466" x2="12.331" y2="12.33"/>
		<line fill="none" stroke="#FFFFFF" stroke-width="2" x1="37.668" y1="37.67" x2="41.533" y2="41.533"/>
		<rect x="7.083" y="24.752" fill="#FF0000" width="4.295" height="0.498"/>
		
			<rect x="7.083" y="25.792" transform="matrix(0.866 0.5 -0.5 0.866 14.2568 -1.1266)" fill="#FF0000" width="4.295" height="0.498"/>
		
			<rect x="7.083" y="23.752" transform="matrix(0.866 -0.5 0.5 0.866 -10.7634 7.8304)" fill="#FF0000" width="4.295" height="0.497"/>
		<rect x="38.623" y="25.021" fill="#FF0000" width="4.295" height="0.498"/>
		
			<rect x="38.624" y="23.981" transform="matrix(-0.866 -0.5001 0.5001 -0.866 63.9606 65.6012)" fill="#FF0000" width="4.294" height="0.498"/>
		
			<rect x="38.622" y="26.022" transform="matrix(-0.8661 0.4999 -0.4999 -0.8661 89.2124 28.6433)" fill="#FF0000" width="4.296" height="0.497"/>
		<rect x="24.615" y="38.644" fill="#FF0000" width="0.498" height="4.295"/>
		
			<rect x="23.757" y="40.542" transform="matrix(0.4999 -0.8661 0.8661 0.4999 -22.3733 42.8366)" fill="#FF0000" width="4.296" height="0.499"/>
		
			<rect x="21.717" y="40.543" transform="matrix(-0.5001 -0.866 0.866 -0.5001 0.4735 81.8573)" fill="#FF0000" width="4.294" height="0.498"/>
		<rect x="24.885" y="7.104" fill="#FF0000" width="0.498" height="4.295"/>
		
			<rect x="21.946" y="9.003" transform="matrix(-0.5 0.866 -0.866 -0.5 44.153 -6.9874)" fill="#FF0000" width="4.295" height="0.498"/>
		
			<rect x="23.986" y="9.004" transform="matrix(0.4999 0.8661 -0.8661 0.4999 21.0836 -18.0072)" fill="#FF0000" width="4.296" height="0.497"/>
		
			<rect x="11.687" y="35.909" transform="matrix(0.7071 -0.7071 0.7071 0.7071 -21.516 20.3733)" fill="#FF0000" width="4.295" height="0.499"/>
		
			<rect x="12.423" y="36.644" transform="matrix(0.9658 -0.2592 0.2592 0.9658 -9.0655 5.0379)" fill="#FF0000" width="4.295" height="0.499"/>
		
			<rect x="10.98" y="35.203" transform="matrix(0.2589 -0.9659 0.9659 0.2589 -24.5141 38.9541)" fill="#FF0000" width="4.295" height="0.497"/>
		
			<rect x="34.18" y="13.798" transform="matrix(-0.7071 0.7071 -0.7071 -0.7071 71.9476 -1.7074)" fill="#FF0000" width="4.295" height="0.498"/>
		
			<rect x="33.444" y="13.062" transform="matrix(-0.966 0.2587 -0.2587 -0.966 73.415 16.9634)" fill="#FF0000" width="4.295" height="0.498"/>
		
			<rect x="34.886" y="14.506" transform="matrix(-0.2589 0.9659 -0.9659 -0.2589 60.8736 -17.1965)" fill="#FF0000" width="4.296" height="0.498"/>
		
			<rect x="33.907" y="36.02" transform="matrix(-0.707 -0.7072 0.7072 -0.707 35.8948 87.4086)" fill="#FF0000" width="4.294" height="0.497"/>
		
			<rect x="34.642" y="35.283" transform="matrix(-0.2589 -0.9659 0.9659 -0.2589 11.9945 80.2681)" fill="#FF0000" width="4.296" height="0.499"/>
		
			<rect x="33.201" y="36.727" transform="matrix(-0.9659 -0.2588 0.2588 -0.9659 59.921 81.841)" fill="#FF0000" width="4.294" height="0.498"/>
		<polyline fill="#FF0000" points="12.601,12.082 15.638,15.119 15.286,15.471 12.249,12.434 		"/>
		<polyline fill="#FF0000" points="12.892,12.374 14.005,16.523 13.523,16.651 12.412,12.503 		"/>
		<polyline fill="#FF0000" points="12.641,12.274 16.789,13.385 16.661,13.866 12.512,12.754 		"/>
	</g>
	<g id="asptaGreen">
		<circle fill="none" stroke="#FFFFFF" stroke-width="2" cx="77.286" cy="25" r="23.382"/>
		<line fill="none" stroke="#FFFFFF" stroke-width="2" x1="100.668" y1="25" x2="95.203" y2="25.001"/>
		<line fill="none" stroke="#FFFFFF" stroke-width="2" x1="59.369" y1="25" x2="53.905" y2="25"/>
		<line fill="none" stroke="#FFFFFF" stroke-width="2" x1="77.287" y1="1.617" x2="77.287" y2="7.082"/>
		<line fill="none" stroke="#FFFFFF" stroke-width="2" x1="77.285" y1="42.916" x2="77.287" y2="48.381"/>
		<line fill="none" stroke="#FFFFFF" stroke-width="2" x1="93.821" y1="8.467" x2="89.957" y2="12.332"/>
		<line fill="none" stroke="#FFFFFF" stroke-width="2" x1="64.617" y1="37.669" x2="60.754" y2="41.534"/>
		<line fill="none" stroke="#FFFFFF" stroke-width="2" x1="60.752" y1="8.466" x2="64.617" y2="12.33"/>
		<line fill="none" stroke="#FFFFFF" stroke-width="2" x1="89.955" y1="37.67" x2="93.821" y2="41.533"/>
		<rect x="59.369" y="24.752" fill="#00FF00" width="4.295" height="0.498"/>
		
			<rect x="59.37" y="25.793" transform="matrix(0.866 0.5001 -0.5001 0.866 21.2672 -27.2731)" fill="#00FF00" width="4.294" height="0.498"/>
		
			<rect x="59.37" y="23.752" transform="matrix(0.8661 -0.4999 0.4999 0.8661 -3.76 33.9654)" fill="#00FF00" width="4.296" height="0.497"/>
		<rect x="90.91" y="25.021" fill="#00FF00" width="4.295" height="0.498"/>
		
			<rect x="90.911" y="23.981" transform="matrix(-0.866 -0.5001 0.5001 -0.866 161.5273 91.7488)" fill="#00FF00" width="4.294" height="0.498"/>
		
			<rect x="90.909" y="26.022" transform="matrix(-0.8661 0.4999 -0.4999 -0.8661 186.7851 2.506)" fill="#00FF00" width="4.296" height="0.497"/>
		<rect x="76.903" y="38.644" fill="#00FF00" width="0.498" height="4.295"/>
		
			<rect x="76.044" y="40.542" transform="matrix(0.4997 -0.8662 0.8662 0.4997 3.7857 88.1364)" fill="#00FF00" width="4.295" height="0.499"/>
		
			<rect x="74.005" y="40.543" transform="matrix(-0.4999 -0.8661 0.8661 -0.4999 78.8912 127.1375)" fill="#00FF00" width="4.294" height="0.497"/>
		<rect x="77.172" y="7.104" fill="#00FF00" width="0.498" height="4.295"/>
		
			<rect x="74.233" y="9.003" transform="matrix(-0.5002 0.8659 -0.8659 -0.5002 122.5965 -52.259)" fill="#00FF00" width="4.295" height="0.498"/>
		
			<rect x="76.273" y="9.004" transform="matrix(0.5001 0.866 -0.866 0.5001 47.2192 -63.2867)" fill="#00FF00" width="4.296" height="0.498"/>
		
			<rect x="63.974" y="35.909" transform="matrix(0.7071 -0.7071 0.7071 0.7071 -6.2016 57.3455)" fill="#00FF00" width="4.295" height="0.499"/>
		
			<rect x="64.71" y="36.644" transform="matrix(0.9658 -0.2592 0.2592 0.9658 -7.2788 18.5938)" fill="#00FF00" width="4.294" height="0.5"/>
		
			<rect x="63.266" y="35.203" transform="matrix(0.259 -0.9659 0.9659 0.259 14.2309 89.4525)" fill="#00FF00" width="4.295" height="0.497"/>
		
			<rect x="86.467" y="13.798" transform="matrix(-0.7071 0.7071 -0.7071 -0.7071 161.2072 -38.68)" fill="#00FF00" width="4.295" height="0.498"/>
		
			<rect x="85.731" y="13.062" transform="matrix(-0.966 0.2587 -0.2587 -0.966 176.2088 3.439)" fill="#00FF00" width="4.295" height="0.498"/>
		
			<rect x="87.172" y="14.506" transform="matrix(-0.2591 0.9658 -0.9658 -0.2591 126.715 -67.6922)" fill="#00FF00" width="4.297" height="0.498"/>
		
			<rect x="86.194" y="36.02" transform="matrix(-0.7071 -0.7071 0.7071 -0.7071 125.1619 124.3809)" fill="#00FF00" width="4.295" height="0.497"/>
		
			<rect x="86.929" y="35.283" transform="matrix(-0.2587 -0.966 0.966 -0.2587 77.7983 130.7692)" fill="#00FF00" width="4.296" height="0.499"/>
		
			<rect x="85.489" y="36.727" transform="matrix(-0.9659 -0.2589 0.2589 -0.9659 162.7101 95.3786)" fill="#00FF00" width="4.293" height="0.498"/>
		<polyline fill="#00FF00" points="64.887,12.082 67.924,15.119 67.573,15.471 64.535,12.434 		"/>
		<polyline fill="#00FF00" points="65.179,12.374 66.291,16.523 65.81,16.651 64.698,12.503 		"/>
		<polyline fill="#00FF00" points="64.928,12.274 69.075,13.385 68.948,13.866 64.799,12.754 		"/>
	</g>
	<g id="asptaBlue">
		<circle fill="none" stroke="#FFFFFF" stroke-width="2" cx="130.085" cy="25" r="23.382"/>
		<line fill="none" stroke="#FFFFFF" stroke-width="2" x1="153.467" y1="25" x2="148.002" y2="25.001"/>
		<line fill="none" stroke="#FFFFFF" stroke-width="2" x1="112.168" y1="25" x2="106.703" y2="25"/>
		<line fill="none" stroke="#FFFFFF" stroke-width="2" x1="130.086" y1="1.617" x2="130.086" y2="7.082"/>
		<line fill="none" stroke="#FFFFFF" stroke-width="2" x1="130.084" y1="42.916" x2="130.086" y2="48.381"/>
		<line fill="none" stroke="#FFFFFF" stroke-width="2" x1="146.619" y1="8.467" x2="142.756" y2="12.332"/>
		<line fill="none" stroke="#FFFFFF" stroke-width="2" x1="117.416" y1="37.669" x2="113.553" y2="41.534"/>
		<line fill="none" stroke="#FFFFFF" stroke-width="2" x1="113.551" y1="8.466" x2="117.416" y2="12.33"/>
		<line fill="none" stroke="#FFFFFF" stroke-width="2" x1="142.754" y1="37.67" x2="146.619" y2="41.533"/>
		<rect x="112.168" y="24.752" fill="#0000FF" width="4.295" height="0.498"/>
		
			<rect x="112.169" y="25.793" transform="matrix(0.866 0.5001 -0.5001 0.866 28.3432 -53.6766)" fill="#0000FF" width="4.294" height="0.498"/>
		
			<rect x="112.169" y="23.752" transform="matrix(0.8661 -0.4999 0.4999 0.8661 3.31 60.3585)" fill="#0000FF" width="4.296" height="0.497"/>
		<rect x="143.709" y="25.021" fill="#0000FF" width="4.295" height="0.498"/>
		
			<rect x="143.71" y="23.981" transform="matrix(-0.866 -0.5001 0.5001 -0.866 260.049 118.1522)" fill="#0000FF" width="4.294" height="0.498"/>
		
			<rect x="143.708" y="26.022" transform="matrix(-0.8661 0.4999 -0.4999 -0.8661 285.3127 -23.8871)" fill="#0000FF" width="4.296" height="0.497"/>
		<rect x="129.701" y="38.644" fill="#0000FF" width="0.498" height="4.295"/>
		
			<rect x="128.843" y="40.542" transform="matrix(0.4997 -0.8662 0.8662 0.4997 30.2004 133.8704)" fill="#0000FF" width="4.295" height="0.499"/>
		
			<rect x="126.804" y="40.543" transform="matrix(-0.4999 -0.8661 0.8661 -0.4999 158.0845 172.8655)" fill="#0000FF" width="4.294" height="0.497"/>
		<rect x="129.971" y="7.104" fill="#0000FF" width="0.498" height="4.295"/>
		
			<rect x="127.031" y="9.003" transform="matrix(-0.5002 0.8659 -0.8659 -0.5002 201.8052 -97.9781)" fill="#0000FF" width="4.295" height="0.498"/>
		
			<rect x="129.072" y="9.004" transform="matrix(0.5001 0.866 -0.866 0.5001 73.616 -109.0103)" fill="#0000FF" width="4.296" height="0.498"/>
		
			<rect x="116.773" y="35.909" transform="matrix(0.7071 -0.7071 0.7071 0.7071 9.2629 94.6799)" fill="#0000FF" width="4.295" height="0.499"/>
		
			<rect x="117.508" y="36.644" transform="matrix(0.9658 -0.2592 0.2592 0.9658 -5.4736 32.2818)" fill="#0000FF" width="4.294" height="0.5"/>
		
			<rect x="116.065" y="35.203" transform="matrix(0.259 -0.9659 0.9659 0.259 53.3559 140.45)" fill="#0000FF" width="4.295" height="0.497"/>
		
			<rect x="139.266" y="13.798" transform="matrix(-0.7071 0.7071 -0.7071 -0.7071 251.3405 -76.0144)" fill="#0000FF" width="4.295" height="0.498"/>
		
			<rect x="138.53" y="13.062" transform="matrix(-0.966 0.2587 -0.2587 -0.966 280.0096 -10.218)" fill="#0000FF" width="4.295" height="0.498"/>
		
			<rect x="139.971" y="14.506" transform="matrix(-0.2591 0.9658 -0.9658 -0.2591 193.1943 -118.6879)" fill="#0000FF" width="4.297" height="0.498"/>
		
			<rect x="138.992" y="36.02" transform="matrix(-0.7071 -0.7071 0.7071 -0.7071 215.2951 161.7153)" fill="#0000FF" width="4.295" height="0.497"/>
		
			<rect x="139.727" y="35.283" transform="matrix(-0.2587 -0.966 0.966 -0.2587 144.2567 181.7705)" fill="#0000FF" width="4.296" height="0.499"/>
		
			<rect x="138.287" y="36.727" transform="matrix(-0.9659 -0.2589 0.2589 -0.9659 266.5078 109.0471)" fill="#0000FF" width="4.293" height="0.498"/>
		<polyline fill="#0000FF" points="117.686,12.082 120.723,15.119 120.371,15.471 117.334,12.434 		"/>
		<polyline fill="#0000FF" points="117.978,12.374 119.09,16.523 118.609,16.651 117.497,12.503 		"/>
		<polyline fill="#0000FF" points="117.727,12.274 121.874,13.385 121.746,13.866 117.598,12.754 		"/>
	</g>
	<g id="asptaWhite">
		<circle fill="none" stroke="#FFFFFF" stroke-width="2" cx="185.244" cy="25" r="23.382"/>
		<line fill="none" stroke="#FFFFFF" stroke-width="2" x1="208.626" y1="25" x2="203.161" y2="25.001"/>
		<line fill="none" stroke="#FFFFFF" stroke-width="2" x1="167.327" y1="25" x2="161.863" y2="25"/>
		<line fill="none" stroke="#FFFFFF" stroke-width="2" x1="185.245" y1="1.617" x2="185.245" y2="7.082"/>
		<line fill="none" stroke="#FFFFFF" stroke-width="2" x1="185.243" y1="42.916" x2="185.245" y2="48.381"/>
		<line fill="none" stroke="#FFFFFF" stroke-width="2" x1="201.779" y1="8.467" x2="197.915" y2="12.332"/>
		<line fill="none" stroke="#FFFFFF" stroke-width="2" x1="172.575" y1="37.669" x2="168.712" y2="41.534"/>
		<line fill="none" stroke="#FFFFFF" stroke-width="2" x1="168.71" y1="8.466" x2="172.575" y2="12.33"/>
		<line fill="none" stroke="#FFFFFF" stroke-width="2" x1="197.913" y1="37.67" x2="201.779" y2="41.533"/>
		<rect x="167.327" y="24.752" fill="#FFFFFF" width="4.295" height="0.498"/>
		
			<rect x="167.328" y="25.793" transform="matrix(0.866 0.5001 -0.5001 0.866 35.7356 -81.2604)" fill="#FFFFFF" width="4.294" height="0.498"/>
		
			<rect x="167.328" y="23.752" transform="matrix(0.8661 -0.4999 0.4999 0.8661 10.6961 87.9314)" fill="#FFFFFF" width="4.296" height="0.497"/>
		<rect x="198.868" y="25.021" fill="#FFFFFF" width="4.295" height="0.498"/>
		
			<rect x="198.869" y="23.981" transform="matrix(-0.866 -0.5001 0.5001 -0.866 362.9749 145.7361)" fill="#FFFFFF" width="4.294" height="0.498"/>
		
			<rect x="198.867" y="26.022" transform="matrix(-0.8661 0.4999 -0.4999 -0.8661 388.2449 -51.46)" fill="#FFFFFF" width="4.296" height="0.497"/>
		<rect x="184.861" y="38.644" fill="#FFFFFF" width="0.498" height="4.295"/>
		
			<rect x="184.002" y="40.542" transform="matrix(0.4997 -0.8662 0.8662 0.4997 57.796 181.6489)" fill="#FFFFFF" width="4.295" height="0.499"/>
		
			<rect x="181.963" y="40.543" transform="matrix(-0.4999 -0.8661 0.8661 -0.4999 240.8181 220.6377)" fill="#FFFFFF" width="4.294" height="0.497"/>
		<rect x="185.13" y="7.104" fill="#FFFFFF" width="0.498" height="4.295"/>
		
			<rect x="182.191" y="9.003" transform="matrix(-0.5002 0.8659 -0.8659 -0.5002 284.5549 -145.741)" fill="#FFFFFF" width="4.295" height="0.498"/>
		
			<rect x="184.231" y="9.004" transform="matrix(0.5001 0.866 -0.866 0.5001 101.1928 -156.7779)" fill="#FFFFFF" width="4.296" height="0.498"/>
		
			<rect x="171.932" y="35.909" transform="matrix(0.7071 -0.7071 0.7071 0.7071 25.4186 133.6833)" fill="#FFFFFF" width="4.295" height="0.499"/>
		
			<rect x="172.668" y="36.644" transform="matrix(0.9658 -0.2592 0.2592 0.9658 -3.5878 46.5816)" fill="#FFFFFF" width="4.294" height="0.5"/>
		
			<rect x="171.224" y="35.203" transform="matrix(0.259 -0.9659 0.9659 0.259 94.2301 193.7274)" fill="#FFFFFF" width="4.295" height="0.497"/>
		
			<rect x="194.425" y="13.798" transform="matrix(-0.7071 0.7071 -0.7071 -0.7071 345.5031 -115.0178)" fill="#FFFFFF" width="4.295" height="0.498"/>
		
			<rect x="193.689" y="13.062" transform="matrix(-0.966 0.2587 -0.2587 -0.966 388.4508 -24.4855)" fill="#FFFFFF" width="4.295" height="0.498"/>
		
			<rect x="195.13" y="14.506" transform="matrix(-0.2591 0.9658 -0.9658 -0.2591 262.6455 -171.9634)" fill="#FFFFFF" width="4.297" height="0.498"/>
		
			<rect x="194.152" y="36.02" transform="matrix(-0.7071 -0.7071 0.7071 -0.7071 309.4577 200.7187)" fill="#FFFFFF" width="4.295" height="0.497"/>
		
			<rect x="194.887" y="35.283" transform="matrix(-0.2587 -0.966 0.966 -0.2587 213.6861 235.0518)" fill="#FFFFFF" width="4.296" height="0.499"/>
		
			<rect x="193.447" y="36.727" transform="matrix(-0.9659 -0.2589 0.2589 -0.9659 374.9458 123.3268)" fill="#FFFFFF" width="4.293" height="0.498"/>
		<polyline fill="#FFFFFF" points="172.845,12.082 175.882,15.119 175.531,15.471 172.493,12.434 		"/>
		<polyline fill="#FFFFFF" points="173.137,12.374 174.249,16.523 173.768,16.651 172.656,12.503 		"/>
		<polyline fill="#FFFFFF" points="172.886,12.274 177.033,13.385 176.906,13.866 172.757,12.754 		"/>
	</g>
	<g id="asptaGrey">
		<circle fill="none" stroke="#FFFFFF" stroke-width="2" cx="244.244" cy="25" r="23.382"/>
		<line fill="none" stroke="#FFFFFF" stroke-width="2" x1="267.626" y1="25" x2="262.161" y2="25.001"/>
		<line fill="none" stroke="#FFFFFF" stroke-width="2" x1="226.327" y1="25" x2="220.863" y2="25"/>
		<line fill="none" stroke="#FFFFFF" stroke-width="2" x1="244.245" y1="1.617" x2="244.245" y2="7.082"/>
		<line fill="none" stroke="#FFFFFF" stroke-width="2" x1="244.243" y1="42.916" x2="244.245" y2="48.381"/>
		<line fill="none" stroke="#FFFFFF" stroke-width="2" x1="260.779" y1="8.467" x2="256.915" y2="12.332"/>
		<line fill="none" stroke="#FFFFFF" stroke-width="2" x1="231.575" y1="37.669" x2="227.712" y2="41.534"/>
		<line fill="none" stroke="#FFFFFF" stroke-width="2" x1="227.71" y1="8.466" x2="231.575" y2="12.33"/>
		<line fill="none" stroke="#FFFFFF" stroke-width="2" x1="256.913" y1="37.67" x2="260.779" y2="41.533"/>
		<rect x="226.327" y="24.752" fill="#848484" width="4.295" height="0.498"/>
		
			<rect x="226.328" y="25.793" transform="matrix(0.866 0.5001 -0.5001 0.866 43.6427 -110.7649)" fill="#848484" width="4.294" height="0.498"/>
		
			<rect x="226.328" y="23.752" transform="matrix(0.8661 -0.4999 0.4999 0.8661 18.5965 117.4243)" fill="#848484" width="4.296" height="0.497"/>
		<rect x="257.868" y="25.021" fill="#848484" width="4.295" height="0.498"/>
		
			<rect x="257.869" y="23.981" transform="matrix(-0.866 -0.5001 0.5001 -0.866 473.0678 175.2406)" fill="#848484" width="4.294" height="0.498"/>
		
			<rect x="257.867" y="26.022" transform="matrix(-0.8661 0.4999 -0.4999 -0.8661 498.3445 -80.9529)" fill="#848484" width="4.296" height="0.497"/>
		<rect x="243.861" y="38.644" fill="#848484" width="0.498" height="4.295"/>
		
			<rect x="243.002" y="40.542" transform="matrix(0.4997 -0.8662 0.8662 0.4997 87.3132 232.7543)" fill="#848484" width="4.295" height="0.499"/>
		
			<rect x="240.963" y="40.543" transform="matrix(-0.4999 -0.8661 0.8661 -0.4999 329.3125 271.7364)" fill="#848484" width="4.294" height="0.497"/>
		<rect x="244.13" y="7.104" fill="#848484" width="0.498" height="4.295"/>
		
			<rect x="241.191" y="9.003" transform="matrix(-0.5002 0.8659 -0.8659 -0.5002 373.0666 -196.8298)" fill="#848484" width="4.295" height="0.498"/>
		
			<rect x="243.231" y="9.004" transform="matrix(0.5001 0.866 -0.866 0.5001 130.6898 -207.8717)" fill="#848484" width="4.296" height="0.498"/>
		
			<rect x="230.932" y="35.909" transform="matrix(0.7071 -0.7071 0.7071 0.7071 42.6993 175.4026)" fill="#848484" width="4.295" height="0.499"/>
		
			<rect x="231.668" y="36.644" transform="matrix(0.9658 -0.2592 0.2592 0.9658 -1.5706 61.8773)" fill="#848484" width="4.294" height="0.5"/>
		
			<rect x="230.224" y="35.203" transform="matrix(0.259 -0.9659 0.9659 0.259 137.9503 250.7145)" fill="#848484" width="4.295" height="0.497"/>
		
			<rect x="253.425" y="13.798" transform="matrix(-0.7071 0.7071 -0.7071 -0.7071 446.2224 -156.7371)" fill="#848484" width="4.295" height="0.498"/>
		
			<rect x="252.689" y="13.062" transform="matrix(-0.966 0.2587 -0.2587 -0.966 504.443 -39.7464)" fill="#848484" width="4.295" height="0.498"/>
		
			<rect x="254.13" y="14.506" transform="matrix(-0.2591 0.9658 -0.9658 -0.2591 336.9327 -228.9485)" fill="#848484" width="4.297" height="0.498"/>
		
			<rect x="253.152" y="36.02" transform="matrix(-0.7071 -0.7071 0.7071 -0.7071 410.177 242.438)" fill="#848484" width="4.295" height="0.497"/>
		
			<rect x="253.887" y="35.283" transform="matrix(-0.2587 -0.966 0.966 -0.2587 287.95 292.0431)" fill="#848484" width="4.296" height="0.499"/>
		
			<rect x="252.447" y="36.727" transform="matrix(-0.9659 -0.2589 0.2589 -0.9659 490.9344 138.6007)" fill="#848484" width="4.293" height="0.498"/>
		<polyline fill="#848484" points="231.845,12.082 234.882,15.119 234.531,15.471 231.493,12.434 		"/>
		<polyline fill="#848484" points="232.137,12.374 233.249,16.523 232.768,16.651 231.656,12.503 		"/>
		<polyline fill="#848484" points="231.886,12.274 236.033,13.385 235.906,13.866 231.757,12.754 		"/>
	</g>
	<g id="asptaBlack">
		<circle fill="none" stroke="#FFFFFF" stroke-width="2" cx="244.048" cy="79.604" r="23.382"/>
		<line fill="none" stroke="#FFFFFF" stroke-width="2" x1="267.43" y1="79.604" x2="261.965" y2="79.604"/>
		<line fill="none" stroke="#FFFFFF" stroke-width="2" x1="226.131" y1="79.603" x2="220.666" y2="79.604"/>
		<line fill="none" stroke="#FFFFFF" stroke-width="2" x1="244.049" y1="56.221" x2="244.049" y2="61.686"/>
		<line fill="none" stroke="#FFFFFF" stroke-width="2" x1="244.047" y1="97.52" x2="244.049" y2="102.984"/>
		<line fill="none" stroke="#FFFFFF" stroke-width="2" x1="260.582" y1="63.07" x2="256.719" y2="66.935"/>
		<line fill="none" stroke="#FFFFFF" stroke-width="2" x1="231.379" y1="92.271" x2="227.516" y2="96.137"/>
		<line fill="none" stroke="#FFFFFF" stroke-width="2" x1="227.514" y1="63.068" x2="231.379" y2="66.933"/>
		<line fill="none" stroke="#FFFFFF" stroke-width="2" x1="256.717" y1="92.273" x2="260.582" y2="96.137"/>
		<rect x="226.131" y="79.355" width="4.295" height="0.498"/>
		<rect x="226.132" y="80.396" transform="matrix(0.8661 0.4999 -0.4999 0.8661 70.8859 -103.3179)" width="4.294" height="0.498"/>
		<rect x="226.132" y="78.356" transform="matrix(0.8662 -0.4997 0.4997 0.8662 -8.734 124.5912)" width="4.295" height="0.496"/>
		<rect x="257.672" y="79.625" width="4.295" height="0.498"/>
		
			<rect x="257.672" y="78.584" transform="matrix(-0.8659 -0.5002 0.5002 -0.8659 445.3568 277.0672)" width="4.295" height="0.498"/>
		<rect x="257.67" y="80.625" transform="matrix(-0.866 0.5001 -0.5001 -0.866 525.2617 20.9882)" width="4.296" height="0.498"/>
		<rect x="243.664" y="93.246" width="0.498" height="4.295"/>
		<rect x="242.806" y="95.144" transform="matrix(0.4997 -0.8662 0.8662 0.4997 39.9186 259.9014)" width="4.295" height="0.499"/>
		
			<rect x="240.766" y="95.146" transform="matrix(-0.4999 -0.8661 0.8661 -0.4999 281.728 353.4651)" width="4.294" height="0.497"/>
		<rect x="243.934" y="61.707" width="0.498" height="4.295"/>
		
			<rect x="240.994" y="63.606" transform="matrix(-0.5002 0.8659 -0.8659 -0.5002 420.0634 -114.7347)" width="4.295" height="0.498"/>
		<rect x="243.035" y="63.607" transform="matrix(0.5001 0.866 -0.866 0.5001 177.8777 -180.4029)" width="4.296" height="0.498"/>
		<rect x="230.735" y="90.512" transform="matrix(0.7071 -0.7071 0.7071 0.7071 4.0316 191.2567)" width="4.295" height="0.5"/>
		<rect x="231.471" y="91.247" transform="matrix(0.9658 -0.2592 0.2592 0.9658 -15.7332 63.6932)" width="4.294" height="0.5"/>
		<rect x="230.028" y="89.806" transform="matrix(0.259 -0.9659 0.9659 0.259 85.0648 290.9869)" width="4.295" height="0.497"/>
		
			<rect x="253.229" y="68.401" transform="matrix(-0.7071 0.7071 -0.7071 -0.7071 484.4973 -63.3855)" width="4.295" height="0.498"/>
		<rect x="252.493" y="67.666" transform="matrix(-0.966 0.2586 -0.2586 -0.966 518.1808 67.6815)" width="4.294" height="0.498"/>
		
			<rect x="253.934" y="69.109" transform="matrix(-0.2591 0.9658 -0.9658 -0.2591 389.4306 -160.004)" width="4.296" height="0.497"/>
		
			<rect x="252.955" y="90.623" transform="matrix(-0.7071 -0.7071 0.7071 -0.7071 371.2314 335.5132)" width="4.295" height="0.497"/>
		<rect x="253.69" y="89.886" transform="matrix(-0.2587 -0.966 0.966 -0.2587 234.9429 360.5816)" width="4.297" height="0.499"/>
		
			<rect x="252.25" y="91.331" transform="matrix(-0.9659 -0.2589 0.2589 -0.9659 476.4129 245.8945)" width="4.293" height="0.497"/>
		<polyline points="231.649,66.686 234.686,69.722 234.334,70.074 231.297,67.037 		"/>
		<polyline points="231.941,66.977 233.053,71.126 232.572,71.254 231.46,67.105 		"/>
		<polyline points="231.69,66.877 235.837,67.988 235.709,68.469 231.561,67.357 		"/>
	</g>
	<g id="asptaOrange">
		<circle fill="none" stroke="#FFFFFF" stroke-width="2" cx="185.048" cy="79.604" r="23.382"/>
		<line fill="none" stroke="#FFFFFF" stroke-width="2" x1="208.43" y1="79.604" x2="202.965" y2="79.604"/>
		<line fill="none" stroke="#FFFFFF" stroke-width="2" x1="167.131" y1="79.603" x2="161.666" y2="79.604"/>
		<line fill="none" stroke="#FFFFFF" stroke-width="2" x1="185.049" y1="56.221" x2="185.049" y2="61.686"/>
		<line fill="none" stroke="#FFFFFF" stroke-width="2" x1="185.047" y1="97.52" x2="185.049" y2="102.984"/>
		<line fill="none" stroke="#FFFFFF" stroke-width="2" x1="201.582" y1="63.07" x2="197.719" y2="66.935"/>
		<line fill="none" stroke="#FFFFFF" stroke-width="2" x1="172.379" y1="92.271" x2="168.516" y2="96.137"/>
		<line fill="none" stroke="#FFFFFF" stroke-width="2" x1="168.514" y1="63.068" x2="172.379" y2="66.933"/>
		<line fill="none" stroke="#FFFFFF" stroke-width="2" x1="197.717" y1="92.273" x2="201.582" y2="96.137"/>
		<rect x="167.131" y="79.355" fill="#FF7D03" width="4.295" height="0.498"/>
		
			<rect x="167.132" y="80.396" transform="matrix(0.8661 0.4999 -0.4999 0.8661 62.9846 -73.8235)" fill="#FF7D03" width="4.294" height="0.498"/>
		
			<rect x="167.132" y="78.356" transform="matrix(0.8662 -0.4997 0.4997 0.8662 -16.6286 95.1084)" fill="#FF7D03" width="4.295" height="0.496"/>
		<rect x="198.672" y="79.625" fill="#FF7D03" width="4.295" height="0.498"/>
		
			<rect x="198.672" y="78.584" transform="matrix(-0.8659 -0.5002 0.5002 -0.8659 335.2697 247.5526)" fill="#FF7D03" width="4.295" height="0.498"/>
		
			<rect x="198.67" y="80.625" transform="matrix(-0.866 0.5001 -0.5001 -0.866 415.1678 50.4912)" fill="#FF7D03" width="4.296" height="0.498"/>
		<rect x="184.664" y="93.246" fill="#FF7D03" width="0.498" height="4.295"/>
		
			<rect x="183.806" y="95.144" transform="matrix(0.4997 -0.8662 0.8662 0.4997 10.4015 208.7961)" fill="#FF7D03" width="4.295" height="0.499"/>
		
			<rect x="181.766" y="95.146" transform="matrix(-0.4999 -0.8661 0.8661 -0.4999 193.2335 302.3664)" fill="#FF7D03" width="4.294" height="0.497"/>
		<rect x="184.934" y="61.707" fill="#FF7D03" width="0.498" height="4.295"/>
		
			<rect x="181.994" y="63.606" transform="matrix(-0.5002 0.8659 -0.8659 -0.5002 331.5488 -63.6477)" fill="#FF7D03" width="4.295" height="0.498"/>
		
			<rect x="184.035" y="63.607" transform="matrix(0.5001 0.866 -0.866 0.5001 148.3806 -129.3092)" fill="#FF7D03" width="4.296" height="0.498"/>
		
			<rect x="171.735" y="90.512" transform="matrix(0.7071 -0.7071 0.7071 0.7071 -13.2491 149.5374)" fill="#FF7D03" width="4.295" height="0.5"/>
		
			<rect x="172.471" y="91.247" transform="matrix(0.9658 -0.2592 0.2592 0.9658 -17.7504 48.3976)" fill="#FF7D03" width="4.294" height="0.5"/>
		
			<rect x="171.028" y="89.806" transform="matrix(0.259 -0.9659 0.9659 0.259 41.3445 233.9998)" fill="#FF7D03" width="4.295" height="0.497"/>
		
			<rect x="194.229" y="68.401" transform="matrix(-0.7071 0.7071 -0.7071 -0.7071 383.778 -21.6662)" fill="#FF7D03" width="4.295" height="0.498"/>
		
			<rect x="193.493" y="67.666" transform="matrix(-0.966 0.2586 -0.2586 -0.966 402.187 82.9363)" fill="#FF7D03" width="4.294" height="0.498"/>
		
			<rect x="194.934" y="69.109" transform="matrix(-0.2591 0.9658 -0.9658 -0.2591 315.1417 -103.0193)" fill="#FF7D03" width="4.296" height="0.497"/>
		
			<rect x="193.955" y="90.623" transform="matrix(-0.7071 -0.7071 0.7071 -0.7071 270.5121 293.7939)" fill="#FF7D03" width="4.295" height="0.497"/>
		
			<rect x="194.69" y="89.886" transform="matrix(-0.2587 -0.966 0.966 -0.2587 160.6824 303.5894)" fill="#FF7D03" width="4.297" height="0.499"/>
		
			<rect x="193.25" y="91.331" transform="matrix(-0.9659 -0.2589 0.2589 -0.9659 360.4243 230.6206)" fill="#FF7D03" width="4.293" height="0.497"/>
		<polyline fill="#FF7D03" points="172.649,66.686 175.686,69.722 175.334,70.074 172.297,67.037 		"/>
		<polyline fill="#FF7D03" points="172.941,66.977 174.053,71.126 173.572,71.254 172.46,67.105 		"/>
		<polyline fill="#FF7D03" points="172.69,66.877 176.837,67.988 176.709,68.469 172.561,67.357 		"/>
	</g>
	<g id="asptaBrown">
		<circle fill="none" stroke="#FFFFFF" stroke-width="2" cx="126.05" cy="77.544" r="23.382"/>
		<line fill="none" stroke="#FFFFFF" stroke-width="2" x1="149.432" y1="77.544" x2="143.967" y2="77.544"/>
		<line fill="none" stroke="#FFFFFF" stroke-width="2" x1="108.133" y1="77.543" x2="102.668" y2="77.544"/>
		<line fill="none" stroke="#FFFFFF" stroke-width="2" x1="126.051" y1="54.161" x2="126.051" y2="59.626"/>
		<line fill="none" stroke="#FFFFFF" stroke-width="2" x1="126.049" y1="95.46" x2="126.051" y2="100.925"/>
		<line fill="none" stroke="#FFFFFF" stroke-width="2" x1="142.584" y1="61.011" x2="138.721" y2="64.875"/>
		<line fill="none" stroke="#FFFFFF" stroke-width="2" x1="113.381" y1="90.212" x2="109.518" y2="94.077"/>
		<line fill="none" stroke="#FFFFFF" stroke-width="2" x1="109.516" y1="61.009" x2="113.381" y2="64.873"/>
		<line fill="none" stroke="#FFFFFF" stroke-width="2" x1="138.719" y1="90.214" x2="142.584" y2="94.077"/>
		<rect x="108.133" y="77.296" fill="#724806" width="4.295" height="0.498"/>
		
			<rect x="108.134" y="78.336" transform="matrix(0.8661 0.4999 -0.4999 0.8661 54.0539 -44.6058)" fill="#724806" width="4.294" height="0.498"/>
		
			<rect x="108.134" y="76.297" transform="matrix(0.8662 -0.4997 0.4997 0.8662 -23.4938 65.3509)" fill="#724806" width="4.295" height="0.496"/>
		<rect x="139.674" y="77.565" fill="#724806" width="4.295" height="0.498"/>
		
			<rect x="139.674" y="76.525" transform="matrix(-0.8659 -0.5002 0.5002 -0.8659 226.2166 214.1961)" fill="#724806" width="4.295" height="0.498"/>
		
			<rect x="139.672" y="78.566" transform="matrix(-0.866 0.5001 -0.5001 -0.866 304.0479 76.15)" fill="#724806" width="4.296" height="0.498"/>
		<rect x="125.666" y="91.187" fill="#724806" width="0.498" height="4.295"/>
		
			<rect x="124.808" y="93.085" transform="matrix(0.4997 -0.8662 0.8662 0.4997 -17.3307 156.662)" fill="#724806" width="4.295" height="0.499"/>
		
			<rect x="122.768" y="93.086" transform="matrix(-0.4999 -0.8661 0.8661 -0.4999 106.5257 248.1803)" fill="#724806" width="4.294" height="0.497"/>
		<rect x="125.936" y="59.647" fill="#724806" width="0.498" height="4.295"/>
		
			<rect x="122.996" y="61.546" transform="matrix(-0.5002 0.8659 -0.8659 -0.5002 241.2538 -15.6522)" fill="#724806" width="4.295" height="0.498"/>
		
			<rect x="125.037" y="61.547" transform="matrix(0.5001 0.866 -0.866 0.5001 117.101 -79.2467)" fill="#724806" width="4.296" height="0.498"/>
		
			<rect x="112.737" y="88.452" transform="matrix(0.7071 -0.7071 0.7071 0.7071 -29.0728 107.2162)" fill="#724806" width="4.295" height="0.5"/>
		
			<rect x="113.473" y="89.188" transform="matrix(0.9658 -0.2592 0.2592 0.9658 -19.2335 33.0321)" fill="#724806" width="4.294" height="0.5"/>
		
			<rect x="112.03" y="87.746" transform="matrix(0.259 -0.9659 0.9659 0.259 -0.385 175.4884)" fill="#724806" width="4.295" height="0.497"/>
		
			<rect x="135.231" y="66.341" transform="matrix(-0.7071 0.7071 -0.7071 -0.7071 281.6057 16.5358)" fill="#724806" width="4.295" height="0.498"/>
		
			<rect x="134.495" y="65.606" transform="matrix(-0.966 0.2586 -0.2586 -0.966 285.6645 94.1413)" fill="#724806" width="4.294" height="0.498"/>
		
			<rect x="135.936" y="67.05" transform="matrix(-0.2591 0.9658 -0.9658 -0.2591 238.866 -48.6299)" fill="#724806" width="4.296" height="0.497"/>
		
			<rect x="134.957" y="88.564" transform="matrix(-0.7071 -0.7071 0.7071 -0.7071 171.2525 248.5601)" fill="#724806" width="4.295" height="0.497"/>
		
			<rect x="135.692" y="87.826" transform="matrix(-0.2587 -0.966 0.966 -0.2587 88.4138 244.0067)" fill="#724806" width="4.297" height="0.499"/>
		
			<rect x="134.252" y="89.271" transform="matrix(-0.9659 -0.2589 0.2589 -0.9659 244.9726 211.2982)" fill="#724806" width="4.293" height="0.497"/>
		<polyline fill="#724806" points="113.651,64.626 116.688,67.662 116.336,68.015 113.299,64.978 		"/>
		<polyline fill="#724806" points="113.943,64.917 115.055,69.066 114.573,69.194 113.462,65.046 		"/>
		<polyline fill="#724806" points="113.692,64.817 117.839,65.929 117.711,66.409 113.563,65.298 		"/>
	</g>
	<g id="asptaPurple">
		<circle fill="none" stroke="#FFFFFF" stroke-width="2" cx="73.764" cy="77.544" r="23.382"/>
		<line fill="none" stroke="#FFFFFF" stroke-width="2" x1="97.146" y1="77.544" x2="91.681" y2="77.544"/>
		<line fill="none" stroke="#FFFFFF" stroke-width="2" x1="55.847" y1="77.543" x2="50.382" y2="77.544"/>
		<line fill="none" stroke="#FFFFFF" stroke-width="2" x1="73.765" y1="54.161" x2="73.765" y2="59.626"/>
		<line fill="none" stroke="#FFFFFF" stroke-width="2" x1="73.763" y1="95.46" x2="73.765" y2="100.925"/>
		<line fill="none" stroke="#FFFFFF" stroke-width="2" x1="90.298" y1="61.011" x2="86.435" y2="64.875"/>
		<line fill="none" stroke="#FFFFFF" stroke-width="2" x1="61.095" y1="90.212" x2="57.232" y2="94.077"/>
		<line fill="none" stroke="#FFFFFF" stroke-width="2" x1="57.23" y1="61.009" x2="61.095" y2="64.873"/>
		<line fill="none" stroke="#FFFFFF" stroke-width="2" x1="86.433" y1="90.214" x2="90.298" y2="94.077"/>
		<rect x="55.847" y="77.296" fill="#FF00FF" width="4.295" height="0.498"/>
		
			<rect x="55.847" y="78.336" transform="matrix(0.8661 0.4999 -0.4999 0.8661 47.0517 -18.4676)" fill="#FF00FF" width="4.294" height="0.498"/>
		
			<rect x="55.848" y="76.297" transform="matrix(0.8662 -0.4997 0.4997 0.8662 -30.49 39.2231)" fill="#FF00FF" width="4.295" height="0.496"/>
		<rect x="87.388" y="77.565" fill="#FF00FF" width="4.295" height="0.498"/>
		
			<rect x="87.388" y="76.525" transform="matrix(-0.8659 -0.5002 0.5002 -0.8659 128.6568 188.0401)" fill="#FF00FF" width="4.295" height="0.498"/>
		
			<rect x="87.386" y="78.566" transform="matrix(-0.866 0.5001 -0.5001 -0.866 206.4821 102.2958)" fill="#FF00FF" width="4.296" height="0.498"/>
		<rect x="73.38" y="91.187" fill="#FF00FF" width="0.498" height="4.295"/>
		
			<rect x="72.521" y="93.085" transform="matrix(0.4997 -0.8662 0.8662 0.4997 -43.489 111.3721)" fill="#FF00FF" width="4.295" height="0.499"/>
		
			<rect x="70.482" y="93.086" transform="matrix(-0.4999 -0.8661 0.8661 -0.4999 28.1014 202.8963)" fill="#FF00FF" width="4.294" height="0.497"/>
		<rect x="73.65" y="59.647" fill="#FF00FF" width="0.498" height="4.295"/>
		
			<rect x="70.71" y="61.546" transform="matrix(-0.5002 0.8659 -0.8659 -0.5002 162.8117 29.6215)" fill="#FF00FF" width="4.295" height="0.498"/>
		
			<rect x="72.75" y="61.547" transform="matrix(0.5001 0.866 -0.866 0.5001 90.9606 -33.9671)" fill="#FF00FF" width="4.296" height="0.498"/>
		
			<rect x="60.451" y="88.452" transform="matrix(0.7071 -0.7071 0.7071 0.7071 -44.3871 70.2443)" fill="#FF00FF" width="4.295" height="0.5"/>
		
			<rect x="61.187" y="89.188" transform="matrix(0.9658 -0.2592 0.2592 0.9658 -21.0211 19.477)" fill="#FF00FF" width="4.294" height="0.5"/>
		
			<rect x="59.744" y="87.746" transform="matrix(0.259 -0.9659 0.9659 0.259 -39.1302 124.9861)" fill="#FF00FF" width="4.295" height="0.497"/>
		
			<rect x="82.944" y="66.341" transform="matrix(-0.7071 0.7071 -0.7071 -0.7071 192.3477 53.5076)" fill="#FF00FF" width="4.295" height="0.498"/>
		
			<rect x="82.208" y="65.606" transform="matrix(-0.966 0.2586 -0.2586 -0.966 182.8701 107.6601)" fill="#FF00FF" width="4.294" height="0.498"/>
		
			<rect x="83.65" y="67.05" transform="matrix(-0.2591 0.9658 -0.9658 -0.2591 173.0308 1.8702)" fill="#FF00FF" width="4.296" height="0.497"/>
		
			<rect x="82.671" y="88.564" transform="matrix(-0.7071 -0.7071 0.7071 -0.7071 81.9945 211.5882)" fill="#FF00FF" width="4.295" height="0.497"/>
		
			<rect x="83.406" y="87.826" transform="matrix(-0.2587 -0.966 0.966 -0.2587 22.6038 193.4999)" fill="#FF00FF" width="4.297" height="0.499"/>
		
			<rect x="81.966" y="89.271" transform="matrix(-0.9659 -0.2589 0.2589 -0.9659 142.1828 197.7624)" fill="#FF00FF" width="4.293" height="0.497"/>
		<polyline fill="#FF00FF" points="61.365,64.626 64.402,67.662 64.05,68.015 61.013,64.978 		"/>
		<polyline fill="#FF00FF" points="61.656,64.917 62.769,69.066 62.287,69.194 61.176,65.046 		"/>
		<polyline fill="#FF00FF" points="61.406,64.817 65.553,65.929 65.425,66.409 61.277,65.298 		"/>
	</g>
	<g id="asptaYellow">
		<circle fill="none" stroke="#FCFCFC" stroke-width="2" cx="21.536" cy="78.773" r="23.382"/>
		<line fill="none" stroke="#FCFCFC" stroke-width="2" x1="44.918" y1="78.773" x2="39.453" y2="78.773"/>
		<line fill="none" stroke="#FCFCFC" stroke-width="2" x1="3.619" y1="78.772" x2="-1.845" y2="78.773"/>
		<line fill="none" stroke="#FCFCFC" stroke-width="2" x1="21.537" y1="55.391" x2="21.537" y2="60.855"/>
		<line fill="none" stroke="#FCFCFC" stroke-width="2" x1="21.535" y1="96.689" x2="21.537" y2="102.154"/>
		<line fill="none" stroke="#FCFCFC" stroke-width="2" x1="38.071" y1="62.24" x2="34.207" y2="66.104"/>
		<line fill="none" stroke="#FCFCFC" stroke-width="2" x1="8.867" y1="91.441" x2="5.004" y2="95.307"/>
		<line fill="none" stroke="#FCFCFC" stroke-width="2" x1="5.002" y1="62.238" x2="8.867" y2="66.103"/>
		<line fill="none" stroke="#FCFCFC" stroke-width="2" x1="34.205" y1="91.443" x2="38.071" y2="95.307"/>
		<rect x="3.619" y="78.525" fill="#FFFF00" width="4.295" height="0.498"/>
		
			<rect x="3.62" y="79.566" transform="matrix(0.8661 0.4999 -0.4999 0.8661 40.672 7.8059)" fill="#FFFF00" width="4.294" height="0.498"/>
		
			<rect x="3.62" y="77.526" transform="matrix(0.8662 -0.4997 0.4997 0.8662 -38.0928 13.289)" fill="#FFFF00" width="4.295" height="0.496"/>
		<rect x="35.16" y="78.795" fill="#FFFF00" width="4.295" height="0.498"/>
		
			<rect x="35.16" y="77.754" transform="matrix(-0.8659 -0.5002 0.5002 -0.8659 30.5913 164.2075)" fill="#FFFF00" width="4.295" height="0.498"/>
		
			<rect x="35.159" y="79.795" transform="matrix(-0.866 0.5001 -0.5001 -0.866 109.6405 130.7064)" fill="#FFFF00" width="4.296" height="0.498"/>
		<rect x="21.153" y="92.416" fill="#FFFF00" width="0.498" height="4.295"/>
		
			<rect x="20.294" y="94.314" transform="matrix(0.4997 -0.8662 0.8662 0.4997 -70.6829 66.748)" fill="#FFFF00" width="4.295" height="0.499"/>
		
			<rect x="18.255" y="94.316" transform="matrix(-0.4999 -0.8661 0.8661 -0.4999 -51.2998 159.5072)" fill="#FFFF00" width="4.294" height="0.497"/>
		<rect x="21.422" y="60.877" fill="#FFFF00" width="0.498" height="4.295"/>
		
			<rect x="18.483" y="62.775" transform="matrix(-0.5002 0.8659 -0.8659 -0.5002 85.522 76.6889)" fill="#FFFF00" width="4.295" height="0.498"/>
		
			<rect x="20.523" y="62.776" transform="matrix(0.5001 0.866 -0.866 0.5001 65.9142 11.8764)" fill="#FFFF00" width="4.296" height="0.498"/>
		
			<rect x="8.224" y="89.682" transform="matrix(0.7071 -0.7071 0.7071 0.7071 -60.5536 33.674)" fill="#FFFF00" width="4.295" height="0.5"/>
		
			<rect x="8.96" y="90.417" transform="matrix(0.9658 -0.2592 0.2592 0.9658 -23.1255 5.9792)" fill="#FFFF00" width="4.294" height="0.5"/>
		
			<rect x="7.516" y="88.976" transform="matrix(0.259 -0.9659 0.9659 0.259 -79.0194 75.4515)" fill="#FFFF00" width="4.295" height="0.497"/>
		
			<rect x="30.717" y="67.571" transform="matrix(-0.7071 0.7071 -0.7071 -0.7071 104.0591 92.537)" fill="#FFFF00" width="4.295" height="0.498"/>
		
			<rect x="29.981" y="66.835" transform="matrix(-0.966 0.2586 -0.2586 -0.966 80.5089 123.581)" fill="#FFFF00" width="4.294" height="0.498"/>
		
			<rect x="31.422" y="68.279" transform="matrix(-0.2591 0.9658 -0.9658 -0.2591 108.4568 53.8619)" fill="#FFFF00" width="4.296" height="0.497"/>
		
			<rect x="30.444" y="89.793" transform="matrix(-0.7071 -0.7071 0.7071 -0.7071 -8.0329 176.7567)" fill="#FFFF00" width="4.295" height="0.497"/>
		
			<rect x="31.178" y="89.056" transform="matrix(-0.2587 -0.966 0.966 -0.2587 -44.3202 144.5972)" fill="#FFFF00" width="4.297" height="0.499"/>
		
			<rect x="29.739" y="90.501" transform="matrix(-0.9659 -0.2589 0.2589 -0.9659 39.1899 186.6588)" fill="#FFFF00" width="4.293" height="0.497"/>
		<polyline fill="#FFFF00" points="9.137,65.855 12.174,68.892 11.823,69.244 8.785,66.207 		"/>
		<polyline fill="#FFFF00" points="9.429,66.146 10.541,70.296 10.06,70.424 8.948,66.275 		"/>
		<polyline fill="#FFFF00" points="9.178,66.047 13.325,67.158 13.198,67.639 9.049,66.527 		"/>
	</g>
</g>
</svg>
