<?xml version="1.0" encoding="utf-8"?>
<!-- Generator: Adobe Illustrator 14.0.0, SVG Export Plug-In . SVG Version: 6.00 Build 43363)  -->
<!DOCTYPE svg PUBLIC "-//W3C//DTD SVG 1.1//EN" "http://www.w3.org/Graphics/SVG/1.1/DTD/svg11.dtd" [
	<!ENTITY ns_extend "http://ns.adobe.com/Extensibility/1.0/">
	<!ENTITY ns_ai "http://ns.adobe.com/AdobeIllustrator/10.0/">
	<!ENTITY ns_graphs "http://ns.adobe.com/Graphs/1.0/">
	<!ENTITY ns_vars "http://ns.adobe.com/Variables/1.0/">
	<!ENTITY ns_imrep "http://ns.adobe.com/ImageReplacement/1.0/">
	<!ENTITY ns_sfw "http://ns.adobe.com/SaveForWeb/1.0/">
	<!ENTITY ns_custom "http://ns.adobe.com/GenericCustomNamespace/1.0/">
	<!ENTITY ns_adobe_xpath "http://ns.adobe.com/XPath/1.0/">
]>
<svg version="1.1"
	 id="svg9493" xmlns:x="&ns_extend;" xmlns:i="&ns_ai;" xmlns:graph="&ns_graphs;" xmlns:inkscape="http://www.inkscape.org/namespaces/inkscape" sodipodi:docbase="/datas/Projs/Cliparts Stocker/led" sodipodi:docname="led_circle_blue.svg" sodipodi:version="0.32" inkscape:export-xdpi="90.000000" inkscape:export-ydpi="90.000000" inkscape:version="0.42" inkscape:export-filename="/datas/Projs/Cliparts Stocker/led/led_circle_blue.png" xmlns:svg="http://www.w3.org/2000/svg" xmlns:sodipodi="http://inkscape.sourceforge.net/DTD/sodipodi-0.dtd" xmlns:cc="http://web.resource.org/cc/" xmlns:dc="http://purl.org/dc/elements/1.1/" xmlns:rdf="http://www.w3.org/1999/02/22-rdf-syntax-ns#"
	 xmlns="http://www.w3.org/2000/svg" xmlns:xlink="http://www.w3.org/1999/xlink" x="0px" y="0px" width="50px" height="50px"
	 viewBox="0 0 50 50" enable-background="new 0 0 50 50" xml:space="preserve">
<metadata>
	
		<rdf:RDF  xmlns:cc="http://web.resource.org/cc/" xmlns:dc="http://purl.org/dc/elements/1.1/" xmlns:rdf="http://www.w3.org/1999/02/22-rdf-syntax-ns#">
		<cc:Work  rdf:about="">
			<dc:title>LED Circle (Blue)</dc:title>
			<dc:description>jean.victor.balin@gmail.com</dc:description>
			<dc:subject>
				<rdf:Bag>
					<rdf:li>led</rdf:li>
					<rdf:li>shape</rdf:li>
				</rdf:Bag>
			</dc:subject>
			<dc:publisher>
				<cc:Agent  rdf:about="http://www.openclipart.org/">
					<dc:title>Open Clip Art Library</dc:title>
				</cc:Agent>
			</dc:publisher>
			<dc:creator>
				<cc:Agent>
					<dc:title>Jean-Victor Balin</dc:title>
				</cc:Agent>
			</dc:creator>
			<dc:rights>
				<cc:Agent>
					<dc:title>Jean-Victor Balin</dc:title>
				</cc:Agent>
			</dc:rights>
			<dc:date>2005-08-21</dc:date>
			<dc:format>image/svg+xml</dc:format>
			<dc:type  rdf:resource="http://purl.org/dc/dcmitype/StillImage"></dc:type>
			<cc:license  rdf:resource="http://web.resource.org/cc/PublicDomain"></cc:license>
			<dc:language>en</dc:language>
		</cc:Work>
		<cc:License  rdf:about="http://web.resource.org/cc/PublicDomain">
			<cc:permits  rdf:resource="http://web.resource.org/cc/Reproduction"></cc:permits>
			<cc:permits  rdf:resource="http://web.resource.org/cc/Distribution"></cc:permits>
			<cc:permits  rdf:resource="http://web.resource.org/cc/DerivativeWorks"></cc:permits>
		</cc:License>
	</rdf:RDF>
	<sfw  xmlns="&ns_sfw;">
		<slices></slices>
		<sliceSourceBounds  height="88.621" width="337.338" x="526.72" y="-29.24" bottomLeftOrigin="true"></sliceSourceBounds>
	</sfw>
</metadata>
<g id="agitadores">
	<g id="bombatcRed">
		<g>
			<rect x="10.9" y="38.742" fill="#7F7D7D" width="14.78" height="2.62"/>
			<path fill="#969696" d="M32.94,17.813c0,2.42-1.96,4.38-4.38,4.38c-0.3,0-0.6-0.03-0.88-0.09v-5.78h-3.24
				c0.61-1.69,2.22-2.89,4.12-2.89C30.98,13.433,32.94,15.393,32.94,17.813z"/>
			<path fill="#969696" d="M24.19,27.022c0.07-2.05,1.54-3.73,3.49-4.13v4.13H24.19z"/>
			<linearGradient id="SVGID_1_" gradientUnits="userSpaceOnUse" x1="0.0852" y1="27.1045" x2="0.0852" y2="16.6162">
				<stop  offset="0" style="stop-color:#999999"/>
				<stop  offset="0.2152" style="stop-color:#CACACA"/>
				<stop  offset="0.4303" style="stop-color:#FFFFFF"/>
				<stop  offset="0.5378" style="stop-color:#F2F2F2"/>
				<stop  offset="0.7373" style="stop-color:#CFCFCF"/>
				<stop  offset="1" style="stop-color:#999999"/>
			</linearGradient>
			<polygon fill="url(#SVGID_1_)" points="1.67,16.322 1.67,27.022 1.67,28.223 -1.5,28.223 -1.5,15.112 1.67,15.112 			"/>
			<rect x="31.05" y="38.742" fill="#7F7D7D" width="14.79" height="2.62"/>
			<path fill="#FF0606" d="M27.68,22.893c-1.95,0.4-3.42,2.08-3.49,4.13h-8.73c-0.49-1.41-0.76-2.94-0.76-4.52
				c0-2.22,0.52-4.32,1.46-6.18h8.28c-0.17,0.46-0.26,0.97-0.26,1.49c0,2.12,1.5,3.88,3.5,4.29V22.893z"/>
			<path fill="#FF0606" d="M24.18,27.183c0,2.42,1.96,4.38,4.38,4.38s4.38-1.96,4.38-4.38s-1.96-4.38-4.38-4.38
				c-0.3,0-0.6,0.03-0.88,0.09v-0.79c0.28,0.06,0.58,0.09,0.88,0.09c2.42,0,4.38-1.96,4.38-4.38s-1.96-4.38-4.38-4.38
				c-1.899,0-3.51,1.2-4.12,2.89h-8.28c2.26-4.56,6.96-7.68,12.4-7.68c6.13,0,11.34,3.99,13.17,9.52H36.1v8.11h5.8
				c-0.72,2.56-2.159,4.81-4.08,6.55c-1.88,1.681-4.22,2.86-6.81,3.32c-0.79,0.149-1.61,0.22-2.45,0.22c-0.99,0-1.95-0.1-2.88-0.3
				v-0.07l-4.71-3.92l-1.3,1.07c-1.91-1.61-3.38-3.71-4.21-6.12h8.73C24.18,27.072,24.18,27.133,24.18,27.183z"/>
			<linearGradient id="SVGID_2_" gradientUnits="userSpaceOnUse" x1="52.2053" y1="26.0293" x2="52.2053" y2="18.4501">
				<stop  offset="0" style="stop-color:#999999"/>
				<stop  offset="0.2152" style="stop-color:#CACACA"/>
				<stop  offset="0.4303" style="stop-color:#FFFFFF"/>
				<stop  offset="0.5378" style="stop-color:#F2F2F2"/>
				<stop  offset="0.7373" style="stop-color:#CFCFCF"/>
				<stop  offset="1" style="stop-color:#999999"/>
			</linearGradient>
			<polygon fill="url(#SVGID_2_)" points="53.5,15.402 53.5,27.803 50.91,27.803 50.91,26.272 50.91,18.163 50.91,15.402 			"/>
			<path fill="#7F7D7D" d="M42.96,37.563H31.05v-1.2l-0.04-0.22c2.59-0.46,4.93-1.64,6.81-3.32L42.96,37.563z"/>
			<path fill="#969696" d="M28.56,31.563c-2.42,0-4.38-1.96-4.38-4.38c0-0.05,0-0.11,0.01-0.16h3.49v-4.13
				c0.28-0.06,0.58-0.09,0.88-0.09c2.42,0,4.38,1.96,4.38,4.38S30.98,31.563,28.56,31.563z"/>
			<path fill="#969696" d="M27.68,22.103c-2-0.41-3.5-2.17-3.5-4.29c0-0.52,0.09-1.03,0.26-1.49h3.24V22.103z"/>
			<path fill="#FF0606" d="M36.1,26.272v-8.11h5.63c0.45,1.36,0.69,2.82,0.69,4.34c0,1.31-0.18,2.57-0.521,3.77H36.1z"/>
			<path fill="#7F7D7D" d="M25.68,36.063v1.5H14.3l5.37-4.42C21.37,34.563,23.42,35.582,25.68,36.063z"/>
			<linearGradient id="SVGID_3_" gradientUnits="userSpaceOnUse" x1="46.3206" y1="26.0283" x2="46.3206" y2="18.4502">
				<stop  offset="0" style="stop-color:#999999"/>
				<stop  offset="0.2152" style="stop-color:#CACACA"/>
				<stop  offset="0.4303" style="stop-color:#FFFFFF"/>
				<stop  offset="0.5378" style="stop-color:#F2F2F2"/>
				<stop  offset="0.7373" style="stop-color:#CFCFCF"/>
				<stop  offset="1" style="stop-color:#999999"/>
			</linearGradient>
			<path fill="url(#SVGID_3_)" d="M42.42,22.502c0-1.52-0.24-2.98-0.69-4.34h9.181v8.11H41.9
				C42.24,25.072,42.42,23.813,42.42,22.502z"/>
			<path fill="#FF0606" d="M25.68,35.992v0.07c-2.26-0.48-4.31-1.5-6.01-2.92l1.3-1.07L25.68,35.992z"/>
			<linearGradient id="SVGID_4_" gradientUnits="userSpaceOnUse" x1="8.9148" y1="27.1035" x2="8.9148" y2="16.6157">
				<stop  offset="0" style="stop-color:#999999"/>
				<stop  offset="0.2152" style="stop-color:#CACACA"/>
				<stop  offset="0.4303" style="stop-color:#FFFFFF"/>
				<stop  offset="0.5378" style="stop-color:#F2F2F2"/>
				<stop  offset="0.7373" style="stop-color:#CFCFCF"/>
				<stop  offset="1" style="stop-color:#999999"/>
			</linearGradient>
			<path fill="url(#SVGID_4_)" d="M15.46,27.022H1.67v-10.7h14.49c-0.94,1.86-1.46,3.96-1.46,6.18
				C14.7,24.083,14.97,25.612,15.46,27.022z"/>
		</g>
		<g>
			
				<line fill="none" stroke="#000000" stroke-linecap="round" stroke-linejoin="round" x1="16.16" y1="16.322" x2="1.67" y2="16.322"/>
			
				<line fill="none" stroke="#000000" stroke-linecap="round" stroke-linejoin="round" x1="1.67" y1="27.022" x2="15.46" y2="27.022"/>
			
				<line fill="none" stroke="#000000" stroke-linecap="round" stroke-linejoin="round" x1="41.73" y1="18.163" x2="50.91" y2="18.163"/>
			
				<line fill="none" stroke="#000000" stroke-linecap="round" stroke-linejoin="round" x1="50.91" y1="26.272" x2="41.9" y2="26.272"/>
			<polygon fill="none" stroke="#000000" stroke-linecap="round" stroke-linejoin="round" points="1.67,27.022 1.67,28.223 
				-1.5,28.223 -1.5,15.112 1.67,15.112 1.67,16.322 			"/>
			<polygon fill="none" stroke="#000000" stroke-linecap="round" stroke-linejoin="round" points="50.91,18.163 50.91,15.402 
				53.5,15.402 53.5,27.803 50.91,27.803 50.91,26.272 			"/>
			
				<rect x="10.9" y="38.742" fill="none" stroke="#000000" stroke-width="0.5" stroke-linecap="round" stroke-linejoin="round" width="14.78" height="2.62"/>
			
				<rect x="31.05" y="38.742" fill="none" stroke="#000000" stroke-width="0.5" stroke-linecap="round" stroke-linejoin="round" width="14.79" height="2.62"/>
			
				<line fill="none" stroke="#000000" stroke-width="0.5" stroke-linecap="round" stroke-linejoin="round" x1="19.67" y1="33.143" x2="14.3" y2="37.563"/>
			
				<line fill="none" stroke="#000000" stroke-width="0.5" stroke-linecap="round" stroke-linejoin="round" x1="14.3" y1="37.563" x2="25.68" y2="37.563"/>
			
				<line fill="none" stroke="#000000" stroke-width="0.5" stroke-linecap="round" stroke-linejoin="round" x1="25.68" y1="37.563" x2="25.68" y2="36.063"/>
			
				<line fill="none" stroke="#000000" stroke-width="0.5" stroke-linecap="round" stroke-linejoin="round" x1="31.05" y1="37.563" x2="42.96" y2="37.563"/>
			
				<line fill="none" stroke="#000000" stroke-width="0.5" stroke-linecap="round" stroke-linejoin="round" x1="42.96" y1="37.563" x2="37.82" y2="32.822"/>
			<polyline fill="none" stroke="#000000" stroke-width="0.5" stroke-linecap="round" stroke-linejoin="round" points="
				31.05,37.593 31.05,37.563 31.05,36.362 			"/>
			<path fill="none" stroke="#000000" stroke-linecap="round" stroke-linejoin="round" d="M41.73,18.163
				c0.45,1.36,0.69,2.82,0.69,4.34c0,1.31-0.18,2.57-0.521,3.77c-0.72,2.56-2.159,4.81-4.08,6.55c-1.88,1.681-4.22,2.86-6.81,3.32
				c-0.79,0.149-1.61,0.22-2.45,0.22c-0.99,0-1.95-0.1-2.88-0.3c-2.26-0.48-4.31-1.5-6.01-2.92c-1.91-1.61-3.38-3.71-4.21-6.12
				c-0.49-1.41-0.76-2.94-0.76-4.52c0-2.22,0.52-4.32,1.46-6.18c2.26-4.56,6.96-7.68,12.4-7.68
				C34.69,8.643,39.9,12.632,41.73,18.163z"/>
			<path fill="none" stroke="#000000" stroke-linecap="round" stroke-linejoin="round" d="M24.44,16.322
				c0.61-1.69,2.22-2.89,4.12-2.89c2.42,0,4.38,1.96,4.38,4.38s-1.96,4.38-4.38,4.38c-0.3,0-0.6-0.03-0.88-0.09
				c-2-0.41-3.5-2.17-3.5-4.29C24.18,17.292,24.27,16.782,24.44,16.322z"/>
			<path fill="none" stroke="#000000" d="M27.68,22.893c0.28-0.06,0.58-0.09,0.88-0.09c2.42,0,4.38,1.96,4.38,4.38
				s-1.96,4.38-4.38,4.38s-4.38-1.96-4.38-4.38c0-0.05,0-0.11,0.01-0.16C24.26,24.973,25.73,23.292,27.68,22.893z"/>
		</g>
	</g>
	<g id="bombatcGreen">
		<g>
			<linearGradient id="SVGID_5_" gradientUnits="userSpaceOnUse" x1="72.6145" y1="27.1006" x2="72.6145" y2="16.6123">
				<stop  offset="0" style="stop-color:#999999"/>
				<stop  offset="0.2152" style="stop-color:#CACACA"/>
				<stop  offset="0.4303" style="stop-color:#FFFFFF"/>
				<stop  offset="0.5378" style="stop-color:#F2F2F2"/>
				<stop  offset="0.7373" style="stop-color:#CFCFCF"/>
				<stop  offset="1" style="stop-color:#999999"/>
			</linearGradient>
			<polygon fill="url(#SVGID_5_)" points="74.199,16.318 74.199,27.019 74.199,28.219 71.03,28.219 71.03,15.108 74.199,15.108 			
				"/>
			<path fill="#969696" d="M101.089,13.429c2.42,0,4.38,1.96,4.38,4.38s-1.96,4.38-4.38,4.38c-0.3,0-0.6-0.03-0.88-0.09v-5.78H96.98
				C97.579,14.628,99.199,13.429,101.089,13.429z"/>
			<rect x="83.429" y="38.738" fill="#7F7D7D" width="14.78" height="2.62"/>
			<rect x="103.579" y="38.738" fill="#7F7D7D" width="14.79" height="2.62"/>
			<path fill="#00FF00" d="M98.209,35.988v0.07c-2.26-0.48-4.31-1.5-6.01-2.92l1.3-1.07L98.209,35.988z"/>
			<linearGradient id="SVGID_6_" gradientUnits="userSpaceOnUse" x1="81.4446" y1="27.0996" x2="81.4446" y2="16.6118">
				<stop  offset="0" style="stop-color:#999999"/>
				<stop  offset="0.2152" style="stop-color:#CACACA"/>
				<stop  offset="0.4303" style="stop-color:#FFFFFF"/>
				<stop  offset="0.5378" style="stop-color:#F2F2F2"/>
				<stop  offset="0.7373" style="stop-color:#CFCFCF"/>
				<stop  offset="1" style="stop-color:#999999"/>
			</linearGradient>
			<path fill="url(#SVGID_6_)" d="M74.199,16.318h14.49c-0.94,1.86-1.46,3.96-1.46,6.18c0,1.58,0.26,3.1,0.76,4.52h-13.79V16.318z"
				/>
			<linearGradient id="SVGID_7_" gradientUnits="userSpaceOnUse" x1="118.8499" y1="26.0244" x2="118.8499" y2="18.4463">
				<stop  offset="0" style="stop-color:#999999"/>
				<stop  offset="0.2152" style="stop-color:#CACACA"/>
				<stop  offset="0.4303" style="stop-color:#FFFFFF"/>
				<stop  offset="0.5378" style="stop-color:#F2F2F2"/>
				<stop  offset="0.7373" style="stop-color:#CFCFCF"/>
				<stop  offset="1" style="stop-color:#999999"/>
			</linearGradient>
			<path fill="url(#SVGID_7_)" d="M123.44,18.159v8.11h-9.011c0.341-1.2,0.521-2.46,0.521-3.77c0-1.52-0.24-2.98-0.69-4.34H123.44z"
				/>
			<path fill="#00FF00" d="M101.089,22.188c2.42,0,4.38-1.96,4.38-4.38s-1.96-4.38-4.38-4.38c-1.89,0-3.51,1.2-4.109,2.89h-8.29
				c2.26-4.56,6.96-7.68,12.399-7.68c6.13,0,11.34,3.99,13.17,9.52h-5.63v8.11h5.8c-0.72,2.55-2.159,4.81-4.08,6.55
				c-1.88,1.68-4.22,2.86-6.81,3.32c-0.79,0.149-1.61,0.22-2.45,0.22c-0.99,0-1.95-0.1-2.88-0.3v-0.07l-4.71-3.92l-1.3,1.07
				c-1.91-1.61-3.391-3.71-4.21-6.12h8.729c-0.01,0.06-0.01,0.11-0.01,0.17c0,2.42,1.96,4.38,4.38,4.38s4.38-1.96,4.38-4.38
				s-1.96-4.38-4.38-4.38c-0.3,0-0.6,0.03-0.88,0.09v-0.8C100.49,22.159,100.789,22.188,101.089,22.188z"/>
			<linearGradient id="SVGID_8_" gradientUnits="userSpaceOnUse" x1="124.7346" y1="26.0254" x2="124.7346" y2="18.4462">
				<stop  offset="0" style="stop-color:#999999"/>
				<stop  offset="0.2152" style="stop-color:#CACACA"/>
				<stop  offset="0.4303" style="stop-color:#FFFFFF"/>
				<stop  offset="0.5378" style="stop-color:#F2F2F2"/>
				<stop  offset="0.7373" style="stop-color:#CFCFCF"/>
				<stop  offset="1" style="stop-color:#999999"/>
			</linearGradient>
			<polygon fill="url(#SVGID_8_)" points="126.03,15.398 126.03,27.799 123.44,27.799 123.44,26.269 123.44,18.159 123.44,15.398 
							"/>
			<path fill="#969696" d="M101.089,22.809c2.42,0,4.38,1.96,4.38,4.38s-1.96,4.38-4.38,4.38s-4.38-1.96-4.38-4.38
				c0-0.06,0-0.11,0.01-0.17h3.49v-4.12C100.49,22.838,100.789,22.809,101.089,22.809z"/>
			<path fill="#969696" d="M100.209,22.898v4.12h-3.49C96.789,24.979,98.259,23.298,100.209,22.898z"/>
			<path fill="#00FF00" d="M100.209,22.099v0.8c-1.95,0.4-3.42,2.08-3.49,4.12H87.99c-0.5-1.42-0.76-2.94-0.76-4.52
				c0-2.22,0.52-4.32,1.46-6.18h8.29c-0.181,0.46-0.271,0.96-0.271,1.49C96.709,19.929,98.209,21.688,100.209,22.099z"/>
			<path fill="#969696" d="M100.209,16.318v5.78c-2-0.41-3.5-2.17-3.5-4.29c0-0.53,0.09-1.03,0.271-1.49H100.209z"/>
			<path fill="#7F7D7D" d="M115.49,37.559h-11.91v-1.2l-0.04-0.22c2.59-0.46,4.93-1.641,6.81-3.32L115.49,37.559z"/>
			<path fill="#7F7D7D" d="M98.209,36.059v1.5h-11.38l5.37-4.42C93.9,34.559,95.949,35.578,98.209,36.059z"/>
			<path fill="#00FF00" d="M114.949,22.499c0,1.31-0.18,2.57-0.521,3.77h-5.8v-8.11h5.63
				C114.709,19.519,114.949,20.979,114.949,22.499z"/>
		</g>
		<g>
			
				<line fill="none" stroke="#000000" stroke-linecap="round" stroke-linejoin="round" x1="88.69" y1="16.318" x2="74.199" y2="16.318"/>
			
				<line fill="none" stroke="#000000" stroke-linecap="round" stroke-linejoin="round" x1="74.199" y1="27.019" x2="87.99" y2="27.019"/>
			
				<line fill="none" stroke="#000000" stroke-linecap="round" stroke-linejoin="round" x1="114.259" y1="18.159" x2="123.44" y2="18.159"/>
			
				<line fill="none" stroke="#000000" stroke-linecap="round" stroke-linejoin="round" x1="123.44" y1="26.269" x2="114.429" y2="26.269"/>
			<polygon fill="none" stroke="#000000" stroke-linecap="round" stroke-linejoin="round" points="74.199,27.019 74.199,28.219 
				71.03,28.219 71.03,15.108 74.199,15.108 74.199,16.318 			"/>
			<polygon fill="none" stroke="#000000" stroke-linecap="round" stroke-linejoin="round" points="123.44,18.159 123.44,15.398 
				126.03,15.398 126.03,27.799 123.44,27.799 123.44,26.269 			"/>
			
				<rect x="83.429" y="38.738" fill="none" stroke="#000000" stroke-width="0.5" stroke-linecap="round" stroke-linejoin="round" width="14.78" height="2.62"/>
			
				<rect x="103.579" y="38.738" fill="none" stroke="#000000" stroke-width="0.5" stroke-linecap="round" stroke-linejoin="round" width="14.79" height="2.62"/>
			
				<line fill="none" stroke="#000000" stroke-width="0.5" stroke-linecap="round" stroke-linejoin="round" x1="92.199" y1="33.139" x2="86.829" y2="37.559"/>
			
				<line fill="none" stroke="#000000" stroke-width="0.5" stroke-linecap="round" stroke-linejoin="round" x1="86.829" y1="37.559" x2="98.209" y2="37.559"/>
			
				<line fill="none" stroke="#000000" stroke-width="0.5" stroke-linecap="round" stroke-linejoin="round" x1="98.209" y1="37.559" x2="98.209" y2="36.059"/>
			
				<line fill="none" stroke="#000000" stroke-width="0.5" stroke-linecap="round" stroke-linejoin="round" x1="103.579" y1="37.559" x2="115.49" y2="37.559"/>
			
				<line fill="none" stroke="#000000" stroke-width="0.5" stroke-linecap="round" stroke-linejoin="round" x1="115.49" y1="37.559" x2="110.349" y2="32.818"/>
			<polyline fill="none" stroke="#000000" stroke-width="0.5" stroke-linecap="round" stroke-linejoin="round" points="
				103.579,37.589 103.579,37.559 103.579,36.358 			"/>
			<path fill="none" stroke="#000000" stroke-linecap="round" stroke-linejoin="round" d="M114.259,18.159
				c0.45,1.36,0.69,2.82,0.69,4.34c0,1.31-0.18,2.57-0.521,3.77c-0.72,2.55-2.159,4.81-4.08,6.55c-1.88,1.68-4.22,2.86-6.81,3.32
				c-0.79,0.149-1.61,0.22-2.45,0.22c-0.99,0-1.95-0.1-2.88-0.3c-2.26-0.48-4.31-1.5-6.01-2.92c-1.91-1.61-3.391-3.71-4.21-6.12
				c-0.5-1.42-0.76-2.94-0.76-4.52c0-2.22,0.52-4.32,1.46-6.18c2.26-4.56,6.96-7.68,12.399-7.68
				C107.219,8.639,112.429,12.628,114.259,18.159z"/>
			<path fill="none" stroke="#000000" stroke-linecap="round" stroke-linejoin="round" d="M96.98,16.318
				c0.6-1.69,2.22-2.89,4.109-2.89c2.42,0,4.38,1.96,4.38,4.38s-1.96,4.38-4.38,4.38c-0.3,0-0.6-0.03-0.88-0.09
				c-2-0.41-3.5-2.17-3.5-4.29C96.709,17.278,96.799,16.778,96.98,16.318z"/>
			<path fill="none" stroke="#000000" d="M100.209,22.898c0.28-0.06,0.58-0.09,0.88-0.09c2.42,0,4.38,1.96,4.38,4.38
				s-1.96,4.38-4.38,4.38s-4.38-1.96-4.38-4.38c0-0.06,0-0.11,0.01-0.17C96.789,24.979,98.259,23.298,100.209,22.898z"/>
		</g>
	</g>
	<g id="bombatcBlue">
		<g>
			<linearGradient id="SVGID_9_" gradientUnits="userSpaceOnUse" x1="148.2571" y1="27.0996" x2="148.2571" y2="16.6123">
				<stop  offset="0" style="stop-color:#999999"/>
				<stop  offset="0.2152" style="stop-color:#CACACA"/>
				<stop  offset="0.4303" style="stop-color:#FFFFFF"/>
				<stop  offset="0.5378" style="stop-color:#F2F2F2"/>
				<stop  offset="0.7373" style="stop-color:#CFCFCF"/>
				<stop  offset="1" style="stop-color:#999999"/>
			</linearGradient>
			<path fill="url(#SVGID_9_)" d="M141.012,16.319h14.49c-0.94,1.86-1.46,3.96-1.46,6.18c0,1.58,0.27,3.1,0.76,4.52h-13.79V16.319z"
				/>
			<rect x="150.241" y="38.739" fill="#7F7D7D" width="14.78" height="2.62"/>
			<rect x="170.392" y="38.739" fill="#7F7D7D" width="14.79" height="2.62"/>
			<path fill="#0000FF" d="M165.022,35.989v0.069c-2.26-0.479-4.31-1.5-6.01-2.92l1.3-1.069L165.022,35.989z"/>
			<path fill="#969696" d="M167.902,13.429c2.42,0,4.38,1.96,4.38,4.38c0,2.42-1.96,4.38-4.38,4.38c-0.3,0-0.6-0.03-0.88-0.09v-5.78
				h-3.24C164.392,14.629,166.002,13.429,167.902,13.429z"/>
			<linearGradient id="SVGID_10_" gradientUnits="userSpaceOnUse" x1="139.427" y1="27.1006" x2="139.427" y2="16.6127">
				<stop  offset="0" style="stop-color:#999999"/>
				<stop  offset="0.2152" style="stop-color:#CACACA"/>
				<stop  offset="0.4303" style="stop-color:#FFFFFF"/>
				<stop  offset="0.5378" style="stop-color:#F2F2F2"/>
				<stop  offset="0.7373" style="stop-color:#CFCFCF"/>
				<stop  offset="1" style="stop-color:#999999"/>
			</linearGradient>
			<polygon fill="url(#SVGID_10_)" points="141.012,16.319 141.012,27.019 141.012,28.219 137.842,28.219 137.842,15.109 
				141.012,15.109 			"/>
			<path fill="#969696" d="M167.902,22.809c2.42,0,4.38,1.96,4.38,4.379c0,2.421-1.96,4.381-4.38,4.381s-4.38-1.96-4.38-4.381
				c0-0.06,0-0.109,0.01-0.17h3.49v-4.12C167.302,22.839,167.602,22.809,167.902,22.809z"/>
			<linearGradient id="SVGID_11_" gradientUnits="userSpaceOnUse" x1="185.6624" y1="26.0244" x2="185.6624" y2="18.4463">
				<stop  offset="0" style="stop-color:#999999"/>
				<stop  offset="0.2152" style="stop-color:#CACACA"/>
				<stop  offset="0.4303" style="stop-color:#FFFFFF"/>
				<stop  offset="0.5378" style="stop-color:#F2F2F2"/>
				<stop  offset="0.7373" style="stop-color:#CFCFCF"/>
				<stop  offset="1" style="stop-color:#999999"/>
			</linearGradient>
			<path fill="url(#SVGID_11_)" d="M190.252,18.159v8.11h-9.011c0.341-1.2,0.521-2.459,0.521-3.77c0-1.52-0.24-2.98-0.69-4.34
				H190.252z"/>
			<path fill="#0000FF" d="M167.022,22.099v0.8c-1.95,0.4-3.42,2.08-3.49,4.12h-8.729c-0.49-1.42-0.76-2.939-0.76-4.52
				c0-2.22,0.52-4.32,1.46-6.18h8.279c-0.17,0.46-0.26,0.97-0.26,1.49C163.522,19.929,165.022,21.689,167.022,22.099z"/>
			<path fill="#969696" d="M167.022,22.899v4.12h-3.49C163.602,24.979,165.072,23.299,167.022,22.899z"/>
			<path fill="#969696" d="M167.022,16.319v5.78c-2-0.41-3.5-2.17-3.5-4.29c0-0.52,0.09-1.03,0.26-1.49H167.022z"/>
			<path fill="#7F7D7D" d="M182.302,37.559h-11.91v-1.199l-0.04-0.221c2.59-0.46,4.93-1.64,6.81-3.319L182.302,37.559z"/>
			<linearGradient id="SVGID_12_" gradientUnits="userSpaceOnUse" x1="191.5471" y1="26.0254" x2="191.5471" y2="18.4465">
				<stop  offset="0" style="stop-color:#999999"/>
				<stop  offset="0.2152" style="stop-color:#CACACA"/>
				<stop  offset="0.4303" style="stop-color:#FFFFFF"/>
				<stop  offset="0.5378" style="stop-color:#F2F2F2"/>
				<stop  offset="0.7373" style="stop-color:#CFCFCF"/>
				<stop  offset="1" style="stop-color:#999999"/>
			</linearGradient>
			<polygon fill="url(#SVGID_12_)" points="192.842,15.399 192.842,27.799 190.252,27.799 190.252,26.269 190.252,18.159 
				190.252,15.399 			"/>
			<path fill="#0000FF" d="M167.902,22.189c2.42,0,4.38-1.96,4.38-4.38c0-2.42-1.96-4.38-4.38-4.38c-1.899,0-3.51,1.2-4.12,2.89
				h-8.279c2.26-4.56,6.96-7.68,12.399-7.68c6.13,0,11.34,3.99,13.17,9.52h-5.63v8.11h5.8c-0.72,2.561-2.159,4.811-4.08,6.551
				c-1.88,1.68-4.22,2.859-6.81,3.319c-0.79,0.15-1.61,0.221-2.45,0.221c-0.99,0-1.95-0.101-2.88-0.301v-0.069l-4.71-3.92
				l-1.3,1.069c-1.91-1.609-3.38-3.71-4.21-6.12h8.729c-0.01,0.061-0.01,0.11-0.01,0.17c0,2.421,1.96,4.381,4.38,4.381
				s4.38-1.96,4.38-4.381c0-2.419-1.96-4.379-4.38-4.379c-0.3,0-0.6,0.03-0.88,0.09v-0.8
				C167.302,22.159,167.602,22.189,167.902,22.189z"/>
			<path fill="#7F7D7D" d="M165.022,36.059v1.5h-11.38l5.37-4.42C160.712,34.559,162.762,35.579,165.022,36.059z"/>
			<path fill="#0000FF" d="M181.762,22.499c0,1.31-0.18,2.57-0.521,3.77h-5.8v-8.11h5.63
				C181.522,19.519,181.762,20.979,181.762,22.499z"/>
		</g>
		<g>
			
				<line fill="none" stroke="#000000" stroke-linecap="round" stroke-linejoin="round" x1="155.502" y1="16.319" x2="141.012" y2="16.319"/>
			
				<line fill="none" stroke="#000000" stroke-linecap="round" stroke-linejoin="round" x1="141.012" y1="27.019" x2="154.802" y2="27.019"/>
			
				<line fill="none" stroke="#000000" stroke-linecap="round" stroke-linejoin="round" x1="181.072" y1="18.159" x2="190.252" y2="18.159"/>
			
				<line fill="none" stroke="#000000" stroke-linecap="round" stroke-linejoin="round" x1="190.252" y1="26.269" x2="181.241" y2="26.269"/>
			<polygon fill="none" stroke="#000000" stroke-linecap="round" stroke-linejoin="round" points="141.012,27.019 141.012,28.219 
				137.842,28.219 137.842,15.109 141.012,15.109 141.012,16.319 			"/>
			<polygon fill="none" stroke="#000000" stroke-linecap="round" stroke-linejoin="round" points="190.252,18.159 190.252,15.399 
				192.842,15.399 192.842,27.799 190.252,27.799 190.252,26.269 			"/>
			
				<rect x="150.241" y="38.739" fill="none" stroke="#000000" stroke-width="0.5" stroke-linecap="round" stroke-linejoin="round" width="14.78" height="2.62"/>
			
				<rect x="170.392" y="38.739" fill="none" stroke="#000000" stroke-width="0.5" stroke-linecap="round" stroke-linejoin="round" width="14.79" height="2.62"/>
			
				<line fill="none" stroke="#000000" stroke-width="0.5" stroke-linecap="round" stroke-linejoin="round" x1="159.012" y1="33.139" x2="153.642" y2="37.559"/>
			
				<line fill="none" stroke="#000000" stroke-width="0.5" stroke-linecap="round" stroke-linejoin="round" x1="153.642" y1="37.559" x2="165.022" y2="37.559"/>
			
				<line fill="none" stroke="#000000" stroke-width="0.5" stroke-linecap="round" stroke-linejoin="round" x1="165.022" y1="37.559" x2="165.022" y2="36.059"/>
			
				<line fill="none" stroke="#000000" stroke-width="0.5" stroke-linecap="round" stroke-linejoin="round" x1="170.392" y1="37.559" x2="182.302" y2="37.559"/>
			
				<line fill="none" stroke="#000000" stroke-width="0.5" stroke-linecap="round" stroke-linejoin="round" x1="182.302" y1="37.559" x2="177.161" y2="32.819"/>
			<polyline fill="none" stroke="#000000" stroke-width="0.5" stroke-linecap="round" stroke-linejoin="round" points="
				170.392,37.589 170.392,37.559 170.392,36.359 			"/>
			<path fill="none" stroke="#000000" stroke-linecap="round" stroke-linejoin="round" d="M181.072,18.159
				c0.45,1.36,0.69,2.82,0.69,4.34c0,1.31-0.18,2.57-0.521,3.77c-0.72,2.561-2.159,4.811-4.08,6.551
				c-1.88,1.68-4.22,2.859-6.81,3.319c-0.79,0.15-1.61,0.221-2.45,0.221c-0.99,0-1.95-0.101-2.88-0.301
				c-2.26-0.479-4.31-1.5-6.01-2.92c-1.91-1.609-3.38-3.71-4.21-6.12c-0.49-1.42-0.76-2.939-0.76-4.52c0-2.22,0.52-4.32,1.46-6.18
				c2.26-4.56,6.96-7.68,12.399-7.68C174.031,8.639,179.241,12.629,181.072,18.159z"/>
			<path fill="none" stroke="#000000" stroke-linecap="round" stroke-linejoin="round" d="M163.781,16.319
				c0.61-1.69,2.221-2.89,4.12-2.89c2.42,0,4.38,1.96,4.38,4.38c0,2.42-1.96,4.38-4.38,4.38c-0.3,0-0.6-0.03-0.88-0.09
				c-2-0.41-3.5-2.17-3.5-4.29C163.522,17.289,163.612,16.779,163.781,16.319z"/>
			<path fill="none" stroke="#000000" d="M167.022,22.899c0.28-0.06,0.58-0.09,0.88-0.09c2.42,0,4.38,1.96,4.38,4.379
				c0,2.421-1.96,4.381-4.38,4.381s-4.38-1.96-4.38-4.381c0-0.06,0-0.109,0.01-0.17C163.602,24.979,165.072,23.299,167.022,22.899z"
				/>
		</g>
	</g>
	<g id="bombatcWhite">
		<g>
			<linearGradient id="SVGID_13_" gradientUnits="userSpaceOnUse" x1="252.6829" y1="26.0254" x2="252.6829" y2="18.4462">
				<stop  offset="0" style="stop-color:#999999"/>
				<stop  offset="0.2152" style="stop-color:#CACACA"/>
				<stop  offset="0.4303" style="stop-color:#FFFFFF"/>
				<stop  offset="0.5378" style="stop-color:#F2F2F2"/>
				<stop  offset="0.7373" style="stop-color:#CFCFCF"/>
				<stop  offset="1" style="stop-color:#999999"/>
			</linearGradient>
			<polygon fill="url(#SVGID_13_)" points="253.978,15.398 253.978,27.799 251.388,27.799 251.388,26.269 251.388,18.159 
				251.388,15.398 			"/>
			<path fill="#FFFFFF" d="M228.157,22.099v0.8c-1.95,0.4-3.42,2.08-3.49,4.12h-8.729c-0.5-1.42-0.76-2.94-0.76-4.52
				c0-2.22,0.52-4.32,1.46-6.18h8.29c-0.181,0.46-0.271,0.96-0.271,1.49C224.657,19.929,226.157,21.688,228.157,22.099z"/>
			<path fill="#969696" d="M228.157,16.318v5.78c-2-0.41-3.5-2.17-3.5-4.29c0-0.53,0.09-1.03,0.271-1.49H228.157z"/>
			<linearGradient id="SVGID_14_" gradientUnits="userSpaceOnUse" x1="246.7971" y1="26.0244" x2="246.7971" y2="18.4463">
				<stop  offset="0" style="stop-color:#999999"/>
				<stop  offset="0.2152" style="stop-color:#CACACA"/>
				<stop  offset="0.4303" style="stop-color:#FFFFFF"/>
				<stop  offset="0.5378" style="stop-color:#F2F2F2"/>
				<stop  offset="0.7373" style="stop-color:#CFCFCF"/>
				<stop  offset="1" style="stop-color:#999999"/>
			</linearGradient>
			<path fill="url(#SVGID_14_)" d="M251.388,18.159v8.11h-9.011c0.341-1.2,0.521-2.46,0.521-3.77c0-1.52-0.24-2.98-0.69-4.34
				H251.388z"/>
			<path fill="#969696" d="M229.037,22.809c2.42,0,4.38,1.96,4.38,4.38s-1.96,4.38-4.38,4.38s-4.38-1.96-4.38-4.38
				c0-0.06,0-0.11,0.01-0.17h3.49v-4.12C228.438,22.838,228.738,22.809,229.037,22.809z"/>
			<rect x="231.528" y="38.738" fill="#7F7D7D" width="14.79" height="2.62"/>
			<path fill="#FFFFFF" d="M226.157,35.988v0.07c-2.26-0.48-4.31-1.5-6.01-2.92l1.3-1.07L226.157,35.988z"/>
			<path fill="#7F7D7D" d="M226.157,36.059v1.5h-11.38l5.37-4.42C221.848,34.559,223.898,35.578,226.157,36.059z"/>
			<path fill="#FFFFFF" d="M242.898,22.499c0,1.31-0.18,2.57-0.521,3.77h-5.8v-8.11h5.63
				C242.657,19.519,242.898,20.979,242.898,22.499z"/>
			<path fill="#FFFFFF" d="M229.037,22.809c-0.3,0-0.6,0.03-0.88,0.09v-0.8c0.28,0.06,0.58,0.09,0.88,0.09
				c2.42,0,4.38-1.96,4.38-4.38s-1.96-4.38-4.38-4.38c-1.89,0-3.51,1.2-4.109,2.89h-8.29c2.26-4.56,6.96-7.68,12.399-7.68
				c6.13,0,11.34,3.99,13.17,9.52h-5.63v8.11h5.8c-0.72,2.55-2.159,4.81-4.08,6.55c-1.88,1.68-4.22,2.86-6.81,3.32
				c-0.79,0.149-1.61,0.22-2.45,0.22c-0.99,0-1.95-0.1-2.88-0.3v-0.07l-4.71-3.92l-1.3,1.07c-1.91-1.61-3.39-3.71-4.21-6.12h8.729
				c-0.01,0.06-0.01,0.11-0.01,0.17c0,2.42,1.96,4.38,4.38,4.38s4.38-1.96,4.38-4.38S231.457,22.809,229.037,22.809z"/>
			<path fill="#969696" d="M228.157,22.898v4.12h-3.49C224.738,24.979,226.207,23.298,228.157,22.898z"/>
			<linearGradient id="SVGID_15_" gradientUnits="userSpaceOnUse" x1="200.5627" y1="27.1006" x2="200.5627" y2="16.6123">
				<stop  offset="0" style="stop-color:#999999"/>
				<stop  offset="0.2152" style="stop-color:#CACACA"/>
				<stop  offset="0.4303" style="stop-color:#FFFFFF"/>
				<stop  offset="0.5378" style="stop-color:#F2F2F2"/>
				<stop  offset="0.7373" style="stop-color:#CFCFCF"/>
				<stop  offset="1" style="stop-color:#999999"/>
			</linearGradient>
			<polygon fill="url(#SVGID_15_)" points="202.148,16.318 202.148,27.019 202.148,28.219 198.978,28.219 198.978,15.108 
				202.148,15.108 			"/>
			<rect x="211.377" y="38.738" fill="#7F7D7D" width="14.78" height="2.62"/>
			<path fill="#7F7D7D" d="M243.438,37.559h-11.91v-1.2l-0.04-0.22c2.59-0.46,4.93-1.641,6.81-3.32L243.438,37.559z"/>
			<path fill="#969696" d="M229.037,13.429c2.42,0,4.38,1.96,4.38,4.38s-1.96,4.38-4.38,4.38c-0.3,0-0.6-0.03-0.88-0.09v-5.78
				h-3.229C225.528,14.628,227.148,13.429,229.037,13.429z"/>
			<linearGradient id="SVGID_16_" gradientUnits="userSpaceOnUse" x1="209.3928" y1="27.0996" x2="209.3928" y2="16.6118">
				<stop  offset="0" style="stop-color:#999999"/>
				<stop  offset="0.2152" style="stop-color:#CACACA"/>
				<stop  offset="0.4303" style="stop-color:#FFFFFF"/>
				<stop  offset="0.5378" style="stop-color:#F2F2F2"/>
				<stop  offset="0.7373" style="stop-color:#CFCFCF"/>
				<stop  offset="1" style="stop-color:#999999"/>
			</linearGradient>
			<path fill="url(#SVGID_16_)" d="M202.148,16.318h14.49c-0.94,1.86-1.46,3.96-1.46,6.18c0,1.58,0.26,3.1,0.76,4.52h-13.79V16.318z
				"/>
		</g>
		<g>
			
				<line fill="none" stroke="#000000" stroke-linecap="round" stroke-linejoin="round" x1="216.638" y1="16.318" x2="202.148" y2="16.318"/>
			
				<line fill="none" stroke="#000000" stroke-linecap="round" stroke-linejoin="round" x1="202.148" y1="27.019" x2="215.938" y2="27.019"/>
			
				<line fill="none" stroke="#000000" stroke-linecap="round" stroke-linejoin="round" x1="242.207" y1="18.159" x2="251.388" y2="18.159"/>
			
				<line fill="none" stroke="#000000" stroke-linecap="round" stroke-linejoin="round" x1="251.388" y1="26.269" x2="242.377" y2="26.269"/>
			<polygon fill="none" stroke="#000000" stroke-linecap="round" stroke-linejoin="round" points="202.148,27.019 202.148,28.219 
				198.978,28.219 198.978,15.108 202.148,15.108 202.148,16.318 			"/>
			<polygon fill="none" stroke="#000000" stroke-linecap="round" stroke-linejoin="round" points="251.388,18.159 251.388,15.398 
				253.978,15.398 253.978,27.799 251.388,27.799 251.388,26.269 			"/>
			
				<rect x="211.377" y="38.738" fill="none" stroke="#000000" stroke-width="0.5" stroke-linecap="round" stroke-linejoin="round" width="14.78" height="2.62"/>
			
				<rect x="231.528" y="38.738" fill="none" stroke="#000000" stroke-width="0.5" stroke-linecap="round" stroke-linejoin="round" width="14.79" height="2.62"/>
			
				<line fill="none" stroke="#000000" stroke-width="0.5" stroke-linecap="round" stroke-linejoin="round" x1="220.148" y1="33.139" x2="214.778" y2="37.559"/>
			
				<line fill="none" stroke="#000000" stroke-width="0.5" stroke-linecap="round" stroke-linejoin="round" x1="214.778" y1="37.559" x2="226.157" y2="37.559"/>
			
				<line fill="none" stroke="#000000" stroke-width="0.5" stroke-linecap="round" stroke-linejoin="round" x1="226.157" y1="37.559" x2="226.157" y2="36.059"/>
			
				<line fill="none" stroke="#000000" stroke-width="0.5" stroke-linecap="round" stroke-linejoin="round" x1="231.528" y1="37.559" x2="243.438" y2="37.559"/>
			
				<line fill="none" stroke="#000000" stroke-width="0.5" stroke-linecap="round" stroke-linejoin="round" x1="243.438" y1="37.559" x2="238.297" y2="32.818"/>
			<polyline fill="none" stroke="#000000" stroke-width="0.5" stroke-linecap="round" stroke-linejoin="round" points="
				231.528,37.589 231.528,37.559 231.528,36.358 			"/>
			<path fill="none" stroke="#000000" stroke-linecap="round" stroke-linejoin="round" d="M242.207,18.159
				c0.45,1.36,0.69,2.82,0.69,4.34c0,1.31-0.18,2.57-0.521,3.77c-0.72,2.55-2.159,4.81-4.08,6.55c-1.88,1.68-4.22,2.86-6.81,3.32
				c-0.79,0.149-1.61,0.22-2.45,0.22c-0.99,0-1.95-0.1-2.88-0.3c-2.26-0.48-4.31-1.5-6.01-2.92c-1.91-1.61-3.39-3.71-4.21-6.12
				c-0.5-1.42-0.76-2.94-0.76-4.52c0-2.22,0.52-4.32,1.46-6.18c2.26-4.56,6.96-7.68,12.399-7.68
				C235.167,8.639,240.377,12.628,242.207,18.159z"/>
			<path fill="none" stroke="#000000" stroke-linecap="round" stroke-linejoin="round" d="M224.928,16.318
				c0.6-1.69,2.22-2.89,4.109-2.89c2.42,0,4.38,1.96,4.38,4.38s-1.96,4.38-4.38,4.38c-0.3,0-0.6-0.03-0.88-0.09
				c-2-0.41-3.5-2.17-3.5-4.29C224.657,17.278,224.747,16.778,224.928,16.318z"/>
			<path fill="none" stroke="#000000" d="M228.157,22.898c0.28-0.06,0.58-0.09,0.88-0.09c2.42,0,4.38,1.96,4.38,4.38
				s-1.96,4.38-4.38,4.38s-4.38-1.96-4.38-4.38c0-0.06,0-0.11,0.01-0.17C224.738,24.979,226.207,23.298,228.157,22.898z"/>
		</g>
	</g>
	<g id="bombatcGrey">
		<g>
			<linearGradient id="SVGID_17_" gradientUnits="userSpaceOnUse" x1="310.1428" y1="26.0244" x2="310.1428" y2="18.4463">
				<stop  offset="0" style="stop-color:#999999"/>
				<stop  offset="0.2152" style="stop-color:#CACACA"/>
				<stop  offset="0.4303" style="stop-color:#FFFFFF"/>
				<stop  offset="0.5378" style="stop-color:#F2F2F2"/>
				<stop  offset="0.7373" style="stop-color:#CFCFCF"/>
				<stop  offset="1" style="stop-color:#999999"/>
			</linearGradient>
			<path fill="url(#SVGID_17_)" d="M314.733,18.159v8.11h-9.011c0.341-1.2,0.521-2.46,0.521-3.77c0-1.52-0.24-2.98-0.69-4.34
				H314.733z"/>
			<linearGradient id="SVGID_18_" gradientUnits="userSpaceOnUse" x1="316.0276" y1="26.0254" x2="316.0276" y2="18.4462">
				<stop  offset="0" style="stop-color:#999999"/>
				<stop  offset="0.2152" style="stop-color:#CACACA"/>
				<stop  offset="0.4303" style="stop-color:#FFFFFF"/>
				<stop  offset="0.5378" style="stop-color:#F2F2F2"/>
				<stop  offset="0.7373" style="stop-color:#CFCFCF"/>
				<stop  offset="1" style="stop-color:#999999"/>
			</linearGradient>
			<polygon fill="url(#SVGID_18_)" points="317.323,15.398 317.323,27.799 314.733,27.799 314.733,26.269 314.733,18.159 
				314.733,15.398 			"/>
			<path fill="#969696" d="M292.382,22.809c2.42,0,4.38,1.96,4.38,4.38s-1.96,4.38-4.38,4.38s-4.38-1.96-4.38-4.38
				c0-0.06,0-0.11,0.01-0.17h3.49v-4.12C291.782,22.838,292.082,22.809,292.382,22.809z"/>
			<path fill="#969696" d="M291.502,22.898v4.12h-3.49C288.082,24.979,289.552,23.298,291.502,22.898z"/>
			<path fill="#848484" d="M291.502,22.099v0.8c-1.95,0.4-3.42,2.08-3.49,4.12h-8.729c-0.5-1.42-0.76-2.94-0.76-4.52
				c0-2.22,0.52-4.32,1.46-6.18h8.29c-0.181,0.46-0.271,0.96-0.271,1.49C288.002,19.929,289.502,21.688,291.502,22.099z"/>
			<path fill="#969696" d="M291.502,16.318v5.78c-2-0.41-3.5-2.17-3.5-4.29c0-0.53,0.09-1.03,0.271-1.49H291.502z"/>
			<path fill="#848484" d="M301.642,32.818c-1.88,1.68-4.22,2.86-6.81,3.32c-0.79,0.149-1.61,0.22-2.45,0.22
				c-0.99,0-1.95-0.1-2.88-0.3v-0.07l-4.71-3.92l-1.3,1.07c-1.91-1.61-3.391-3.71-4.21-6.12h8.729c-0.01,0.06-0.01,0.11-0.01,0.17
				c0,2.42,1.96,4.38,4.38,4.38s4.38-1.96,4.38-4.38s-1.96-4.38-4.38-4.38c-0.3,0-0.6,0.03-0.88,0.09v-0.8
				c0.28,0.06,0.58,0.09,0.88,0.09c2.42,0,4.38-1.96,4.38-4.38s-1.96-4.38-4.38-4.38c-1.89,0-3.51,1.2-4.109,2.89h-8.29
				c2.26-4.56,6.96-7.68,12.399-7.68c6.13,0,11.34,3.99,13.17,9.52h-5.63v8.11h5.8C305.002,28.818,303.563,31.078,301.642,32.818z"
				/>
			<path fill="#7F7D7D" d="M306.782,37.559h-11.91v-1.2l-0.04-0.22c2.59-0.46,4.93-1.641,6.81-3.32L306.782,37.559z"/>
			<path fill="#7F7D7D" d="M289.502,36.059v1.5h-11.38l5.37-4.42C285.193,34.559,287.242,35.578,289.502,36.059z"/>
			<path fill="#848484" d="M306.242,22.499c0,1.31-0.18,2.57-0.521,3.77h-5.8v-8.11h5.63
				C306.002,19.519,306.242,20.979,306.242,22.499z"/>
			<linearGradient id="SVGID_19_" gradientUnits="userSpaceOnUse" x1="263.9075" y1="27.1006" x2="263.9075" y2="16.6123">
				<stop  offset="0" style="stop-color:#999999"/>
				<stop  offset="0.2152" style="stop-color:#CACACA"/>
				<stop  offset="0.4303" style="stop-color:#FFFFFF"/>
				<stop  offset="0.5378" style="stop-color:#F2F2F2"/>
				<stop  offset="0.7373" style="stop-color:#CFCFCF"/>
				<stop  offset="1" style="stop-color:#999999"/>
			</linearGradient>
			<polygon fill="url(#SVGID_19_)" points="265.492,16.318 265.492,27.019 265.492,28.219 262.323,28.219 262.323,15.108 
				265.492,15.108 			"/>
			<path fill="#969696" d="M292.382,13.429c2.42,0,4.38,1.96,4.38,4.38s-1.96,4.38-4.38,4.38c-0.3,0-0.6-0.03-0.88-0.09v-5.78
				h-3.229C288.872,14.628,290.492,13.429,292.382,13.429z"/>
			<rect x="274.722" y="38.738" fill="#7F7D7D" width="14.78" height="2.62"/>
			<rect x="294.872" y="38.738" fill="#7F7D7D" width="14.79" height="2.62"/>
			<path fill="#848484" d="M289.502,35.988v0.07c-2.26-0.48-4.31-1.5-6.01-2.92l1.3-1.07L289.502,35.988z"/>
			<linearGradient id="SVGID_20_" gradientUnits="userSpaceOnUse" x1="272.7375" y1="27.0996" x2="272.7375" y2="16.6118">
				<stop  offset="0" style="stop-color:#999999"/>
				<stop  offset="0.2152" style="stop-color:#CACACA"/>
				<stop  offset="0.4303" style="stop-color:#FFFFFF"/>
				<stop  offset="0.5378" style="stop-color:#F2F2F2"/>
				<stop  offset="0.7373" style="stop-color:#CFCFCF"/>
				<stop  offset="1" style="stop-color:#999999"/>
			</linearGradient>
			<path fill="url(#SVGID_20_)" d="M265.492,16.318h14.49c-0.94,1.86-1.46,3.96-1.46,6.18c0,1.58,0.26,3.1,0.76,4.52h-13.79V16.318z
				"/>
		</g>
		<g>
			
				<line fill="none" stroke="#000000" stroke-linecap="round" stroke-linejoin="round" x1="279.983" y1="16.318" x2="265.492" y2="16.318"/>
			
				<line fill="none" stroke="#000000" stroke-linecap="round" stroke-linejoin="round" x1="265.492" y1="27.019" x2="279.282" y2="27.019"/>
			
				<line fill="none" stroke="#000000" stroke-linecap="round" stroke-linejoin="round" x1="305.552" y1="18.159" x2="314.733" y2="18.159"/>
			
				<line fill="none" stroke="#000000" stroke-linecap="round" stroke-linejoin="round" x1="314.733" y1="26.269" x2="305.722" y2="26.269"/>
			<polygon fill="none" stroke="#000000" stroke-linecap="round" stroke-linejoin="round" points="265.492,27.019 265.492,28.219 
				262.323,28.219 262.323,15.108 265.492,15.108 265.492,16.318 			"/>
			<polygon fill="none" stroke="#000000" stroke-linecap="round" stroke-linejoin="round" points="314.733,18.159 314.733,15.398 
				317.323,15.398 317.323,27.799 314.733,27.799 314.733,26.269 			"/>
			
				<rect x="274.722" y="38.738" fill="none" stroke="#000000" stroke-width="0.5" stroke-linecap="round" stroke-linejoin="round" width="14.78" height="2.62"/>
			
				<rect x="294.872" y="38.738" fill="none" stroke="#000000" stroke-width="0.5" stroke-linecap="round" stroke-linejoin="round" width="14.79" height="2.62"/>
			
				<line fill="none" stroke="#000000" stroke-width="0.5" stroke-linecap="round" stroke-linejoin="round" x1="283.492" y1="33.139" x2="278.122" y2="37.559"/>
			
				<line fill="none" stroke="#000000" stroke-width="0.5" stroke-linecap="round" stroke-linejoin="round" x1="278.122" y1="37.559" x2="289.502" y2="37.559"/>
			
				<line fill="none" stroke="#000000" stroke-width="0.5" stroke-linecap="round" stroke-linejoin="round" x1="289.502" y1="37.559" x2="289.502" y2="36.059"/>
			
				<line fill="none" stroke="#000000" stroke-width="0.5" stroke-linecap="round" stroke-linejoin="round" x1="294.872" y1="37.559" x2="306.782" y2="37.559"/>
			
				<line fill="none" stroke="#000000" stroke-width="0.5" stroke-linecap="round" stroke-linejoin="round" x1="306.782" y1="37.559" x2="301.642" y2="32.818"/>
			<polyline fill="none" stroke="#000000" stroke-width="0.5" stroke-linecap="round" stroke-linejoin="round" points="
				294.872,37.589 294.872,37.559 294.872,36.358 			"/>
			<path fill="none" stroke="#000000" stroke-linecap="round" stroke-linejoin="round" d="M305.552,18.159
				c0.45,1.36,0.69,2.82,0.69,4.34c0,1.31-0.18,2.57-0.521,3.77c-0.72,2.55-2.159,4.81-4.08,6.55c-1.88,1.68-4.22,2.86-6.81,3.32
				c-0.79,0.149-1.61,0.22-2.45,0.22c-0.99,0-1.95-0.1-2.88-0.3c-2.26-0.48-4.31-1.5-6.01-2.92c-1.91-1.61-3.391-3.71-4.21-6.12
				c-0.5-1.42-0.76-2.94-0.76-4.52c0-2.22,0.52-4.32,1.46-6.18c2.26-4.56,6.96-7.68,12.399-7.68
				C298.512,8.639,303.722,12.628,305.552,18.159z"/>
			<path fill="none" stroke="#000000" stroke-linecap="round" stroke-linejoin="round" d="M288.273,16.318
				c0.6-1.69,2.22-2.89,4.109-2.89c2.42,0,4.38,1.96,4.38,4.38s-1.96,4.38-4.38,4.38c-0.3,0-0.6-0.03-0.88-0.09
				c-2-0.41-3.5-2.17-3.5-4.29C288.002,17.278,288.092,16.778,288.273,16.318z"/>
			<path fill="none" stroke="#000000" d="M291.502,22.898c0.28-0.06,0.58-0.09,0.88-0.09c2.42,0,4.38,1.96,4.38,4.38
				s-1.96,4.38-4.38,4.38s-4.38-1.96-4.38-4.38c0-0.06,0-0.11,0.01-0.17C288.082,24.979,289.552,23.298,291.502,22.898z"/>
		</g>
	</g>
	<g id="bombatcBlack">
		<g>
			<linearGradient id="SVGID_21_" gradientUnits="userSpaceOnUse" x1="320.3333" y1="76.1875" x2="320.3333" y2="68.6086">
				<stop  offset="0" style="stop-color:#999999"/>
				<stop  offset="0.2152" style="stop-color:#CACACA"/>
				<stop  offset="0.4303" style="stop-color:#FFFFFF"/>
				<stop  offset="0.5378" style="stop-color:#F2F2F2"/>
				<stop  offset="0.7373" style="stop-color:#CFCFCF"/>
				<stop  offset="1" style="stop-color:#999999"/>
			</linearGradient>
			<polygon fill="url(#SVGID_21_)" points="321.628,65.562 321.628,77.961 319.038,77.961 319.038,76.432 319.038,68.321 
				319.038,65.562 			"/>
			<linearGradient id="SVGID_22_" gradientUnits="userSpaceOnUse" x1="314.4475" y1="76.1875" x2="314.4475" y2="68.6085">
				<stop  offset="0" style="stop-color:#999999"/>
				<stop  offset="0.2152" style="stop-color:#CACACA"/>
				<stop  offset="0.4303" style="stop-color:#FFFFFF"/>
				<stop  offset="0.5378" style="stop-color:#F2F2F2"/>
				<stop  offset="0.7373" style="stop-color:#CFCFCF"/>
				<stop  offset="1" style="stop-color:#999999"/>
			</linearGradient>
			<path fill="url(#SVGID_22_)" d="M319.038,68.321v8.11h-9.011c0.341-1.2,0.521-2.46,0.521-3.771c0-1.52-0.24-2.979-0.69-4.34
				H319.038z"/>
			<rect x="299.178" y="88.901" fill="#7F7D7D" width="14.79" height="2.62"/>
			<path fill="#7F7D7D" d="M311.088,87.722h-11.91v-1.2l-0.04-0.22c2.59-0.46,4.93-1.641,6.81-3.32L311.088,87.722z"/>
			<path fill="#020202" d="M310.548,72.661c0,1.311-0.18,2.57-0.521,3.771h-5.8v-8.11h5.63
				C310.308,69.682,310.548,71.142,310.548,72.661z"/>
			<path fill="#020202" d="M305.948,82.981c-1.88,1.68-4.22,2.86-6.81,3.32c-0.79,0.149-1.61,0.22-2.45,0.22
				c-0.99,0-1.95-0.1-2.88-0.3v-0.07l-4.71-3.92l-1.3,1.07c-1.91-1.61-3.39-3.71-4.21-6.12h8.729c-0.01,0.06-0.01,0.109-0.01,0.17
				c0,2.42,1.96,4.38,4.38,4.38s4.38-1.96,4.38-4.38s-1.96-4.38-4.38-4.38c-0.3,0-0.6,0.029-0.88,0.09v-0.8
				c0.28,0.06,0.58,0.09,0.88,0.09c2.42,0,4.38-1.96,4.38-4.38s-1.96-4.38-4.38-4.38c-1.89,0-3.51,1.199-4.109,2.89h-8.29
				c2.26-4.56,6.96-7.68,12.399-7.68c6.13,0,11.34,3.989,13.17,9.52h-5.63v8.11h5.8C309.308,78.981,307.868,81.241,305.948,82.981z"
				/>
			<path fill="#969696" d="M296.688,63.592c2.42,0,4.38,1.96,4.38,4.38s-1.96,4.38-4.38,4.38c-0.3,0-0.6-0.03-0.88-0.09v-5.78
				h-3.229C293.178,64.791,294.798,63.592,296.688,63.592z"/>
			<path fill="#969696" d="M296.688,72.972c2.42,0,4.38,1.96,4.38,4.38s-1.96,4.38-4.38,4.38s-4.38-1.96-4.38-4.38
				c0-0.061,0-0.11,0.01-0.17h3.49v-4.12C296.088,73.001,296.388,72.972,296.688,72.972z"/>
			<path fill="#969696" d="M295.808,73.062v4.12h-3.49C292.388,75.142,293.858,73.461,295.808,73.062z"/>
			<path fill="#020202" d="M295.808,72.262v0.8c-1.95,0.399-3.42,2.08-3.49,4.12h-8.729c-0.5-1.42-0.76-2.94-0.76-4.521
				c0-2.22,0.52-4.319,1.46-6.18h8.29c-0.181,0.46-0.271,0.96-0.271,1.49C292.308,70.092,293.808,71.852,295.808,72.262z"/>
			<path fill="#969696" d="M295.808,66.481v5.78c-2-0.41-3.5-2.17-3.5-4.29c0-0.53,0.09-1.03,0.271-1.49H295.808z"/>
			<rect x="279.028" y="88.901" fill="#7F7D7D" width="14.78" height="2.62"/>
			<path fill="#7F7D7D" d="M293.808,86.222v1.5h-11.38l5.37-4.42C289.508,84.722,291.548,85.741,293.808,86.222z"/>
			<path fill="#020202" d="M293.808,86.151v0.07c-2.26-0.48-4.3-1.5-6.01-2.92l1.3-1.07L293.808,86.151z"/>
			<linearGradient id="SVGID_23_" gradientUnits="userSpaceOnUse" x1="277.0432" y1="77.2627" x2="277.0432" y2="66.7744">
				<stop  offset="0" style="stop-color:#999999"/>
				<stop  offset="0.2152" style="stop-color:#CACACA"/>
				<stop  offset="0.4303" style="stop-color:#FFFFFF"/>
				<stop  offset="0.5378" style="stop-color:#F2F2F2"/>
				<stop  offset="0.7373" style="stop-color:#CFCFCF"/>
				<stop  offset="1" style="stop-color:#999999"/>
			</linearGradient>
			<path fill="url(#SVGID_23_)" d="M269.798,66.481h14.49c-0.94,1.86-1.46,3.96-1.46,6.18c0,1.58,0.26,3.101,0.76,4.521h-13.79
				V66.481z"/>
			<linearGradient id="SVGID_24_" gradientUnits="userSpaceOnUse" x1="268.2131" y1="77.2627" x2="268.2131" y2="66.774">
				<stop  offset="0" style="stop-color:#999999"/>
				<stop  offset="0.2152" style="stop-color:#CACACA"/>
				<stop  offset="0.4303" style="stop-color:#FFFFFF"/>
				<stop  offset="0.5378" style="stop-color:#F2F2F2"/>
				<stop  offset="0.7373" style="stop-color:#CFCFCF"/>
				<stop  offset="1" style="stop-color:#999999"/>
			</linearGradient>
			<polygon fill="url(#SVGID_24_)" points="269.798,66.481 269.798,77.182 269.798,78.382 266.628,78.382 266.628,65.271 
				269.798,65.271 			"/>
		</g>
		<g>
			
				<line fill="none" stroke="#000000" stroke-linecap="round" stroke-linejoin="round" x1="284.288" y1="66.481" x2="269.798" y2="66.481"/>
			
				<line fill="none" stroke="#000000" stroke-linecap="round" stroke-linejoin="round" x1="269.798" y1="77.182" x2="283.588" y2="77.182"/>
			
				<line fill="none" stroke="#000000" stroke-linecap="round" stroke-linejoin="round" x1="309.858" y1="68.321" x2="319.038" y2="68.321"/>
			
				<line fill="none" stroke="#000000" stroke-linecap="round" stroke-linejoin="round" x1="319.038" y1="76.432" x2="310.028" y2="76.432"/>
			<polygon fill="none" stroke="#000000" stroke-linecap="round" stroke-linejoin="round" points="269.798,77.182 269.798,78.382 
				266.628,78.382 266.628,65.271 269.798,65.271 269.798,66.481 			"/>
			<polygon fill="none" stroke="#000000" stroke-linecap="round" stroke-linejoin="round" points="319.038,68.321 319.038,65.562 
				321.628,65.562 321.628,77.961 319.038,77.961 319.038,76.432 			"/>
			
				<rect x="279.028" y="88.901" fill="none" stroke="#000000" stroke-width="0.5" stroke-linecap="round" stroke-linejoin="round" width="14.78" height="2.62"/>
			
				<rect x="299.178" y="88.901" fill="none" stroke="#000000" stroke-width="0.5" stroke-linecap="round" stroke-linejoin="round" width="14.79" height="2.62"/>
			
				<line fill="none" stroke="#000000" stroke-width="0.5" stroke-linecap="round" stroke-linejoin="round" x1="287.798" y1="83.302" x2="282.428" y2="87.722"/>
			
				<line fill="none" stroke="#000000" stroke-width="0.5" stroke-linecap="round" stroke-linejoin="round" x1="282.428" y1="87.722" x2="293.808" y2="87.722"/>
			
				<line fill="none" stroke="#000000" stroke-width="0.5" stroke-linecap="round" stroke-linejoin="round" x1="293.808" y1="87.722" x2="293.808" y2="86.222"/>
			
				<line fill="none" stroke="#000000" stroke-width="0.5" stroke-linecap="round" stroke-linejoin="round" x1="299.178" y1="87.722" x2="311.088" y2="87.722"/>
			
				<line fill="none" stroke="#000000" stroke-width="0.5" stroke-linecap="round" stroke-linejoin="round" x1="311.088" y1="87.722" x2="305.948" y2="82.981"/>
			<polyline fill="none" stroke="#000000" stroke-width="0.5" stroke-linecap="round" stroke-linejoin="round" points="
				299.178,87.751 299.178,87.722 299.178,86.521 			"/>
			<path fill="none" stroke="#000000" stroke-linecap="round" stroke-linejoin="round" d="M309.858,68.321
				c0.45,1.36,0.69,2.82,0.69,4.34c0,1.311-0.18,2.57-0.521,3.771c-0.72,2.55-2.159,4.81-4.08,6.55c-1.88,1.68-4.22,2.86-6.81,3.32
				c-0.79,0.149-1.61,0.22-2.45,0.22c-0.99,0-1.95-0.1-2.88-0.3c-2.26-0.48-4.3-1.5-6.01-2.92c-1.91-1.61-3.39-3.71-4.21-6.12
				c-0.5-1.42-0.76-2.94-0.76-4.521c0-2.22,0.52-4.319,1.46-6.18c2.26-4.56,6.96-7.68,12.399-7.68
				C302.818,58.802,308.028,62.791,309.858,68.321z"/>
			<path fill="none" stroke="#000000" stroke-linecap="round" stroke-linejoin="round" d="M292.578,66.481
				c0.6-1.69,2.22-2.89,4.109-2.89c2.42,0,4.38,1.96,4.38,4.38s-1.96,4.38-4.38,4.38c-0.3,0-0.6-0.03-0.88-0.09
				c-2-0.41-3.5-2.17-3.5-4.29C292.308,67.441,292.398,66.941,292.578,66.481z"/>
			<path fill="none" stroke="#000000" d="M295.808,73.062c0.28-0.061,0.58-0.09,0.88-0.09c2.42,0,4.38,1.96,4.38,4.38
				s-1.96,4.38-4.38,4.38s-4.38-1.96-4.38-4.38c0-0.061,0-0.11,0.01-0.17C292.388,75.142,293.858,73.461,295.808,73.062z"/>
		</g>
	</g>
	<g id="bombatcOrange">
		<g>
			<linearGradient id="SVGID_25_" gradientUnits="userSpaceOnUse" x1="252.6526" y1="78.9863" x2="252.6526" y2="71.4074">
				<stop  offset="0" style="stop-color:#999999"/>
				<stop  offset="0.2152" style="stop-color:#CACACA"/>
				<stop  offset="0.4303" style="stop-color:#FFFFFF"/>
				<stop  offset="0.5378" style="stop-color:#F2F2F2"/>
				<stop  offset="0.7373" style="stop-color:#CFCFCF"/>
				<stop  offset="1" style="stop-color:#999999"/>
			</linearGradient>
			<polygon fill="url(#SVGID_25_)" points="253.948,68.36 253.948,80.76 251.358,80.76 251.358,79.23 251.358,71.12 251.358,68.36 
							"/>
			<linearGradient id="SVGID_26_" gradientUnits="userSpaceOnUse" x1="246.7678" y1="78.9863" x2="246.7678" y2="71.4073">
				<stop  offset="0" style="stop-color:#999999"/>
				<stop  offset="0.2152" style="stop-color:#CACACA"/>
				<stop  offset="0.4303" style="stop-color:#FFFFFF"/>
				<stop  offset="0.5378" style="stop-color:#F2F2F2"/>
				<stop  offset="0.7373" style="stop-color:#CFCFCF"/>
				<stop  offset="1" style="stop-color:#999999"/>
			</linearGradient>
			<path fill="url(#SVGID_26_)" d="M251.358,71.12v8.11h-9.011c0.341-1.2,0.521-2.46,0.521-3.771c0-1.52-0.24-2.979-0.69-4.34
				H251.358z"/>
			<rect x="231.497" y="91.7" fill="#7F7D7D" width="14.79" height="2.62"/>
			<path fill="#7F7D7D" d="M243.407,90.521h-11.91v-1.2l-0.04-0.22c2.59-0.46,4.93-1.641,6.81-3.32L243.407,90.521z"/>
			<path fill="#FF7D03" d="M242.867,75.46c0,1.311-0.18,2.57-0.521,3.771h-5.8v-8.11h5.63
				C242.627,72.48,242.867,73.94,242.867,75.46z"/>
			<path fill="#FF7D03" d="M238.267,85.78c-1.88,1.68-4.22,2.86-6.81,3.32c-0.79,0.149-1.61,0.22-2.45,0.22
				c-0.99,0-1.95-0.1-2.88-0.3v-0.07l-4.71-3.92l-1.3,1.07c-1.91-1.61-3.391-3.71-4.21-6.12h8.729c-0.01,0.06-0.01,0.109-0.01,0.17
				c0,2.42,1.96,4.38,4.38,4.38s4.38-1.96,4.38-4.38s-1.96-4.38-4.38-4.38c-0.3,0-0.6,0.029-0.88,0.09v-0.8
				c0.28,0.06,0.58,0.09,0.88,0.09c2.42,0,4.38-1.96,4.38-4.38s-1.96-4.38-4.38-4.38c-1.89,0-3.51,1.199-4.109,2.89h-8.29
				c2.26-4.56,6.96-7.68,12.399-7.68c6.13,0,11.34,3.989,13.17,9.52h-5.63v8.11h5.8C241.627,81.78,240.188,84.04,238.267,85.78z"/>
			<path fill="#969696" d="M229.007,66.391c2.42,0,4.38,1.96,4.38,4.38s-1.96,4.38-4.38,4.38c-0.3,0-0.6-0.03-0.88-0.09v-5.78
				h-3.229C225.497,67.59,227.117,66.391,229.007,66.391z"/>
			<path fill="#969696" d="M229.007,75.771c2.42,0,4.38,1.96,4.38,4.38s-1.96,4.38-4.38,4.38s-4.38-1.96-4.38-4.38
				c0-0.061,0-0.11,0.01-0.17h3.49v-4.12C228.407,75.8,228.707,75.771,229.007,75.771z"/>
			<path fill="#969696" d="M228.127,75.86v4.12h-3.49C224.707,77.94,226.177,76.26,228.127,75.86z"/>
			<path fill="#FF7D03" d="M228.127,75.061v0.8c-1.95,0.399-3.42,2.08-3.49,4.12h-8.729c-0.5-1.42-0.76-2.94-0.76-4.521
				c0-2.22,0.52-4.319,1.46-6.18h8.29c-0.181,0.46-0.271,0.96-0.271,1.49C224.627,72.891,226.127,74.65,228.127,75.061z"/>
			<path fill="#969696" d="M228.127,69.28v5.78c-2-0.41-3.5-2.17-3.5-4.29c0-0.53,0.09-1.03,0.271-1.49H228.127z"/>
			<rect x="211.347" y="91.7" fill="#7F7D7D" width="14.78" height="2.62"/>
			<path fill="#7F7D7D" d="M226.127,89.021v1.5h-11.38l5.37-4.42C221.827,87.521,223.867,88.54,226.127,89.021z"/>
			<path fill="#FF7D03" d="M226.127,88.95v0.07c-2.26-0.48-4.3-1.5-6.01-2.92l1.3-1.07L226.127,88.95z"/>
			<linearGradient id="SVGID_27_" gradientUnits="userSpaceOnUse" x1="209.3625" y1="80.0615" x2="209.3625" y2="69.5732">
				<stop  offset="0" style="stop-color:#999999"/>
				<stop  offset="0.2152" style="stop-color:#CACACA"/>
				<stop  offset="0.4303" style="stop-color:#FFFFFF"/>
				<stop  offset="0.5378" style="stop-color:#F2F2F2"/>
				<stop  offset="0.7373" style="stop-color:#CFCFCF"/>
				<stop  offset="1" style="stop-color:#999999"/>
			</linearGradient>
			<path fill="url(#SVGID_27_)" d="M202.117,69.28h14.49c-0.94,1.86-1.46,3.96-1.46,6.18c0,1.58,0.26,3.101,0.76,4.521h-13.79V69.28
				z"/>
			<linearGradient id="SVGID_28_" gradientUnits="userSpaceOnUse" x1="200.5325" y1="80.0615" x2="200.5325" y2="69.5728">
				<stop  offset="0" style="stop-color:#999999"/>
				<stop  offset="0.2152" style="stop-color:#CACACA"/>
				<stop  offset="0.4303" style="stop-color:#FFFFFF"/>
				<stop  offset="0.5378" style="stop-color:#F2F2F2"/>
				<stop  offset="0.7373" style="stop-color:#CFCFCF"/>
				<stop  offset="1" style="stop-color:#999999"/>
			</linearGradient>
			<polygon fill="url(#SVGID_28_)" points="202.117,69.28 202.117,79.98 202.117,81.181 198.948,81.181 198.948,68.07 
				202.117,68.07 			"/>
		</g>
		<g>
			
				<line fill="none" stroke="#000000" stroke-linecap="round" stroke-linejoin="round" x1="216.608" y1="69.28" x2="202.117" y2="69.28"/>
			
				<line fill="none" stroke="#000000" stroke-linecap="round" stroke-linejoin="round" x1="202.117" y1="79.98" x2="215.907" y2="79.98"/>
			
				<line fill="none" stroke="#000000" stroke-linecap="round" stroke-linejoin="round" x1="242.177" y1="71.12" x2="251.358" y2="71.12"/>
			
				<line fill="none" stroke="#000000" stroke-linecap="round" stroke-linejoin="round" x1="251.358" y1="79.23" x2="242.347" y2="79.23"/>
			<polygon fill="none" stroke="#000000" stroke-linecap="round" stroke-linejoin="round" points="202.117,79.98 202.117,81.181 
				198.948,81.181 198.948,68.07 202.117,68.07 202.117,69.28 			"/>
			<polygon fill="none" stroke="#000000" stroke-linecap="round" stroke-linejoin="round" points="251.358,71.12 251.358,68.36 
				253.948,68.36 253.948,80.76 251.358,80.76 251.358,79.23 			"/>
			
				<rect x="211.347" y="91.7" fill="none" stroke="#000000" stroke-width="0.5" stroke-linecap="round" stroke-linejoin="round" width="14.78" height="2.62"/>
			
				<rect x="231.497" y="91.7" fill="none" stroke="#000000" stroke-width="0.5" stroke-linecap="round" stroke-linejoin="round" width="14.79" height="2.62"/>
			
				<line fill="none" stroke="#000000" stroke-width="0.5" stroke-linecap="round" stroke-linejoin="round" x1="220.117" y1="86.101" x2="214.747" y2="90.521"/>
			
				<line fill="none" stroke="#000000" stroke-width="0.5" stroke-linecap="round" stroke-linejoin="round" x1="214.747" y1="90.521" x2="226.127" y2="90.521"/>
			
				<line fill="none" stroke="#000000" stroke-width="0.5" stroke-linecap="round" stroke-linejoin="round" x1="226.127" y1="90.521" x2="226.127" y2="89.021"/>
			
				<line fill="none" stroke="#000000" stroke-width="0.5" stroke-linecap="round" stroke-linejoin="round" x1="231.497" y1="90.521" x2="243.407" y2="90.521"/>
			
				<line fill="none" stroke="#000000" stroke-width="0.5" stroke-linecap="round" stroke-linejoin="round" x1="243.407" y1="90.521" x2="238.267" y2="85.78"/>
			<polyline fill="none" stroke="#000000" stroke-width="0.5" stroke-linecap="round" stroke-linejoin="round" points="
				231.497,90.55 231.497,90.521 231.497,89.32 			"/>
			<path fill="none" stroke="#000000" stroke-linecap="round" stroke-linejoin="round" d="M242.177,71.12
				c0.45,1.36,0.69,2.82,0.69,4.34c0,1.311-0.18,2.57-0.521,3.771c-0.72,2.55-2.159,4.81-4.08,6.55c-1.88,1.68-4.22,2.86-6.81,3.32
				c-0.79,0.149-1.61,0.22-2.45,0.22c-0.99,0-1.95-0.1-2.88-0.3c-2.26-0.48-4.3-1.5-6.01-2.92c-1.91-1.61-3.391-3.71-4.21-6.12
				c-0.5-1.42-0.76-2.94-0.76-4.521c0-2.22,0.52-4.319,1.46-6.18c2.26-4.56,6.96-7.68,12.399-7.68
				C235.137,61.601,240.347,65.59,242.177,71.12z"/>
			<path fill="none" stroke="#000000" stroke-linecap="round" stroke-linejoin="round" d="M224.898,69.28
				c0.6-1.69,2.22-2.89,4.109-2.89c2.42,0,4.38,1.96,4.38,4.38s-1.96,4.38-4.38,4.38c-0.3,0-0.6-0.03-0.88-0.09
				c-2-0.41-3.5-2.17-3.5-4.29C224.627,70.24,224.717,69.74,224.898,69.28z"/>
			<path fill="none" stroke="#000000" d="M228.127,75.86c0.28-0.061,0.58-0.09,0.88-0.09c2.42,0,4.38,1.96,4.38,4.38
				s-1.96,4.38-4.38,4.38s-4.38-1.96-4.38-4.38c0-0.061,0-0.11,0.01-0.17C224.707,77.94,226.177,76.26,228.127,75.86z"/>
		</g>
	</g>
	<g id="bombatcBrown">
		<g>
			<linearGradient id="SVGID_29_" gradientUnits="userSpaceOnUse" x1="177.6321" y1="81.1758" x2="177.6321" y2="73.5969">
				<stop  offset="0" style="stop-color:#999999"/>
				<stop  offset="0.2152" style="stop-color:#CACACA"/>
				<stop  offset="0.4303" style="stop-color:#FFFFFF"/>
				<stop  offset="0.5378" style="stop-color:#F2F2F2"/>
				<stop  offset="0.7373" style="stop-color:#CFCFCF"/>
				<stop  offset="1" style="stop-color:#999999"/>
			</linearGradient>
			<polygon fill="url(#SVGID_29_)" points="178.927,70.55 178.927,82.949 176.337,82.949 176.337,81.42 176.337,73.31 
				176.337,70.55 			"/>
			<linearGradient id="SVGID_30_" gradientUnits="userSpaceOnUse" x1="171.7463" y1="81.1758" x2="171.7463" y2="73.5967">
				<stop  offset="0" style="stop-color:#999999"/>
				<stop  offset="0.2152" style="stop-color:#CACACA"/>
				<stop  offset="0.4303" style="stop-color:#FFFFFF"/>
				<stop  offset="0.5378" style="stop-color:#F2F2F2"/>
				<stop  offset="0.7373" style="stop-color:#CFCFCF"/>
				<stop  offset="1" style="stop-color:#999999"/>
			</linearGradient>
			<path fill="url(#SVGID_30_)" d="M176.337,73.31v8.11h-9.011c0.341-1.2,0.521-2.46,0.521-3.771c0-1.52-0.24-2.979-0.69-4.34
				H176.337z"/>
			<rect x="156.477" y="93.89" fill="#7F7D7D" width="14.79" height="2.62"/>
			<path fill="#7F7D7D" d="M168.387,92.71h-11.91v-1.2l-0.04-0.22c2.59-0.46,4.93-1.641,6.81-3.32L168.387,92.71z"/>
			<path fill="#724806" d="M167.847,77.649c0,1.311-0.18,2.57-0.521,3.771h-5.8v-8.11h5.63
				C167.607,74.67,167.847,76.13,167.847,77.649z"/>
			<path fill="#724806" d="M163.246,87.97c-1.88,1.68-4.22,2.86-6.81,3.32c-0.79,0.149-1.61,0.22-2.45,0.22
				c-0.99,0-1.95-0.1-2.88-0.3v-0.07l-4.71-3.92l-1.3,1.07c-1.91-1.61-3.39-3.71-4.21-6.12h8.729c-0.01,0.06-0.01,0.109-0.01,0.17
				c0,2.42,1.96,4.38,4.38,4.38s4.38-1.96,4.38-4.38s-1.96-4.38-4.38-4.38c-0.3,0-0.6,0.029-0.88,0.09v-0.8
				c0.28,0.06,0.58,0.09,0.88,0.09c2.42,0,4.38-1.96,4.38-4.38s-1.96-4.38-4.38-4.38c-1.89,0-3.51,1.199-4.109,2.89h-8.29
				c2.26-4.56,6.96-7.68,12.399-7.68c6.13,0,11.34,3.989,13.17,9.52h-5.63v8.11h5.8C166.607,83.97,165.167,86.229,163.246,87.97z"/>
			<path fill="#969696" d="M153.987,68.58c2.42,0,4.38,1.96,4.38,4.38s-1.96,4.38-4.38,4.38c-0.3,0-0.6-0.03-0.88-0.09v-5.78h-3.229
				C150.477,69.779,152.097,68.58,153.987,68.58z"/>
			<path fill="#969696" d="M153.987,77.96c2.42,0,4.38,1.96,4.38,4.38s-1.96,4.38-4.38,4.38s-4.38-1.96-4.38-4.38
				c0-0.061,0-0.11,0.01-0.17h3.49v-4.12C153.387,77.989,153.687,77.96,153.987,77.96z"/>
			<path fill="#969696" d="M153.107,78.05v4.12h-3.49C149.687,80.13,151.156,78.449,153.107,78.05z"/>
			<path fill="#724806" d="M153.107,77.25v0.8c-1.95,0.399-3.42,2.08-3.49,4.12h-8.729c-0.5-1.42-0.76-2.94-0.76-4.521
				c0-2.22,0.52-4.319,1.46-6.18h8.29c-0.181,0.46-0.271,0.96-0.271,1.49C149.607,75.08,151.107,76.84,153.107,77.25z"/>
			<path fill="#969696" d="M153.107,71.47v5.78c-2-0.41-3.5-2.17-3.5-4.29c0-0.53,0.09-1.03,0.271-1.49H153.107z"/>
			<rect x="136.326" y="93.89" fill="#7F7D7D" width="14.78" height="2.62"/>
			<path fill="#7F7D7D" d="M151.107,91.21v1.5h-11.38l5.37-4.42C146.807,89.71,148.847,90.729,151.107,91.21z"/>
			<path fill="#724806" d="M151.107,91.14v0.07c-2.26-0.48-4.3-1.5-6.01-2.92l1.3-1.07L151.107,91.14z"/>
			<linearGradient id="SVGID_31_" gradientUnits="userSpaceOnUse" x1="134.342" y1="82.251" x2="134.342" y2="71.7627">
				<stop  offset="0" style="stop-color:#999999"/>
				<stop  offset="0.2152" style="stop-color:#CACACA"/>
				<stop  offset="0.4303" style="stop-color:#FFFFFF"/>
				<stop  offset="0.5378" style="stop-color:#F2F2F2"/>
				<stop  offset="0.7373" style="stop-color:#CFCFCF"/>
				<stop  offset="1" style="stop-color:#999999"/>
			</linearGradient>
			<path fill="url(#SVGID_31_)" d="M127.097,71.47h14.49c-0.94,1.86-1.46,3.96-1.46,6.18c0,1.58,0.26,3.101,0.76,4.521h-13.79V71.47
				z"/>
			<linearGradient id="SVGID_32_" gradientUnits="userSpaceOnUse" x1="125.512" y1="82.251" x2="125.512" y2="71.7623">
				<stop  offset="0" style="stop-color:#999999"/>
				<stop  offset="0.2152" style="stop-color:#CACACA"/>
				<stop  offset="0.4303" style="stop-color:#FFFFFF"/>
				<stop  offset="0.5378" style="stop-color:#F2F2F2"/>
				<stop  offset="0.7373" style="stop-color:#CFCFCF"/>
				<stop  offset="1" style="stop-color:#999999"/>
			</linearGradient>
			<polygon fill="url(#SVGID_32_)" points="127.097,71.47 127.097,82.17 127.097,83.37 123.927,83.37 123.927,70.26 127.097,70.26 
							"/>
		</g>
		<g>
			
				<line fill="none" stroke="#000000" stroke-linecap="round" stroke-linejoin="round" x1="141.587" y1="71.47" x2="127.097" y2="71.47"/>
			
				<line fill="none" stroke="#000000" stroke-linecap="round" stroke-linejoin="round" x1="127.097" y1="82.17" x2="140.887" y2="82.17"/>
			
				<line fill="none" stroke="#000000" stroke-linecap="round" stroke-linejoin="round" x1="167.156" y1="73.31" x2="176.337" y2="73.31"/>
			
				<line fill="none" stroke="#000000" stroke-linecap="round" stroke-linejoin="round" x1="176.337" y1="81.42" x2="167.326" y2="81.42"/>
			<polygon fill="none" stroke="#000000" stroke-linecap="round" stroke-linejoin="round" points="127.097,82.17 127.097,83.37 
				123.927,83.37 123.927,70.26 127.097,70.26 127.097,71.47 			"/>
			<polygon fill="none" stroke="#000000" stroke-linecap="round" stroke-linejoin="round" points="176.337,73.31 176.337,70.55 
				178.927,70.55 178.927,82.949 176.337,82.949 176.337,81.42 			"/>
			
				<rect x="136.326" y="93.89" fill="none" stroke="#000000" stroke-width="0.5" stroke-linecap="round" stroke-linejoin="round" width="14.78" height="2.62"/>
			
				<rect x="156.477" y="93.89" fill="none" stroke="#000000" stroke-width="0.5" stroke-linecap="round" stroke-linejoin="round" width="14.79" height="2.62"/>
			
				<line fill="none" stroke="#000000" stroke-width="0.5" stroke-linecap="round" stroke-linejoin="round" x1="145.097" y1="88.29" x2="139.727" y2="92.71"/>
			
				<line fill="none" stroke="#000000" stroke-width="0.5" stroke-linecap="round" stroke-linejoin="round" x1="139.727" y1="92.71" x2="151.107" y2="92.71"/>
			
				<line fill="none" stroke="#000000" stroke-width="0.5" stroke-linecap="round" stroke-linejoin="round" x1="151.107" y1="92.71" x2="151.107" y2="91.21"/>
			
				<line fill="none" stroke="#000000" stroke-width="0.5" stroke-linecap="round" stroke-linejoin="round" x1="156.477" y1="92.71" x2="168.387" y2="92.71"/>
			
				<line fill="none" stroke="#000000" stroke-width="0.5" stroke-linecap="round" stroke-linejoin="round" x1="168.387" y1="92.71" x2="163.246" y2="87.97"/>
			<polyline fill="none" stroke="#000000" stroke-width="0.5" stroke-linecap="round" stroke-linejoin="round" points="
				156.477,92.739 156.477,92.71 156.477,91.51 			"/>
			<path fill="none" stroke="#000000" stroke-linecap="round" stroke-linejoin="round" d="M167.156,73.31
				c0.45,1.36,0.69,2.82,0.69,4.34c0,1.311-0.18,2.57-0.521,3.771c-0.72,2.55-2.159,4.81-4.08,6.55c-1.88,1.68-4.22,2.86-6.81,3.32
				c-0.79,0.149-1.61,0.22-2.45,0.22c-0.99,0-1.95-0.1-2.88-0.3c-2.26-0.48-4.3-1.5-6.01-2.92c-1.91-1.61-3.39-3.71-4.21-6.12
				c-0.5-1.42-0.76-2.94-0.76-4.521c0-2.22,0.52-4.319,1.46-6.18c2.26-4.56,6.96-7.68,12.399-7.68
				C160.116,63.79,165.326,67.779,167.156,73.31z"/>
			<path fill="none" stroke="#000000" stroke-linecap="round" stroke-linejoin="round" d="M149.877,71.47
				c0.6-1.69,2.22-2.89,4.109-2.89c2.42,0,4.38,1.96,4.38,4.38s-1.96,4.38-4.38,4.38c-0.3,0-0.6-0.03-0.88-0.09
				c-2-0.41-3.5-2.17-3.5-4.29C149.607,72.43,149.697,71.93,149.877,71.47z"/>
			<path fill="none" stroke="#000000" d="M153.107,78.05c0.28-0.061,0.58-0.09,0.88-0.09c2.42,0,4.38,1.96,4.38,4.38
				s-1.96,4.38-4.38,4.38s-4.38-1.96-4.38-4.38c0-0.061,0-0.11,0.01-0.17C149.687,80.13,151.156,78.449,153.107,78.05z"/>
		</g>
	</g>
	<g id="bombatcPurple">
		<g>
			<linearGradient id="SVGID_33_" gradientUnits="userSpaceOnUse" x1="106.8098" y1="78.6758" x2="106.8098" y2="71.0969">
				<stop  offset="0" style="stop-color:#999999"/>
				<stop  offset="0.2152" style="stop-color:#CACACA"/>
				<stop  offset="0.4303" style="stop-color:#FFFFFF"/>
				<stop  offset="0.5378" style="stop-color:#F2F2F2"/>
				<stop  offset="0.7373" style="stop-color:#CFCFCF"/>
				<stop  offset="1" style="stop-color:#999999"/>
			</linearGradient>
			<polygon fill="url(#SVGID_33_)" points="108.105,68.05 108.105,80.449 105.515,80.449 105.515,78.92 105.515,70.81 
				105.515,68.05 			"/>
			<linearGradient id="SVGID_34_" gradientUnits="userSpaceOnUse" x1="100.9241" y1="78.6758" x2="100.9241" y2="71.0967">
				<stop  offset="0" style="stop-color:#999999"/>
				<stop  offset="0.2152" style="stop-color:#CACACA"/>
				<stop  offset="0.4303" style="stop-color:#FFFFFF"/>
				<stop  offset="0.5378" style="stop-color:#F2F2F2"/>
				<stop  offset="0.7373" style="stop-color:#CFCFCF"/>
				<stop  offset="1" style="stop-color:#999999"/>
			</linearGradient>
			<path fill="url(#SVGID_34_)" d="M105.515,70.81v8.11h-9.011c0.341-1.2,0.521-2.46,0.521-3.771c0-1.52-0.24-2.979-0.69-4.34
				H105.515z"/>
			<rect x="85.655" y="91.39" fill="#7F7D7D" width="14.79" height="2.62"/>
			<path fill="#7F7D7D" d="M97.565,90.21h-11.91v-1.2l-0.04-0.22c2.59-0.46,4.93-1.641,6.81-3.32L97.565,90.21z"/>
			<path fill="#FF00FF" d="M97.025,75.149c0,1.311-0.18,2.57-0.521,3.771h-5.8v-8.11h5.63C96.784,72.17,97.025,73.63,97.025,75.149z
				"/>
			<path fill="#FF00FF" d="M92.424,85.47c-1.88,1.68-4.22,2.86-6.81,3.32c-0.79,0.149-1.61,0.22-2.45,0.22
				c-0.99,0-1.95-0.1-2.88-0.3v-0.07l-4.71-3.92l-1.3,1.07c-1.91-1.61-3.39-3.71-4.21-6.12h8.729c-0.01,0.06-0.01,0.109-0.01,0.17
				c0,2.42,1.96,4.38,4.38,4.38s4.38-1.96,4.38-4.38s-1.96-4.38-4.38-4.38c-0.3,0-0.6,0.029-0.88,0.09v-0.8
				c0.28,0.06,0.58,0.09,0.88,0.09c2.42,0,4.38-1.96,4.38-4.38s-1.96-4.38-4.38-4.38c-1.89,0-3.51,1.199-4.109,2.89h-8.29
				c2.26-4.56,6.96-7.68,12.399-7.68c6.13,0,11.34,3.989,13.17,9.52h-5.63v8.11h5.8C95.784,81.47,94.345,83.729,92.424,85.47z"/>
			<path fill="#969696" d="M83.164,66.08c2.42,0,4.38,1.96,4.38,4.38s-1.96,4.38-4.38,4.38c-0.3,0-0.6-0.03-0.88-0.09v-5.78h-3.229
				C79.655,67.279,81.275,66.08,83.164,66.08z"/>
			<path fill="#969696" d="M83.164,75.46c2.42,0,4.38,1.96,4.38,4.38s-1.96,4.38-4.38,4.38s-4.38-1.96-4.38-4.38
				c0-0.061,0-0.11,0.01-0.17h3.49v-4.12C82.565,75.489,82.865,75.46,83.164,75.46z"/>
			<path fill="#969696" d="M82.284,75.55v4.12h-3.49C78.865,77.63,80.334,75.949,82.284,75.55z"/>
			<path fill="#FF00FF" d="M82.284,74.75v0.8c-1.95,0.399-3.42,2.08-3.49,4.12h-8.729c-0.5-1.42-0.76-2.94-0.76-4.521
				c0-2.22,0.52-4.319,1.46-6.18h8.29c-0.181,0.46-0.271,0.96-0.271,1.49C78.784,72.58,80.284,74.34,82.284,74.75z"/>
			<path fill="#969696" d="M82.284,68.97v5.78c-2-0.41-3.5-2.17-3.5-4.29c0-0.53,0.09-1.03,0.271-1.49H82.284z"/>
			<rect x="65.504" y="91.39" fill="#7F7D7D" width="14.78" height="2.62"/>
			<path fill="#7F7D7D" d="M80.284,88.71v1.5h-11.38l5.37-4.42C75.985,87.21,78.025,88.229,80.284,88.71z"/>
			<path fill="#FF00FF" d="M80.284,88.64v0.07c-2.26-0.48-4.3-1.5-6.01-2.92l1.3-1.07L80.284,88.64z"/>
			<linearGradient id="SVGID_35_" gradientUnits="userSpaceOnUse" x1="63.5198" y1="79.751" x2="63.5198" y2="69.2627">
				<stop  offset="0" style="stop-color:#999999"/>
				<stop  offset="0.2152" style="stop-color:#CACACA"/>
				<stop  offset="0.4303" style="stop-color:#FFFFFF"/>
				<stop  offset="0.5378" style="stop-color:#F2F2F2"/>
				<stop  offset="0.7373" style="stop-color:#CFCFCF"/>
				<stop  offset="1" style="stop-color:#999999"/>
			</linearGradient>
			<path fill="url(#SVGID_35_)" d="M56.275,68.97h14.49c-0.94,1.86-1.46,3.96-1.46,6.18c0,1.58,0.26,3.101,0.76,4.521h-13.79V68.97z
				"/>
			<linearGradient id="SVGID_36_" gradientUnits="userSpaceOnUse" x1="54.6897" y1="79.751" x2="54.6897" y2="69.2623">
				<stop  offset="0" style="stop-color:#999999"/>
				<stop  offset="0.2152" style="stop-color:#CACACA"/>
				<stop  offset="0.4303" style="stop-color:#FFFFFF"/>
				<stop  offset="0.5378" style="stop-color:#F2F2F2"/>
				<stop  offset="0.7373" style="stop-color:#CFCFCF"/>
				<stop  offset="1" style="stop-color:#999999"/>
			</linearGradient>
			<polygon fill="url(#SVGID_36_)" points="56.275,68.97 56.275,79.67 56.275,80.87 53.105,80.87 53.105,67.76 56.275,67.76 			"/>
		</g>
		<g>
			
				<line fill="none" stroke="#000000" stroke-linecap="round" stroke-linejoin="round" x1="70.765" y1="68.97" x2="56.275" y2="68.97"/>
			
				<line fill="none" stroke="#000000" stroke-linecap="round" stroke-linejoin="round" x1="56.275" y1="79.67" x2="70.065" y2="79.67"/>
			
				<line fill="none" stroke="#000000" stroke-linecap="round" stroke-linejoin="round" x1="96.334" y1="70.81" x2="105.515" y2="70.81"/>
			
				<line fill="none" stroke="#000000" stroke-linecap="round" stroke-linejoin="round" x1="105.515" y1="78.92" x2="96.504" y2="78.92"/>
			<polygon fill="none" stroke="#000000" stroke-linecap="round" stroke-linejoin="round" points="56.275,79.67 56.275,80.87 
				53.105,80.87 53.105,67.76 56.275,67.76 56.275,68.97 			"/>
			<polygon fill="none" stroke="#000000" stroke-linecap="round" stroke-linejoin="round" points="105.515,70.81 105.515,68.05 
				108.105,68.05 108.105,80.449 105.515,80.449 105.515,78.92 			"/>
			
				<rect x="65.504" y="91.39" fill="none" stroke="#000000" stroke-width="0.5" stroke-linecap="round" stroke-linejoin="round" width="14.78" height="2.62"/>
			
				<rect x="85.655" y="91.39" fill="none" stroke="#000000" stroke-width="0.5" stroke-linecap="round" stroke-linejoin="round" width="14.79" height="2.62"/>
			
				<line fill="none" stroke="#000000" stroke-width="0.5" stroke-linecap="round" stroke-linejoin="round" x1="74.275" y1="85.79" x2="68.905" y2="90.21"/>
			
				<line fill="none" stroke="#000000" stroke-width="0.5" stroke-linecap="round" stroke-linejoin="round" x1="68.905" y1="90.21" x2="80.284" y2="90.21"/>
			
				<line fill="none" stroke="#000000" stroke-width="0.5" stroke-linecap="round" stroke-linejoin="round" x1="80.284" y1="90.21" x2="80.284" y2="88.71"/>
			
				<line fill="none" stroke="#000000" stroke-width="0.5" stroke-linecap="round" stroke-linejoin="round" x1="85.655" y1="90.21" x2="97.565" y2="90.21"/>
			
				<line fill="none" stroke="#000000" stroke-width="0.5" stroke-linecap="round" stroke-linejoin="round" x1="97.565" y1="90.21" x2="92.424" y2="85.47"/>
			<polyline fill="none" stroke="#000000" stroke-width="0.5" stroke-linecap="round" stroke-linejoin="round" points="
				85.655,90.239 85.655,90.21 85.655,89.01 			"/>
			<path fill="none" stroke="#000000" stroke-linecap="round" stroke-linejoin="round" d="M96.334,70.81
				c0.45,1.36,0.69,2.82,0.69,4.34c0,1.311-0.18,2.57-0.521,3.771c-0.72,2.55-2.159,4.81-4.08,6.55c-1.88,1.68-4.22,2.86-6.81,3.32
				c-0.79,0.149-1.61,0.22-2.45,0.22c-0.99,0-1.95-0.1-2.88-0.3c-2.26-0.48-4.3-1.5-6.01-2.92c-1.91-1.61-3.39-3.71-4.21-6.12
				c-0.5-1.42-0.76-2.94-0.76-4.521c0-2.22,0.52-4.319,1.46-6.18c2.26-4.56,6.96-7.68,12.399-7.68
				C89.294,61.29,94.504,65.279,96.334,70.81z"/>
			<path fill="none" stroke="#000000" stroke-linecap="round" stroke-linejoin="round" d="M79.055,68.97
				c0.6-1.69,2.22-2.89,4.109-2.89c2.42,0,4.38,1.96,4.38,4.38s-1.96,4.38-4.38,4.38c-0.3,0-0.6-0.03-0.88-0.09
				c-2-0.41-3.5-2.17-3.5-4.29C78.784,69.93,78.874,69.43,79.055,68.97z"/>
			<path fill="none" stroke="#000000" d="M82.284,75.55c0.28-0.061,0.58-0.09,0.88-0.09c2.42,0,4.38,1.96,4.38,4.38
				s-1.96,4.38-4.38,4.38s-4.38-1.96-4.38-4.38c0-0.061,0-0.11,0.01-0.17C78.865,77.63,80.334,75.949,82.284,75.55z"/>
		</g>
	</g>
	<g id="bombatacYellow">
		<g>
			<linearGradient id="SVGID_37_" gradientUnits="userSpaceOnUse" x1="38.9944" y1="80.2559" x2="38.9944" y2="72.677">
				<stop  offset="0" style="stop-color:#999999"/>
				<stop  offset="0.2152" style="stop-color:#CACACA"/>
				<stop  offset="0.4303" style="stop-color:#FFFFFF"/>
				<stop  offset="0.5378" style="stop-color:#F2F2F2"/>
				<stop  offset="0.7373" style="stop-color:#CFCFCF"/>
				<stop  offset="1" style="stop-color:#999999"/>
			</linearGradient>
			<polygon fill="url(#SVGID_37_)" points="40.289,69.63 40.289,82.029 37.699,82.029 37.699,80.5 37.699,72.39 37.699,69.63 			"/>
			<linearGradient id="SVGID_38_" gradientUnits="userSpaceOnUse" x1="33.1096" y1="80.2559" x2="33.1096" y2="72.6768">
				<stop  offset="0" style="stop-color:#999999"/>
				<stop  offset="0.2152" style="stop-color:#CACACA"/>
				<stop  offset="0.4303" style="stop-color:#FFFFFF"/>
				<stop  offset="0.5378" style="stop-color:#F2F2F2"/>
				<stop  offset="0.7373" style="stop-color:#CFCFCF"/>
				<stop  offset="1" style="stop-color:#999999"/>
			</linearGradient>
			<path fill="url(#SVGID_38_)" d="M37.699,72.39v8.11h-9.01c0.34-1.2,0.52-2.46,0.52-3.771c0-1.52-0.239-2.979-0.689-4.34H37.699z"
				/>
			<rect x="17.84" y="92.97" fill="#7F7D7D" width="14.79" height="2.62"/>
			<path fill="#7F7D7D" d="M29.749,91.79H17.84v-1.2l-0.04-0.22c2.59-0.46,4.93-1.641,6.81-3.32L29.749,91.79z"/>
			<path fill="#FFFF00" d="M29.209,76.729c0,1.311-0.18,2.57-0.52,3.771h-5.8v-8.11h5.63C28.97,73.75,29.209,75.21,29.209,76.729z"
				/>
			<path fill="#FFFF00" d="M24.61,87.05c-1.88,1.68-4.22,2.86-6.81,3.32c-0.79,0.149-1.61,0.22-2.45,0.22c-0.99,0-1.95-0.1-2.88-0.3
				v-0.07L7.76,86.3l-1.3,1.07c-1.91-1.61-3.39-3.71-4.21-6.12h8.73c-0.01,0.06-0.01,0.109-0.01,0.17c0,2.42,1.96,4.38,4.38,4.38
				c2.42,0,4.38-1.96,4.38-4.38s-1.96-4.38-4.38-4.38c-0.3,0-0.6,0.029-0.88,0.09v-0.8c0.28,0.06,0.58,0.09,0.88,0.09
				c2.42,0,4.38-1.96,4.38-4.38s-1.96-4.38-4.38-4.38c-1.89,0-3.51,1.199-4.11,2.89h-8.29c2.26-4.56,6.96-7.68,12.4-7.68
				c6.13,0,11.34,3.989,13.17,9.52h-5.63v8.11h5.8C27.97,83.05,26.53,85.31,24.61,87.05z"/>
			<path fill="#969696" d="M15.349,67.66c2.42,0,4.38,1.96,4.38,4.38s-1.96,4.38-4.38,4.38c-0.3,0-0.6-0.03-0.88-0.09v-5.78h-3.23
				C11.84,68.859,13.46,67.66,15.349,67.66z"/>
			<path fill="#969696" d="M15.349,77.04c2.42,0,4.38,1.96,4.38,4.38s-1.96,4.38-4.38,4.38c-2.42,0-4.38-1.96-4.38-4.38
				c0-0.061,0-0.11,0.01-0.17h3.49v-4.12C14.75,77.069,15.05,77.04,15.349,77.04z"/>
			<path fill="#969696" d="M14.469,77.13v4.12h-3.49C11.05,79.21,12.52,77.529,14.469,77.13z"/>
			<path fill="#FFFF00" d="M14.469,76.33v0.8c-1.95,0.399-3.42,2.08-3.49,4.12H2.25c-0.5-1.42-0.76-2.94-0.76-4.521
				c0-2.22,0.52-4.319,1.46-6.18h8.29c-0.18,0.46-0.27,0.96-0.27,1.49C10.969,74.16,12.469,75.92,14.469,76.33z"/>
			<path fill="#969696" d="M14.469,70.55v5.78c-2-0.41-3.5-2.17-3.5-4.29c0-0.53,0.09-1.03,0.27-1.49H14.469z"/>
			<rect x="-2.31" y="92.97" fill="#7F7D7D" width="14.78" height="2.62"/>
			<path fill="#7F7D7D" d="M12.469,90.29v1.5H1.09l5.37-4.42C8.17,88.79,10.21,89.81,12.469,90.29z"/>
			<path fill="#FFFF00" d="M12.469,90.22v0.07c-2.26-0.48-4.3-1.5-6.01-2.92l1.3-1.07L12.469,90.22z"/>
			<linearGradient id="SVGID_39_" gradientUnits="userSpaceOnUse" x1="-4.2952" y1="81.3311" x2="-4.2952" y2="70.8428">
				<stop  offset="0" style="stop-color:#999999"/>
				<stop  offset="0.2152" style="stop-color:#CACACA"/>
				<stop  offset="0.4303" style="stop-color:#FFFFFF"/>
				<stop  offset="0.5378" style="stop-color:#F2F2F2"/>
				<stop  offset="0.7373" style="stop-color:#CFCFCF"/>
				<stop  offset="1" style="stop-color:#999999"/>
			</linearGradient>
			<path fill="url(#SVGID_39_)" d="M-11.54,70.55h14.49c-0.94,1.86-1.46,3.96-1.46,6.18c0,1.58,0.26,3.101,0.76,4.521h-13.79V70.55z
				"/>
			<linearGradient id="SVGID_40_" gradientUnits="userSpaceOnUse" x1="-13.1252" y1="81.3311" x2="-13.1252" y2="70.8424">
				<stop  offset="0" style="stop-color:#999999"/>
				<stop  offset="0.2152" style="stop-color:#CACACA"/>
				<stop  offset="0.4303" style="stop-color:#FFFFFF"/>
				<stop  offset="0.5378" style="stop-color:#F2F2F2"/>
				<stop  offset="0.7373" style="stop-color:#CFCFCF"/>
				<stop  offset="1" style="stop-color:#999999"/>
			</linearGradient>
			<polygon fill="url(#SVGID_40_)" points="-11.54,70.55 -11.54,81.25 -11.54,82.45 -14.71,82.45 -14.71,69.34 -11.54,69.34 			"/>
		</g>
		<g>
			
				<line fill="none" stroke="#000000" stroke-linecap="round" stroke-linejoin="round" x1="2.949" y1="70.55" x2="-11.54" y2="70.55"/>
			
				<line fill="none" stroke="#000000" stroke-linecap="round" stroke-linejoin="round" x1="-11.54" y1="81.25" x2="2.25" y2="81.25"/>
			
				<line fill="none" stroke="#000000" stroke-linecap="round" stroke-linejoin="round" x1="28.52" y1="72.39" x2="37.699" y2="72.39"/>
			
				<line fill="none" stroke="#000000" stroke-linecap="round" stroke-linejoin="round" x1="37.699" y1="80.5" x2="28.69" y2="80.5"/>
			<polygon fill="none" stroke="#000000" stroke-linecap="round" stroke-linejoin="round" points="-11.54,81.25 -11.54,82.45 
				-14.71,82.45 -14.71,69.34 -11.54,69.34 -11.54,70.55 			"/>
			<polygon fill="none" stroke="#000000" stroke-linecap="round" stroke-linejoin="round" points="37.699,72.39 37.699,69.63 
				40.289,69.63 40.289,82.029 37.699,82.029 37.699,80.5 			"/>
			
				<rect x="-2.31" y="92.97" fill="none" stroke="#000000" stroke-width="0.5" stroke-linecap="round" stroke-linejoin="round" width="14.78" height="2.62"/>
			
				<rect x="17.84" y="92.97" fill="none" stroke="#000000" stroke-width="0.5" stroke-linecap="round" stroke-linejoin="round" width="14.79" height="2.62"/>
			
				<line fill="none" stroke="#000000" stroke-width="0.5" stroke-linecap="round" stroke-linejoin="round" x1="6.46" y1="87.37" x2="1.09" y2="91.79"/>
			
				<line fill="none" stroke="#000000" stroke-width="0.5" stroke-linecap="round" stroke-linejoin="round" x1="1.09" y1="91.79" x2="12.469" y2="91.79"/>
			
				<line fill="none" stroke="#000000" stroke-width="0.5" stroke-linecap="round" stroke-linejoin="round" x1="12.469" y1="91.79" x2="12.469" y2="90.29"/>
			
				<line fill="none" stroke="#000000" stroke-width="0.5" stroke-linecap="round" stroke-linejoin="round" x1="17.84" y1="91.79" x2="29.749" y2="91.79"/>
			
				<line fill="none" stroke="#000000" stroke-width="0.5" stroke-linecap="round" stroke-linejoin="round" x1="29.749" y1="91.79" x2="24.61" y2="87.05"/>
			<polyline fill="none" stroke="#000000" stroke-width="0.5" stroke-linecap="round" stroke-linejoin="round" points="
				17.84,91.819 17.84,91.79 17.84,90.59 			"/>
			<path fill="none" stroke="#000000" stroke-linecap="round" stroke-linejoin="round" d="M28.52,72.39
				c0.45,1.36,0.689,2.82,0.689,4.34c0,1.311-0.18,2.57-0.52,3.771c-0.72,2.55-2.16,4.81-4.08,6.55c-1.88,1.68-4.22,2.86-6.81,3.32
				c-0.79,0.149-1.61,0.22-2.45,0.22c-0.99,0-1.95-0.1-2.88-0.3c-2.26-0.48-4.3-1.5-6.01-2.92c-1.91-1.61-3.39-3.71-4.21-6.12
				c-0.5-1.42-0.76-2.94-0.76-4.521c0-2.22,0.52-4.319,1.46-6.18c2.26-4.56,6.96-7.68,12.4-7.68
				C21.48,62.87,26.69,66.859,28.52,72.39z"/>
			<path fill="none" stroke="#000000" stroke-linecap="round" stroke-linejoin="round" d="M11.24,70.55
				c0.6-1.69,2.22-2.89,4.11-2.89c2.42,0,4.38,1.96,4.38,4.38s-1.96,4.38-4.38,4.38c-0.3,0-0.6-0.03-0.88-0.09
				c-2-0.41-3.5-2.17-3.5-4.29C10.969,71.51,11.06,71.01,11.24,70.55z"/>
			<path fill="none" stroke="#000000" d="M14.469,77.13c0.28-0.061,0.58-0.09,0.88-0.09c2.42,0,4.38,1.96,4.38,4.38
				s-1.96,4.38-4.38,4.38c-2.42,0-4.38-1.96-4.38-4.38c0-0.061,0-0.11,0.01-0.17C11.05,79.21,12.52,77.529,14.469,77.13z"/>
		</g>
	</g>
</g>
</svg>
