<?xml version="1.0" encoding="utf-8"?>
<!-- Generator: Adobe Illustrator 14.0.0, SVG Export Plug-In . SVG Version: 6.00 Build 43363)  -->
<!DOCTYPE svg PUBLIC "-//W3C//DTD SVG 1.1//EN" "http://www.w3.org/Graphics/SVG/1.1/DTD/svg11.dtd" [
	<!ENTITY ns_extend "http://ns.adobe.com/Extensibility/1.0/">
	<!ENTITY ns_ai "http://ns.adobe.com/AdobeIllustrator/10.0/">
	<!ENTITY ns_graphs "http://ns.adobe.com/Graphs/1.0/">
	<!ENTITY ns_vars "http://ns.adobe.com/Variables/1.0/">
	<!ENTITY ns_imrep "http://ns.adobe.com/ImageReplacement/1.0/">
	<!ENTITY ns_sfw "http://ns.adobe.com/SaveForWeb/1.0/">
	<!ENTITY ns_custom "http://ns.adobe.com/GenericCustomNamespace/1.0/">
	<!ENTITY ns_adobe_xpath "http://ns.adobe.com/XPath/1.0/">
]>
<svg version="1.1"
	 id="svg9493" xmlns:x="&ns_extend;" xmlns:i="&ns_ai;" xmlns:graph="&ns_graphs;" sodipodi:docbase="/datas/Projs/Cliparts Stocker/led" sodipodi:docname="led_circle_blue.svg" sodipodi:version="0.32" inkscape:export-xdpi="90.000000" inkscape:export-ydpi="90.000000" inkscape:version="0.42" inkscape:export-filename="/datas/Projs/Cliparts Stocker/led/led_circle_blue.png" xmlns:svg="http://www.w3.org/2000/svg" xmlns:sodipodi="http://inkscape.sourceforge.net/DTD/sodipodi-0.dtd" xmlns:inkscape="http://www.inkscape.org/namespaces/inkscape" xmlns:cc="http://web.resource.org/cc/" xmlns:dc="http://purl.org/dc/elements/1.1/" xmlns:rdf="http://www.w3.org/1999/02/22-rdf-syntax-ns#"
	 xmlns="http://www.w3.org/2000/svg" xmlns:xlink="http://www.w3.org/1999/xlink" x="0px" y="0px" width="50px" height="50px"
	 viewBox="0 0 50 50" enable-background="new 0 0 50 50" xml:space="preserve">
<metadata>
	
		<rdf:RDF  xmlns:cc="http://web.resource.org/cc/" xmlns:dc="http://purl.org/dc/elements/1.1/" xmlns:rdf="http://www.w3.org/1999/02/22-rdf-syntax-ns#">
		<cc:Work  rdf:about="">
			<dc:title>LED Circle (Blue)</dc:title>
			<dc:description>jean.victor.balin@gmail.com</dc:description>
			<dc:subject>
				<rdf:Bag>
					<rdf:li>led</rdf:li>
					<rdf:li>shape</rdf:li>
				</rdf:Bag>
			</dc:subject>
			<dc:publisher>
				<cc:Agent  rdf:about="http://www.openclipart.org/">
					<dc:title>Open Clip Art Library</dc:title>
				</cc:Agent>
			</dc:publisher>
			<dc:creator>
				<cc:Agent>
					<dc:title>Jean-Victor Balin</dc:title>
				</cc:Agent>
			</dc:creator>
			<dc:rights>
				<cc:Agent>
					<dc:title>Jean-Victor Balin</dc:title>
				</cc:Agent>
			</dc:rights>
			<dc:date>2005-08-21</dc:date>
			<dc:format>image/svg+xml</dc:format>
			<dc:type  rdf:resource="http://purl.org/dc/dcmitype/StillImage"></dc:type>
			<cc:license  rdf:resource="http://web.resource.org/cc/PublicDomain"></cc:license>
			<dc:language>en</dc:language>
		</cc:Work>
		<cc:License  rdf:about="http://web.resource.org/cc/PublicDomain">
			<cc:permits  rdf:resource="http://web.resource.org/cc/Reproduction"></cc:permits>
			<cc:permits  rdf:resource="http://web.resource.org/cc/Distribution"></cc:permits>
			<cc:permits  rdf:resource="http://web.resource.org/cc/DerivativeWorks"></cc:permits>
		</cc:License>
	</rdf:RDF>
	<sfw  xmlns="&ns_sfw;">
		<slices></slices>
		<sliceSourceBounds  x="541.43" y="-40.996" width="283.744" height="109.025" bottomLeftOrigin="true"></sliceSourceBounds>
	</sfw>
</metadata>
<g id="bomba">
	<g id="bombateRed">
		<g id="XMLID_4_">
			<g>
				<polygon fill="#FF0000" points="50,-0.01 50,49.98 39.55,39.54 39.55,10.44 				"/>
			</g>
			<g>
				<line fill="none" stroke="#050505" stroke-linecap="round" stroke-linejoin="round" x1="50" y1="49.98" x2="39.55" y2="39.54"/>
				<line fill="none" stroke="#050505" stroke-linecap="round" stroke-linejoin="round" x1="50" y1="-0.01" x2="39.55" y2="10.44"/>
				<polyline fill="none" stroke="#050505" stroke-linecap="round" stroke-linejoin="round" points="50,-0.01 50,49.98 50,49.99 
									"/>
			</g>
		</g>
		<g id="XMLID_3_">
			<g>
				<polygon fill="#FF0000" points="0,0.01 10.45,10.46 10.45,39.56 0,50.01 				"/>
			</g>
			<g>
				<line fill="none" stroke="#050505" stroke-linecap="round" stroke-linejoin="round" x1="0" y1="0.01" x2="10.45" y2="10.46"/>
				<line fill="none" stroke="#050505" stroke-linecap="round" stroke-linejoin="round" x1="0" y1="50.01" x2="10.45" y2="39.56"/>
				<line fill="none" stroke="#050505" stroke-linecap="round" stroke-linejoin="round" x1="0" y1="50.01" x2="0" y2="0.01"/>
			</g>
		</g>
		<circle fill="#FF0000" stroke="#050505" stroke-linecap="round" stroke-linejoin="round" cx="25" cy="25.011" r="20.582"/>
		<g>
			<g id="XMLID_1_">
				<g>
					<path fill="#FFFFFF" d="M6.1,23.01C7.1,13.45,15.18,6,25,6c9.82,0,17.9,7.45,18.9,17.01H31.58c-0.84-2.9-3.46-5-6.58-5
						s-5.74,2.1-6.58,5H6.1z"/>
				</g>
				<g>
				</g>
			</g>
		</g>
		<g>
			<g id="XMLID_2_">
				<g>
					<path fill="#FFFFFF" d="M18.55,26.99c0.84,2.9,3.46,5,6.58,5s5.74-2.1,6.58-5h12.32c-1,9.561-9.08,17.01-18.9,17.01
						c-9.82,0-17.9-7.449-18.9-17.01H18.55z"/>
				</g>
				<g>
				</g>
			</g>
		</g>
	</g>
	<g id="bombateGreen">
		<g id="XMLID_8_">
			<g>
				<polygon fill="#00FF00" points="93.018,39.545 93.018,10.444 103.468,-0.005 103.468,49.994 				"/>
			</g>
			<g>
				
					<line fill="none" stroke="#050505" stroke-linecap="round" stroke-linejoin="round" x1="103.468" y1="49.994" x2="93.018" y2="39.545"/>
				
					<line fill="none" stroke="#050505" stroke-linecap="round" stroke-linejoin="round" x1="103.468" y1="-0.005" x2="93.018" y2="10.444"/>
				
					<line fill="none" stroke="#050505" stroke-linecap="round" stroke-linejoin="round" x1="103.468" y1="-0.005" x2="103.468" y2="49.994"/>
			</g>
		</g>
		<g id="XMLID_7_">
			<g>
				<polygon fill="#00FF00" points="63.918,10.464 63.918,39.564 53.468,50.014 53.468,0.014 				"/>
			</g>
			<g>
				
					<line fill="none" stroke="#050505" stroke-linecap="round" stroke-linejoin="round" x1="53.468" y1="0.014" x2="63.918" y2="10.464"/>
				
					<line fill="none" stroke="#050505" stroke-linecap="round" stroke-linejoin="round" x1="53.468" y1="50.014" x2="63.918" y2="39.564"/>
				
					<line fill="none" stroke="#050505" stroke-linecap="round" stroke-linejoin="round" x1="53.468" y1="50.014" x2="53.468" y2="0.014"/>
				
					<line fill="none" stroke="#050505" stroke-linecap="round" stroke-linejoin="round" x1="63.918" y1="10.464" x2="63.918" y2="39.564"/>
			</g>
		</g>
		<circle fill="#FF0000" stroke="#050505" stroke-linecap="round" stroke-linejoin="round" cx="78.468" cy="25.01" r="20.582"/>
		<g>
			<g id="XMLID_6_">
				<g>
					<path fill="#FF0000" d="M85.048,23.014h-13.16c0.84-2.89,3.46-5,6.58-5S84.208,20.124,85.048,23.014z"/>
					<path fill="#FFFFFF" d="M97.368,23.014h-12.32c-0.84-2.89-3.46-5-6.58-5s-5.74,2.11-6.58,5h-12.32
						c1-9.56,9.08-17.01,18.9-17.01S96.368,13.454,97.368,23.014z"/>
				</g>
				<g>
				</g>
			</g>
		</g>
		<g>
			<g id="XMLID_5_">
				<g>
					<path fill="#FFFFFF" d="M59.698,26.994h12.32c0.84,2.891,3.46,5,6.58,5s5.74-2.109,6.58-5h12.32
						c-1,9.561-9.08,17.011-18.9,17.011S60.698,36.555,59.698,26.994z"/>
				</g>
				<g>
				</g>
			</g>
		</g>
	</g>
	<g id="bombateBlue">
		<g id="XMLID_12_">
			<g>
				<polygon fill="#0000FF" points="150.347,39.544 150.347,10.444 160.797,-0.006 160.797,49.994 				"/>
			</g>
			<g>
				
					<line fill="none" stroke="#050505" stroke-linecap="round" stroke-linejoin="round" x1="160.797" y1="49.994" x2="150.347" y2="39.544"/>
				
					<line fill="none" stroke="#050505" stroke-linecap="round" stroke-linejoin="round" x1="160.797" y1="-0.006" x2="150.347" y2="10.444"/>
				
					<line fill="none" stroke="#050505" stroke-linecap="round" stroke-linejoin="round" x1="160.797" y1="-0.006" x2="160.797" y2="49.994"/>
			</g>
		</g>
		<g id="XMLID_11_">
			<g>
				<polygon fill="#0000FF" points="121.247,10.464 121.247,39.563 110.797,50.014 110.797,0.014 				"/>
			</g>
			<g>
				
					<line fill="none" stroke="#050505" stroke-linecap="round" stroke-linejoin="round" x1="110.797" y1="0.014" x2="121.247" y2="10.464"/>
				
					<line fill="none" stroke="#050505" stroke-linecap="round" stroke-linejoin="round" x1="110.797" y1="50.014" x2="121.247" y2="39.563"/>
				
					<line fill="none" stroke="#050505" stroke-linecap="round" stroke-linejoin="round" x1="110.797" y1="50.014" x2="110.797" y2="0.014"/>
			</g>
		</g>
		<circle fill="#FF0000" stroke="#050505" stroke-linecap="round" stroke-linejoin="round" cx="135.797" cy="25.01" r="20.582"/>
		<g>
			<g id="XMLID_10_">
				<g>
					<path fill="#FFFFFF" d="M154.698,23.014h-12.32c-0.84-2.9-3.46-5-6.58-5s-5.74,2.1-6.58,5h-12.32c1-9.56,9.08-17.01,18.9-17.01
						S153.698,13.454,154.698,23.014z"/>
				</g>
				<g>
				</g>
			</g>
		</g>
		<g>
			<g id="XMLID_9_">
				<g>
					<path fill="#FFFFFF" d="M117.027,26.994h12.32c0.84,2.9,3.46,5,6.58,5s5.74-2.1,6.58-5h12.32c-1,9.561-9.08,17.01-18.9,17.01
						S118.027,36.555,117.027,26.994z"/>
				</g>
				<g>
				</g>
			</g>
		</g>
	</g>
	<g id="bombateWhite">
		<g id="XMLID_16_">
			<g>
				<polygon fill="#FFFFFF" points="207.613,39.544 207.613,10.444 218.063,-0.006 218.063,49.994 				"/>
			</g>
			<g>
				
					<line fill="none" stroke="#050505" stroke-linecap="round" stroke-linejoin="round" x1="218.063" y1="49.994" x2="207.613" y2="39.544"/>
				
					<line fill="none" stroke="#050505" stroke-linecap="round" stroke-linejoin="round" x1="218.063" y1="-0.006" x2="207.613" y2="10.444"/>
				
					<line fill="none" stroke="#050505" stroke-linecap="round" stroke-linejoin="round" x1="218.063" y1="-0.006" x2="218.063" y2="49.994"/>
			</g>
		</g>
		<g id="XMLID_15_">
			<g>
				<polygon fill="#FFFFFF" points="178.513,10.464 178.513,39.563 168.063,50.014 168.063,0.014 				"/>
			</g>
			<g>
				
					<line fill="none" stroke="#050505" stroke-linecap="round" stroke-linejoin="round" x1="168.063" y1="0.014" x2="178.513" y2="10.464"/>
				
					<line fill="none" stroke="#050505" stroke-linecap="round" stroke-linejoin="round" x1="168.063" y1="50.014" x2="178.513" y2="39.563"/>
				
					<line fill="none" stroke="#050505" stroke-linecap="round" stroke-linejoin="round" x1="168.063" y1="50.014" x2="168.063" y2="0.014"/>
			</g>
		</g>
		<circle fill="#FF0000" stroke="#050505" stroke-linecap="round" stroke-linejoin="round" cx="193.063" cy="25.01" r="20.582"/>
		<g>
			<g id="XMLID_14_">
				<g>
					<path fill="#FFFFFF" d="M211.963,23.014h-12.32c-0.84-2.9-3.46-5-6.58-5s-5.74,2.1-6.58,5h-12.32c1-9.56,9.08-17.01,18.9-17.01
						S210.963,13.454,211.963,23.014z"/>
				</g>
				<g>
				</g>
			</g>
		</g>
		<g>
			<g id="XMLID_13_">
				<g>
					<path fill="#FFFFFF" d="M174.292,26.994h12.32c0.84,2.9,3.46,5,6.58,5s5.74-2.1,6.58-5h12.32c-1,9.561-9.08,17.01-18.9,17.01
						S175.292,36.555,174.292,26.994z"/>
				</g>
				<g>
				</g>
			</g>
		</g>
	</g>
	<g id="bombateGrey">
		<g id="XMLID_20_">
			<g>
				<polygon fill="#848484" points="265.279,39.544 265.279,10.444 275.729,-0.006 275.729,49.994 				"/>
			</g>
			<g>
				
					<line fill="none" stroke="#050505" stroke-linecap="round" stroke-linejoin="round" x1="275.729" y1="49.994" x2="265.279" y2="39.544"/>
				
					<line fill="none" stroke="#050505" stroke-linecap="round" stroke-linejoin="round" x1="275.729" y1="-0.006" x2="265.279" y2="10.444"/>
				
					<line fill="none" stroke="#050505" stroke-linecap="round" stroke-linejoin="round" x1="275.729" y1="-0.006" x2="275.729" y2="49.994"/>
			</g>
		</g>
		<g id="XMLID_19_">
			<g>
				<polygon fill="#848484" points="236.179,10.464 236.179,39.563 225.729,50.014 225.729,0.014 				"/>
			</g>
			<g>
				
					<line fill="none" stroke="#050505" stroke-linecap="round" stroke-linejoin="round" x1="225.729" y1="0.014" x2="236.179" y2="10.464"/>
				
					<line fill="none" stroke="#050505" stroke-linecap="round" stroke-linejoin="round" x1="225.729" y1="50.014" x2="236.179" y2="39.563"/>
				
					<line fill="none" stroke="#050505" stroke-linecap="round" stroke-linejoin="round" x1="225.729" y1="50.014" x2="225.729" y2="0.014"/>
			</g>
		</g>
		<circle fill="#FF0000" stroke="#050505" stroke-linecap="round" stroke-linejoin="round" cx="250.729" cy="25.01" r="20.582"/>
		<g>
			<g id="XMLID_18_">
				<g>
					<path fill="#FFFFFF" d="M269.629,23.014h-12.32c-0.84-2.9-3.46-5-6.58-5s-5.74,2.1-6.58,5h-12.32c1-9.56,9.08-17.01,18.9-17.01
						S268.629,13.454,269.629,23.014z"/>
				</g>
				<g>
				</g>
			</g>
		</g>
		<g>
			<g id="XMLID_17_">
				<g>
					<path fill="#FFFFFF" d="M231.958,26.994h12.32c0.84,2.9,3.46,5,6.58,5s5.74-2.1,6.58-5h12.32c-1,9.561-9.08,17.01-18.9,17.01
						S232.958,36.555,231.958,26.994z"/>
				</g>
				<g>
				</g>
			</g>
		</g>
	</g>
	<g id="bombateBlack">
		<g id="XMLID_24_">
			<g>
				<polygon fill="#020202" points="272.295,97.536 272.295,68.437 282.744,57.986 282.744,107.986 				"/>
			</g>
			<g>
				
					<line fill="none" stroke="#050505" stroke-linecap="round" stroke-linejoin="round" x1="282.744" y1="107.986" x2="272.295" y2="97.536"/>
				
					<line fill="none" stroke="#050505" stroke-linecap="round" stroke-linejoin="round" x1="282.744" y1="57.986" x2="272.295" y2="68.437"/>
				
					<line fill="none" stroke="#050505" stroke-linecap="round" stroke-linejoin="round" x1="282.744" y1="57.986" x2="282.744" y2="107.986"/>
			</g>
		</g>
		<g id="XMLID_23_">
			<g>
				<polygon fill="#020202" points="243.195,68.456 243.195,97.556 232.744,108.006 232.744,58.006 				"/>
			</g>
			<g>
				
					<line fill="none" stroke="#050505" stroke-linecap="round" stroke-linejoin="round" x1="232.744" y1="58.006" x2="243.195" y2="68.456"/>
				
					<line fill="none" stroke="#050505" stroke-linecap="round" stroke-linejoin="round" x1="232.744" y1="108.006" x2="243.195" y2="97.556"/>
				
					<line fill="none" stroke="#050505" stroke-linecap="round" stroke-linejoin="round" x1="232.744" y1="108.006" x2="232.744" y2="58.006"/>
			</g>
		</g>
		<circle fill="#FF0000" stroke="#050505" stroke-linecap="round" stroke-linejoin="round" cx="257.744" cy="83.006" r="20.582"/>
		<g>
			<g id="XMLID_22_">
				<g>
					<path fill="#FFFFFF" d="M276.645,81.006h-12.32c-0.84-2.89-3.46-5-6.58-5c-3.119,0-5.739,2.11-6.579,5h-12.32
						c1-9.56,9.08-17.01,18.899-17.01C267.565,63.996,275.645,71.446,276.645,81.006z"/>
				</g>
				<g>
				</g>
			</g>
		</g>
		<g>
			<g id="XMLID_21_">
				<g>
					<path fill="#FFFFFF" d="M238.975,84.986h12.32c0.84,2.89,3.46,5,6.58,5c3.119,0,5.739-2.11,6.579-5h12.32
						c-1,9.56-9.08,17.01-18.899,17.01C248.055,101.996,239.975,94.546,238.975,84.986z"/>
				</g>
				<g>
				</g>
			</g>
		</g>
	</g>
	<g id="bombateOrange">
		<g id="XMLID_28_">
			<g>
				<polygon fill="#FF7D03" points="214.759,97.526 214.759,68.427 225.209,57.977 225.209,107.977 				"/>
			</g>
			<g>
				
					<line fill="none" stroke="#050505" stroke-linecap="round" stroke-linejoin="round" x1="225.209" y1="107.977" x2="214.759" y2="97.526"/>
				
					<line fill="none" stroke="#050505" stroke-linecap="round" stroke-linejoin="round" x1="225.209" y1="57.977" x2="214.759" y2="68.427"/>
				
					<line fill="none" stroke="#050505" stroke-linecap="round" stroke-linejoin="round" x1="225.209" y1="57.977" x2="225.209" y2="107.977"/>
			</g>
		</g>
		<g id="XMLID_27_">
			<g>
				<polygon fill="#FF7D03" points="185.658,68.446 185.658,97.546 175.209,107.996 175.209,57.996 				"/>
			</g>
			<g>
				
					<line fill="none" stroke="#050505" stroke-linecap="round" stroke-linejoin="round" x1="175.209" y1="57.996" x2="185.658" y2="68.446"/>
				
					<line fill="none" stroke="#050505" stroke-linecap="round" stroke-linejoin="round" x1="175.209" y1="107.996" x2="185.658" y2="97.546"/>
				
					<line fill="none" stroke="#050505" stroke-linecap="round" stroke-linejoin="round" x1="175.209" y1="107.996" x2="175.209" y2="57.996"/>
			</g>
		</g>
		<circle fill="#FF0000" stroke="#050505" stroke-linecap="round" stroke-linejoin="round" cx="200.209" cy="82.996" r="20.582"/>
		<g>
			<g id="XMLID_26_">
				<g>
					<path fill="#FFFFFF" d="M219.109,80.996h-12.32c-0.84-2.89-3.46-5-6.579-5c-3.12,0-5.74,2.11-6.58,5h-12.32
						c1-9.56,9.08-17.01,18.9-17.01C210.029,63.986,218.109,71.437,219.109,80.996z"/>
				</g>
				<g>
				</g>
			</g>
		</g>
		<g>
			<g id="XMLID_25_">
				<g>
					<path fill="#FFFFFF" d="M181.439,84.977h12.32c0.84,2.89,3.46,5,6.579,5c3.12,0,5.74-2.11,6.58-5h12.32
						c-1,9.56-9.08,17.01-18.9,17.01C190.519,101.986,182.439,94.536,181.439,84.977z"/>
				</g>
				<g>
				</g>
			</g>
		</g>
	</g>
	<g id="bombateBrown">
		<g id="XMLID_32_">
			<g>
				<polygon fill="#724806" points="153.928,97.546 153.928,68.446 164.377,57.996 164.377,107.996 				"/>
			</g>
			<g>
				
					<line fill="none" stroke="#050505" stroke-linecap="round" stroke-linejoin="round" x1="164.377" y1="107.996" x2="153.928" y2="97.546"/>
				
					<line fill="none" stroke="#050505" stroke-linecap="round" stroke-linejoin="round" x1="164.377" y1="57.996" x2="153.928" y2="68.446"/>
				
					<line fill="none" stroke="#050505" stroke-linecap="round" stroke-linejoin="round" x1="164.377" y1="57.996" x2="164.377" y2="107.996"/>
			</g>
		</g>
		<g id="XMLID_31_">
			<g>
				<polygon fill="#724806" points="124.827,68.466 124.827,97.565 114.377,108.016 114.377,58.016 				"/>
			</g>
			<g>
				
					<line fill="none" stroke="#050505" stroke-linecap="round" stroke-linejoin="round" x1="114.377" y1="58.016" x2="124.827" y2="68.466"/>
				
					<line fill="none" stroke="#050505" stroke-linecap="round" stroke-linejoin="round" x1="114.377" y1="108.016" x2="124.827" y2="97.565"/>
				
					<line fill="none" stroke="#050505" stroke-linecap="round" stroke-linejoin="round" x1="114.377" y1="108.016" x2="114.377" y2="58.016"/>
			</g>
		</g>
		<circle fill="#FF0000" stroke="#050505" stroke-linecap="round" stroke-linejoin="round" cx="139.377" cy="83.016" r="20.582"/>
		<g>
			<g id="XMLID_30_">
				<g>
					<path fill="#FFFFFF" d="M158.278,81.016h-12.32c-0.84-2.89-3.46-5-6.58-5c-3.119,0-5.739,2.11-6.579,5h-12.32
						c1-9.56,9.08-17.01,18.899-17.01C149.198,64.006,157.278,71.456,158.278,81.016z"/>
				</g>
				<g>
				</g>
			</g>
		</g>
		<g>
			<g id="XMLID_29_">
				<g>
					<path fill="#FFFFFF" d="M120.608,84.996h12.32c0.84,2.89,3.46,5,6.58,5c3.119,0,5.739-2.11,6.579-5h12.32
						c-1,9.56-9.08,17.01-18.899,17.01C129.688,102.006,121.608,94.556,120.608,84.996z"/>
				</g>
				<g>
				</g>
			</g>
		</g>
	</g>
	<g id="bombatePurple">
		<g id="XMLID_36_">
			<g>
				<polygon fill="#FF00FF" points="94.094,97.517 94.094,68.417 104.543,57.967 104.543,107.967 				"/>
			</g>
			<g>
				
					<line fill="none" stroke="#050505" stroke-linecap="round" stroke-linejoin="round" x1="104.543" y1="107.967" x2="94.094" y2="97.517"/>
				
					<line fill="none" stroke="#050505" stroke-linecap="round" stroke-linejoin="round" x1="104.543" y1="57.967" x2="94.094" y2="68.417"/>
				
					<line fill="none" stroke="#050505" stroke-linecap="round" stroke-linejoin="round" x1="104.543" y1="57.967" x2="104.543" y2="107.967"/>
			</g>
		</g>
		<g id="XMLID_35_">
			<g>
				<polygon fill="#FF00FF" points="64.993,68.437 64.993,97.536 54.543,107.986 54.543,57.986 				"/>
			</g>
			<g>
				
					<line fill="none" stroke="#050505" stroke-linecap="round" stroke-linejoin="round" x1="54.543" y1="57.986" x2="64.993" y2="68.437"/>
				
					<line fill="none" stroke="#050505" stroke-linecap="round" stroke-linejoin="round" x1="54.543" y1="107.986" x2="64.993" y2="97.536"/>
				
					<line fill="none" stroke="#050505" stroke-linecap="round" stroke-linejoin="round" x1="54.543" y1="107.986" x2="54.543" y2="57.986"/>
			</g>
		</g>
		<circle fill="#FF0000" stroke="#050505" stroke-linecap="round" stroke-linejoin="round" cx="79.543" cy="82.986" r="20.582"/>
		<g>
			<g id="XMLID_34_">
				<g>
					<path fill="#FFFFFF" d="M98.444,80.986h-12.32c-0.84-2.89-3.46-5-6.58-5c-3.119,0-5.739,2.11-6.579,5h-12.32
						c1-9.56,9.08-17.01,18.899-17.01C89.364,63.977,97.444,71.427,98.444,80.986z"/>
				</g>
				<g>
				</g>
			</g>
		</g>
		<g>
			<g id="XMLID_33_">
				<g>
					<path fill="#FFFFFF" d="M60.774,84.967h12.32c0.84,2.89,3.46,5,6.58,5c3.119,0,5.739-2.11,6.579-5h12.32
						c-1,9.56-9.08,17.01-18.899,17.01C69.854,101.977,61.774,94.526,60.774,84.967z"/>
				</g>
				<g>
				</g>
			</g>
		</g>
	</g>
	<g id="bombateYellow">
		<g id="XMLID_40_">
			<g>
				<polygon fill="#FFFF00" points="39.55,97.517 39.55,68.417 50,57.967 50,107.967 				"/>
			</g>
			<g>
				
					<line fill="none" stroke="#050505" stroke-linecap="round" stroke-linejoin="round" x1="50" y1="107.967" x2="39.55" y2="97.517"/>
				
					<line fill="none" stroke="#050505" stroke-linecap="round" stroke-linejoin="round" x1="50" y1="57.967" x2="39.55" y2="68.417"/>
				<line fill="none" stroke="#050505" stroke-linecap="round" stroke-linejoin="round" x1="50" y1="57.967" x2="50" y2="107.967"/>
			</g>
		</g>
		<g id="XMLID_39_">
			<g>
				<polygon fill="#FFFF00" points="10.45,68.437 10.45,97.536 0,107.986 0,57.986 				"/>
			</g>
			<g>
				
					<line fill="none" stroke="#050505" stroke-linecap="round" stroke-linejoin="round" x1="0" y1="57.986" x2="10.45" y2="68.437"/>
				
					<line fill="none" stroke="#050505" stroke-linecap="round" stroke-linejoin="round" x1="0" y1="107.986" x2="10.45" y2="97.536"/>
				<line fill="none" stroke="#050505" stroke-linecap="round" stroke-linejoin="round" x1="0" y1="107.986" x2="0" y2="57.986"/>
			</g>
		</g>
		<circle fill="#FF0000" stroke="#050505" stroke-linecap="round" stroke-linejoin="round" cx="25" cy="82.986" r="20.582"/>
		<g>
			<g id="XMLID_38_">
				<g>
					<path fill="#FFFFFF" d="M43.901,80.986H31.58c-0.84-2.89-3.46-5-6.58-5s-5.74,2.11-6.58,5H6.1c1-9.56,9.08-17.01,18.9-17.01
						C34.821,63.977,42.901,71.427,43.901,80.986z"/>
				</g>
				<g>
				</g>
			</g>
		</g>
		<g>
			<g id="XMLID_37_">
				<g>
					<path fill="#FFFFFF" d="M6.23,84.967h12.32c0.84,2.89,3.46,5,6.58,5s5.74-2.11,6.58-5h12.32c-1,9.56-9.08,17.01-18.9,17.01
						C15.31,101.977,7.23,94.526,6.23,84.967z"/>
				</g>
				<g>
				</g>
			</g>
		</g>
	</g>
</g>
</svg>
