<?xml version="1.0" encoding="utf-8"?>
<!-- Generator: Adobe Illustrator 14.0.0, SVG Export Plug-In . SVG Version: 6.00 Build 43363)  -->
<!DOCTYPE svg PUBLIC "-//W3C//DTD SVG 1.1//EN" "http://www.w3.org/Graphics/SVG/1.1/DTD/svg11.dtd" [
	<!ENTITY ns_extend "http://ns.adobe.com/Extensibility/1.0/">
	<!ENTITY ns_ai "http://ns.adobe.com/AdobeIllustrator/10.0/">
	<!ENTITY ns_graphs "http://ns.adobe.com/Graphs/1.0/">
	<!ENTITY ns_vars "http://ns.adobe.com/Variables/1.0/">
	<!ENTITY ns_imrep "http://ns.adobe.com/ImageReplacement/1.0/">
	<!ENTITY ns_sfw "http://ns.adobe.com/SaveForWeb/1.0/">
	<!ENTITY ns_custom "http://ns.adobe.com/GenericCustomNamespace/1.0/">
	<!ENTITY ns_adobe_xpath "http://ns.adobe.com/XPath/1.0/">
]>
<svg version="1.1"
	 id="svg9493" xmlns:x="&ns_extend;" xmlns:i="&ns_ai;" xmlns:graph="&ns_graphs;" xmlns:svg="http://www.w3.org/2000/svg" sodipodi:version="0.32" inkscape:export-xdpi="90.000000" inkscape:export-ydpi="90.000000" inkscape:version="0.42" sodipodi:docbase="/datas/Projs/Cliparts Stocker/led" sodipodi:docname="led_circle_blue.svg" inkscape:export-filename="/datas/Projs/Cliparts Stocker/led/led_circle_blue.png" xmlns:inkscape="http://www.inkscape.org/namespaces/inkscape" xmlns:sodipodi="http://inkscape.sourceforge.net/DTD/sodipodi-0.dtd" xmlns:rdf="http://www.w3.org/1999/02/22-rdf-syntax-ns#" xmlns:dc="http://purl.org/dc/elements/1.1/" xmlns:cc="http://web.resource.org/cc/"
	 xmlns="http://www.w3.org/2000/svg" xmlns:xlink="http://www.w3.org/1999/xlink" x="0px" y="0px" width="50px" height="50px"
	 viewBox="0 0 50 50" enable-background="new 0 0 50 50" xml:space="preserve">
<metadata>
	
		<rdf:RDF  xmlns:rdf="http://www.w3.org/1999/02/22-rdf-syntax-ns#" xmlns:dc="http://purl.org/dc/elements/1.1/" xmlns:cc="http://web.resource.org/cc/">
		<cc:Work  rdf:about="">
			<dc:title>LED Circle (Blue)</dc:title>
			<dc:description>jean.victor.balin@gmail.com</dc:description>
			<dc:subject>
				<rdf:Bag>
					<rdf:li>led</rdf:li>
					<rdf:li>shape</rdf:li>
				</rdf:Bag>
			</dc:subject>
			<dc:publisher>
				<cc:Agent  rdf:about="http://www.openclipart.org/">
					<dc:title>Open Clip Art Library</dc:title>
				</cc:Agent>
			</dc:publisher>
			<dc:creator>
				<cc:Agent>
					<dc:title>Jean-Victor Balin</dc:title>
				</cc:Agent>
			</dc:creator>
			<dc:rights>
				<cc:Agent>
					<dc:title>Jean-Victor Balin</dc:title>
				</cc:Agent>
			</dc:rights>
			<dc:date>2005-08-21</dc:date>
			<dc:format>image/svg+xml</dc:format>
			<dc:type  rdf:resource="http://purl.org/dc/dcmitype/StillImage"></dc:type>
			<cc:license  rdf:resource="http://web.resource.org/cc/PublicDomain"></cc:license>
			<dc:language>en</dc:language>
		</cc:Work>
		<cc:License  rdf:about="http://web.resource.org/cc/PublicDomain">
			<cc:permits  rdf:resource="http://web.resource.org/cc/Reproduction"></cc:permits>
			<cc:permits  rdf:resource="http://web.resource.org/cc/Distribution"></cc:permits>
			<cc:permits  rdf:resource="http://web.resource.org/cc/DerivativeWorks"></cc:permits>
		</cc:License>
	</rdf:RDF>
	<sfw  xmlns="&ns_sfw;">
		<slices></slices>
		<sliceSourceBounds  x="547.25" y="-9.653" width="249.842" height="62.014" bottomLeftOrigin="true"></sliceSourceBounds>
	</sfw>
</metadata>
<g id="flame">
	<g id="flameRed">
		<g id="XMLID_1_">
			<g>
				<polygon fill="#FF0000" points="42.42,25 21.84,28.84 25.55,33.26 13.41,31.05 13.85,34.84 5.32,28.2 5.32,20.36 14.29,15.16 
					13.41,19.48 25.55,15.69 21.84,21.76 				"/>
			</g>
			<g>
			</g>
		</g>
		<g id="cirledRed_1_">
			<g id="XMLID_2_">
				<g>
					<polygon fill="#FF7F00" points="27.632,25 16.495,27.078 18.503,29.47 11.933,28.273 12.172,30.324 7.555,26.731 7.555,22.489 
						12.409,19.675 11.933,22.013 18.503,19.962 16.495,23.247 					"/>
				</g>
				<g>
				</g>
			</g>
		</g>
	</g>
	<g id="flameGreen">
		<g id="XMLID_4_">
			<g>
				<polygon fill="#00FF00" points="74.458,31.054 74.898,34.844 66.368,28.203 66.368,20.363 75.338,15.164 74.458,19.483 
					86.598,15.693 82.888,21.764 103.468,25.003 82.888,28.844 86.598,33.264 				"/>
			</g>
			<g>
			</g>
		</g>
		<g id="cirledRed_3_">
			<g id="XMLID_3_">
				<g>
					<polygon fill="#00FF00" points="72.981,28.278 73.219,30.323 68.603,26.73 68.603,22.488 73.457,19.679 72.981,22.012 
						79.55,19.961 77.542,23.246 88.679,25.004 77.542,27.077 79.55,29.469 					"/>
				</g>
				<g>
				</g>
			</g>
		</g>
	</g>
	<g id="flameBlue">
		<g id="XMLID_6_">
			<g>
				<polygon fill="#0000FF" points="122.425,31.045 122.865,34.835 114.335,28.205 114.335,20.365 123.305,15.165 122.425,19.485 
					134.565,15.695 130.855,21.755 151.435,25.005 130.855,28.835 134.565,33.255 				"/>
			</g>
			<g>
			</g>
		</g>
		<g id="cirledRed_5_">
			<g id="XMLID_5_">
				<g>
					<polygon fill="#0000FF" points="120.948,28.273 121.186,30.324 116.57,26.731 116.57,22.489 121.424,19.675 120.948,22.013 
						127.517,19.962 125.509,23.247 136.646,25 125.509,27.078 127.517,29.47 					"/>
				</g>
				<g>
				</g>
			</g>
		</g>
	</g>
	<g id="flameWhite">
		<g id="XMLID_8_">
			<g>
				<polygon fill="#FFFFFF" points="172.22,31.054 172.659,34.844 164.13,28.204 164.13,20.364 173.1,15.164 172.22,19.484 
					184.36,15.694 180.65,21.764 201.23,25.004 180.65,28.844 184.36,33.264 				"/>
			</g>
			<g>
			</g>
		</g>
		<g id="cirledRed_7_">
			<g id="XMLID_7_">
				<g>
					<polygon fill="#FFFFFF" points="170.742,28.278 170.981,30.323 166.365,26.73 166.365,22.488 171.219,19.679 170.742,22.012 
						177.312,19.961 175.304,23.246 186.441,25.004 175.304,27.077 177.312,29.469 					"/>
				</g>
				<g>
				</g>
			</g>
		</g>
	</g>
	<g id="flameGrey">
		<g id="XMLID_10_">
			<g>
				<polygon fill="#848484" points="226.153,31.049 226.592,34.839 218.063,28.199 218.063,20.359 227.032,15.159 226.153,19.479 
					238.292,15.689 234.582,21.759 255.162,24.999 234.582,28.839 238.292,33.259 				"/>
			</g>
			<g>
			</g>
		</g>
		<g id="cirledRed_9_">
			<g id="XMLID_9_">
				<g>
					<polygon fill="#848484" points="224.675,28.274 224.913,30.325 220.297,26.732 220.297,22.489 225.152,19.676 224.675,22.013 
						231.244,19.962 229.237,23.247 240.373,25 229.237,27.078 231.244,29.47 					"/>
				</g>
				<g>
				</g>
			</g>
		</g>
	</g>
	<g id="flameBlack">
		<g id="XMLID_12_">
			<g>
				<polygon fill="#020202" points="225.052,73.383 225.491,77.173 216.962,70.533 216.962,62.693 225.932,57.493 225.052,61.813 
					237.192,58.023 233.482,64.093 254.062,67.333 233.482,71.173 237.192,75.593 				"/>
			</g>
			<g>
			</g>
		</g>
		<g id="cirledRed_11_">
			<g id="XMLID_11_">
				<g>
					<polygon fill="#020202" points="223.574,70.608 223.813,72.659 219.197,69.066 219.197,64.823 224.051,62.01 223.574,64.348 
						230.144,62.296 228.136,65.581 239.273,67.334 228.136,69.412 230.144,71.804 					"/>
				</g>
				<g>
				</g>
			</g>
		</g>
	</g>
	<g id="flameOrange">
		<g id="XMLID_14_">
			<g>
				<polygon fill="#FF7D03" points="176.577,72.507 177.017,76.297 168.488,69.657 168.488,61.817 177.457,56.617 176.577,60.938 
					188.717,57.147 185.007,63.217 205.587,66.457 185.007,70.297 188.717,74.717 				"/>
			</g>
			<g>
			</g>
		</g>
		<g id="cirledRed_13_">
			<g id="XMLID_13_">
				<g>
					<polygon fill="#FF7D03" points="175.1,69.732 175.338,71.783 170.722,68.19 170.722,63.947 175.576,61.134 175.1,63.472 
						181.669,61.42 179.661,64.705 190.798,66.458 179.661,68.536 181.669,70.928 					"/>
				</g>
				<g>
				</g>
			</g>
		</g>
	</g>
	<g id="flameBrown">
		<g id="XMLID_16_">
			<g>
				<polygon fill="#724806" points="125.412,71.787 125.852,75.577 117.323,68.938 117.323,61.098 126.292,55.897 125.412,60.218 
					137.552,56.428 133.842,62.497 154.422,65.737 133.842,69.577 137.552,73.997 				"/>
			</g>
			<g>
			</g>
		</g>
		<g id="cirledRed_15_">
			<g id="XMLID_15_">
				<g>
					<polygon fill="#724806" points="123.935,69.013 124.173,71.063 119.557,67.471 119.557,63.228 124.411,60.414 123.935,62.752 
						130.504,60.7 128.496,63.985 139.633,65.738 128.496,67.816 130.504,70.208 					"/>
				</g>
				<g>
				</g>
			</g>
		</g>
	</g>
	<g id="flamePurple">
		<g id="XMLID_18_">
			<g>
				<polygon fill="#FF00FF" points="68.351,70.755 68.79,74.545 60.261,67.905 60.261,60.065 69.231,54.865 68.351,59.186 
					80.49,55.396 76.781,61.465 97.361,64.705 76.781,68.545 80.49,72.965 				"/>
			</g>
			<g>
			</g>
		</g>
		<g id="cirledRed_17_">
			<g id="XMLID_17_">
				<g>
					<polygon fill="#FF00FF" points="66.873,67.98 67.112,70.031 62.495,66.438 62.495,62.195 67.35,59.382 66.873,61.72 
						73.443,59.668 71.435,62.953 82.572,64.706 71.435,66.784 73.443,69.176 					"/>
				</g>
				<g>
				</g>
			</g>
		</g>
	</g>
	<g id="flameYellow">
		<g id="XMLID_20_">
			<g>
				<polygon fill="#FFFF00" points="15.738,70.755 16.177,74.545 7.647,67.905 7.647,60.065 16.617,54.865 15.738,59.186 
					27.877,55.396 24.167,61.465 44.747,64.705 24.167,68.545 27.877,72.965 				"/>
			</g>
			<g>
			</g>
		</g>
		<g id="cirledRed_19_">
			<g id="XMLID_19_">
				<g>
					<polygon fill="#FFFF00" points="14.26,67.98 14.498,70.031 9.882,66.438 9.882,62.195 14.736,59.382 14.26,61.72 
						20.829,59.668 18.822,62.953 29.958,64.706 18.822,66.784 20.829,69.176 					"/>
				</g>
				<g>
				</g>
			</g>
		</g>
	</g>
</g>
</svg>
