<?xml version="1.0" encoding="utf-8"?>
<!-- Generator: Adobe Illustrator 14.0.0, SVG Export Plug-In . SVG Version: 6.00 Build 43363)  -->
<!DOCTYPE svg PUBLIC "-//W3C//DTD SVG 1.1//EN" "http://www.w3.org/Graphics/SVG/1.1/DTD/svg11.dtd" [
	<!ENTITY ns_extend "http://ns.adobe.com/Extensibility/1.0/">
	<!ENTITY ns_ai "http://ns.adobe.com/AdobeIllustrator/10.0/">
	<!ENTITY ns_graphs "http://ns.adobe.com/Graphs/1.0/">
	<!ENTITY ns_vars "http://ns.adobe.com/Variables/1.0/">
	<!ENTITY ns_imrep "http://ns.adobe.com/ImageReplacement/1.0/">
	<!ENTITY ns_sfw "http://ns.adobe.com/SaveForWeb/1.0/">
	<!ENTITY ns_custom "http://ns.adobe.com/GenericCustomNamespace/1.0/">
	<!ENTITY ns_adobe_xpath "http://ns.adobe.com/XPath/1.0/">
]>
<svg version="1.1"
	 id="svg9493" xmlns:x="&ns_extend;" xmlns:i="&ns_ai;" xmlns:graph="&ns_graphs;" xmlns:svg="http://www.w3.org/2000/svg" sodipodi:version="0.32" inkscape:export-xdpi="90.000000" inkscape:export-ydpi="90.000000" inkscape:version="0.42" sodipodi:docbase="/datas/Projs/Cliparts Stocker/led" sodipodi:docname="led_circle_blue.svg" inkscape:export-filename="/datas/Projs/Cliparts Stocker/led/led_circle_blue.png" xmlns:inkscape="http://www.inkscape.org/namespaces/inkscape" xmlns:sodipodi="http://inkscape.sourceforge.net/DTD/sodipodi-0.dtd" xmlns:rdf="http://www.w3.org/1999/02/22-rdf-syntax-ns#" xmlns:dc="http://purl.org/dc/elements/1.1/" xmlns:cc="http://web.resource.org/cc/"
	 xmlns="http://www.w3.org/2000/svg" xmlns:xlink="http://www.w3.org/1999/xlink" x="0px" y="0px" width="50px" height="50px"
	 viewBox="0 0 50 50" enable-background="new 0 0 50 50" xml:space="preserve">
<metadata>
	
		<rdf:RDF  xmlns:rdf="http://www.w3.org/1999/02/22-rdf-syntax-ns#" xmlns:dc="http://purl.org/dc/elements/1.1/" xmlns:cc="http://web.resource.org/cc/">
		<cc:Work  rdf:about="">
			<dc:title>LED Circle (Blue)</dc:title>
			<dc:description>jean.victor.balin@gmail.com</dc:description>
			<dc:subject>
				<rdf:Bag>
					<rdf:li>led</rdf:li>
					<rdf:li>shape</rdf:li>
				</rdf:Bag>
			</dc:subject>
			<dc:publisher>
				<cc:Agent  rdf:about="http://www.openclipart.org/">
					<dc:title>Open Clip Art Library</dc:title>
				</cc:Agent>
			</dc:publisher>
			<dc:creator>
				<cc:Agent>
					<dc:title>Jean-Victor Balin</dc:title>
				</cc:Agent>
			</dc:creator>
			<dc:rights>
				<cc:Agent>
					<dc:title>Jean-Victor Balin</dc:title>
				</cc:Agent>
			</dc:rights>
			<dc:date>2005-08-21</dc:date>
			<dc:format>image/svg+xml</dc:format>
			<dc:type  rdf:resource="http://purl.org/dc/dcmitype/StillImage"></dc:type>
			<cc:license  rdf:resource="http://web.resource.org/cc/PublicDomain"></cc:license>
			<dc:language>en</dc:language>
		</cc:Work>
		<cc:License  rdf:about="http://web.resource.org/cc/PublicDomain">
			<cc:permits  rdf:resource="http://web.resource.org/cc/Reproduction"></cc:permits>
			<cc:permits  rdf:resource="http://web.resource.org/cc/Distribution"></cc:permits>
			<cc:permits  rdf:resource="http://web.resource.org/cc/DerivativeWorks"></cc:permits>
		</cc:License>
	</rdf:RDF>
	<sfw  xmlns="&ns_sfw;">
		<slices></slices>
		<sliceSourceBounds  x="540.822" y="-11.553" width="271.263" height="67.667" bottomLeftOrigin="true"></sliceSourceBounds>
	</sfw>
</metadata>
<g id="inters">
	<g id="interRed">
		<g>
			<path fill="#FF0000" d="M32.182,30.34c3.77,0,6.819,1.2,6.819,2.67c0,1.471-3.05,2.67-6.819,2.67c-3.76,0-6.81-1.199-6.81-2.67
				C25.372,31.54,28.422,30.34,32.182,30.34z"/>
			<path fill="#FF0000" d="M18.172,30.34c3.76,0,6.81,1.2,6.81,2.67c0,1.471-3.05,2.67-6.81,2.67c-3.77,0-6.82-1.199-6.82-2.67
				C11.352,31.54,14.402,30.34,18.172,30.34z"/>
			<path fill="#FF0000" d="M39.001,17.12c0,1.48-3.05,2.67-6.819,2.67c-3.76,0-6.81-1.19-6.81-2.67c0-1.47,3.05-2.67,6.81-2.67
				C35.951,14.45,39.001,15.65,39.001,17.12z"/>
			<path fill="#FF0000" d="M11.352,17.12c0-1.47,3.05-2.67,6.82-2.67c3.76,0,6.81,1.2,6.81,2.67c0,1.47-3.05,2.67-6.81,2.67
				C14.402,19.79,11.352,18.59,11.352,17.12z"/>
			<path fill="#A5A4A4" d="M32.182,19.79c3.77,0,6.819-1.19,6.819-2.67c0-1.47-3.05-2.67-6.819-2.67c-3.76,0-6.81,1.2-6.81,2.67
				C25.372,18.6,28.422,19.79,32.182,19.79z M40.472,21.41h-30.6v-9.18h30.6V21.41z M18.172,14.45c-3.77,0-6.82,1.2-6.82,2.67
				c0,1.47,3.05,2.67,6.82,2.67c3.76,0,6.81-1.2,6.81-2.67C24.982,15.65,21.932,14.45,18.172,14.45z"/>
			<path fill="#A5A4A4" d="M18.172,35.68c3.76,0,6.81-1.199,6.81-2.67h0.39c0,1.471,3.05,2.67,6.81,2.67
				c3.77,0,6.819-1.199,6.819-2.67h1.471V38h-30.6v-4.99h1.48C11.352,34.48,14.402,35.68,18.172,35.68z"/>
			<path fill="#8E8E8E" d="M24.982,33.01c0-1.47-3.05-2.67-6.81-2.67c-3.77,0-6.82,1.2-6.82,2.67h-1.48v-4.45h30.6v4.45h-1.471
				c0-1.47-3.05-2.67-6.819-2.67c-3.76,0-6.81,1.2-6.81,2.67H24.982z"/>
			<rect x="40.472" y="21.41" fill="#A5A4A4" width="9.529" height="7.149"/>
			<rect x="0.002" y="21.41" fill="#A5A4A4" width="9.87" height="7.149"/>
			<rect x="9.872" y="21.41" fill="#A5A4A4" width="30.6" height="7.149"/>
		</g>
		<g>
			<polygon fill="none" stroke="#000000" stroke-linecap="round" stroke-linejoin="round" points="40.472,33.01 40.472,38 9.872,38 
				9.872,33.01 9.872,28.56 9.872,21.41 9.872,12.23 40.472,12.23 40.472,21.41 40.472,28.56 			"/>
			<polyline fill="none" stroke="#000000" stroke-linecap="round" stroke-linejoin="round" points="50.001,21.41 40.472,21.41 
				9.872,21.41 0.002,21.41 			"/>
			
				<line fill="none" stroke="#000000" stroke-linecap="round" stroke-linejoin="round" x1="0.002" y1="21.41" x2="0.002" y2="28.56"/>
			<polyline fill="none" stroke="#000000" stroke-linecap="round" stroke-linejoin="round" points="0.002,28.56 9.872,28.56 
				40.472,28.56 50.001,28.56 			"/>
			
				<line fill="none" stroke="#000000" stroke-linecap="round" stroke-linejoin="round" x1="50.001" y1="28.56" x2="50.001" y2="21.41"/>
			<path fill="none" stroke="#000000" stroke-linecap="round" stroke-linejoin="round" d="M24.982,17.12c0,1.47-3.05,2.67-6.81,2.67
				c-3.77,0-6.82-1.2-6.82-2.67c0-1.47,3.05-2.67,6.82-2.67C21.932,14.45,24.982,15.65,24.982,17.12z"/>
			<path fill="none" stroke="#000000" stroke-linecap="round" stroke-linejoin="round" d="M39.001,17.12
				c0,1.48-3.05,2.67-6.819,2.67c-3.76,0-6.81-1.19-6.81-2.67c0-1.47,3.05-2.67,6.81-2.67C35.951,14.45,39.001,15.65,39.001,17.12z"
				/>
			<path fill="none" stroke="#000000" stroke-linecap="round" stroke-linejoin="round" d="M24.982,33.01
				c0,1.471-3.05,2.67-6.81,2.67c-3.77,0-6.82-1.199-6.82-2.67c0-1.47,3.05-2.67,6.82-2.67C21.932,30.34,24.982,31.54,24.982,33.01z
				"/>
			<path fill="none" stroke="#000000" stroke-linecap="round" stroke-linejoin="round" d="M39.001,33.01
				c0,1.471-3.05,2.67-6.819,2.67c-3.76,0-6.81-1.199-6.81-2.67c0-1.47,3.05-2.67,6.81-2.67C35.951,30.34,39.001,31.54,39.001,33.01
				z"/>
		</g>
	</g>
	<g id="interGreen">
		<g>
			<rect x="97.61" y="21.475" fill="#A5A4A4" width="9.53" height="7.149"/>
			<rect x="67.02" y="21.475" fill="#A5A4A4" width="30.59" height="7.149"/>
			<path fill="#00FF00" d="M96.14,33.074c0,1.471-3.05,2.67-6.82,2.67c-3.76,0-6.81-1.199-6.81-2.67c0-1.479,3.05-2.67,6.81-2.67
				C93.09,30.404,96.14,31.595,96.14,33.074z"/>
			<path fill="#00FF00" d="M96.14,17.185c0,1.47-3.05,2.67-6.82,2.67c-3.76,0-6.81-1.2-6.81-2.67c0-1.47,3.05-2.67,6.81-2.67
				C93.09,14.515,96.14,15.714,96.14,17.185z"/>
			<path fill="#00FF00" d="M75.31,14.515c3.76,0,6.81,1.2,6.81,2.67c0,1.47-3.05,2.67-6.81,2.67c-3.77,0-6.82-1.2-6.82-2.67
				C68.49,15.714,71.54,14.515,75.31,14.515z"/>
			<path fill="#00FF00" d="M68.49,33.074c0-1.479,3.051-2.67,6.82-2.67c3.76,0,6.81,1.19,6.81,2.67c0,1.471-3.05,2.67-6.81,2.67
				C71.54,35.744,68.49,34.545,68.49,33.074z"/>
			<path fill="#A5A4A4" d="M89.32,19.854c3.771,0,6.82-1.2,6.82-2.67c0-1.47-3.05-2.67-6.82-2.67c-3.76,0-6.81,1.2-6.81,2.67
				C82.51,18.654,85.56,19.854,89.32,19.854z M97.61,21.475H67.02v-9.18h30.59V21.475z M75.31,14.515c-3.77,0-6.82,1.2-6.82,2.67
				c0,1.47,3.051,2.67,6.82,2.67c3.76,0,6.81-1.2,6.81-2.67C82.119,15.714,79.07,14.515,75.31,14.515z"/>
			<path fill="#A5A4A4" d="M67.02,28.624h30.59v4.45h-1.47c0-1.479-3.05-2.67-6.82-2.67c-3.76,0-6.81,1.19-6.81,2.67h-0.391
				c0-1.479-3.05-2.67-6.81-2.67c-3.77,0-6.82,1.19-6.82,2.67h-1.47V28.624z"/>
			<path fill="#A5A4A4" d="M97.61,38.064H67.02v-4.99h1.47c0,1.471,3.051,2.67,6.82,2.67c3.76,0,6.81-1.199,6.81-2.67h0.391
				c0,1.471,3.05,2.67,6.81,2.67c3.771,0,6.82-1.199,6.82-2.67h1.47V38.064z"/>
			<rect x="57.14" y="21.475" fill="#A5A4A4" width="9.88" height="7.149"/>
		</g>
		<g>
			<polygon fill="none" stroke="#000000" stroke-linecap="round" stroke-linejoin="round" points="97.61,33.074 97.61,38.064 
				67.02,38.064 67.02,33.074 67.02,28.624 67.02,21.475 67.02,12.294 97.61,12.294 97.61,21.475 97.61,28.624 			"/>
			<polyline fill="none" stroke="#000000" stroke-linecap="round" stroke-linejoin="round" points="107.14,21.475 97.61,21.475 
				67.02,21.475 57.14,21.475 			"/>
			
				<line fill="none" stroke="#000000" stroke-linecap="round" stroke-linejoin="round" x1="57.14" y1="21.475" x2="57.14" y2="28.624"/>
			<polyline fill="none" stroke="#000000" stroke-linecap="round" stroke-linejoin="round" points="57.14,28.624 67.02,28.624 
				97.61,28.624 107.14,28.624 			"/>
			
				<line fill="none" stroke="#000000" stroke-linecap="round" stroke-linejoin="round" x1="107.14" y1="28.624" x2="107.14" y2="21.475"/>
			<path fill="none" stroke="#000000" stroke-linecap="round" stroke-linejoin="round" d="M82.119,17.185
				c0,1.47-3.05,2.67-6.81,2.67c-3.77,0-6.82-1.2-6.82-2.67c0-1.47,3.051-2.67,6.82-2.67C79.07,14.515,82.119,15.714,82.119,17.185z
				"/>
			<path fill="none" stroke="#000000" stroke-linecap="round" stroke-linejoin="round" d="M96.14,17.185c0,1.47-3.05,2.67-6.82,2.67
				c-3.76,0-6.81-1.2-6.81-2.67c0-1.47,3.05-2.67,6.81-2.67C93.09,14.515,96.14,15.714,96.14,17.185z"/>
			<path fill="none" stroke="#000000" stroke-linecap="round" stroke-linejoin="round" d="M82.119,33.074
				c0,1.471-3.05,2.67-6.81,2.67c-3.77,0-6.82-1.199-6.82-2.67c0-1.479,3.051-2.67,6.82-2.67
				C79.07,30.404,82.119,31.595,82.119,33.074z"/>
			<path fill="none" stroke="#000000" stroke-linecap="round" stroke-linejoin="round" d="M96.14,33.074
				c0,1.471-3.05,2.67-6.82,2.67c-3.76,0-6.81-1.199-6.81-2.67c0-1.479,3.05-2.67,6.81-2.67C93.09,30.404,96.14,31.595,96.14,33.074
				z"/>
		</g>
	</g>
	<g id="interBlue">
		<g>
			<rect x="150.015" y="21.345" fill="#A5A4A4" width="9.53" height="7.149"/>
			<path fill="#A5A4A4" d="M150.015,32.944v4.99h-30.59v-4.99h1.47c0,1.471,3.051,2.67,6.82,2.67c3.76,0,6.81-1.199,6.81-2.67h0.391
				c0,1.471,3.05,2.67,6.81,2.67c3.771,0,6.82-1.199,6.82-2.67H150.015z"/>
			<path fill="#A5A4A4" d="M150.015,28.494v4.45h-1.47c0-1.479-3.05-2.67-6.82-2.67c-3.76,0-6.81,1.19-6.81,2.67h-0.391
				c0-1.479-3.05-2.67-6.81-2.67c-3.77,0-6.82,1.19-6.82,2.67h-1.47v-4.45H150.015z"/>
			<rect x="119.425" y="21.345" fill="#A5A4A4" width="30.59" height="7.149"/>
			<path fill="#A5A4A4" d="M150.015,12.165v9.18h-30.59v-9.18H150.015z M148.545,17.055c0-1.47-3.05-2.67-6.82-2.67
				c-3.76,0-6.81,1.2-6.81,2.67c0,1.47,3.05,2.67,6.81,2.67C145.495,19.725,148.545,18.524,148.545,17.055z M134.525,17.055
				c0-1.47-3.05-2.67-6.81-2.67c-3.77,0-6.82,1.2-6.82,2.67c0,1.47,3.051,2.67,6.82,2.67
				C131.475,19.725,134.525,18.524,134.525,17.055z"/>
			<path fill="#0000FF" d="M141.725,14.385c3.771,0,6.82,1.2,6.82,2.67c0,1.47-3.05,2.67-6.82,2.67c-3.76,0-6.81-1.2-6.81-2.67
				C134.915,15.584,137.965,14.385,141.725,14.385z"/>
			<path fill="#0000FF" d="M141.725,30.274c3.771,0,6.82,1.19,6.82,2.67c0,1.471-3.05,2.67-6.82,2.67c-3.76,0-6.81-1.199-6.81-2.67
				C134.915,31.465,137.965,30.274,141.725,30.274z"/>
			<path fill="#0000FF" d="M127.715,14.385c3.76,0,6.81,1.2,6.81,2.67c0,1.47-3.05,2.67-6.81,2.67c-3.77,0-6.82-1.2-6.82-2.67
				C120.895,15.584,123.946,14.385,127.715,14.385z"/>
			<path fill="#0000FF" d="M127.715,30.274c3.76,0,6.81,1.19,6.81,2.67c0,1.471-3.05,2.67-6.81,2.67c-3.77,0-6.82-1.199-6.82-2.67
				C120.895,31.465,123.946,30.274,127.715,30.274z"/>
			<rect x="109.545" y="21.345" fill="#A5A4A4" width="9.88" height="7.149"/>
		</g>
		<g>
			<polygon fill="none" stroke="#000000" stroke-linecap="round" stroke-linejoin="round" points="150.015,32.944 150.015,37.935 
				119.425,37.935 119.425,32.944 119.425,28.494 119.425,21.345 119.425,12.165 150.015,12.165 150.015,21.345 150.015,28.494 			
				"/>
			<polyline fill="none" stroke="#000000" stroke-linecap="round" stroke-linejoin="round" points="159.545,21.345 150.015,21.345 
				119.425,21.345 109.545,21.345 			"/>
			
				<line fill="none" stroke="#000000" stroke-linecap="round" stroke-linejoin="round" x1="109.545" y1="21.345" x2="109.545" y2="28.494"/>
			<polyline fill="none" stroke="#000000" stroke-linecap="round" stroke-linejoin="round" points="109.545,28.494 119.425,28.494 
				150.015,28.494 159.545,28.494 			"/>
			
				<line fill="none" stroke="#000000" stroke-linecap="round" stroke-linejoin="round" x1="159.545" y1="28.494" x2="159.545" y2="21.345"/>
			<path fill="none" stroke="#000000" stroke-linecap="round" stroke-linejoin="round" d="M134.525,17.055
				c0,1.47-3.05,2.67-6.81,2.67c-3.77,0-6.82-1.2-6.82-2.67c0-1.47,3.051-2.67,6.82-2.67
				C131.475,14.385,134.525,15.584,134.525,17.055z"/>
			<path fill="none" stroke="#000000" stroke-linecap="round" stroke-linejoin="round" d="M148.545,17.055
				c0,1.47-3.05,2.67-6.82,2.67c-3.76,0-6.81-1.2-6.81-2.67c0-1.47,3.05-2.67,6.81-2.67
				C145.495,14.385,148.545,15.584,148.545,17.055z"/>
			<path fill="none" stroke="#000000" stroke-linecap="round" stroke-linejoin="round" d="M134.525,32.944
				c0,1.471-3.05,2.67-6.81,2.67c-3.77,0-6.82-1.199-6.82-2.67c0-1.479,3.051-2.67,6.82-2.67
				C131.475,30.274,134.525,31.465,134.525,32.944z"/>
			<path fill="none" stroke="#000000" stroke-linecap="round" stroke-linejoin="round" d="M148.545,32.944
				c0,1.471-3.05,2.67-6.82,2.67c-3.76,0-6.81-1.199-6.81-2.67c0-1.479,3.05-2.67,6.81-2.67
				C145.495,30.274,148.545,31.465,148.545,32.944z"/>
		</g>
	</g>
	<g id="interWhite">
		<g>
			<rect x="202.761" y="21.215" fill="#A5A4A4" width="9.53" height="7.149"/>
			<path fill="#A5A4A4" d="M202.761,32.814v4.99h-30.59v-4.99h1.47c0,1.471,3.051,2.67,6.82,2.67c3.76,0,6.81-1.199,6.81-2.67h0.391
				c0,1.471,3.05,2.67,6.81,2.67c3.771,0,6.82-1.199,6.82-2.67H202.761z"/>
			<path fill="#A5A4A4" d="M202.761,28.364v4.45h-1.47c0-1.479-3.05-2.67-6.82-2.67c-3.76,0-6.81,1.19-6.81,2.67h-0.391
				c0-1.479-3.05-2.67-6.81-2.67c-3.77,0-6.82,1.19-6.82,2.67h-1.47v-4.45H202.761z"/>
			<rect x="172.171" y="21.215" fill="#A5A4A4" width="30.59" height="7.149"/>
			<path fill="#A5A4A4" d="M202.761,12.035v9.18h-30.59v-9.18H202.761z M201.291,16.925c0-1.47-3.05-2.67-6.82-2.67
				c-3.76,0-6.81,1.2-6.81,2.67c0,1.47,3.05,2.67,6.81,2.67C198.241,19.595,201.291,18.395,201.291,16.925z M187.271,16.925
				c0-1.47-3.05-2.67-6.81-2.67c-3.77,0-6.82,1.2-6.82,2.67c0,1.47,3.051,2.67,6.82,2.67
				C184.221,19.595,187.271,18.395,187.271,16.925z"/>
			<path fill="#FFFFFF" d="M194.471,14.255c3.771,0,6.82,1.2,6.82,2.67c0,1.47-3.05,2.67-6.82,2.67c-3.76,0-6.81-1.2-6.81-2.67
				C187.661,15.455,190.711,14.255,194.471,14.255z"/>
			<path fill="#FFFFFF" d="M194.471,30.145c3.771,0,6.82,1.19,6.82,2.67c0,1.471-3.05,2.67-6.82,2.67c-3.76,0-6.81-1.199-6.81-2.67
				C187.661,31.335,190.711,30.145,194.471,30.145z"/>
			<path fill="#FFFFFF" d="M180.461,14.255c3.76,0,6.81,1.2,6.81,2.67c0,1.47-3.05,2.67-6.81,2.67c-3.77,0-6.82-1.2-6.82-2.67
				C173.641,15.455,176.692,14.255,180.461,14.255z"/>
			<path fill="#FFFFFF" d="M180.461,30.145c3.76,0,6.81,1.19,6.81,2.67c0,1.471-3.05,2.67-6.81,2.67c-3.77,0-6.82-1.199-6.82-2.67
				C173.641,31.335,176.692,30.145,180.461,30.145z"/>
			<rect x="162.291" y="21.215" fill="#A5A4A4" width="9.88" height="7.149"/>
		</g>
		<g>
			<polygon fill="none" stroke="#000000" stroke-linecap="round" stroke-linejoin="round" points="202.761,32.814 202.761,37.805 
				172.171,37.805 172.171,32.814 172.171,28.364 172.171,21.215 172.171,12.035 202.761,12.035 202.761,21.215 202.761,28.364 			
				"/>
			<polyline fill="none" stroke="#000000" stroke-linecap="round" stroke-linejoin="round" points="212.291,21.215 202.761,21.215 
				172.171,21.215 162.291,21.215 			"/>
			
				<line fill="none" stroke="#000000" stroke-linecap="round" stroke-linejoin="round" x1="162.291" y1="21.215" x2="162.291" y2="28.364"/>
			<polyline fill="none" stroke="#000000" stroke-linecap="round" stroke-linejoin="round" points="162.291,28.364 172.171,28.364 
				202.761,28.364 212.291,28.364 			"/>
			
				<line fill="none" stroke="#000000" stroke-linecap="round" stroke-linejoin="round" x1="212.291" y1="28.364" x2="212.291" y2="21.215"/>
			<path fill="none" stroke="#000000" stroke-linecap="round" stroke-linejoin="round" d="M187.271,16.925
				c0,1.47-3.05,2.67-6.81,2.67c-3.77,0-6.82-1.2-6.82-2.67c0-1.47,3.051-2.67,6.82-2.67
				C184.221,14.255,187.271,15.455,187.271,16.925z"/>
			<path fill="none" stroke="#000000" stroke-linecap="round" stroke-linejoin="round" d="M201.291,16.925
				c0,1.47-3.05,2.67-6.82,2.67c-3.76,0-6.81-1.2-6.81-2.67c0-1.47,3.05-2.67,6.81-2.67
				C198.241,14.255,201.291,15.455,201.291,16.925z"/>
			<path fill="none" stroke="#000000" stroke-linecap="round" stroke-linejoin="round" d="M187.271,32.814
				c0,1.471-3.05,2.67-6.81,2.67c-3.77,0-6.82-1.199-6.82-2.67c0-1.479,3.051-2.67,6.82-2.67
				C184.221,30.145,187.271,31.335,187.271,32.814z"/>
			<path fill="none" stroke="#000000" stroke-linecap="round" stroke-linejoin="round" d="M201.291,32.814
				c0,1.471-3.05,2.67-6.82,2.67c-3.76,0-6.81-1.199-6.81-2.67c0-1.479,3.05-2.67,6.81-2.67
				C198.241,30.145,201.291,31.335,201.291,32.814z"/>
		</g>
	</g>
	<g id="interGrey">
		<g>
			<rect x="255.721" y="21.085" fill="#A5A4A4" width="9.53" height="7.149"/>
			<path fill="#A5A4A4" d="M255.721,32.685v4.99h-30.59v-4.99h1.47c0,1.471,3.051,2.67,6.82,2.67c3.76,0,6.81-1.199,6.81-2.67h0.391
				c0,1.471,3.05,2.67,6.81,2.67c3.771,0,6.82-1.199,6.82-2.67H255.721z"/>
			<path fill="#A5A4A4" d="M255.721,28.234v4.45h-1.47c0-1.479-3.05-2.67-6.82-2.67c-3.76,0-6.81,1.19-6.81,2.67h-0.391
				c0-1.479-3.05-2.67-6.81-2.67c-3.77,0-6.82,1.19-6.82,2.67h-1.47v-4.45H255.721z"/>
			<rect x="225.131" y="21.085" fill="#A5A4A4" width="30.59" height="7.149"/>
			<path fill="#A5A4A4" d="M255.721,11.905v9.18h-30.59v-9.18H255.721z M254.251,16.795c0-1.47-3.05-2.67-6.82-2.67
				c-3.76,0-6.81,1.2-6.81,2.67c0,1.47,3.05,2.67,6.81,2.67C251.201,19.465,254.251,18.265,254.251,16.795z M240.231,16.795
				c0-1.47-3.05-2.67-6.81-2.67c-3.77,0-6.82,1.2-6.82,2.67c0,1.47,3.051,2.67,6.82,2.67
				C237.181,19.465,240.231,18.265,240.231,16.795z"/>
			<path fill="#848484" d="M247.431,14.125c3.771,0,6.82,1.2,6.82,2.67c0,1.47-3.05,2.67-6.82,2.67c-3.76,0-6.81-1.2-6.81-2.67
				C240.621,15.325,243.671,14.125,247.431,14.125z"/>
			<path fill="#848484" d="M247.431,30.015c3.771,0,6.82,1.19,6.82,2.67c0,1.471-3.05,2.67-6.82,2.67c-3.76,0-6.81-1.199-6.81-2.67
				C240.621,31.205,243.671,30.015,247.431,30.015z"/>
			<path fill="#848484" d="M233.421,14.125c3.76,0,6.81,1.2,6.81,2.67c0,1.47-3.05,2.67-6.81,2.67c-3.77,0-6.82-1.2-6.82-2.67
				C226.601,15.325,229.652,14.125,233.421,14.125z"/>
			<path fill="#848484" d="M233.421,30.015c3.76,0,6.81,1.19,6.81,2.67c0,1.471-3.05,2.67-6.81,2.67c-3.77,0-6.82-1.199-6.82-2.67
				C226.601,31.205,229.652,30.015,233.421,30.015z"/>
			<rect x="215.251" y="21.085" fill="#A5A4A4" width="9.88" height="7.149"/>
		</g>
		<g>
			<polygon fill="none" stroke="#000000" stroke-linecap="round" stroke-linejoin="round" points="255.721,32.685 255.721,37.675 
				225.131,37.675 225.131,32.685 225.131,28.234 225.131,21.085 225.131,11.905 255.721,11.905 255.721,21.085 255.721,28.234 			
				"/>
			<polyline fill="none" stroke="#000000" stroke-linecap="round" stroke-linejoin="round" points="265.251,21.085 255.721,21.085 
				225.131,21.085 215.251,21.085 			"/>
			
				<line fill="none" stroke="#000000" stroke-linecap="round" stroke-linejoin="round" x1="215.251" y1="21.085" x2="215.251" y2="28.234"/>
			<polyline fill="none" stroke="#000000" stroke-linecap="round" stroke-linejoin="round" points="215.251,28.234 225.131,28.234 
				255.721,28.234 265.251,28.234 			"/>
			
				<line fill="none" stroke="#000000" stroke-linecap="round" stroke-linejoin="round" x1="265.251" y1="28.234" x2="265.251" y2="21.085"/>
			<path fill="none" stroke="#000000" stroke-linecap="round" stroke-linejoin="round" d="M240.231,16.795
				c0,1.47-3.05,2.67-6.81,2.67c-3.77,0-6.82-1.2-6.82-2.67c0-1.47,3.051-2.67,6.82-2.67
				C237.181,14.125,240.231,15.325,240.231,16.795z"/>
			<path fill="none" stroke="#000000" stroke-linecap="round" stroke-linejoin="round" d="M254.251,16.795
				c0,1.47-3.05,2.67-6.82,2.67c-3.76,0-6.81-1.2-6.81-2.67c0-1.47,3.05-2.67,6.81-2.67
				C251.201,14.125,254.251,15.325,254.251,16.795z"/>
			<path fill="none" stroke="#000000" stroke-linecap="round" stroke-linejoin="round" d="M240.231,32.685
				c0,1.471-3.05,2.67-6.81,2.67c-3.77,0-6.82-1.199-6.82-2.67c0-1.479,3.051-2.67,6.82-2.67
				C237.181,30.015,240.231,31.205,240.231,32.685z"/>
			<path fill="none" stroke="#000000" stroke-linecap="round" stroke-linejoin="round" d="M254.251,32.685
				c0,1.471-3.05,2.67-6.82,2.67c-3.76,0-6.81-1.199-6.81-2.67c0-1.479,3.05-2.67,6.81-2.67
				C251.201,30.015,254.251,31.205,254.251,32.685z"/>
		</g>
	</g>
	<g id="interBlack">
		<g>
			<rect x="260.126" y="61.982" fill="#A5A4A4" width="9.529" height="7.149"/>
			<path fill="#A5A4A4" d="M260.126,73.582v4.99h-30.59v-4.99h1.47c0,1.471,3.05,2.67,6.82,2.67c3.76,0,6.81-1.199,6.81-2.67h0.39
				c0,1.471,3.051,2.67,6.811,2.67c3.77,0,6.819-1.199,6.819-2.67H260.126z"/>
			<path fill="#A5A4A4" d="M260.126,69.132v4.45h-1.471c0-1.479-3.05-2.67-6.819-2.67c-3.76,0-6.811,1.19-6.811,2.67h-0.39
				c0-1.479-3.05-2.67-6.81-2.67c-3.771,0-6.82,1.19-6.82,2.67h-1.47v-4.45H260.126z"/>
			<rect x="229.536" y="61.982" fill="#A5A4A4" width="30.59" height="7.149"/>
			<path fill="#A5A4A4" d="M260.126,52.803v9.18h-30.59v-9.18H260.126z M258.656,57.692c0-1.47-3.05-2.67-6.819-2.67
				c-3.76,0-6.811,1.2-6.811,2.67s3.051,2.67,6.811,2.67C255.606,60.362,258.656,59.162,258.656,57.692z M244.636,57.692
				c0-1.47-3.05-2.67-6.81-2.67c-3.771,0-6.82,1.2-6.82,2.67s3.05,2.67,6.82,2.67C241.586,60.362,244.636,59.162,244.636,57.692z"/>
			<path fill="#020202" d="M251.836,55.022c3.77,0,6.819,1.2,6.819,2.67s-3.05,2.67-6.819,2.67c-3.76,0-6.811-1.2-6.811-2.67
				S248.076,55.022,251.836,55.022z"/>
			<path fill="#020202" d="M251.836,70.912c3.77,0,6.819,1.19,6.819,2.67c0,1.471-3.05,2.67-6.819,2.67
				c-3.76,0-6.811-1.199-6.811-2.67C245.026,72.103,248.076,70.912,251.836,70.912z"/>
			<path fill="#020202" d="M237.826,55.022c3.76,0,6.81,1.2,6.81,2.67s-3.05,2.67-6.81,2.67c-3.771,0-6.82-1.2-6.82-2.67
				S234.056,55.022,237.826,55.022z"/>
			<path fill="#020202" d="M237.826,70.912c3.76,0,6.81,1.19,6.81,2.67c0,1.471-3.05,2.67-6.81,2.67c-3.771,0-6.82-1.199-6.82-2.67
				C231.006,72.103,234.056,70.912,237.826,70.912z"/>
			<rect x="219.656" y="61.982" fill="#A5A4A4" width="9.881" height="7.149"/>
		</g>
		<g>
			<polygon fill="none" stroke="#000000" stroke-linecap="round" stroke-linejoin="round" points="260.126,73.582 260.126,78.572 
				229.536,78.572 229.536,73.582 229.536,69.132 229.536,61.982 229.536,52.803 260.126,52.803 260.126,61.982 260.126,69.132 			
				"/>
			<polyline fill="none" stroke="#000000" stroke-linecap="round" stroke-linejoin="round" points="269.656,61.982 260.126,61.982 
				229.536,61.982 219.656,61.982 			"/>
			
				<line fill="none" stroke="#000000" stroke-linecap="round" stroke-linejoin="round" x1="219.656" y1="61.982" x2="219.656" y2="69.132"/>
			<polyline fill="none" stroke="#000000" stroke-linecap="round" stroke-linejoin="round" points="219.656,69.132 229.536,69.132 
				260.126,69.132 269.656,69.132 			"/>
			
				<line fill="none" stroke="#000000" stroke-linecap="round" stroke-linejoin="round" x1="269.656" y1="69.132" x2="269.656" y2="61.982"/>
			<path fill="none" stroke="#000000" stroke-linecap="round" stroke-linejoin="round" d="M244.636,57.692
				c0,1.47-3.05,2.67-6.81,2.67c-3.771,0-6.82-1.2-6.82-2.67s3.05-2.67,6.82-2.67C241.586,55.022,244.636,56.223,244.636,57.692z"/>
			<path fill="none" stroke="#000000" stroke-linecap="round" stroke-linejoin="round" d="M258.656,57.692
				c0,1.47-3.05,2.67-6.819,2.67c-3.76,0-6.811-1.2-6.811-2.67s3.051-2.67,6.811-2.67C255.606,55.022,258.656,56.223,258.656,57.692
				z"/>
			<path fill="none" stroke="#000000" stroke-linecap="round" stroke-linejoin="round" d="M244.636,73.582
				c0,1.471-3.05,2.67-6.81,2.67c-3.771,0-6.82-1.199-6.82-2.67c0-1.479,3.05-2.67,6.82-2.67
				C241.586,70.912,244.636,72.103,244.636,73.582z"/>
			<path fill="none" stroke="#000000" stroke-linecap="round" stroke-linejoin="round" d="M258.656,73.582
				c0,1.471-3.05,2.67-6.819,2.67c-3.76,0-6.811-1.199-6.811-2.67c0-1.479,3.051-2.67,6.811-2.67
				C255.606,70.912,258.656,72.103,258.656,73.582z"/>
		</g>
	</g>
	<g id="interOrange">
		<g>
			<rect x="203.12" y="61.982" fill="#A5A4A4" width="9.529" height="7.149"/>
			<path fill="#A5A4A4" d="M203.12,73.582v4.99h-30.59v-4.99H174c0,1.471,3.05,2.67,6.82,2.67c3.76,0,6.81-1.199,6.81-2.67h0.39
				c0,1.471,3.051,2.67,6.811,2.67c3.77,0,6.819-1.199,6.819-2.67H203.12z"/>
			<path fill="#A5A4A4" d="M203.12,69.132v4.45h-1.471c0-1.479-3.05-2.67-6.819-2.67c-3.76,0-6.811,1.19-6.811,2.67h-0.39
				c0-1.479-3.05-2.67-6.81-2.67c-3.771,0-6.82,1.19-6.82,2.67h-1.47v-4.45H203.12z"/>
			<rect x="172.531" y="61.982" fill="#A5A4A4" width="30.59" height="7.149"/>
			<path fill="#A5A4A4" d="M203.12,52.803v9.18h-30.59v-9.18H203.12z M201.65,57.692c0-1.47-3.05-2.67-6.819-2.67
				c-3.76,0-6.811,1.2-6.811,2.67s3.051,2.67,6.811,2.67C198.6,60.362,201.65,59.162,201.65,57.692z M187.63,57.692
				c0-1.47-3.05-2.67-6.81-2.67c-3.771,0-6.82,1.2-6.82,2.67s3.05,2.67,6.82,2.67C184.58,60.362,187.63,59.162,187.63,57.692z"/>
			<path fill="#FF7D03" d="M194.83,55.022c3.77,0,6.819,1.2,6.819,2.67s-3.05,2.67-6.819,2.67c-3.76,0-6.811-1.2-6.811-2.67
				S191.071,55.022,194.83,55.022z"/>
			<path fill="#FF7D03" d="M194.83,70.912c3.77,0,6.819,1.19,6.819,2.67c0,1.471-3.05,2.67-6.819,2.67
				c-3.76,0-6.811-1.199-6.811-2.67C188.02,72.103,191.071,70.912,194.83,70.912z"/>
			<path fill="#FF7D03" d="M180.821,55.022c3.76,0,6.81,1.2,6.81,2.67s-3.05,2.67-6.81,2.67c-3.771,0-6.82-1.2-6.82-2.67
				S177.05,55.022,180.821,55.022z"/>
			<path fill="#FF7D03" d="M180.821,70.912c3.76,0,6.81,1.19,6.81,2.67c0,1.471-3.05,2.67-6.81,2.67c-3.771,0-6.82-1.199-6.82-2.67
				C174,72.103,177.05,70.912,180.821,70.912z"/>
			<rect x="162.65" y="61.982" fill="#A5A4A4" width="9.881" height="7.149"/>
		</g>
		<g>
			<polygon fill="none" stroke="#000000" stroke-linecap="round" stroke-linejoin="round" points="203.12,73.582 203.12,78.572 
				172.531,78.572 172.531,73.582 172.531,69.132 172.531,61.982 172.531,52.803 203.12,52.803 203.12,61.982 203.12,69.132 			"/>
			<polyline fill="none" stroke="#000000" stroke-linecap="round" stroke-linejoin="round" points="212.65,61.982 203.12,61.982 
				172.531,61.982 162.65,61.982 			"/>
			
				<line fill="none" stroke="#000000" stroke-linecap="round" stroke-linejoin="round" x1="162.65" y1="61.982" x2="162.65" y2="69.132"/>
			<polyline fill="none" stroke="#000000" stroke-linecap="round" stroke-linejoin="round" points="162.65,69.132 172.531,69.132 
				203.12,69.132 212.65,69.132 			"/>
			
				<line fill="none" stroke="#000000" stroke-linecap="round" stroke-linejoin="round" x1="212.65" y1="69.132" x2="212.65" y2="61.982"/>
			<path fill="none" stroke="#000000" stroke-linecap="round" stroke-linejoin="round" d="M187.63,57.692
				c0,1.47-3.05,2.67-6.81,2.67c-3.771,0-6.82-1.2-6.82-2.67s3.05-2.67,6.82-2.67C184.58,55.022,187.63,56.223,187.63,57.692z"/>
			<path fill="none" stroke="#000000" stroke-linecap="round" stroke-linejoin="round" d="M201.65,57.692
				c0,1.47-3.05,2.67-6.819,2.67c-3.76,0-6.811-1.2-6.811-2.67s3.051-2.67,6.811-2.67C198.6,55.022,201.65,56.223,201.65,57.692z"/>
			<path fill="none" stroke="#000000" stroke-linecap="round" stroke-linejoin="round" d="M187.63,73.582
				c0,1.471-3.05,2.67-6.81,2.67c-3.771,0-6.82-1.199-6.82-2.67c0-1.479,3.05-2.67,6.82-2.67
				C184.58,70.912,187.63,72.103,187.63,73.582z"/>
			<path fill="none" stroke="#000000" stroke-linecap="round" stroke-linejoin="round" d="M201.65,73.582
				c0,1.471-3.05,2.67-6.819,2.67c-3.76,0-6.811-1.199-6.811-2.67c0-1.479,3.051-2.67,6.811-2.67
				C198.6,70.912,201.65,72.103,201.65,73.582z"/>
		</g>
	</g>
	<g id="interBrown">
		<g>
			<rect x="148.364" y="61.982" fill="#A5A4A4" width="9.529" height="7.149"/>
			<path fill="#A5A4A4" d="M148.364,73.582v4.99h-30.59v-4.99h1.47c0,1.471,3.05,2.67,6.82,2.67c3.76,0,6.81-1.199,6.81-2.67h0.39
				c0,1.471,3.051,2.67,6.811,2.67c3.77,0,6.819-1.199,6.819-2.67H148.364z"/>
			<path fill="#A5A4A4" d="M148.364,69.132v4.45h-1.471c0-1.479-3.05-2.67-6.819-2.67c-3.76,0-6.811,1.19-6.811,2.67h-0.39
				c0-1.479-3.05-2.67-6.81-2.67c-3.771,0-6.82,1.19-6.82,2.67h-1.47v-4.45H148.364z"/>
			<rect x="117.774" y="61.982" fill="#A5A4A4" width="30.59" height="7.149"/>
			<path fill="#A5A4A4" d="M148.364,52.803v9.18h-30.59v-9.18H148.364z M146.893,57.692c0-1.47-3.05-2.67-6.819-2.67
				c-3.76,0-6.811,1.2-6.811,2.67s3.051,2.67,6.811,2.67C143.843,60.362,146.893,59.162,146.893,57.692z M132.873,57.692
				c0-1.47-3.05-2.67-6.81-2.67c-3.771,0-6.82,1.2-6.82,2.67s3.05,2.67,6.82,2.67C129.823,60.362,132.873,59.162,132.873,57.692z"/>
			<path fill="#724806" d="M140.073,55.022c3.77,0,6.819,1.2,6.819,2.67s-3.05,2.67-6.819,2.67c-3.76,0-6.811-1.2-6.811-2.67
				S136.314,55.022,140.073,55.022z"/>
			<path fill="#724806" d="M140.073,70.912c3.77,0,6.819,1.19,6.819,2.67c0,1.471-3.05,2.67-6.819,2.67
				c-3.76,0-6.811-1.199-6.811-2.67C133.263,72.103,136.314,70.912,140.073,70.912z"/>
			<path fill="#724806" d="M126.064,55.022c3.76,0,6.81,1.2,6.81,2.67s-3.05,2.67-6.81,2.67c-3.771,0-6.82-1.2-6.82-2.67
				S122.293,55.022,126.064,55.022z"/>
			<path fill="#724806" d="M126.064,70.912c3.76,0,6.81,1.19,6.81,2.67c0,1.471-3.05,2.67-6.81,2.67c-3.771,0-6.82-1.199-6.82-2.67
				C119.243,72.103,122.293,70.912,126.064,70.912z"/>
			<rect x="107.893" y="61.982" fill="#A5A4A4" width="9.881" height="7.149"/>
		</g>
		<g>
			<polygon fill="none" stroke="#000000" stroke-linecap="round" stroke-linejoin="round" points="148.364,73.582 148.364,78.572 
				117.774,78.572 117.774,73.582 117.774,69.132 117.774,61.982 117.774,52.803 148.364,52.803 148.364,61.982 148.364,69.132 			
				"/>
			<polyline fill="none" stroke="#000000" stroke-linecap="round" stroke-linejoin="round" points="157.893,61.982 148.364,61.982 
				117.774,61.982 107.893,61.982 			"/>
			
				<line fill="none" stroke="#000000" stroke-linecap="round" stroke-linejoin="round" x1="107.893" y1="61.982" x2="107.893" y2="69.132"/>
			<polyline fill="none" stroke="#000000" stroke-linecap="round" stroke-linejoin="round" points="107.893,69.132 117.774,69.132 
				148.364,69.132 157.893,69.132 			"/>
			
				<line fill="none" stroke="#000000" stroke-linecap="round" stroke-linejoin="round" x1="157.893" y1="69.132" x2="157.893" y2="61.982"/>
			<path fill="none" stroke="#000000" stroke-linecap="round" stroke-linejoin="round" d="M132.873,57.692
				c0,1.47-3.05,2.67-6.81,2.67c-3.771,0-6.82-1.2-6.82-2.67s3.05-2.67,6.82-2.67C129.823,55.022,132.873,56.223,132.873,57.692z"/>
			<path fill="none" stroke="#000000" stroke-linecap="round" stroke-linejoin="round" d="M146.893,57.692
				c0,1.47-3.05,2.67-6.819,2.67c-3.76,0-6.811-1.2-6.811-2.67s3.051-2.67,6.811-2.67C143.843,55.022,146.893,56.223,146.893,57.692
				z"/>
			<path fill="none" stroke="#000000" stroke-linecap="round" stroke-linejoin="round" d="M132.873,73.582
				c0,1.471-3.05,2.67-6.81,2.67c-3.771,0-6.82-1.199-6.82-2.67c0-1.479,3.05-2.67,6.82-2.67
				C129.823,70.912,132.873,72.103,132.873,73.582z"/>
			<path fill="none" stroke="#000000" stroke-linecap="round" stroke-linejoin="round" d="M146.893,73.582
				c0,1.471-3.05,2.67-6.819,2.67c-3.76,0-6.811-1.199-6.811-2.67c0-1.479,3.051-2.67,6.811-2.67
				C143.843,70.912,146.893,72.103,146.893,73.582z"/>
		</g>
	</g>
	<g id="interPurple">
		<g>
			<rect x="94.243" y="61.982" fill="#A5A4A4" width="9.529" height="7.149"/>
			<path fill="#A5A4A4" d="M94.243,73.582v4.99h-30.59v-4.99h1.47c0,1.471,3.05,2.67,6.82,2.67c3.76,0,6.81-1.199,6.81-2.67h0.39
				c0,1.471,3.051,2.67,6.811,2.67c3.77,0,6.819-1.199,6.819-2.67H94.243z"/>
			<path fill="#A5A4A4" d="M94.243,69.132v4.45h-1.471c0-1.479-3.05-2.67-6.819-2.67c-3.76,0-6.811,1.19-6.811,2.67h-0.39
				c0-1.479-3.05-2.67-6.81-2.67c-3.771,0-6.82,1.19-6.82,2.67h-1.47v-4.45H94.243z"/>
			<rect x="63.654" y="61.982" fill="#A5A4A4" width="30.59" height="7.149"/>
			<path fill="#A5A4A4" d="M94.243,52.803v9.18h-30.59v-9.18H94.243z M92.773,57.692c0-1.47-3.05-2.67-6.819-2.67
				c-3.76,0-6.811,1.2-6.811,2.67s3.051,2.67,6.811,2.67C89.723,60.362,92.773,59.162,92.773,57.692z M78.753,57.692
				c0-1.47-3.05-2.67-6.81-2.67c-3.771,0-6.82,1.2-6.82,2.67s3.05,2.67,6.82,2.67C75.703,60.362,78.753,59.162,78.753,57.692z"/>
			<path fill="#FF00FF" d="M85.953,55.022c3.77,0,6.819,1.2,6.819,2.67s-3.05,2.67-6.819,2.67c-3.76,0-6.811-1.2-6.811-2.67
				S82.194,55.022,85.953,55.022z"/>
			<path fill="#FF00FF" d="M85.953,70.912c3.77,0,6.819,1.19,6.819,2.67c0,1.471-3.05,2.67-6.819,2.67
				c-3.76,0-6.811-1.199-6.811-2.67C79.143,72.103,82.194,70.912,85.953,70.912z"/>
			<path fill="#FF00FF" d="M71.944,55.022c3.76,0,6.81,1.2,6.81,2.67s-3.05,2.67-6.81,2.67c-3.771,0-6.82-1.2-6.82-2.67
				S68.173,55.022,71.944,55.022z"/>
			<path fill="#FF00FF" d="M71.944,70.912c3.76,0,6.81,1.19,6.81,2.67c0,1.471-3.05,2.67-6.81,2.67c-3.771,0-6.82-1.199-6.82-2.67
				C65.123,72.103,68.173,70.912,71.944,70.912z"/>
			<rect x="53.773" y="61.982" fill="#A5A4A4" width="9.881" height="7.149"/>
		</g>
		<g>
			<polygon fill="none" stroke="#000000" stroke-linecap="round" stroke-linejoin="round" points="94.243,73.582 94.243,78.572 
				63.654,78.572 63.654,73.582 63.654,69.132 63.654,61.982 63.654,52.803 94.243,52.803 94.243,61.982 94.243,69.132 			"/>
			<polyline fill="none" stroke="#000000" stroke-linecap="round" stroke-linejoin="round" points="103.773,61.982 94.243,61.982 
				63.654,61.982 53.773,61.982 			"/>
			
				<line fill="none" stroke="#000000" stroke-linecap="round" stroke-linejoin="round" x1="53.773" y1="61.982" x2="53.773" y2="69.132"/>
			<polyline fill="none" stroke="#000000" stroke-linecap="round" stroke-linejoin="round" points="53.773,69.132 63.654,69.132 
				94.243,69.132 103.773,69.132 			"/>
			
				<line fill="none" stroke="#000000" stroke-linecap="round" stroke-linejoin="round" x1="103.773" y1="69.132" x2="103.773" y2="61.982"/>
			<path fill="none" stroke="#000000" stroke-linecap="round" stroke-linejoin="round" d="M78.753,57.692
				c0,1.47-3.05,2.67-6.81,2.67c-3.771,0-6.82-1.2-6.82-2.67s3.05-2.67,6.82-2.67C75.703,55.022,78.753,56.223,78.753,57.692z"/>
			<path fill="none" stroke="#000000" stroke-linecap="round" stroke-linejoin="round" d="M92.773,57.692
				c0,1.47-3.05,2.67-6.819,2.67c-3.76,0-6.811-1.2-6.811-2.67s3.051-2.67,6.811-2.67C89.723,55.022,92.773,56.223,92.773,57.692z"
				/>
			<path fill="none" stroke="#000000" stroke-linecap="round" stroke-linejoin="round" d="M78.753,73.582
				c0,1.471-3.05,2.67-6.81,2.67c-3.771,0-6.82-1.199-6.82-2.67c0-1.479,3.05-2.67,6.82-2.67
				C75.703,70.912,78.753,72.103,78.753,73.582z"/>
			<path fill="none" stroke="#000000" stroke-linecap="round" stroke-linejoin="round" d="M92.773,73.582
				c0,1.471-3.05,2.67-6.819,2.67c-3.76,0-6.811-1.199-6.811-2.67c0-1.479,3.051-2.67,6.811-2.67
				C89.723,70.912,92.773,72.103,92.773,73.582z"/>
		</g>
	</g>
	<g id="interYellow">
		<g>
			<rect x="39.863" y="61.852" fill="#A5A4A4" width="9.529" height="7.149"/>
			<path fill="#A5A4A4" d="M39.863,73.451v4.99H9.272v-4.99h1.47c0,1.471,3.05,2.67,6.82,2.67c3.76,0,6.81-1.199,6.81-2.67h0.39
				c0,1.471,3.05,2.67,6.81,2.67c3.77,0,6.819-1.199,6.819-2.67H39.863z"/>
			<path fill="#A5A4A4" d="M39.863,69.001v4.45h-1.471c0-1.479-3.05-2.67-6.819-2.67c-3.76,0-6.81,1.19-6.81,2.67h-0.39
				c0-1.479-3.05-2.67-6.81-2.67c-3.77,0-6.82,1.19-6.82,2.67h-1.47v-4.45H39.863z"/>
			<rect x="9.272" y="61.852" fill="#A5A4A4" width="30.59" height="7.149"/>
			<path fill="#A5A4A4" d="M39.863,52.672v9.18H9.272v-9.18H39.863z M38.392,57.562c0-1.47-3.05-2.67-6.819-2.67
				c-3.76,0-6.81,1.2-6.81,2.67s3.05,2.67,6.81,2.67C35.342,60.231,38.392,59.031,38.392,57.562z M24.372,57.562
				c0-1.47-3.05-2.67-6.81-2.67c-3.77,0-6.82,1.2-6.82,2.67s3.05,2.67,6.82,2.67C21.323,60.231,24.372,59.031,24.372,57.562z"/>
			<path fill="#FFFF00" d="M31.573,54.892c3.77,0,6.819,1.2,6.819,2.67s-3.05,2.67-6.819,2.67c-3.76,0-6.81-1.2-6.81-2.67
				S27.813,54.892,31.573,54.892z"/>
			<path fill="#FFFF00" d="M31.573,70.781c3.77,0,6.819,1.19,6.819,2.67c0,1.471-3.05,2.67-6.819,2.67c-3.76,0-6.81-1.199-6.81-2.67
				C24.762,71.972,27.813,70.781,31.573,70.781z"/>
			<path fill="#FFFF00" d="M17.562,54.892c3.76,0,6.81,1.2,6.81,2.67s-3.05,2.67-6.81,2.67c-3.77,0-6.82-1.2-6.82-2.67
				S13.792,54.892,17.562,54.892z"/>
			<path fill="#FFFF00" d="M17.562,70.781c3.76,0,6.81,1.19,6.81,2.67c0,1.471-3.05,2.67-6.81,2.67c-3.77,0-6.82-1.199-6.82-2.67
				C10.742,71.972,13.792,70.781,17.562,70.781z"/>
			<rect x="-0.608" y="61.852" fill="#A5A4A4" width="9.88" height="7.149"/>
		</g>
		<g>
			<polygon fill="none" stroke="#000000" stroke-linecap="round" stroke-linejoin="round" points="39.863,73.451 39.863,78.441 
				9.272,78.441 9.272,73.451 9.272,69.001 9.272,61.852 9.272,52.672 39.863,52.672 39.863,61.852 39.863,69.001 			"/>
			<polyline fill="none" stroke="#000000" stroke-linecap="round" stroke-linejoin="round" points="49.392,61.852 39.863,61.852 
				9.272,61.852 -0.608,61.852 			"/>
			
				<line fill="none" stroke="#000000" stroke-linecap="round" stroke-linejoin="round" x1="-0.608" y1="61.852" x2="-0.608" y2="69.001"/>
			<polyline fill="none" stroke="#000000" stroke-linecap="round" stroke-linejoin="round" points="-0.608,69.001 9.272,69.001 
				39.863,69.001 49.392,69.001 			"/>
			
				<line fill="none" stroke="#000000" stroke-linecap="round" stroke-linejoin="round" x1="49.392" y1="69.001" x2="49.392" y2="61.852"/>
			<path fill="none" stroke="#000000" stroke-linecap="round" stroke-linejoin="round" d="M24.372,57.562
				c0,1.47-3.05,2.67-6.81,2.67c-3.77,0-6.82-1.2-6.82-2.67s3.05-2.67,6.82-2.67C21.323,54.892,24.372,56.092,24.372,57.562z"/>
			<path fill="none" stroke="#000000" stroke-linecap="round" stroke-linejoin="round" d="M38.392,57.562
				c0,1.47-3.05,2.67-6.819,2.67c-3.76,0-6.81-1.2-6.81-2.67s3.05-2.67,6.81-2.67C35.342,54.892,38.392,56.092,38.392,57.562z"/>
			<path fill="none" stroke="#000000" stroke-linecap="round" stroke-linejoin="round" d="M24.372,73.451
				c0,1.471-3.05,2.67-6.81,2.67c-3.77,0-6.82-1.199-6.82-2.67c0-1.479,3.05-2.67,6.82-2.67
				C21.323,70.781,24.372,71.972,24.372,73.451z"/>
			<path fill="none" stroke="#000000" stroke-linecap="round" stroke-linejoin="round" d="M38.392,73.451
				c0,1.471-3.05,2.67-6.819,2.67c-3.76,0-6.81-1.199-6.81-2.67c0-1.479,3.05-2.67,6.81-2.67
				C35.342,70.781,38.392,71.972,38.392,73.451z"/>
		</g>
	</g>
</g>
</svg>
