<?xml version="1.0" encoding="utf-8"?>
<!-- Generator: Adobe Illustrator 14.0.0, SVG Export Plug-In . SVG Version: 6.00 Build 43363)  -->
<!DOCTYPE svg PUBLIC "-//W3C//DTD SVG 1.1//EN" "http://www.w3.org/Graphics/SVG/1.1/DTD/svg11.dtd" [
	<!ENTITY ns_extend "http://ns.adobe.com/Extensibility/1.0/">
	<!ENTITY ns_ai "http://ns.adobe.com/AdobeIllustrator/10.0/">
	<!ENTITY ns_graphs "http://ns.adobe.com/Graphs/1.0/">
	<!ENTITY ns_vars "http://ns.adobe.com/Variables/1.0/">
	<!ENTITY ns_imrep "http://ns.adobe.com/ImageReplacement/1.0/">
	<!ENTITY ns_sfw "http://ns.adobe.com/SaveForWeb/1.0/">
	<!ENTITY ns_custom "http://ns.adobe.com/GenericCustomNamespace/1.0/">
	<!ENTITY ns_adobe_xpath "http://ns.adobe.com/XPath/1.0/">
]>
<svg version="1.1"
	 id="svg9493" xmlns:x="&ns_extend;" xmlns:i="&ns_ai;" xmlns:graph="&ns_graphs;" xmlns:svg="http://www.w3.org/2000/svg" sodipodi:version="0.32" inkscape:export-xdpi="90.000000" inkscape:export-ydpi="90.000000" inkscape:version="0.42" sodipodi:docbase="/datas/Projs/Cliparts Stocker/led" sodipodi:docname="led_circle_blue.svg" inkscape:export-filename="/datas/Projs/Cliparts Stocker/led/led_circle_blue.png" xmlns:inkscape="http://www.inkscape.org/namespaces/inkscape" xmlns:sodipodi="http://inkscape.sourceforge.net/DTD/sodipodi-0.dtd" xmlns:rdf="http://www.w3.org/1999/02/22-rdf-syntax-ns#" xmlns:dc="http://purl.org/dc/elements/1.1/" xmlns:cc="http://web.resource.org/cc/"
	 xmlns="http://www.w3.org/2000/svg" xmlns:xlink="http://www.w3.org/1999/xlink" x="0px" y="0px" width="50px" height="50px"
	 viewBox="0 0 50 50" enable-background="new 0 0 50 50" xml:space="preserve">
<metadata>
	
		<rdf:RDF  xmlns:rdf="http://www.w3.org/1999/02/22-rdf-syntax-ns#" xmlns:dc="http://purl.org/dc/elements/1.1/" xmlns:cc="http://web.resource.org/cc/">
		<cc:Work  rdf:about="">
			<dc:title>LED Circle (Blue)</dc:title>
			<dc:description>jean.victor.balin@gmail.com</dc:description>
			<dc:subject>
				<rdf:Bag>
					<rdf:li>led</rdf:li>
					<rdf:li>shape</rdf:li>
				</rdf:Bag>
			</dc:subject>
			<dc:publisher>
				<cc:Agent  rdf:about="http://www.openclipart.org/">
					<dc:title>Open Clip Art Library</dc:title>
				</cc:Agent>
			</dc:publisher>
			<dc:creator>
				<cc:Agent>
					<dc:title>Jean-Victor Balin</dc:title>
				</cc:Agent>
			</dc:creator>
			<dc:rights>
				<cc:Agent>
					<dc:title>Jean-Victor Balin</dc:title>
				</cc:Agent>
			</dc:rights>
			<dc:date>2005-08-21</dc:date>
			<dc:format>image/svg+xml</dc:format>
			<dc:type  rdf:resource="http://purl.org/dc/dcmitype/StillImage"></dc:type>
			<cc:license  rdf:resource="http://web.resource.org/cc/PublicDomain"></cc:license>
			<dc:language>en</dc:language>
		</cc:Work>
		<cc:License  rdf:about="http://web.resource.org/cc/PublicDomain">
			<cc:permits  rdf:resource="http://web.resource.org/cc/Reproduction"></cc:permits>
			<cc:permits  rdf:resource="http://web.resource.org/cc/Distribution"></cc:permits>
			<cc:permits  rdf:resource="http://web.resource.org/cc/DerivativeWorks"></cc:permits>
		</cc:License>
	</rdf:RDF>
	<sfw  xmlns="&ns_sfw;">
		<slices></slices>
		<sliceSourceBounds  x="546.307" y="-32.886" width="256.674" height="101.86" bottomLeftOrigin="true"></sliceSourceBounds>
	</sfw>
</metadata>
<g id="inters">
	<g id="intermRed">
		<g>
			<path fill="#FF0000" d="M38.858,10.755c3.46,0,6.27,2.88,6.27,6.43c0,3.55-2.81,6.43-6.27,6.43l-13.851-6.25l0.39-0.18
				l-0.39-0.18L38.858,10.755z"/>
			<polygon fill="#A5A4A4" points="25.397,17.185 25.007,17.365 24.607,17.185 25.007,17.005 			"/>
			<path fill="#FF0000" d="M25.007,17.005l-0.4,0.18l0.4,0.18l-13.86,6.25c-3.47,0-6.27-2.88-6.27-6.43c0-3.55,2.8-6.43,6.27-6.43
				L25.007,17.005z"/>
		</g>
		<g>
			<path fill="none" stroke="#000000" stroke-linecap="round" stroke-linejoin="round" d="M4.877,17.185c0-3.55,2.8-6.43,6.27-6.43"
				/>
			<path fill="none" stroke="#000000" stroke-linecap="round" stroke-linejoin="round" d="M11.147,23.615
				c-3.47,0-6.27-2.88-6.27-6.43"/>
			<polyline fill="none" stroke="#000000" stroke-linecap="round" stroke-linejoin="round" points="11.147,10.755 25.007,17.005 
				25.397,17.185 			"/>
			<polyline fill="none" stroke="#000000" stroke-linecap="round" stroke-linejoin="round" points="25.397,17.185 25.007,17.365 
				11.147,23.615 			"/>
			<path fill="none" stroke="#000000" stroke-linecap="round" stroke-linejoin="round" d="M45.127,17.185
				c0,3.55-2.81,6.43-6.27,6.43"/>
			<path fill="none" stroke="#000000" stroke-linecap="round" stroke-linejoin="round" d="M38.858,10.755
				c3.46,0,6.27,2.88,6.27,6.43"/>
			<polyline fill="none" stroke="#000000" stroke-linecap="round" stroke-linejoin="round" points="38.858,23.615 25.007,17.365 
				24.607,17.185 			"/>
			<polyline fill="none" stroke="#000000" stroke-linecap="round" stroke-linejoin="round" points="24.607,17.185 25.007,17.005 
				38.858,10.755 			"/>
		</g>
	</g>
	<g id="intermGreen">
		<g>
			<path fill="#00FF00" d="M96.17,0c3.46,0,6.27,2.88,6.27,6.43c0,3.55-2.81,6.43-6.27,6.43L82.32,6.61l0.391-0.18L82.32,6.25
				L96.17,0z"/>
			<polygon fill="#A5A4A4" points="82.71,6.43 82.32,6.61 81.92,6.43 82.32,6.25 			"/>
			<path fill="#00FF00" d="M82.32,6.25L81.92,6.43l0.399,0.18L68.46,12.86c-3.471,0-6.271-2.88-6.271-6.43
				c0-3.55,2.8-6.43,6.271-6.43L82.32,6.25z"/>
		</g>
		<g>
			<path fill="none" stroke="#000000" stroke-linecap="round" stroke-linejoin="round" d="M62.19,6.43c0-3.55,2.8-6.43,6.271-6.43"
				/>
			<path fill="none" stroke="#000000" stroke-linecap="round" stroke-linejoin="round" d="M68.46,12.86
				c-3.471,0-6.271-2.88-6.271-6.43"/>
			<polyline fill="none" stroke="#000000" stroke-linecap="round" stroke-linejoin="round" points="68.46,0 82.32,6.25 82.71,6.43 
							"/>
			<polyline fill="none" stroke="#000000" stroke-linecap="round" stroke-linejoin="round" points="82.71,6.43 82.32,6.61 
				68.46,12.86 			"/>
			<path fill="none" stroke="#000000" stroke-linecap="round" stroke-linejoin="round" d="M102.44,6.43c0,3.55-2.81,6.43-6.27,6.43"
				/>
			<path fill="none" stroke="#000000" stroke-linecap="round" stroke-linejoin="round" d="M96.17,0c3.46,0,6.27,2.88,6.27,6.43"/>
			<polyline fill="none" stroke="#000000" stroke-linecap="round" stroke-linejoin="round" points="96.17,12.86 82.32,6.61 
				81.92,6.43 			"/>
			<polyline fill="none" stroke="#000000" stroke-linecap="round" stroke-linejoin="round" points="81.92,6.43 82.32,6.25 96.17,0 
							"/>
		</g>
	</g>
	<g id="intermBlue">
		<g>
			<path fill="#0000FF" d="M148.771-0.955c3.46,0,6.27,2.88,6.27,6.43c0,3.55-2.81,6.43-6.27,6.43l-13.851-6.25l0.391-0.18
				l-0.391-0.18L148.771-0.955z"/>
			<polygon fill="#A5A4A4" points="135.311,5.475 134.92,5.655 134.521,5.475 134.92,5.295 			"/>
			<path fill="#0000FF" d="M134.92,5.295l-0.399,0.18l0.399,0.18l-13.859,6.25c-3.471,0-6.271-2.88-6.271-6.43
				c0-3.55,2.8-6.43,6.271-6.43L134.92,5.295z"/>
		</g>
		<g>
			<path fill="none" stroke="#000000" stroke-linecap="round" stroke-linejoin="round" d="M114.79,5.475c0-3.55,2.8-6.43,6.271-6.43
				"/>
			<path fill="none" stroke="#000000" stroke-linecap="round" stroke-linejoin="round" d="M121.061,11.905
				c-3.471,0-6.271-2.88-6.271-6.43"/>
			<polyline fill="none" stroke="#000000" stroke-linecap="round" stroke-linejoin="round" points="121.061,-0.955 134.92,5.295 
				135.311,5.475 			"/>
			<polyline fill="none" stroke="#000000" stroke-linecap="round" stroke-linejoin="round" points="135.311,5.475 134.92,5.655 
				121.061,11.905 			"/>
			<path fill="none" stroke="#000000" stroke-linecap="round" stroke-linejoin="round" d="M155.04,5.475c0,3.55-2.81,6.43-6.27,6.43
				"/>
			<path fill="none" stroke="#000000" stroke-linecap="round" stroke-linejoin="round" d="M148.771-0.955
				c3.46,0,6.27,2.88,6.27,6.43"/>
			<polyline fill="none" stroke="#000000" stroke-linecap="round" stroke-linejoin="round" points="148.771,11.905 134.92,5.655 
				134.521,5.475 			"/>
			<polyline fill="none" stroke="#000000" stroke-linecap="round" stroke-linejoin="round" points="134.521,5.475 134.92,5.295 
				148.771,-0.955 			"/>
		</g>
	</g>
	<g id="intermWhite">
		<g>
			<polygon fill="#A5A4A4" points="188.221,5.475 187.83,5.655 187.431,5.475 187.83,5.295 			"/>
		</g>
		<g>
			<path fill="none" stroke="#000000" stroke-linecap="round" stroke-linejoin="round" d="M167.7,5.475c0-3.55,2.8-6.43,6.271-6.43"
				/>
			<path fill="none" stroke="#000000" stroke-linecap="round" stroke-linejoin="round" d="M173.971,11.905
				c-3.471,0-6.271-2.88-6.271-6.43"/>
			<polyline fill="none" stroke="#000000" stroke-linecap="round" stroke-linejoin="round" points="173.971,-0.955 187.83,5.295 
				188.221,5.475 			"/>
			<polyline fill="none" stroke="#000000" stroke-linecap="round" stroke-linejoin="round" points="188.221,5.475 187.83,5.655 
				173.971,11.905 			"/>
			<path fill="none" stroke="#000000" stroke-linecap="round" stroke-linejoin="round" d="M207.95,5.475c0,3.55-2.81,6.43-6.27,6.43
				"/>
			<path fill="none" stroke="#000000" stroke-linecap="round" stroke-linejoin="round" d="M201.681-0.955
				c3.46,0,6.27,2.88,6.27,6.43"/>
			<polyline fill="none" stroke="#000000" stroke-linecap="round" stroke-linejoin="round" points="201.681,11.905 187.83,5.655 
				187.431,5.475 			"/>
			<polyline fill="none" stroke="#000000" stroke-linecap="round" stroke-linejoin="round" points="187.431,5.475 187.83,5.295 
				201.681,-0.955 			"/>
		</g>
	</g>
	<g id="intermGrey">
		<g>
			<path fill="#848484" d="M251.676-0.955c3.46,0,6.27,2.88,6.27,6.43c0,3.55-2.81,6.43-6.27,6.43l-13.851-6.25l0.391-0.18
				l-0.391-0.18L251.676-0.955z"/>
			<polygon fill="#A5A4A4" points="238.216,5.475 237.825,5.655 237.426,5.475 237.825,5.295 			"/>
			<path fill="#848484" d="M237.825,5.295l-0.399,0.18l0.399,0.18l-13.859,6.25c-3.471,0-6.271-2.88-6.271-6.43
				c0-3.55,2.8-6.43,6.271-6.43L237.825,5.295z"/>
		</g>
		<g>
			<path fill="none" stroke="#000000" stroke-linecap="round" stroke-linejoin="round" d="M217.696,5.475
				c0-3.55,2.8-6.43,6.271-6.43"/>
			<path fill="none" stroke="#000000" stroke-linecap="round" stroke-linejoin="round" d="M223.966,11.905
				c-3.471,0-6.271-2.88-6.271-6.43"/>
			<polyline fill="none" stroke="#000000" stroke-linecap="round" stroke-linejoin="round" points="223.966,-0.955 237.825,5.295 
				238.216,5.475 			"/>
			<polyline fill="none" stroke="#000000" stroke-linecap="round" stroke-linejoin="round" points="238.216,5.475 237.825,5.655 
				223.966,11.905 			"/>
			<path fill="none" stroke="#000000" stroke-linecap="round" stroke-linejoin="round" d="M257.946,5.475
				c0,3.55-2.81,6.43-6.27,6.43"/>
			<path fill="none" stroke="#000000" stroke-linecap="round" stroke-linejoin="round" d="M251.676-0.955
				c3.46,0,6.27,2.88,6.27,6.43"/>
			<polyline fill="none" stroke="#000000" stroke-linecap="round" stroke-linejoin="round" points="251.676,11.905 237.825,5.655 
				237.426,5.475 			"/>
			<polyline fill="none" stroke="#000000" stroke-linecap="round" stroke-linejoin="round" points="237.426,5.475 237.825,5.295 
				251.676,-0.955 			"/>
		</g>
	</g>
	<g id="intermBlack">
		<g>
			<path fill="#020202" d="M254.281,87.045c3.46,0,6.27,2.88,6.27,6.43c0,3.551-2.81,6.431-6.27,6.431l-13.851-6.25l0.391-0.181
				l-0.391-0.18L254.281,87.045z"/>
			<polygon fill="#A5A4A4" points="240.822,93.475 240.431,93.655 240.031,93.475 240.431,93.295 			"/>
			<path fill="#020202" d="M240.431,93.295l-0.399,0.18l0.399,0.181l-13.859,6.25c-3.471,0-6.271-2.88-6.271-6.431
				c0-3.55,2.8-6.43,6.271-6.43L240.431,93.295z"/>
		</g>
		<g>
			<path fill="none" stroke="#000000" stroke-linecap="round" stroke-linejoin="round" d="M220.301,93.475
				c0-3.55,2.8-6.43,6.271-6.43"/>
			<path fill="none" stroke="#000000" stroke-linecap="round" stroke-linejoin="round" d="M226.572,99.905
				c-3.471,0-6.271-2.88-6.271-6.431"/>
			<polyline fill="none" stroke="#000000" stroke-linecap="round" stroke-linejoin="round" points="226.572,87.045 240.431,93.295 
				240.822,93.475 			"/>
			<polyline fill="none" stroke="#000000" stroke-linecap="round" stroke-linejoin="round" points="240.822,93.475 240.431,93.655 
				226.572,99.905 			"/>
			<path fill="none" stroke="#000000" stroke-linecap="round" stroke-linejoin="round" d="M260.551,93.475
				c0,3.551-2.81,6.431-6.27,6.431"/>
			<path fill="none" stroke="#000000" stroke-linecap="round" stroke-linejoin="round" d="M254.281,87.045
				c3.46,0,6.27,2.88,6.27,6.43"/>
			<polyline fill="none" stroke="#000000" stroke-linecap="round" stroke-linejoin="round" points="254.281,99.905 240.431,93.655 
				240.031,93.475 			"/>
			<polyline fill="none" stroke="#000000" stroke-linecap="round" stroke-linejoin="round" points="240.031,93.475 240.431,93.295 
				254.281,87.045 			"/>
		</g>
	</g>
	<g id="intermOrange">
		<g>
			<path fill="#FF7D03" d="M206.152,87.044c3.46,0,6.27,2.88,6.27,6.43c0,3.551-2.81,6.431-6.27,6.431l-13.851-6.25l0.391-0.181
				l-0.391-0.18L206.152,87.044z"/>
			<polygon fill="#A5A4A4" points="192.692,93.474 192.301,93.654 191.902,93.474 192.301,93.294 			"/>
			<path fill="#FF7D03" d="M192.301,93.294l-0.399,0.18l0.399,0.181l-13.859,6.25c-3.471,0-6.271-2.88-6.271-6.431
				c0-3.55,2.8-6.43,6.271-6.43L192.301,93.294z"/>
		</g>
		<g>
			<path fill="none" stroke="#000000" stroke-linecap="round" stroke-linejoin="round" d="M172.171,93.474
				c0-3.55,2.8-6.43,6.271-6.43"/>
			<path fill="none" stroke="#000000" stroke-linecap="round" stroke-linejoin="round" d="M178.442,99.904
				c-3.471,0-6.271-2.88-6.271-6.431"/>
			<polyline fill="none" stroke="#000000" stroke-linecap="round" stroke-linejoin="round" points="178.442,87.044 192.301,93.294 
				192.692,93.474 			"/>
			<polyline fill="none" stroke="#000000" stroke-linecap="round" stroke-linejoin="round" points="192.692,93.474 192.301,93.654 
				178.442,99.904 			"/>
			<path fill="none" stroke="#000000" stroke-linecap="round" stroke-linejoin="round" d="M212.421,93.474
				c0,3.551-2.81,6.431-6.27,6.431"/>
			<path fill="none" stroke="#000000" stroke-linecap="round" stroke-linejoin="round" d="M206.152,87.044
				c3.46,0,6.27,2.88,6.27,6.43"/>
			<polyline fill="none" stroke="#000000" stroke-linecap="round" stroke-linejoin="round" points="206.152,99.904 192.301,93.654 
				191.902,93.474 			"/>
			<polyline fill="none" stroke="#000000" stroke-linecap="round" stroke-linejoin="round" points="191.902,93.474 192.301,93.294 
				206.152,87.044 			"/>
		</g>
	</g>
	<g id="intermBrown">
		<g>
			<path fill="#724806" d="M151.754,87.044c3.46,0,6.27,2.88,6.27,6.43c0,3.551-2.81,6.431-6.27,6.431l-13.851-6.25l0.391-0.181
				l-0.391-0.18L151.754,87.044z"/>
			<polygon fill="#A5A4A4" points="138.294,93.474 137.904,93.654 137.504,93.474 137.904,93.294 			"/>
			<path fill="#724806" d="M137.904,93.294l-0.399,0.18l0.399,0.181l-13.859,6.25c-3.471,0-6.271-2.88-6.271-6.431
				c0-3.55,2.8-6.43,6.271-6.43L137.904,93.294z"/>
		</g>
		<g>
			<path fill="none" stroke="#000000" stroke-linecap="round" stroke-linejoin="round" d="M117.774,93.474
				c0-3.55,2.8-6.43,6.271-6.43"/>
			<path fill="none" stroke="#000000" stroke-linecap="round" stroke-linejoin="round" d="M124.044,99.904
				c-3.471,0-6.271-2.88-6.271-6.431"/>
			<polyline fill="none" stroke="#000000" stroke-linecap="round" stroke-linejoin="round" points="124.044,87.044 137.904,93.294 
				138.294,93.474 			"/>
			<polyline fill="none" stroke="#000000" stroke-linecap="round" stroke-linejoin="round" points="138.294,93.474 137.904,93.654 
				124.044,99.904 			"/>
			<path fill="none" stroke="#000000" stroke-linecap="round" stroke-linejoin="round" d="M158.024,93.474
				c0,3.551-2.81,6.431-6.27,6.431"/>
			<path fill="none" stroke="#000000" stroke-linecap="round" stroke-linejoin="round" d="M151.754,87.044
				c3.46,0,6.27,2.88,6.27,6.43"/>
			<polyline fill="none" stroke="#000000" stroke-linecap="round" stroke-linejoin="round" points="151.754,99.904 137.904,93.654 
				137.504,93.474 			"/>
			<polyline fill="none" stroke="#000000" stroke-linecap="round" stroke-linejoin="round" points="137.504,93.474 137.904,93.294 
				151.754,87.044 			"/>
		</g>
	</g>
	<g id="intermPurple">
		<g>
			<path fill="#FF00FF" d="M96.17,87.045c3.46,0,6.27,2.88,6.27,6.43c0,3.551-2.81,6.431-6.27,6.431l-13.851-6.25l0.391-0.181
				l-0.391-0.18L96.17,87.045z"/>
			<polygon fill="#A5A4A4" points="82.71,93.475 82.32,93.655 81.92,93.475 82.32,93.295 			"/>
			<path fill="#FF00FF" d="M82.32,93.295l-0.399,0.18l0.399,0.181l-13.859,6.25c-3.471,0-6.271-2.88-6.271-6.431
				c0-3.55,2.8-6.43,6.271-6.43L82.32,93.295z"/>
		</g>
		<g>
			<path fill="none" stroke="#000000" stroke-linecap="round" stroke-linejoin="round" d="M62.19,93.475c0-3.55,2.8-6.43,6.271-6.43
				"/>
			<path fill="none" stroke="#000000" stroke-linecap="round" stroke-linejoin="round" d="M68.46,99.905
				c-3.471,0-6.271-2.88-6.271-6.431"/>
			<polyline fill="none" stroke="#000000" stroke-linecap="round" stroke-linejoin="round" points="68.46,87.045 82.32,93.295 
				82.71,93.475 			"/>
			<polyline fill="none" stroke="#000000" stroke-linecap="round" stroke-linejoin="round" points="82.71,93.475 82.32,93.655 
				68.46,99.905 			"/>
			<path fill="none" stroke="#000000" stroke-linecap="round" stroke-linejoin="round" d="M102.44,93.475
				c0,3.551-2.81,6.431-6.27,6.431"/>
			<path fill="none" stroke="#000000" stroke-linecap="round" stroke-linejoin="round" d="M96.17,87.045c3.46,0,6.27,2.88,6.27,6.43
				"/>
			<polyline fill="none" stroke="#000000" stroke-linecap="round" stroke-linejoin="round" points="96.17,99.905 82.32,93.655 
				81.92,93.475 			"/>
			<polyline fill="none" stroke="#000000" stroke-linecap="round" stroke-linejoin="round" points="81.92,93.475 82.32,93.295 
				96.17,87.045 			"/>
		</g>
	</g>
	<g id="intermYellow">
		<g>
			<path fill="#FFFF00" d="M40.836,87.044c3.46,0,6.271,2.88,6.271,6.43c0,3.551-2.811,6.431-6.271,6.431l-13.85-6.25l0.39-0.181
				l-0.39-0.18L40.836,87.044z"/>
			<polygon fill="#020202" points="27.376,93.474 26.987,93.654 26.586,93.474 26.987,93.294 			"/>
			<path fill="#FFFF00" d="M26.987,93.294l-0.4,0.18l0.4,0.181l-13.86,6.25c-3.47,0-6.27-2.88-6.27-6.431c0-3.55,2.8-6.43,6.27-6.43
				L26.987,93.294z"/>
		</g>
		<g>
			<path fill="none" stroke="#000000" stroke-linecap="round" stroke-linejoin="round" d="M6.856,93.474c0-3.55,2.8-6.43,6.27-6.43"
				/>
			<path fill="none" stroke="#000000" stroke-linecap="round" stroke-linejoin="round" d="M13.126,99.904
				c-3.47,0-6.27-2.88-6.27-6.431"/>
			<polyline fill="none" stroke="#000000" stroke-linecap="round" stroke-linejoin="round" points="13.126,87.044 26.987,93.294 
				27.376,93.474 			"/>
			<polyline fill="none" stroke="#000000" stroke-linecap="round" stroke-linejoin="round" points="27.376,93.474 26.987,93.654 
				13.126,99.904 			"/>
			<path fill="none" stroke="#000000" stroke-linecap="round" stroke-linejoin="round" d="M47.107,93.474
				c0,3.551-2.811,6.431-6.271,6.431"/>
			<path fill="none" stroke="#000000" stroke-linecap="round" stroke-linejoin="round" d="M40.836,87.044
				c3.46,0,6.271,2.88,6.271,6.43"/>
			<polyline fill="none" stroke="#000000" stroke-linecap="round" stroke-linejoin="round" points="40.836,99.904 26.987,93.654 
				26.586,93.474 			"/>
			<polyline fill="none" stroke="#000000" stroke-linecap="round" stroke-linejoin="round" points="26.586,93.474 26.987,93.294 
				40.836,87.044 			"/>
		</g>
	</g>
</g>
</svg>
