<?xml version="1.0" encoding="utf-8"?>
<!-- Generator: Adobe Illustrator 14.0.0, SVG Export Plug-In . SVG Version: 6.00 Build 43363)  -->
<!DOCTYPE svg PUBLIC "-//W3C//DTD SVG 1.1//EN" "http://www.w3.org/Graphics/SVG/1.1/DTD/svg11.dtd" [
	<!ENTITY ns_extend "http://ns.adobe.com/Extensibility/1.0/">
	<!ENTITY ns_ai "http://ns.adobe.com/AdobeIllustrator/10.0/">
	<!ENTITY ns_graphs "http://ns.adobe.com/Graphs/1.0/">
	<!ENTITY ns_vars "http://ns.adobe.com/Variables/1.0/">
	<!ENTITY ns_imrep "http://ns.adobe.com/ImageReplacement/1.0/">
	<!ENTITY ns_sfw "http://ns.adobe.com/SaveForWeb/1.0/">
	<!ENTITY ns_custom "http://ns.adobe.com/GenericCustomNamespace/1.0/">
	<!ENTITY ns_adobe_xpath "http://ns.adobe.com/XPath/1.0/">
]>
<svg version="1.1"
	 id="svg9493" xmlns:x="&ns_extend;" xmlns:i="&ns_ai;" xmlns:graph="&ns_graphs;" xmlns:svg="http://www.w3.org/2000/svg" xmlns:sodipodi="http://inkscape.sourceforge.net/DTD/sodipodi-0.dtd" xmlns:cc="http://web.resource.org/cc/" xmlns:dc="http://purl.org/dc/elements/1.1/" xmlns:rdf="http://www.w3.org/1999/02/22-rdf-syntax-ns#" xmlns:inkscape="http://www.inkscape.org/namespaces/inkscape" sodipodi:docbase="/datas/Projs/Cliparts Stocker/led" sodipodi:docname="led_circle_blue.svg" sodipodi:version="0.32" inkscape:export-xdpi="90.000000" inkscape:export-ydpi="90.000000" inkscape:version="0.42" inkscape:export-filename="/datas/Projs/Cliparts Stocker/led/led_circle_blue.png"
	 xmlns="http://www.w3.org/2000/svg" xmlns:xlink="http://www.w3.org/1999/xlink" x="0px" y="0px" width="50px" height="50px"
	 viewBox="0 0 50 50" enable-background="new 0 0 50 50" xml:space="preserve">
<metadata>
	
		<rdf:RDF  xmlns:cc="http://web.resource.org/cc/" xmlns:dc="http://purl.org/dc/elements/1.1/" xmlns:rdf="http://www.w3.org/1999/02/22-rdf-syntax-ns#">
		<cc:Work  rdf:about="">
			<dc:title>LED Circle (Blue)</dc:title>
			<dc:description>jean.victor.balin@gmail.com</dc:description>
			<dc:subject>
				<rdf:Bag>
					<rdf:li>led</rdf:li>
					<rdf:li>shape</rdf:li>
				</rdf:Bag>
			</dc:subject>
			<dc:publisher>
				<cc:Agent  rdf:about="http://www.openclipart.org/">
					<dc:title>Open Clip Art Library</dc:title>
				</cc:Agent>
			</dc:publisher>
			<dc:creator>
				<cc:Agent>
					<dc:title>Jean-Victor Balin</dc:title>
				</cc:Agent>
			</dc:creator>
			<dc:rights>
				<cc:Agent>
					<dc:title>Jean-Victor Balin</dc:title>
				</cc:Agent>
			</dc:rights>
			<dc:date>2005-08-21</dc:date>
			<dc:format>image/svg+xml</dc:format>
			<dc:type  rdf:resource="http://purl.org/dc/dcmitype/StillImage"></dc:type>
			<cc:license  rdf:resource="http://web.resource.org/cc/PublicDomain"></cc:license>
			<dc:language>en</dc:language>
		</cc:Work>
		<cc:License  rdf:about="http://web.resource.org/cc/PublicDomain">
			<cc:permits  rdf:resource="http://web.resource.org/cc/Reproduction"></cc:permits>
			<cc:permits  rdf:resource="http://web.resource.org/cc/Distribution"></cc:permits>
			<cc:permits  rdf:resource="http://web.resource.org/cc/DerivativeWorks"></cc:permits>
		</cc:License>
	</rdf:RDF>
	<sfw  xmlns="&ns_sfw;">
		<slices></slices>
		<sliceSourceBounds  x="541.361" y="-49.912" width="241.714" height="100.521" bottomLeftOrigin="true"></sliceSourceBounds>
	</sfw>
</metadata>
<g id="valvulas">
	<g id="valsimp3Red">
		<g>
			<polygon fill="#FF0000" points="46.33,17.41 46.33,42.19 24.99,29.83 24.97,29.79 24.97,29.78 			"/>
			<polygon fill="#FF0000" points="24.99,29.83 37.22,50.93 12.44,50.93 24.55,30.03 24.95,29.8 			"/>
			<polygon fill="#FF0000" points="24.99,29.83 24.95,29.8 24.97,29.79 			"/>
			<polygon fill="#FF0000" points="24.97,29.78 24.97,29.79 24.95,29.8 24.75,29.69 24.83,29.55 			"/>
			<polygon fill="#FF0000" points="24.95,29.8 24.55,30.03 24.75,29.69 			"/>
			<polygon fill="#FF0000" points="3.56,17.41 24.75,29.69 24.55,30.03 3.56,42.19 			"/>
		</g>
		<g>
			<line fill="none" stroke="#000000" stroke-linecap="round" x1="3.56" y1="42.19" x2="3.56" y2="17.41"/>
			<polyline fill="none" stroke="#000000" stroke-linecap="round" points="3.56,17.41 24.75,29.69 24.95,29.8 24.99,29.83 
				46.33,42.19 			"/>
			<line fill="none" stroke="#000000" stroke-linecap="round" x1="46.33" y1="42.19" x2="46.33" y2="17.41"/>
			<polyline fill="none" stroke="#000000" stroke-linecap="round" points="24.97,29.79 24.95,29.8 24.55,30.03 3.56,42.19 			"/>
			<line fill="none" stroke="#000000" stroke-linecap="round" x1="46.33" y1="17.41" x2="24.97" y2="29.78"/>
			<line fill="none" stroke="#000000" stroke-linecap="round" x1="37.22" y1="50.93" x2="12.44" y2="50.93"/>
			<polyline fill="none" stroke="#000000" stroke-linecap="round" points="12.44,50.93 24.55,30.03 24.75,29.69 24.83,29.55 			"/>
			<polyline fill="none" stroke="#000000" stroke-linecap="round" points="24.83,29.55 24.97,29.78 24.97,29.79 24.99,29.83 
				37.22,50.93 			"/>
		</g>
	</g>
	<g id="valsimp3Green">
		<g>
			<polygon fill="#00FF00" points="95.771,21.786 95.771,46.556 74.41,34.187 74.401,34.166 			"/>
			<polygon fill="#00FF00" points="74.41,34.187 86.771,55.516 61.99,55.516 74.351,34.196 74.391,34.176 			"/>
			<polygon fill="#00FF00" points="74.401,34.166 74.41,34.187 74.391,34.176 			"/>
			<polygon fill="#00FF00" points="74.391,34.176 74.351,34.196 74.37,34.156 			"/>
			<polygon fill="#00FF00" points="74.37,34.156 74.351,34.196 53,46.556 53,21.786 			"/>
		</g>
		<g>
			<line fill="none" stroke="#000000" stroke-linecap="round" x1="53" y1="46.556" x2="53" y2="21.786"/>
			<polyline fill="none" stroke="#000000" stroke-linecap="round" points="53,21.786 74.37,34.156 74.391,34.176 74.41,34.187 
				95.771,46.556 			"/>
			<line fill="none" stroke="#000000" stroke-linecap="round" x1="95.771" y1="46.556" x2="95.771" y2="21.786"/>
			<polyline fill="none" stroke="#000000" stroke-linecap="round" points="95.771,21.786 74.401,34.166 74.391,34.176 
				74.351,34.196 53,46.556 			"/>
			
				<line fill="none" stroke="#000000" stroke-linecap="round" stroke-linejoin="round" x1="86.771" y1="55.516" x2="61.99" y2="55.516"/>
			<polyline fill="none" stroke="#000000" stroke-linecap="round" stroke-linejoin="round" points="61.99,55.516 74.351,34.196 
				74.37,34.156 74.381,34.136 			"/>
			<polyline fill="none" stroke="#000000" stroke-linecap="round" stroke-linejoin="round" points="74.381,34.136 74.401,34.166 
				74.41,34.187 86.771,55.516 			"/>
		</g>
	</g>
	<g id="valsimp3Blue">
		<g>
			<polygon fill="#0000FF" points="145.121,21.786 145.121,46.556 123.831,34.227 123.781,34.146 			"/>
			<polygon fill="#0000FF" points="123.831,34.227 136.171,55.516 111.391,55.516 123.751,34.187 			"/>
			<polygon fill="#0000FF" points="123.772,34.146 123.751,34.187 123.741,34.176 			"/>
			<polygon fill="#0000FF" points="123.741,34.176 102.351,46.556 102.351,21.786 			"/>
		</g>
		<g>
			<line fill="none" stroke="#000000" stroke-linecap="round" x1="102.351" y1="46.556" x2="102.351" y2="21.786"/>
			<polyline fill="none" stroke="#000000" stroke-linecap="round" points="102.351,21.786 123.741,34.176 123.751,34.187 
				123.831,34.227 145.121,46.556 			"/>
			<line fill="none" stroke="#000000" stroke-linecap="round" x1="145.121" y1="46.556" x2="145.121" y2="21.786"/>
			<polyline fill="none" stroke="#000000" stroke-linecap="round" points="123.772,34.146 123.741,34.176 102.351,46.556 			"/>
			<line fill="none" stroke="#000000" stroke-linecap="round" x1="145.121" y1="21.786" x2="123.781" y2="34.146"/>
			
				<line fill="none" stroke="#000000" stroke-linecap="round" stroke-linejoin="round" x1="136.171" y1="55.516" x2="111.391" y2="55.516"/>
			<polyline fill="none" stroke="#000000" stroke-linecap="round" stroke-linejoin="round" points="111.391,55.516 123.751,34.187 
				123.772,34.146 123.781,34.146 			"/>
			<polyline fill="none" stroke="#000000" stroke-linecap="round" stroke-linejoin="round" points="123.781,34.136 123.781,34.146 
				123.831,34.227 136.171,55.516 			"/>
		</g>
	</g>
	<g id="valsimp3White">
		<g>
			<polygon fill="#FFFFFF" points="169.66,34.096 169.8,34.336 169.781,34.346 169.58,34.236 			"/>
			<polygon fill="#FFFFFF" points="191.16,21.956 191.16,46.736 169.821,34.376 169.8,34.336 			"/>
			<polygon fill="#FFFFFF" points="169.821,34.376 182.05,55.476 157.271,55.476 169.38,34.576 169.781,34.346 			"/>
			<polygon fill="#FFFFFF" points="169.821,34.376 169.781,34.346 169.8,34.336 			"/>
			<polygon fill="#FFFFFF" points="169.781,34.346 169.38,34.576 169.58,34.236 			"/>
			<polygon fill="#FFFFFF" points="148.39,21.956 169.58,34.236 169.38,34.576 148.39,46.736 			"/>
		</g>
		<g>
			<line fill="none" stroke="#000000" stroke-linecap="round" x1="148.39" y1="46.736" x2="148.39" y2="21.956"/>
			<polyline fill="none" stroke="#000000" stroke-linecap="round" points="148.39,21.956 169.58,34.236 169.781,34.346 
				169.821,34.376 191.16,46.736 			"/>
			<line fill="none" stroke="#000000" stroke-linecap="round" x1="191.16" y1="46.736" x2="191.16" y2="21.956"/>
			<polyline fill="none" stroke="#000000" stroke-linecap="round" points="191.16,21.956 169.8,34.336 169.781,34.346 
				169.38,34.576 148.39,46.736 			"/>
			<line fill="none" stroke="#000000" stroke-linecap="round" x1="182.05" y1="55.476" x2="157.271" y2="55.476"/>
			<polyline fill="none" stroke="#000000" stroke-linecap="round" points="157.271,55.476 169.38,34.576 169.58,34.236 
				169.66,34.096 			"/>
			<polyline fill="none" stroke="#000000" stroke-linecap="round" points="169.66,34.096 169.8,34.336 169.821,34.376 
				182.05,55.476 			"/>
		</g>
	</g>
	<g id="valsimp3Grey">
		<g>
			<polygon fill="#848484" points="240.646,21.957 240.646,46.737 219.306,34.377 219.285,34.337 			"/>
			<polygon fill="#848484" points="219.146,34.097 219.285,34.337 219.266,34.347 219.066,34.237 			"/>
			<polygon fill="#848484" points="219.306,34.377 231.535,55.477 206.756,55.477 218.865,34.577 219.266,34.347 			"/>
			<polygon fill="#848484" points="219.306,34.377 219.266,34.347 219.285,34.337 			"/>
			<polygon fill="#848484" points="219.266,34.347 218.865,34.577 219.066,34.237 			"/>
			<polygon fill="#848484" points="197.875,21.957 219.066,34.237 218.865,34.577 197.875,46.737 			"/>
		</g>
		<g>
			<line fill="none" stroke="#000000" stroke-linecap="round" x1="197.875" y1="46.737" x2="197.875" y2="21.957"/>
			<polyline fill="none" stroke="#000000" stroke-linecap="round" points="197.875,21.957 219.066,34.237 219.266,34.347 
				219.306,34.377 240.646,46.737 			"/>
			<line fill="none" stroke="#000000" stroke-linecap="round" x1="240.646" y1="46.737" x2="240.646" y2="21.957"/>
			<polyline fill="none" stroke="#000000" stroke-linecap="round" points="240.646,21.957 219.285,34.337 219.266,34.347 
				218.865,34.577 197.875,46.737 			"/>
			<line fill="none" stroke="#000000" stroke-linecap="round" x1="231.535" y1="55.477" x2="206.756" y2="55.477"/>
			<polyline fill="none" stroke="#000000" stroke-linecap="round" points="206.756,55.477 218.865,34.577 219.066,34.237 
				219.146,34.097 			"/>
			<polyline fill="none" stroke="#000000" stroke-linecap="round" points="219.146,34.097 219.285,34.337 219.306,34.377 
				231.535,55.477 			"/>
		</g>
	</g>
	<g id="valsimp3Black">
		<g>
			<polygon fill="#020202" points="218.783,95.552 218.923,95.792 218.904,95.802 218.703,95.692 			"/>
			<polygon fill="#020202" points="240.283,83.412 240.283,108.192 218.944,95.832 218.923,95.792 			"/>
			<polygon fill="#020202" points="218.944,95.832 231.173,116.932 206.394,116.932 218.503,96.032 218.904,95.802 			"/>
			<polygon fill="#020202" points="218.944,95.832 218.904,95.802 218.923,95.792 			"/>
			<polygon fill="#020202" points="218.904,95.802 218.503,96.032 218.703,95.692 			"/>
			<polygon fill="#020202" points="197.513,83.412 218.703,95.692 218.503,96.032 197.513,108.192 			"/>
		</g>
		<g>
			<line fill="none" stroke="#000000" stroke-linecap="round" x1="197.513" y1="108.192" x2="197.513" y2="83.412"/>
			<polyline fill="none" stroke="#000000" stroke-linecap="round" points="197.513,83.412 218.703,95.692 218.904,95.802 
				218.944,95.832 240.283,108.192 			"/>
			<line fill="none" stroke="#000000" stroke-linecap="round" x1="240.283" y1="108.192" x2="240.283" y2="83.412"/>
			<polyline fill="none" stroke="#000000" stroke-linecap="round" points="240.283,83.412 218.923,95.792 218.904,95.802 
				218.503,96.032 197.513,108.192 			"/>
			<line fill="none" stroke="#000000" stroke-linecap="round" x1="231.173" y1="116.932" x2="206.394" y2="116.932"/>
			<polyline fill="none" stroke="#000000" stroke-linecap="round" points="206.394,116.932 218.503,96.032 218.703,95.692 
				218.783,95.552 			"/>
			<polyline fill="none" stroke="#000000" stroke-linecap="round" points="218.783,95.552 218.923,95.792 218.944,95.832 
				231.173,116.932 			"/>
		</g>
	</g>
	<g id="valsimp3Orange">
		<g>
			<polygon fill="#FF7D03" points="190.998,83.412 190.998,108.192 169.658,95.832 169.638,95.792 			"/>
			<polygon fill="#FF7D03" points="169.498,95.552 169.638,95.792 169.618,95.802 169.418,95.692 			"/>
			<polygon fill="#FF7D03" points="169.658,95.832 181.888,116.932 157.109,116.932 169.218,96.032 169.618,95.802 			"/>
			<polygon fill="#FF7D03" points="169.658,95.832 169.618,95.802 169.638,95.792 			"/>
			<polygon fill="#FF7D03" points="169.618,95.802 169.218,96.032 169.418,95.692 			"/>
			<polygon fill="#FF7D03" points="148.228,83.412 169.418,95.692 169.218,96.032 148.228,108.192 			"/>
		</g>
		<g>
			<line fill="none" stroke="#000000" stroke-linecap="round" x1="148.228" y1="108.192" x2="148.228" y2="83.412"/>
			<polyline fill="none" stroke="#000000" stroke-linecap="round" points="148.228,83.412 169.418,95.692 169.618,95.802 
				169.658,95.832 190.998,108.192 			"/>
			<line fill="none" stroke="#000000" stroke-linecap="round" x1="190.998" y1="108.192" x2="190.998" y2="83.412"/>
			<polyline fill="none" stroke="#000000" stroke-linecap="round" points="190.998,83.412 169.638,95.792 169.618,95.802 
				169.218,96.032 148.228,108.192 			"/>
			<line fill="none" stroke="#000000" stroke-linecap="round" x1="181.888" y1="116.932" x2="157.109" y2="116.932"/>
			<polyline fill="none" stroke="#000000" stroke-linecap="round" points="157.109,116.932 169.218,96.032 169.418,95.692 
				169.498,95.552 			"/>
			<polyline fill="none" stroke="#000000" stroke-linecap="round" points="169.498,95.552 169.638,95.792 169.658,95.832 
				181.888,116.932 			"/>
		</g>
	</g>
	<g id="valsimp3Brown">
		<g>
			<polygon fill="#724806" points="142.719,83.412 142.719,108.192 121.379,95.832 121.359,95.792 			"/>
			<polygon fill="#724806" points="121.379,95.832 133.609,116.932 108.829,116.932 120.939,96.032 121.339,95.802 			"/>
			<polygon fill="#724806" points="121.379,95.832 121.339,95.802 121.359,95.792 			"/>
			<polygon fill="#724806" points="121.219,95.552 121.359,95.792 121.339,95.802 121.139,95.692 			"/>
			<polygon fill="#724806" points="121.339,95.802 120.939,96.032 121.139,95.692 			"/>
			<polygon fill="#724806" points="99.948,83.412 121.139,95.692 120.939,96.032 99.948,108.192 			"/>
		</g>
		<g>
			<line fill="none" stroke="#000000" stroke-linecap="round" x1="99.948" y1="108.192" x2="99.948" y2="83.412"/>
			<polyline fill="none" stroke="#000000" stroke-linecap="round" points="99.948,83.412 121.139,95.692 121.339,95.802 
				121.379,95.832 142.719,108.192 			"/>
			<line fill="none" stroke="#000000" stroke-linecap="round" x1="142.719" y1="108.192" x2="142.719" y2="83.412"/>
			<polyline fill="none" stroke="#000000" stroke-linecap="round" points="142.719,83.412 121.359,95.792 121.339,95.802 
				120.939,96.032 99.948,108.192 			"/>
			<line fill="none" stroke="#000000" stroke-linecap="round" x1="133.609" y1="116.932" x2="108.829" y2="116.932"/>
			<polyline fill="none" stroke="#000000" stroke-linecap="round" points="108.829,116.932 120.939,96.032 121.139,95.692 
				121.219,95.552 			"/>
			<polyline fill="none" stroke="#000000" stroke-linecap="round" points="121.219,95.552 121.359,95.792 121.379,95.832 
				133.609,116.932 			"/>
		</g>
	</g>
	<g id="valsimp3Purple">
		<g>
			<polygon fill="#FF00FF" points="92.253,82.002 92.253,106.782 70.913,94.422 70.893,94.382 			"/>
			<polygon fill="#FF00FF" points="70.753,94.142 70.893,94.382 70.873,94.392 70.673,94.282 			"/>
			<polygon fill="#FF00FF" points="70.913,94.422 83.143,115.521 58.364,115.521 70.473,94.622 70.873,94.392 			"/>
			<polygon fill="#FF00FF" points="70.913,94.422 70.873,94.392 70.893,94.382 			"/>
			<polygon fill="#FF00FF" points="70.873,94.392 70.473,94.622 70.673,94.282 			"/>
			<polygon fill="#FF00FF" points="49.483,82.002 70.673,94.282 70.473,94.622 49.483,106.782 			"/>
		</g>
		<g>
			<line fill="none" stroke="#000000" stroke-linecap="round" x1="49.483" y1="106.782" x2="49.483" y2="82.002"/>
			<polyline fill="none" stroke="#000000" stroke-linecap="round" points="49.483,82.002 70.673,94.282 70.873,94.392 
				70.913,94.422 92.253,106.782 			"/>
			<line fill="none" stroke="#000000" stroke-linecap="round" x1="92.253" y1="106.782" x2="92.253" y2="82.002"/>
			<polyline fill="none" stroke="#000000" stroke-linecap="round" points="92.253,82.002 70.893,94.382 70.873,94.392 
				70.473,94.622 49.483,106.782 			"/>
			<line fill="none" stroke="#000000" stroke-linecap="round" x1="83.143" y1="115.521" x2="58.364" y2="115.521"/>
			<polyline fill="none" stroke="#000000" stroke-linecap="round" points="58.364,115.521 70.473,94.622 70.673,94.282 
				70.753,94.142 			"/>
			<polyline fill="none" stroke="#000000" stroke-linecap="round" points="70.753,94.142 70.893,94.382 70.913,94.422 
				83.143,115.521 			"/>
		</g>
	</g>
	<g id="valsimp3Yellow">
		<g>
			<polygon fill="#FFFF00" points="42.701,82.002 42.701,106.782 21.362,94.422 21.342,94.382 			"/>
			<polygon fill="#FFFF00" points="21.201,94.142 21.342,94.382 21.322,94.392 21.121,94.282 			"/>
			<polygon fill="#FFFF00" points="21.362,94.422 33.591,115.521 8.811,115.521 20.921,94.622 21.322,94.392 			"/>
			<polygon fill="#FFFF00" points="21.362,94.422 21.322,94.392 21.342,94.382 			"/>
			<polygon fill="#FFFF00" points="21.322,94.392 20.921,94.622 21.121,94.282 			"/>
			<polygon fill="#FFFF00" points="-0.069,82.002 21.121,94.282 20.921,94.622 -0.069,106.782 			"/>
		</g>
		<g>
			<line fill="none" stroke="#000000" stroke-linecap="round" x1="-0.069" y1="106.782" x2="-0.069" y2="82.002"/>
			<polyline fill="none" stroke="#000000" stroke-linecap="round" points="-0.069,82.002 21.121,94.282 21.322,94.392 
				21.362,94.422 42.701,106.782 			"/>
			<line fill="none" stroke="#000000" stroke-linecap="round" x1="42.701" y1="106.782" x2="42.701" y2="82.002"/>
			<polyline fill="none" stroke="#000000" stroke-linecap="round" points="42.701,82.002 21.342,94.382 21.322,94.392 
				20.921,94.622 -0.069,106.782 			"/>
			<line fill="none" stroke="#000000" stroke-linecap="round" x1="33.591" y1="115.521" x2="8.811" y2="115.521"/>
			<polyline fill="none" stroke="#000000" stroke-linecap="round" points="8.811,115.521 20.921,94.622 21.121,94.282 
				21.201,94.142 			"/>
			<polyline fill="none" stroke="#000000" stroke-linecap="round" points="21.201,94.142 21.342,94.382 21.362,94.422 
				33.591,115.521 			"/>
		</g>
	</g>
</g>
</svg>
